<?xml version="1.0" encoding="UTF-8"?>
<svg width="21px" height="21px" viewBox="0 0 21 21" version="1.1" xmlns="http://www.w3.org/2000/svg" xmlns:xlink="http://www.w3.org/1999/xlink">
    <!-- Generator: Sketch 55 (78076) - https://sketchapp.com -->
    <title>arrow</title>
    <desc>Created with Sketch.</desc>
    <g id="V4" stroke="none" stroke-width="1" fill="none" fill-rule="evenodd">
        <g id="Mes_influenceurs-Copy-2" transform="translate(-86.000000, -27.000000)" fill="#EC7C7C" fill-rule="nonzero">
            <g id="Group-3-Copy-2" transform="translate(86.000000, 24.000000)">
                <g id="arrow" transform="translate(0.000000, 3.000000)">
                    <path d="M19.5921689,5.22938472 C18.6531998,3.62077057 17.3795481,2.34712474 15.7708788,1.4082078 C14.161922,0.469338751 12.4055211,0 10.5003352,0 C8.59534082,0 6.83841316,0.469338751 5.22974378,1.4082078 C3.62097863,2.34698108 2.34732699,3.62062691 1.40835788,5.22938472 C0.469340892,6.83823831 0,8.59515796 0,10.5 C0,12.4049378 0.469484553,14.1615701 1.40821422,15.7705195 C2.34713544,17.3791337 3.62078708,18.6527795 5.22955223,19.5917922 C6.83841316,20.5306134 8.59519716,21 10.5001437,21 C12.4050902,21 14.1620657,20.5306134 15.7708309,19.5917922 C17.3795002,18.6531147 18.653104,17.3791337 19.5919773,15.7705195 C20.530707,14.1617138 21,12.404842 21,10.5 C21.0000479,8.59496641 20.530707,6.83799888 19.5921689,5.22938472 Z M16.0101703,11.1150584 L9.80295623,17.3223878 C9.6297488,17.4954029 9.42484015,17.5823174 9.18775141,17.5823174 C8.95061478,17.5823174 8.74551458,17.4954508 8.57240293,17.3223878 L7.1778844,15.9274446 C7.00467697,15.7544295 6.91804931,15.5492345 6.91804931,15.3122426 C6.91804931,15.0756338 7.00467697,14.8701515 7.1778844,14.6970406 L11.3753272,10.4999521 L7.17769285,6.30267208 C7.00448542,6.12970488 6.91785776,5.92446196 6.91785776,5.68756584 C6.91785776,5.45057396 7.00448542,5.24552258 7.17769285,5.07236383 L8.57221138,3.67742068 C8.74551458,3.50430981 8.95042323,3.41768255 9.18755986,3.41768255 C9.42460071,3.41768255 9.62970091,3.50430981 9.80290834,3.67742068 L16.0101224,9.88455855 C16.1831383,10.0576215 16.2696702,10.2627687 16.2696702,10.4997606 C16.2697181,10.7368482 16.1831862,10.9420433 16.0101703,11.1150584 Z" id="Shape"></path>
                </g>
            </g>
        </g>
    </g>
</svg>