<?xml version="1.0" encoding="UTF-8"?>
<svg width="201px" height="31px" viewBox="0 0 201 31" version="1.1" xmlns="http://www.w3.org/2000/svg" xmlns:xlink="http://www.w3.org/1999/xlink">
    <!-- Generator: Sketch 54.1 (76490) - https://sketchapp.com -->
    <title>Group 3 Copy 2</title>
    <desc>Created with Sketch.</desc>
    <g id="social-posts" stroke="none" stroke-width="1" fill="none" fill-rule="evenodd">
        <g id="Artboard" transform="translate(-21.000000, -96.000000)" fill-rule="nonzero">
            <g id="Group-3-Copy-2" transform="translate(21.000000, 92.000000)">
                <path d="M62.576,30 L56.159,30 L52.997,23.986 L48.781,23.986 L48.781,30 L43.108,30 L43.108,8.269 L52.873,8.269 C58.639,8.269 61.925,11.059 61.925,15.895 C61.925,19.181 60.561,21.599 58.05,22.901 L62.576,30 Z M48.781,12.795 L48.781,19.46 L52.904,19.46 C55.198,19.46 56.531,18.282 56.531,16.081 C56.531,13.942 55.198,12.795 52.904,12.795 L48.781,12.795 Z M72.052,8.269 L89.195,8.269 L89.195,12.795 L77.725,12.795 L77.725,16.856 L88.079,16.856 L88.079,21.351 L77.725,21.382 L77.725,25.474 L89.505,25.474 L89.505,30 L72.052,30 L72.052,8.269 Z M97.307,8.269 L103.414,8.269 L108.839,23.986 L114.295,8.269 L120.123,8.269 L111.629,30 L105.739,30 L97.307,8.269 Z M138.961,8.114 C145.688,8.114 150.71,12.826 150.71,19.119 C150.71,25.474 145.688,30.248 138.961,30.248 C132.234,30.248 127.212,25.474 127.212,19.119 C127.212,12.795 132.234,8.114 138.961,8.114 Z M139.023,12.95 C135.768,12.95 133.04,15.616 133.04,19.15 C133.04,22.684 135.799,25.412 139.023,25.412 C142.278,25.412 144.882,22.684 144.882,19.15 C144.882,15.616 142.278,12.95 139.023,12.95 Z M160.031,8.269 L165.704,8.269 L165.704,25.164 L174.911,25.164 L174.911,30 L160.031,30 L160.031,8.269 Z M182.093,8.269 L200.724,8.269 L200.724,12.95 L194.214,12.95 L194.214,30 L188.541,30 L188.541,12.95 L182.093,12.95 L182.093,8.269 Z" id="REVOLT" fill="#3F3F3F"></path>
                <g id="arrow" transform="translate(0.000000, 4.000000)" fill="#5C82F7">
                    <path d="M28.9217731,7.9705496 C27.5356758,5.67252938 25.6555234,3.85303534 23.280821,2.51172543 C20.9056945,1.17048393 18.3129122,0.5 15.5004948,0.5 C12.6883603,0.5 10.0948004,1.17048393 7.72009796,2.51172543 C5.34525417,3.85283011 3.46510175,5.67232415 2.0790045,7.9705496 C0.692836555,10.2689119 0,12.7787971 0,15.5 C0,18.2213397 0.693048626,20.7308145 2.07879243,23.0293136 C3.46481899,25.3273338 5.3449714,27.1468278 7.7198152,28.4882746 C10.0948004,29.8294477 12.6881482,30.5 15.5002121,30.5 C18.312276,30.5 20.9059065,29.8294477 23.2807503,28.4882746 C25.6554527,27.1473067 27.5355345,25.3273338 28.9214903,23.0293136 C30.3072341,20.7310197 31,18.2212029 31,15.5 C31.0000707,12.7785234 30.3072341,10.2685698 28.9217731,7.9705496 Z M23.6340609,16.3786548 L14.4710306,25.2462682 C14.2153435,25.4934327 13.9128593,25.6175964 13.5628711,25.6175964 C13.2128123,25.6175964 12.9100453,25.4935011 12.6544996,25.2462682 L10.5959246,23.2534923 C10.3402374,23.0063279 10.2123585,22.7131921 10.2123585,22.3746323 C10.2123585,22.0366197 10.3402374,21.7430735 10.5959246,21.4957723 L16.7921497,15.4999316 L10.5956418,9.50381726 C10.3399547,9.25672126 10.2120757,8.96351708 10.2120757,8.62509406 C10.2120757,8.28653423 10.3399547,7.99360369 10.5956418,7.74623404 L12.6542168,5.75345811 C12.9100453,5.50615688 13.2125295,5.38240364 13.5625884,5.38240364 C13.9125058,5.38240364 14.2152728,5.50615688 14.4709599,5.75345811 L23.6339902,14.6207979 C23.8893946,14.8680308 24.0171322,15.1610981 24.0171322,15.499658 C24.0172028,15.8383546 23.8894653,16.1314904 23.6340609,16.3786548 Z" id="Shape"></path>
                </g>
            </g>
        </g>
    </g>
</svg>