<?xml version="1.0" encoding="UTF-8"?>
<svg width="623px" height="107px" viewBox="0 0 623 107" version="1.1" xmlns="http://www.w3.org/2000/svg" xmlns:xlink="http://www.w3.org/1999/xlink">
    <!-- Generator: Sketch 55 (78076) - https://sketchapp.com -->
    <title>Group</title>
    <desc>Created with Sketch.</desc>
    <g id="social-posts" stroke="none" stroke-width="1" fill="none" fill-rule="evenodd">
        <g id="Artboard-Copy-6" transform="translate(-605.000000, -487.000000)" fill="#FFFFFF" fill-rule="nonzero">
            <g id="Group-3-Copy-2">
                <g id="Group" transform="translate(605.000000, 487.000000)">
                    <path d="M210.076,43.036 C210.076,53.3400515 205.997374,59.9946516 197.84,63 L214.124,86 L196.46,86 L182.2,65.484 L172.264,65.484 L172.264,86 L157.912,86 L157.912,21.692 L182.292,21.692 C192.289383,21.692 199.419312,23.3786498 203.682,26.752 C207.944688,30.1253502 210.076,35.5532959 210.076,43.036 Z M182.752,53.064 C187.658691,53.064 191.001324,52.2666746 192.78,50.672 C194.558676,49.0773254 195.448,46.5473507 195.448,43.082 C195.448,39.6166493 194.528009,37.2400064 192.688,35.952 C190.847991,34.6639936 187.628023,34.02 183.028,34.02 L172.264,34.02 L172.264,53.064 L182.752,53.064 Z M291.664,21.692 L291.664,34.48 L259.648,34.48 L259.648,47.728 L288.444,47.728 L288.444,59.964 L259.648,59.964 L259.648,73.304 L292.676,73.304 L292.676,86 L245.296,86 L245.296,21.692 L291.664,21.692 Z M349.7,62.632 L366.076,21.692 L381.624,21.692 L355.772,86 L343.628,86 L317.776,21.692 L333.324,21.692 L349.7,62.632 Z M457.508,53.524 C457.508,47.7586378 455.668018,42.8520202 451.988,38.804 C448.307982,34.7559798 443.784693,32.732 438.418,32.732 C433.051306,32.732 428.528018,34.7559798 424.848,38.804 C421.167982,42.8520202 419.328,47.7433047 419.328,53.478 C419.328,59.2126953 421.167982,64.0886466 424.848,68.106 C428.528018,72.1233534 433.051306,74.132 438.418,74.132 C443.784693,74.132 448.307982,72.1233534 451.988,68.106 C455.668018,64.0886466 457.508,59.2280285 457.508,53.524 Z M462.384,77.168 C455.882634,83.4853649 447.878714,86.644 438.372,86.644 C428.865286,86.644 420.861366,83.4700317 414.36,77.122 C407.858634,70.7739683 404.608,62.8773806 404.608,53.432 C404.608,43.9866194 407.858634,36.0900317 414.36,29.742 C420.861366,23.3939683 428.865286,20.22 438.372,20.22 C447.878714,20.22 455.882634,23.3939683 462.384,29.742 C468.885366,36.0900317 472.136,43.9866194 472.136,53.432 C472.136,62.8773806 468.885366,70.7893014 462.384,77.168 Z M504.78,86 L504.78,21.692 L519.132,21.692 L519.132,73.212 L546.548,73.212 L546.548,86 L504.78,86 Z M604.768,34.112 L604.768,86 L590.416,86 L590.416,34.112 L572.2,34.112 L572.2,21.692 L622.984,21.692 L622.984,34.112 L604.768,34.112 Z" id="REVOLT"></path>
                    <g id="arrow" transform="translate(0.500000, 0.000000)">
                        <path d="M98.8938048,26.6449603 C94.1542464,18.4486881 87.7253382,11.9591594 79.605388,7.17515404 C71.4839875,2.39139269 62.6183448,0 53.001692,0 C43.386006,0 34.5177045,2.39139269 26.3977543,7.17515404 C18.2773207,11.9584274 11.8484124,18.4479561 7.10885409,26.6449603 C2.36905403,34.8424524 0,43.7943763 0,53.5 C0,63.2061117 2.36977917,72.1565717 7.10812894,80.3545518 C11.8474456,88.5508239 18.2763538,95.0403526 26.3967875,99.824846 C34.5177045,104.608363 43.3852809,107 53.0007251,107 C62.6161694,107 71.4847126,104.608363 79.6051463,99.824846 C87.7250965,95.0420606 94.153763,88.5508239 98.8928379,80.3545518 C103.631188,72.1573037 106,63.2056237 106,53.5 C106.000242,43.7934003 103.631188,34.8412324 98.8938048,26.6449603 Z M80.8132405,56.6338688 L49.4815886,88.2616901 C48.6073035,89.1432432 47.5730027,89.5860937 46.376269,89.5860937 C45.1792936,89.5860937 44.144026,89.1434872 43.2702243,88.2616901 L36.231226,81.1541226 C35.3569409,80.2725695 34.9196775,79.227052 34.9196775,78.0195219 C34.9196775,76.8139437 35.3569409,75.7669622 36.231226,74.8849211 L57.4183184,53.499756 L36.2302591,32.1136149 C35.355974,31.2323058 34.9187106,30.1865443 34.9187106,28.9795022 C34.9187106,27.7719721 35.355974,26.7271865 36.2302591,25.8449014 L43.2692574,18.7373339 C44.144026,17.8552929 45.1783268,17.4139063 46.3753021,17.4139063 C47.5717941,17.4139063 48.6070617,17.8552929 49.4813469,18.7373339 L80.8129988,50.3641793 C81.6863171,51.2459764 82.1230971,52.2912499 82.1230971,53.49878 C82.1233388,54.7067981 81.6865588,55.7523157 80.8132405,56.6338688 Z" id="Shape"></path>
                    </g>
                </g>
            </g>
        </g>
    </g>
</svg>