<?xml version="1.0" encoding="UTF-8"?>
<svg width="151px" height="21px" viewBox="0 0 151 21" version="1.1" xmlns="http://www.w3.org/2000/svg" xmlns:xlink="http://www.w3.org/1999/xlink">
    <!-- Generator: Sketch 55 (78076) - https://sketchapp.com -->
    <title>Logo</title>
    <desc>Created with Sketch.</desc>
    <g id="V4" stroke="none" stroke-width="1" fill="none" fill-rule="evenodd">
        <g id="Mes_influenceurs-Copy-2" transform="translate(-86.000000, -27.000000)" fill-rule="nonzero">
            <g id="Group-3-Copy-2" transform="translate(86.000000, 27.000000)">
                <g id="Logo">
                    <path d="M45.366,7.726 C45.366,10.1900123 44.3906764,11.7813297 42.44,12.5 L46.334,18 L42.11,18 L38.7,13.094 L36.324,13.094 L36.324,18 L32.892,18 L32.892,2.622 L38.722,2.622 C41.1126786,2.622 42.8176616,3.0253293 43.837,3.832 C44.8563384,4.6386707 45.366,5.93665772 45.366,7.726 Z M38.832,10.124 C40.0053392,10.124 40.8046645,9.93333524 41.23,9.552 C41.6553355,9.17066476 41.868,8.56567081 41.868,7.737 C41.868,6.90832919 41.6480022,6.34000154 41.208,6.032 C40.7679978,5.72399846 39.9980055,5.57 38.898,5.57 L36.324,5.57 L36.324,10.124 L38.832,10.124 Z M66.474,2.622 L66.474,5.68 L58.818,5.68 L58.818,8.848 L65.704,8.848 L65.704,11.774 L58.818,11.774 L58.818,14.964 L66.716,14.964 L66.716,18 L55.386,18 L55.386,2.622 L66.474,2.622 Z M81.95,12.412 L85.866,2.622 L89.584,2.622 L83.402,18 L80.498,18 L74.316,2.622 L78.034,2.622 L81.95,12.412 Z M109.328,10.234 C109.328,8.85532644 108.888004,7.68200484 108.008,6.714 C107.127996,5.74599516 106.04634,5.262 104.763,5.262 C103.47966,5.262 102.398004,5.74599516 101.518,6.714 C100.637996,7.68200484 100.198,8.85165981 100.198,10.223 C100.198,11.5943402 100.637996,12.7603285 101.518,13.721 C102.398004,14.6816715 103.47966,15.162 104.763,15.162 C106.04634,15.162 107.127996,14.6816715 108.008,13.721 C108.888004,12.7603285 109.328,11.5980068 109.328,10.234 Z M110.494,15.888 C108.939326,17.3986742 107.025345,18.154 104.752,18.154 C102.478655,18.154 100.564674,17.3950076 99.01,15.877 C97.4553256,14.3589924 96.678,12.470678 96.678,10.212 C96.678,7.95332204 97.4553256,6.06500759 99.01,4.547 C100.564674,3.02899241 102.478655,2.27 104.752,2.27 C107.025345,2.27 108.939326,3.02899241 110.494,4.547 C112.048674,6.06500759 112.826,7.95332204 112.826,10.212 C112.826,12.470678 112.048674,14.362659 110.494,15.888 Z M122.23,18 L122.23,2.622 L125.662,2.622 L125.662,14.942 L132.218,14.942 L132.218,18 L122.23,18 Z M146.374,5.592 L146.374,18 L142.942,18 L142.942,5.592 L138.586,5.592 L138.586,2.622 L150.73,2.622 L150.73,5.592 L146.374,5.592 Z" id="REVOLT" fill="#3F3F3F"></path>
                    <g id="arrow" fill="#EC7C7C">
                        <path d="M19.5921689,5.22938472 C18.6531998,3.62077057 17.3795481,2.34712474 15.7708788,1.4082078 C14.161922,0.469338751 12.4055211,0 10.5003352,0 C8.59534082,0 6.83841316,0.469338751 5.22974378,1.4082078 C3.62097863,2.34698108 2.34732699,3.62062691 1.40835788,5.22938472 C0.469340892,6.83823831 0,8.59515796 0,10.5 C0,12.4049378 0.469484553,14.1615701 1.40821422,15.7705195 C2.34713544,17.3791337 3.62078708,18.6527795 5.22955223,19.5917922 C6.83841316,20.5306134 8.59519716,21 10.5001437,21 C12.4050902,21 14.1620657,20.5306134 15.7708309,19.5917922 C17.3795002,18.6531147 18.653104,17.3791337 19.5919773,15.7705195 C20.530707,14.1617138 21,12.404842 21,10.5 C21.0000479,8.59496641 20.530707,6.83799888 19.5921689,5.22938472 Z M16.0101703,11.1150584 L9.80295623,17.3223878 C9.6297488,17.4954029 9.42484015,17.5823174 9.18775141,17.5823174 C8.95061478,17.5823174 8.74551458,17.4954508 8.57240293,17.3223878 L7.1778844,15.9274446 C7.00467697,15.7544295 6.91804931,15.5492345 6.91804931,15.3122426 C6.91804931,15.0756338 7.00467697,14.8701515 7.1778844,14.6970406 L11.3753272,10.4999521 L7.17769285,6.30267208 C7.00448542,6.12970488 6.91785776,5.92446196 6.91785776,5.68756584 C6.91785776,5.45057396 7.00448542,5.24552258 7.17769285,5.07236383 L8.57221138,3.67742068 C8.74551458,3.50430981 8.95042323,3.41768255 9.18755986,3.41768255 C9.42460071,3.41768255 9.62970091,3.50430981 9.80290834,3.67742068 L16.0101224,9.88455855 C16.1831383,10.0576215 16.2696702,10.2627687 16.2696702,10.4997606 C16.2697181,10.7368482 16.1831862,10.9420433 16.0101703,11.1150584 Z" id="Shape"></path>
                    </g>
                </g>
            </g>
        </g>
    </g>
</svg>