<?xml version="1.0" encoding="utf-8"?>
<!-- Generator: Adobe Illustrator 21.1.0, SVG Export Plug-In . SVG Version: 6.00 Build 0)  -->
<svg version="1.1" id="Calque_1" xmlns="http://www.w3.org/2000/svg" xmlns:xlink="http://www.w3.org/1999/xlink" x="0px" y="0px"
	 viewBox="0 0 24 24" style="enable-background:new 0 0 24 24;" xml:space="preserve">
<style type="text/css">
	.st0{fill:none;}
	.st1{fill:#5C82F7;}
</style>
<path class="st0" d="M0,0h24v24H0V0z"/>
<path class="st1" d="M18.7,6.7c-0.4-0.4-1-0.4-1.4,0l-4.6,4.6c-0.4,0.4-0.4,1,0,1.4l4.6,4.6c0.4,0.4,1,0.4,1.4,0s0.4-1,0-1.4
	L14.8,12l3.9-3.9C19.1,7.7,19.1,7.1,18.7,6.7z"/>
<path class="st1" d="M10.7,6.7c-0.4-0.4-1-0.4-1.4,0l-4.6,4.6c-0.4,0.4-0.4,1,0,1.4l4.6,4.6c0.4,0.4,1,0.4,1.4,0s0.4-1,0-1.4L6.8,12
	l3.9-3.9C11.1,7.7,11.1,7.1,10.7,6.7z"/>
</svg>
