<?xml version="1.0" encoding="utf-8"?>
<!-- Generator: Adobe Illustrator 21.1.0, SVG Export Plug-In . SVG Version: 6.00 Build 0)  -->
<svg version="1.1" id="Calque_1" xmlns="http://www.w3.org/2000/svg" xmlns:xlink="http://www.w3.org/1999/xlink" x="0px" y="0px"
	 viewBox="0 0 24 24" style="enable-background:new 0 0 24 24;" xml:space="preserve">
<style type="text/css">
	.st0{fill:none;}
	.st1{fill:#D93031;}
	.st2{fill:#FFFFFF;}
</style>
<path class="st0" d="M0,0h24v24H0V0z"/>
<path class="st1" d="M12,2C6.5,2,2,6.5,2,12s4.5,10,10,10s10-4.5,10-10S17.5,2,12,2z"/>
<path class="st2" d="M17.3,6.7c-0.4-0.4-1-0.4-1.4,0L12,10.6L8.1,6.7c-0.4-0.4-1-0.4-1.4,0s-0.4,1,0,1.4l3.9,3.9l-3.9,3.9
	c-0.4,0.4-0.4,1,0,1.4s1,0.4,1.4,0l3.9-3.9l3.9,3.9c0.4,0.4,1,0.4,1.4,0s0.4-1,0-1.4L13.4,12l3.9-3.9C17.7,7.7,17.7,7.1,17.3,6.7z"
	/>
</svg>
