<?xml version="1.0" encoding="UTF-8"?>
<svg width="16px" height="19px" viewBox="0 0 16 19" version="1.1" xmlns="http://www.w3.org/2000/svg" xmlns:xlink="http://www.w3.org/1999/xlink">
    <!-- Generator: Sketch 55 (78076) - https://sketchapp.com -->
    <title>Shape</title>
    <desc>Created with Sketch.</desc>
    <g id="app" stroke="none" stroke-width="1" fill="none" fill-rule="evenodd">
        <g id="registerV2-Copy-15" transform="translate(-748.000000, -33.000000)" fill="#39424C" fill-rule="nonzero">
            <g id="menu" transform="translate(0.000000, 1.000000)">
                <g id="Group-6" transform="translate(748.000000, 32.000000)">
                    <path d="M14.2222222,4.44444444 L12.4444444,4.44444444 C12.4444444,1.99111111 10.4533333,-3.0375702e-13 8,-3.0375702e-13 C5.54666667,-3.0375702e-13 3.55555556,1.99111111 3.55555556,4.44444444 L1.77777778,4.44444444 C0.8,4.44444444 0,5.24444444 0,6.22222222 L0,16.8888889 C0,17.8666667 0.8,18.6666667 1.77777778,18.6666667 L14.2222222,18.6666667 C15.2,18.6666667 16,17.8666667 16,16.8888889 L16,6.22222222 C16,5.24444444 15.2,4.44444444 14.2222222,4.44444444 Z M8,1.77777778 C9.47555556,1.77777778 10.6666667,2.96888889 10.6666667,4.44444444 L5.33333333,4.44444444 C5.33333333,2.96888889 6.52444444,1.77777778 8,1.77777778 Z M8,10.6666667 C5.92888889,10.6666667 4.18666667,9.25333333 3.69777778,7.33333333 C3.54666667,6.77333333 3.98222222,6.22222222 4.56,6.22222222 C4.97777778,6.22222222 5.31555556,6.52444444 5.43111111,6.93333333 C5.74222222,8.06222222 6.77333333,8.88888889 8,8.88888889 C9.22666667,8.88888889 10.2577778,8.06222222 10.5688889,6.93333333 C10.6844444,6.52444444 11.0222222,6.22222222 11.44,6.22222222 C12.0177778,6.22222222 12.4444444,6.77333333 12.3022222,7.33333333 C11.8133333,9.25333333 10.0711111,10.6666667 8,10.6666667 Z" id="Shape"></path>
                </g>
            </g>
        </g>
    </g>
</svg>