<?xml version="1.0" encoding="utf-8"?>
<!-- Generator: Adobe Illustrator 21.1.0, SVG Export Plug-In . SVG Version: 6.00 Build 0)  -->
<svg version="1.1" id="Calque_1" xmlns="http://www.w3.org/2000/svg" xmlns:xlink="http://www.w3.org/1999/xlink" x="0px" y="0px"
	 viewBox="0 0 24 24" style="enable-background:new 0 0 24 24;" xml:space="preserve">
<style type="text/css">
	.st0{fill:none;}
	.st1{fill:#39424C;}
</style>
<path class="st0" d="M0,0h24v24H0V0z"/>
<path class="st1" d="M12,2C6.5,2,2,6.5,2,12s4.5,10,10,10c5.5,0,10-4.5,10-10S17.5,2,12,2z M15.2,17.4L12,15.4l-3.2,1.9
	c-0.4,0.2-0.8-0.1-0.8-0.5l0.9-3.7l-2.8-2.4c-0.3-0.3-0.2-0.8,0.3-0.9l3.7-0.3l1.5-3.4c0.2-0.4,0.8-0.4,0.9,0l1.5,3.4l3.7,0.3
	c0.4,0,0.6,0.6,0.3,0.9l-2.8,2.4l0.9,3.7C16.1,17.3,15.6,17.6,15.2,17.4z"/>
</svg>
