<?xml version="1.0" encoding="UTF-8"?>
<svg width="16px" height="13px" viewBox="0 0 16 13" version="1.1" xmlns="http://www.w3.org/2000/svg" xmlns:xlink="http://www.w3.org/1999/xlink">
    <!-- Generator: Sketch 52.4 (67378) - http://www.bohemiancoding.com/sketch -->
    <title>Shape</title>
    <desc>Created with Sketch.</desc>
    <g id="Page-1" stroke="none" stroke-width="1" fill="none" fill-rule="evenodd">
        <g id="Mes_influenceurs-Copy" transform="translate(-252.000000, -36.000000)" fill="#FFFFFF" fill-rule="nonzero">
            <g id="Group-13">
                <g id="Group-8" transform="translate(237.000000, 28.000000)">
                    <path d="M29.4,14.4 C29.4,13.792 29.744,13.264 30.248,12.992 C30.728,12.728 31,12.184 31,11.632 L31,9.6 C31,8.72 30.28,8 29.4,8 L16.6,8 C15.72,8 15.008,8.712 15.008,9.592 L15.008,11.632 C15.008,12.184 15.272,12.728 15.76,12.984 C16.264,13.264 16.6,13.792 16.6,14.4 C16.6,15.008 16.256,15.544 15.752,15.808 C15.272,16.072 15,16.616 15,17.168 L15,18.968 C15,20.08 15.72,20.8 16.6,20.8 L29.4,20.8 C30.28,20.8 31,20.08 31,19.2 L31,17.168 C31,16.616 30.728,16.072 30.248,15.808 C29.744,15.536 29.4,15.008 29.4,14.4 Z M25,17.68 L23,16.4 L21,17.688 C20.696,17.88 20.304,17.6 20.4,17.248 L21,14.944 L19.16,13.44 C18.88,13.208 19.024,12.752 19.392,12.728 L21.76,12.592 L22.624,10.392 C22.76,10.056 23.24,10.056 23.368,10.392 L24.232,12.6 L26.6,12.736 C26.96,12.76 27.112,13.216 26.832,13.448 L24.992,14.952 L25.6,17.24 C25.696,17.6 25.304,17.88 25,17.68 Z" id="Shape"></path>
                </g>
            </g>
        </g>
    </g>
</svg>