<?xml version="1.0" encoding="utf-8"?>
<!-- Generator: Adobe Illustrator 21.1.0, SVG Export Plug-In . SVG Version: 6.00 Build 0)  -->
<svg version="1.1" id="Calque_1" xmlns="http://www.w3.org/2000/svg" xmlns:xlink="http://www.w3.org/1999/xlink" x="0px" y="0px"
	 viewBox="0 0 16 16" style="enable-background:new 0 0 16 16;" xml:space="preserve">
<style type="text/css">
	.st0{fill:#39424C;}
</style>
<title>Shape</title>
<desc>Created with Sketch.</desc>
<g id="Page-1">
	<g id="Mes_influenceurs-Copy" transform="translate(-876.000000, -34.000000)">
		<g id="Group-13">
			<g id="Group-5" transform="translate(876.000000, 34.000000)">
				<path id="Shape" class="st0" d="M8,1.6C4.5,1.6,1.6,4.5,1.6,8s2.9,6.4,6.4,6.4s6.4-2.9,6.4-6.4S11.5,1.6,8,1.6z M8,3.5
					c1.1,0,1.9,0.9,1.9,1.9s-0.8,2-1.9,2s-1.9-0.9-1.9-2S6.9,3.5,8,3.5z M8,12.6c-1.6,0-3-0.8-3.9-2.1c0-1.3,2.6-2,3.9-2
					s3.8,0.7,3.9,2C11,11.8,9.6,12.6,8,12.6z"/>
			</g>
		</g>
	</g>
</g>
</svg>
