<?xml version="1.0" encoding="UTF-8"?>
<svg width="184px" height="163px" viewBox="0 0 184 163" version="1.1" xmlns="http://www.w3.org/2000/svg" xmlns:xlink="http://www.w3.org/1999/xlink">
    <!-- Generator: Sketch 54.1 (76490) - https://sketchapp.com -->
    <title>undraw_like_dislike_1dfj</title>
    <desc>Created with Sketch.</desc>
    <g id="V4" stroke="none" stroke-width="1" fill="none" fill-rule="evenodd">
        <g id="registerV2-Copy-18" transform="translate(-420.000000, -403.000000)" fill-rule="nonzero">
            <g id="Group-9" transform="translate(194.000000, 229.000000)">
                <g id="undraw_like_dislike_1dfj" transform="translate(226.000000, 174.000000)">
                    <polygon id="Path" fill="#5C82F7" points="144.72691 163 21.5 119.549978 56.5392803 19 183.5 58.3924483"></polygon>
                    <rect id="Rectangle" fill="#2F2E41" x="19.5" y="162" width="148" height="1"></rect>
                    <path d="M144.757668,162 L144.247864,161.741813 C150.868642,149.190924 147.328276,132.891668 143.192669,121.42845 C140.384467,113.72349 136.802659,106.311111 132.5,99.3004863 L132.984878,99 C137.309874,106.04626 140.910354,113.496363 143.733286,121.240578 C147.906994,132.808711 151.472289,149.270577 144.757668,162 Z" id="Path" fill="#2F2E41"></path>
                    <polygon id="Rectangle" fill="#2F2E41" transform="translate(147.455667, 109.286376) rotate(-79.644778) translate(-147.455667, -109.286376) " points="137.225104 109.01145 157.686638 108.99669 157.68623 109.561301 137.224695 109.576062"></polygon>
                    <polygon id="Rectangle" fill="#2F2E41" transform="translate(133.901870, 126.721333) rotate(-42.939680) translate(-133.901870, -126.721333) " points="133.647234 112.806202 134.21323 112.805049 134.156506 140.636464 133.590511 140.637618"></polygon>
                    <polygon id="Rectangle" fill="#2F2E41" transform="translate(154.090576, 145.575150) rotate(-54.137150) translate(-154.090576, -145.575150) " points="145.879452 145.308276 162.302799 145.276425 162.301701 145.842024 145.878353 145.873875"></polygon>
                    <circle id="Oval" fill="#3F3D56" cx="120.5" cy="113" r="3"></circle>
                    <circle id="Oval" fill="#3F3D56" cx="132.5" cy="116" r="3"></circle>
                    <circle id="Oval" fill="#F2F2F2" cx="126.5" cy="127" r="3"></circle>
                    <circle id="Oval" fill="#3F3D56" cx="162.5" cy="134" r="3"></circle>
                    <circle id="Oval" fill="#F2F2F2" cx="153.5" cy="137" r="3"></circle>
                    <circle id="Oval" fill="#3F3D56" cx="158.5" cy="146" r="3"></circle>
                    <circle id="Oval" fill="#3F3D56" cx="129.5" cy="95" r="3"></circle>
                    <path d="M147.89668,127 L147.5,126.597673 C157.536834,116.567987 159.237994,99.8599573 158.897904,87.6099494 C158.642738,79.3675092 157.575414,71.170985 155.711652,63.1410999 L156.256663,63 C158.130336,71.0708427 159.203507,79.3092156 159.460369,87.5937783 C159.8038,99.9559822 158.075967,116.827531 147.89668,127 Z" id="Path" fill="#2F2E41"></path>
                    <polygon id="Rectangle" fill="#2F2E41" transform="translate(166.900085, 77.446459) rotate(-61.765500) translate(-166.900085, -77.446459) " points="156.677768 77.1813267 177.123365 77.146535 177.122401 77.7115905 156.676805 77.7463823"></polygon>
                    <polygon id="Rectangle" fill="#2F2E41" transform="translate(148.670004, 89.862455) rotate(-25.060090) translate(-148.670004, -89.862455) " points="148.409157 75.9310021 148.974494 75.9301143 148.930852 103.793907 148.365515 103.794795"></polygon>
                    <polygon id="Rectangle" fill="#2F2E41" transform="translate(162.118830, 114.029376) rotate(-36.257560) translate(-162.118830, -114.029376) " points="153.918006 113.762218 170.320757 113.730225 170.319654 114.296534 153.916903 114.328527"></polygon>
                    <circle id="Oval" fill="#F2F2F2" cx="175.5" cy="61" r="3"></circle>
                    <circle id="Oval" fill="#3F3D56" cx="139.5" cy="72" r="3"></circle>
                    <circle id="Oval" fill="#3F3D56" cx="150.5" cy="79" r="3"></circle>
                    <circle id="Oval" fill="#F2F2F2" cx="141.5" cy="87" r="3"></circle>
                    <circle id="Oval" fill="#3F3D56" cx="173.5" cy="105" r="3"></circle>
                    <circle id="Oval" fill="#3F3D56" cx="163.5" cy="105" r="3"></circle>
                    <circle id="Oval" fill="#3F3D56" cx="166.5" cy="116" r="3"></circle>
                    <circle id="Oval" fill="#3F3D56" cx="154.5" cy="58" r="3"></circle>
                    <path d="M64.957632,24.7926107 C62.80934,22.7767802 62.5084896,19.3891757 64.2655767,17 C64.1534092,17.1091094 64.0437634,17.2224159 63.9388008,17.342861 C61.8751716,19.7108644 62.0525023,23.3661728 64.3348799,25.5072211 C66.6172575,27.6482693 70.1403922,27.4642861 72.2040215,25.0962829 C72.3089819,24.9758401 72.4066188,24.8512767 72.5,24.7245334 C70.3852853,26.7782293 67.1064647,26.8078239 64.957632,24.7926107 Z" id="Path" fill="#2F2E41"></path>
                    <circle id="Oval" fill="#2F2E41" cx="64.5" cy="15" r="12"></circle>
                    <path d="M32.7957751,159 C32.7957751,159 29.8802811,162 32.7957751,162 C35.7112692,162 38.5,160.043478 38.5,160.043478 L32.7957751,159 Z" id="Path" fill="#2F2E41"></path>
                    <path d="M78.6421808,157.263725 C78.6421808,157.263725 77.7516239,161.204671 80.4281201,159.62744 C83.1046164,158.05021 84.5,155 84.5,155 L78.6421808,157.263725 Z" id="Path" fill="#2F2E41"></path>
                    <path d="M44.5716744,56 L42.5036535,60.7344322 L29.8197809,77.2373075 C29.8197809,77.2373075 21.1340886,86.4356318 25.959474,86.9767027 C30.7848594,87.5177737 33.9558252,78.4547262 33.9558252,78.4547262 L48.8455828,63.9808919 L50.5,57.3526887 L44.5716744,56 Z" id="Path" fill="#FFB8B8"></path>
                    <path d="M50.5,37 L48.5066177,37.5487058 C48.5066177,37.5487058 40.7362426,51.0616005 41.5613497,53.9009554 C42.3864568,56.7403103 46.0994398,60.2557179 47.7496446,59.9853037 C49.3998495,59.7148894 50.5,37 50.5,37 Z" id="Path" fill="#2F2E41"></path>
                    <path d="M56.6333341,22.4730354 C56.6333341,22.4730354 58.6333331,30.717826 57.1666673,32.3135917 C55.7000015,33.9093574 52.5,35.1061823 52.5,35.1061823 L53.0333332,50 C53.0333332,50 59.1666686,47.8723102 59.4333341,47.6063503 C59.6999996,47.3403905 65.1666656,38.6966635 65.1666656,38.6966635 L70.5,33.6434043 C70.5,33.6434043 62.3666656,29.78697 64.7666662,23.1379361 C67.1666668,16.4889023 56.6333341,22.4730354 56.6333341,22.4730354 Z" id="Path" fill="#FFB8B8"></path>
                    <circle id="Oval" fill="#FFB8B8" cx="61.5" cy="18" r="7"></circle>
                    <path d="M53.8679689,34.3581444 C53.8679689,34.3581444 48.8506906,35.716291 48.5794852,37.6176959 C48.3082799,39.5191008 48.5794852,43.457721 48.1726795,44.2726095 C47.7658738,45.087498 46.5454543,46.3098272 47.0878627,51.4707813 C47.6302711,56.6317354 47.3590657,59.7554718 47.3590657,59.7554718 C47.3590657,59.7554718 19.8318352,156.998709 29.5951865,159.850806 C39.3585378,162.702903 53.7323662,159.579178 53.5967567,157.677773 C53.4611472,155.776368 51.0203173,118.15573 51.0203173,118.15573 C51.0203173,118.15573 65.2585408,168.135497 82.8868174,156.455435 C100.515094,144.775373 96.5826325,142.602349 94.9554073,141.787461 C93.3281821,140.972572 68.7842035,102.265434 68.9198039,95.0672621 C69.0554042,87.8690903 68.6486008,65.323869 65.6653534,61.9285046 C65.6653534,61.9285046 68.7842035,51.6065964 70.275826,50.2484521 C71.7674486,48.8903077 75.428707,36.1237341 75.428707,36.1237341 C75.428707,36.1237341 73.1234707,33 71.2250402,33 C69.3266096,33 67.563784,33.6790733 65.3941504,35.7163025 C63.2245167,37.7535316 55.2240002,47.6679739 55.2240002,47.6679739 C55.2240002,47.6679739 52.6475494,36.2595492 53.8679689,34.3581444 Z" id="Path" fill="#2F2E41"></path>
                    <ellipse id="Oval" fill="#2F2E41" cx="61.5" cy="12" rx="6" ry="4"></ellipse>
                    <circle id="Oval" fill="#2F2E41" cx="72" cy="5.5" r="5.5"></circle>
                    <path d="M76,10.0769183 C73.1405246,10.0765171 70.7584732,7.86947879 70.5204939,5 C70.5079939,5.15233664 70.5,5.30595894 70.5,5.46154531 C70.5,8.52034937 72.9624339,11 76,11 C79.0375661,11 81.5,8.52034937 81.5,5.46154531 C81.5,5.30596561 81.4920083,5.15234332 81.4795083,5 C81.2415279,7.86947914 78.8594759,10.0765172 76,10.0769183 Z" id="Path" fill="#2F2E41"></path>
                    <rect id="Rectangle" fill="#3F3D56" x="0.5" y="58" width="28" height="28"></rect>
                    <path d="M9.50000481,70.8478208 C9.50000481,70.8478208 13.2302702,70.3595626 14.4736904,67.2672588 C15.7171106,64.174955 16.7828976,61.5709116 18.9144812,62.0591699 C21.0460649,62.5474282 19.8026375,68.7320335 19.8026375,68.7320335 C19.8026375,68.7320335 24.2434283,68.2437753 24.4210519,69.7085501 C24.5681241,70.9213257 24.4716582,75.5927751 24.4341117,77.1642247 C24.4262867,77.8001393 24.2131394,78.4196946 23.8215453,78.9447718 C23.2562126,79.7300846 22.2338538,80.1303936 21.2236836,79.9619758 C20.2382959,79.8494038 19.2453558,79.8018263 18.2525277,79.8196105 C16.4730038,79.8404354 14.7262122,79.3804893 13.2302654,78.4972032 L13.2302654,78.4972032 L9.5,78.3344512 L9.50000481,70.8478208 Z" id="Path" fill="#F2F2F2"></path>
                    <rect id="Rectangle" fill="#5C82F7" x="4.5" y="68" width="7" height="13"></rect>
                    <path d="M16.1659403,63.9999422 C15.9405023,64.0003801 15.7161918,63.9673261 15.5,63.9018103 L15.5445091,63.7485078 C16.1436807,63.9313699 16.7903587,63.8455634 17.3243817,63.5123398 C17.8584047,63.1791162 18.2298279,62.6296404 18.3466617,62 L18.5,62.0298468 C18.2884462,63.1784566 17.3060495,64.007664 16.1659403,63.9999466 L16.1659403,63.9999422 Z" id="Path" fill="#3F3D56"></path>
                    <path d="M89.1659382,114.00006 C88.9405008,113.999621 88.7161909,114.032675 88.5,114.098192 L88.5445091,114.251492 C89.1436807,114.068632 89.790358,114.154439 90.3243807,114.487662 C90.8584033,114.820885 91.2298267,115.37036 91.3466617,116 L91.5,115.970153 C91.288446,114.821543 90.3060482,113.992335 89.1659382,114.000053 L89.1659382,114.00006 Z" id="Path" fill="#3F3D56"></path>
                    <path d="M75.7698349,55 L75.073186,62.6603715 L76.4664837,85.6414838 C76.4664837,85.6414838 79.6710675,97.2688213 74.7945279,96.995247 C69.9179884,96.7216728 71.7292744,84.8207311 71.7292744,84.8207311 L69.5,58.1462248 L75.7698349,55 Z" id="Path" fill="#FFB8B8"></path>
                    <path d="M71.8621388,34 L75.520689,35.8873989 C75.520689,35.8873989 80.4456735,52.3347451 77.6313953,55.4354754 C74.8171171,58.5362056 69.0478535,59.7495325 68.7664247,58.5362034 C68.4849959,57.3228742 67.5,48.2903154 67.5,48.2903154 L71.8621388,34 Z" id="Path" fill="#2F2E41"></path>
                </g>
            </g>
        </g>
    </g>
</svg>