<?xml version="1.0" encoding="UTF-8"?>
<svg width="347px" height="267px" viewBox="0 0 347 267" version="1.1" xmlns="http://www.w3.org/2000/svg" xmlns:xlink="http://www.w3.org/1999/xlink">
    <!-- Generator: Sketch 55 (78076) - https://sketchapp.com -->
    <title>Group</title>
    <desc>Created with Sketch.</desc>
    <defs>
        <linearGradient x1="50%" y1="100%" x2="50%" y2="0%" id="linearGradient-1">
            <stop stop-color="#808080" stop-opacity="0.25" offset="0%"></stop>
            <stop stop-color="#808080" stop-opacity="0.12" offset="54%"></stop>
            <stop stop-color="#808080" stop-opacity="0.1" offset="100%"></stop>
        </linearGradient>
        <linearGradient x1="49.9926606%" y1="100.016254%" x2="49.9926606%" y2="-0.0618055991%" id="linearGradient-2">
            <stop stop-color="#808080" stop-opacity="0.25" offset="0%"></stop>
            <stop stop-color="#808080" stop-opacity="0.12" offset="54%"></stop>
            <stop stop-color="#808080" stop-opacity="0.1" offset="100%"></stop>
        </linearGradient>
    </defs>
    <g id="V4" stroke="none" stroke-width="1" fill="none" fill-rule="evenodd">
        <g id="Mes_influenceurs-Copy-4" transform="translate(-591.000000, -137.000000)">
            <g id="Group" transform="translate(591.000000, 137.000000)">
                <g id="undraw_online_shopping_ga73">
                    <path d="M217.421799,42.8846064 C203.003458,52.010455 184.301902,51.4166264 167.915873,46.6728233 C151.529845,41.9290202 136.473796,33.4686691 120.514044,27.4587142 C107.107786,22.4175461 93.1105394,19.1188623 78.8652274,17.6434783 C58.5165427,15.5377758 35.7943562,18.1007946 21.6147298,32.8543637 C5.82548722,49.2870342 7.03610949,78.9272718 24.114409,94.0050577 C32.8001975,101.67705 44.1766366,105.441377 54.0969188,111.430855 C64.017201,117.420333 73.1940589,127.368669 72.3517386,138.931262 C71.5708019,149.633828 62.4791992,157.848457 53.0704476,163.001797 C45.7964833,166.984544 36.8378785,171.332462 35.9614562,179.581219 C35.1157257,187.563777 42.6454552,193.819454 49.8375746,197.3756 C73.2997752,208.979147 102.204661,208.866524 125.574786,197.082098 C133.912734,192.877519 141.578871,187.287339 150.322633,184.011043 C173.283534,175.407354 198.580424,184.069061 222.891765,187.236147 C243.535016,189.911045 264.501427,188.530378 284.61645,183.171493 C296.654469,179.956628 308.74023,175.042184 317.197535,165.88562 C323.294979,159.281837 327.087125,150.927283 330.664429,142.678526 C334.467943,133.878031 338.123681,125.016106 341.631643,116.092751 C343.739149,110.734643 345.812553,105.27415 346.354775,99.5406323 C347.340324,89.1554575 343.190107,78.889731 337.532579,70.1222272 C324.096377,49.3075111 301.483317,34.6733903 276.998055,30.9568424 C252.512793,27.2402945 226.598656,34.5061627 207.603823,50.3859584" id="Path" fill="#EC7C7C" fill-rule="nonzero" opacity="0.1"></path>
                    <ellipse id="Oval" fill="#EC7C7C" fill-rule="nonzero" opacity="0.1" cx="47" cy="258" rx="46.5" ry="9"></ellipse>
                    <ellipse id="Oval" fill="#EC7C7C" fill-rule="nonzero" opacity="0.1" cx="184.5" cy="239" rx="97" ry="9"></ellipse>
                    <path d="M250.5,175 C250.5,175 264.190451,150.984295 284.820509,144.071198 C293.47271,141.165251 301.026654,135.703428 306.19189,128.23973 C308.636294,124.691486 310.747795,120.929232 312.5,117" id="Path" stroke="#535461" stroke-width="2"></path>
                    <path d="M324.711509,112.30664 C322.374849,114.613369 311.5,117 311.5,117 C311.5,117 314.170956,106.004823 316.504204,103.69462 C318.839353,101.386507 322.569633,101.443277 324.836017,103.821421 C327.102402,106.199565 327.046658,109.998527 324.711509,112.30664 Z" id="Path" fill="#EC7C7C" fill-rule="nonzero"></path>
                    <path d="M318.750179,131.930253 C315.637966,132.573742 305.5,128.552803 305.5,128.552803 C305.5,128.552803 313.403557,120.789191 316.512445,120.142223 C318.545823,119.671346 320.663584,120.388382 322.0476,122.016327 C323.431617,123.644272 323.865182,125.928227 323.180803,127.98586 C322.496424,130.043493 320.801259,131.552625 318.750179,131.930253 L318.750179,131.930253 Z" id="Path" fill="#EC7C7C" fill-rule="nonzero"></path>
                    <path d="M296.552936,152.620984 C293.485939,151.536317 286.5,142.71645 286.5,142.71645 C286.5,142.71645 297.333317,140.185562 300.403722,141.270228 C302.43963,141.933956 303.963168,143.670974 304.384371,145.808653 C304.805575,147.946333 304.058308,150.149013 302.431935,151.563746 C300.805562,152.978479 298.555459,153.383122 296.552936,152.620984 L296.552936,152.620984 Z" id="Path" fill="#EC7C7C" fill-rule="nonzero"></path>
                    <path d="M275.80287,164.930142 C272.664481,164.390097 264.5,156.878242 264.5,156.878242 C264.5,156.878242 274.538843,152.509102 277.677232,153.045663 C279.707615,153.395444 281.40514,154.850243 282.130367,156.862052 C282.855594,158.87386 282.498342,161.137037 281.193186,162.799065 C279.88803,164.461093 277.833253,165.269471 275.80287,164.91969 L275.80287,164.930142 Z" id="Path" fill="#EC7C7C" fill-rule="nonzero"></path>
                    <path d="M295.5,119.611427 C295.5,122.787643 301.49479,132 301.49479,132 C301.49479,132 307.496527,122.790972 307.5,119.614756 C307.42162,116.492201 304.758422,114 301.5,114 C298.241578,114 295.57838,116.492201 295.5,119.614756 L295.5,119.611427 Z" id="Path" fill="#EC7C7C" fill-rule="nonzero"></path>
                    <path d="M271.790513,134.655376 C272.784898,137.758081 281.416851,145 281.416851,145 C281.416851,145 284.284864,134.239409 283.29048,131.136704 C282.296169,128.029669 278.912642,126.298601 275.73316,127.270256 C272.553678,128.24191 270.782246,131.548341 271.776557,134.655376 L271.790513,134.655376 Z" id="Path" fill="#EC7C7C" fill-rule="nonzero"></path>
                    <path d="M250.554231,151.507701 C250.996219,154.652542 258.238566,163 258.238566,163 C258.238566,163 262.912507,153.123338 262.470518,149.978498 C262.028441,146.835281 259.002515,144.629524 255.711923,145.051802 C252.421331,145.47408 250.112154,148.364484 250.554231,151.507701 L250.554231,151.507701 Z" id="Path" fill="#EC7C7C" fill-rule="nonzero"></path>
                    <path d="M324.711509,112.30664 C322.374849,114.613369 311.5,117 311.5,117 C311.5,117 314.170956,106.004823 316.504204,103.69462 C318.839353,101.386507 322.569633,101.443277 324.836017,103.821421 C327.102402,106.199565 327.046658,109.998527 324.711509,112.30664 Z" id="Path" fill="#000000" fill-rule="nonzero" opacity="0.25"></path>
                    <path d="M318.750179,131.930253 C315.637966,132.573742 305.5,128.552803 305.5,128.552803 C305.5,128.552803 313.403557,120.789191 316.512445,120.142223 C318.545823,119.671346 320.663584,120.388382 322.0476,122.016327 C323.431617,123.644272 323.865182,125.928227 323.180803,127.98586 C322.496424,130.043493 320.801259,131.552625 318.750179,131.930253 L318.750179,131.930253 Z" id="Path" fill="#000000" fill-rule="nonzero" opacity="0.25"></path>
                    <path d="M296.552936,152.620984 C293.485939,151.536317 286.5,142.71645 286.5,142.71645 C286.5,142.71645 297.333317,140.185562 300.403722,141.270228 C302.43963,141.933956 303.963168,143.670974 304.384371,145.808653 C304.805575,147.946333 304.058308,150.149013 302.431935,151.563746 C300.805562,152.978479 298.555459,153.383122 296.552936,152.620984 L296.552936,152.620984 Z" id="Path" fill="#000000" fill-rule="nonzero" opacity="0.25"></path>
                    <path d="M275.80287,164.930142 C272.664481,164.390097 264.5,156.878242 264.5,156.878242 C264.5,156.878242 274.538843,152.509102 277.677232,153.045663 C279.707615,153.395444 281.40514,154.850243 282.130367,156.862052 C282.855594,158.87386 282.498342,161.137037 281.193186,162.799065 C279.88803,164.461093 277.833253,165.269471 275.80287,164.91969 L275.80287,164.930142 Z" id="Path" fill="#000000" fill-rule="nonzero" opacity="0.25"></path>
                    <path d="M295.5,119.611427 C295.5,122.787643 301.49479,132 301.49479,132 C301.49479,132 307.496527,122.790972 307.5,119.614756 C307.42162,116.492201 304.758422,114 301.5,114 C298.241578,114 295.57838,116.492201 295.5,119.614756 L295.5,119.611427 Z" id="Path" fill="#000000" fill-rule="nonzero" opacity="0.25"></path>
                    <path d="M271.790513,134.655376 C272.784898,137.758081 281.416851,145 281.416851,145 C281.416851,145 284.284864,134.239409 283.29048,131.136704 C282.296169,128.029669 278.912642,126.298601 275.73316,127.270256 C272.553678,128.24191 270.782246,131.548341 271.776557,134.655376 L271.790513,134.655376 Z" id="Path" fill="#000000" fill-rule="nonzero" opacity="0.25"></path>
                    <path d="M250.554231,151.507701 C250.996219,154.652542 258.238566,163 258.238566,163 C258.238566,163 262.912507,153.123338 262.470518,149.978498 C262.028441,146.835281 259.002515,144.629524 255.711923,145.051802 C252.421331,145.47408 250.112154,148.364484 250.554231,151.507701 L250.554231,151.507701 Z" id="Path" fill="#000000" fill-rule="nonzero" opacity="0.25"></path>
                    <path d="M250.5,174 C250.5,174 253.192959,146.515031 269.240657,131.897901 C276.011804,125.807569 280.604776,117.708898 282.330571,108.81679 C283.114705,104.588777 283.506123,100.298618 283.5,96" id="Path" stroke="#535461" stroke-width="2"></path>
                    <path d="M294.167184,86.686564 C292.913305,89.630275 283.654975,96 283.654975,96 C283.654975,96 281.660009,85.3194847 282.913887,82.3624688 C284.260327,79.5659231 287.692594,78.2685343 290.702326,79.4184572 C293.712058,80.5683801 295.232786,83.7581507 294.153135,86.656628 L294.167184,86.686564 Z" id="Path" fill="#EC7C7C" fill-rule="nonzero"></path>
                    <path d="M296.081328,107.5464 C293.456592,109.396711 282.5,110 282.5,110 C282.5,110 286.770244,99.8890113 289.39498,98.0252191 C292.019835,96.2171595 295.608752,96.862655 297.441508,99.4724515 C299.274265,102.082248 298.667596,105.683395 296.081328,107.5464 L296.081328,107.5464 Z" id="Path" fill="#EC7C7C" fill-rule="nonzero"></path>
                    <path d="M283.966119,135.98918 C280.644173,136.267345 270.5,131.089992 270.5,131.089992 C270.5,131.089992 279.630106,124.299279 282.955548,124.021114 C285.105561,123.84161 287.188561,124.816293 288.419903,126.578008 C289.651245,128.339722 289.843859,130.620823 288.925189,132.562041 C288.006518,134.503258 286.116132,135.809676 283.966119,135.98918 L283.966119,135.98918 Z" id="Path" fill="#EC7C7C" fill-rule="nonzero"></path>
                    <path d="M270.127861,154.868558 C267.009736,155.702921 256.5,152.292157 256.5,152.292157 C256.5,152.292157 264.080793,144.028823 267.198918,143.19446 C270.318462,142.358647 273.503018,144.294422 274.311823,147.518135 C275.120629,150.741848 273.247405,154.032745 270.127861,154.868558 Z" id="Path" fill="#EC7C7C" fill-rule="nonzero"></path>
                    <path d="M270.015051,106.049308 C271.356443,108.94005 280.711526,115 280.711526,115 C280.711526,115 282.302479,104.298951 280.964553,101.408209 C279.62455,98.5163609 276.087133,97.2110002 273.063512,98.4926044 C270.03989,99.7742085 268.675048,103.15746 270.015051,106.049308 L270.015051,106.049308 Z" id="Path" fill="#EC7C7C" fill-rule="nonzero"></path>
                    <path d="M254.948367,128.512683 C257.055356,130.886652 267.5,134 267.5,134 C267.5,134 265.734143,123.330401 263.630498,120.953116 C261.524832,118.572615 257.871296,118.335104 255.470098,120.422621 C253.068899,122.510137 252.829323,126.132181 254.934989,128.512683 L254.948367,128.512683 Z" id="Path" fill="#EC7C7C" fill-rule="nonzero"></path>
                    <path d="M242.404446,153.134627 C244.173224,155.956581 254.499346,161 254.499346,161 C254.499346,161 254.584248,149.680944 252.819008,146.85899 C251.052829,144.037164 247.289679,143.154471 244.413778,144.88744 C241.537876,146.62041 240.638268,150.312801 242.404446,153.134627 L242.404446,153.134627 Z" id="Path" fill="#EC7C7C" fill-rule="nonzero"></path>
                    <polygon id="Path" fill="url(#linearGradient-1)" fill-rule="nonzero" points="96.5 0 96.5 9.31477334 96.5 240 269.5 240 269.5 9.31477334 269.5 0"></polygon>
                    <rect id="Rectangle" fill="#F6F7F9" fill-rule="nonzero" x="98.5" y="2" width="170" height="9"></rect>
                    <g id="Group" opacity="0.2" transform="translate(98.500000, 2.000000)" fill="#EC7C7C" fill-rule="nonzero">
                        <rect id="Rectangle" x="0.0987975952" y="0.0678571429" width="169.829659" height="9.60357143"></rect>
                    </g>
                    <rect id="Rectangle" fill="#F6F7F9" fill-rule="nonzero" x="98.5" y="11" width="170" height="227"></rect>
                    <circle id="Oval" fill="#F6F7F9" fill-rule="nonzero" cx="103" cy="6.5" r="1.5"></circle>
                    <circle id="Oval" fill="#F6F7F9" fill-rule="nonzero" cx="107" cy="6.5" r="1.5"></circle>
                    <circle id="Oval" fill="#F6F7F9" fill-rule="nonzero" cx="111" cy="6.5" r="1.5"></circle>
                    <g id="Group" opacity="0.2" transform="translate(128.500000, 25.000000)" fill="#EC7C7C" fill-rule="nonzero">
                        <rect id="Rectangle" x="0.0882866044" y="0.0461538462" width="108.847196" height="3.86153846"></rect>
                    </g>
                    <rect id="Rectangle" fill="#EC7C7C" fill-rule="nonzero" x="223.5" y="25" width="15" height="4"></rect>
                    <g id="Group" opacity="0.2" transform="translate(150.000000, 42.000000)" fill="#EC7C7C" fill-rule="nonzero">
                        <rect id="Rectangle" x="0.108768473" y="0.0642068966" width="68.5649261" height="48.8276552"></rect>
                    </g>
                    <path d="M318.106057,216 C318.106057,216 320.510608,219.207839 316.998077,224.048822 C313.485546,228.889806 310.59941,232.988138 311.761273,236 C311.761273,236 317.058696,227.005673 321.372744,226.881898 C325.686793,226.758123 322.851173,221.408286 318.106057,216 Z" id="Path" fill="#3ACC6C" fill-rule="nonzero"></path>
                    <path d="M318.045466,216 C318.257689,216.309053 318.425115,216.647116 318.542676,217.003954 C322.799613,222.051229 325.064303,226.761561 320.974238,226.881898 C317.166834,226.99192 312.593181,233.868317 311.5,235.604607 C311.535951,235.738692 311.579153,235.870688 311.629411,236 C311.629411,236 316.98634,227.005673 321.348849,226.881898 C325.711357,226.758123 322.843885,221.408286 318.045466,216 Z" id="Path" fill="#000000" fill-rule="nonzero" opacity="0.1"></path>
                    <path d="M322.5,219.784904 C322.5,221.008055 322.275758,222 322.00303,222 C321.730303,222 321.5,221.008055 321.5,219.784904 C321.5,218.561754 321.778788,219.136038 322.057576,219.136038 C322.336364,219.136038 322.5,218.558025 322.5,219.784904 Z" id="Path" fill="#FFD037" fill-rule="nonzero"></path>
                    <path d="M324.77877,221.008827 C323.611866,221.712512 322.590825,222.138309 322.505738,221.959026 C322.420651,221.779743 323.291778,221.062612 324.458682,220.358926 C325.625586,219.655241 325.167738,220.170679 325.269032,220.358926 C325.370325,220.547173 325.945674,220.318588 324.77877,221.008827 Z" id="Path" fill="#FFD037" fill-rule="nonzero"></path>
                    <path d="M304.894812,216 C304.894812,216 302.490577,219.207839 306.002646,224.048822 C309.514716,228.889806 312.400471,232.988138 311.238761,236 C311.238761,236 305.942035,227.005673 301.628554,226.881898 C297.315074,226.758123 300.143586,221.408286 304.894812,216 Z" id="Path" fill="#3ACC6C" fill-rule="nonzero"></path>
                    <path d="M304.955405,216 C304.74321,216.309053 304.575806,216.647116 304.458261,217.003954 C300.201891,222.051229 297.937502,226.761561 302.027022,226.881898 C305.837325,226.99192 310.406964,233.868317 311.5,235.604607 C311.465603,235.739157 311.422376,235.871246 311.370606,236 C311.370606,236 306.01439,227.005673 301.652462,226.881898 C297.290533,226.758123 300.150814,221.408286 304.955405,216 Z" id="Path" fill="#000000" fill-rule="nonzero" opacity="0.1"></path>
                    <path d="M300.5,219.784904 C300.5,221.008055 300.724242,222 301.00303,222 C301.281818,222 301.5,221.008055 301.5,219.784904 C301.5,218.561754 301.221212,219.136038 300.948485,219.136038 C300.675758,219.136038 300.5,218.558025 300.5,219.784904 Z" id="Path" fill="#FFD037" fill-rule="nonzero"></path>
                    <path d="M299.220141,221.008827 C300.38933,221.712512 301.404784,222.138309 301.493787,221.959026 C301.582791,221.779743 300.704889,221.062612 299.539746,220.358926 C298.374604,219.655241 298.831761,220.170679 298.73062,220.358926 C298.629479,220.547173 298.054999,220.318588 299.220141,221.008827 Z" id="Path" fill="#FFD037" fill-rule="nonzero"></path>
                    <ellipse id="Oval" fill="#EC7C7C" fill-rule="nonzero" opacity="0.1" cx="312" cy="256" rx="25.5" ry="4"></ellipse>
                    <path d="M324.4946,231.457346 L324.372774,232.436764 L324.203571,233.82343 L324.132505,234.398964 L323.963302,235.785631 L323.888853,236.364531 L323.71965,237.747832 L321.787351,253.499288 C321.614764,254.906149 319.306834,256 316.518367,256 L306.481241,256 C303.692774,256 301.405149,254.906149 301.215641,253.499288 L299.279958,237.7411 L299.110755,236.357799 L299.03969,235.7789 L298.867103,234.392233 L298.796037,233.816699 L298.626834,232.430032 L298.505008,231.450615 C298.410254,230.673139 299.672509,230 301.235946,230 L321.767046,230 C323.340635,230 324.592738,230.673139 324.4946,231.457346 Z" id="Path" fill="#65617D" fill-rule="nonzero"></path>
                    <polygon id="Path" fill="#9D9CB5" fill-rule="nonzero" points="324.5 233 324.329127 234 298.670873 234 298.5 233"></polygon>
                    <polygon id="Path" fill="#9D9CB5" fill-rule="nonzero" points="324.5 235 324.332574 236 299.670774 236 299.5 235"></polygon>
                    <polygon id="Path" fill="#9D9CB5" fill-rule="nonzero" points="324.5 237 324.329282 238 299.670718 238 299.5 237"></polygon>
                    <g id="Group" transform="translate(163.000000, 48.000000)" fill-rule="nonzero">
                        <path d="M13.2114961,0.600825688 C14.7956284,0.611209129 16.3485508,1.04348563 17.7112598,1.8533945 C17.7112598,1.8533945 21.8351969,2.35577982 24.0833858,1.8533945 C26.3315748,1.35100917 27.4692126,-0.400550459 27.8958268,0.098440367 C28.3224409,0.597431193 28.3325984,5.29880734 28.3325984,5.29880734 L26.3959055,10.4991743 L22.0214173,13.7544954 L15.0872441,11.7517431 L12.7916535,5.86908257 L13.2114961,0.600825688 Z" id="Path" fill="#EC7C7C"></path>
                        <path d="M28.3325984,5.30559633 L26.3959055,10.5059633 L22.0214173,13.7612844 L15.0872441,11.7585321 L12.7916535,5.86908257 L13.2284252,0.607614679 L13.33,0.607614679 C14.8794058,0.64713388 16.3936239,1.07920702 17.7315748,1.86357798 C17.7315748,1.86357798 21.8555118,2.3659633 24.1037008,1.86357798 C26.2401575,1.38834862 27.364252,-0.220642202 27.8281102,0.0509174312 L27.8281102,0.0509174312 C27.8554254,0.0636937477 27.8796759,0.0822176256 27.8992126,0.105229358 C28.3325984,0.600825688 28.3325984,5.30559633 28.3325984,5.30559633 Z" id="Path" fill="#000000" opacity="0.1"></path>
                        <path d="M28.3325984,5.30559633 L26.3959055,10.5059633 L22.0214173,13.7612844 L15.0872441,11.7585321 L12.7916535,5.86908257 L13.2284252,0.607614679 L13.33,0.607614679 C13.7159843,2.26752294 15.3614961,7.50862385 20.6027559,7.87862385 C25.9929921,8.25541284 27.5233858,1.82623853 27.8416535,0.0543119266 C27.8689687,0.0670882431 27.8932192,0.0856121211 27.9127559,0.108623853 C28.3325984,0.600825688 28.3325984,5.30559633 28.3325984,5.30559633 Z" id="Path" fill="#000000" opacity="0.1"></path>
                        <path d="M13.2114961,0.600825688 C13.2114961,0.600825688 14.3355906,7.92954128 20.5858268,8.36743119 C26.836063,8.8053211 27.8958268,0.098440367 27.8958268,0.098440367 C27.8958268,0.098440367 36.9562992,3.07541284 39.0690551,8.38440367 C41.181811,13.6933945 42.7562205,17.9534862 42.7562205,17.9534862 C42.7562205,17.9534862 42.0790551,19.1415596 41.3172441,19.267156 C40.5554331,19.3927523 35.3818898,22.9637615 35.3818898,22.9637615 C35.3818898,22.9637615 35.3209449,33.1133028 35.8829921,33.7378899 C36.4450394,34.3624771 36.2588189,37.0577064 34.5692913,36.9321101 C32.8797638,36.8065138 21.1986614,34.1757798 11.2070866,36.3686239 C11.2070866,36.3686239 7.02220472,37.8723853 7.14409449,35.4283486 C7.26598425,32.9843119 7.45559055,23.4016514 7.45559055,23.4016514 C7.45559055,23.4016514 1.14440945,20.6453211 0.771968504,20.6453211 C0.399527559,20.6453211 -0.541732283,20.1497248 0.457086614,18.5169725 C1.45590551,16.8842202 2.70866142,11.3138532 2.70866142,11.3138532 C2.70866142,11.3138532 5.21417323,3.31642202 13.2114961,0.600825688 Z" id="Path" fill="#EC7C7C"></path>
                        <path d="M32.6427559,13.7612844 C32.6427559,13.7612844 34.5185039,15.1394495 34.0817323,16.2053211 C33.6449606,17.2711927 32.6427559,13.7612844 32.6427559,13.7612844 Z" id="Path" fill="#000000" opacity="0.1"></path>
                        <path d="M35.3920472,15.0851376 C35.2173434,15.6962917 35.2173434,16.3443505 35.3920472,16.9555046" id="Path" fill="#000000" opacity="0.1"></path>
                        <path d="M36.6414173,18.5237615 C36.6414173,18.5237615 36.8919685,20.2210092 36.1437008,20.4009174" id="Path" fill="#000000" opacity="0.1"></path>
                        <path d="M11.1495276,13.3233945 C11.1495276,13.3233945 7.6519685,16.3784404 8.83700787,17.5834862" id="Path" fill="#000000" opacity="0.1"></path>
                        <path d="M8.96228346,20.7166055 C8.96228346,20.7166055 8.90472441,23.9108257 9.86968504,24.1620183" id="Path" fill="#000000" opacity="0.1"></path>
                        <path d="M19.0215748,31.4262385 C19.0215748,31.4262385 21.3916535,29.8002752 22.0214173,29.8613761" id="Path" fill="#000000" opacity="0.1"></path>
                        <path d="M21.3916535,33.1200917 C21.3916535,33.1200917 23.9581102,31.3006422 24.6454331,31.422844" id="Path" fill="#000000" opacity="0.1"></path>
                    </g>
                    <path d="M85.181134,135.33732 L85.1980815,135.313527 L85.167576,135.289733 L85.167576,135.289733 L84.9845433,135.167367 L85.0218277,135.19456 C84.7497772,135.036854 84.4026717,135.113551 84.221907,135.37131 L84.1473381,135.476681 L84.1473381,135.476681 L80.029102,141.418221 L79.3105291,142.475325 C77.1378629,141.819309 73.6093989,144.579337 71.8231352,146.163295 C71.7112819,146.261867 71.6062075,146.353642 71.5113017,146.442017 C71.3689429,146.122506 71.2842055,145.918563 71.2842055,145.918563 C71.1960787,146.890691 67.772689,148.348884 66.9727682,148.879136 C66.6093963,149.099359 66.2019791,149.236321 65.779666,149.280224 C65.8949089,145.585456 63.0443438,141.696943 63.0443438,141.696943 L56.0789321,132.808427 C55.8226787,131.200936 56.0714369,129.553315 56.790726,128.093944 C56.8483474,127.978376 56.9059688,127.862809 56.9703692,127.754039 L57.0042641,127.754039 C56.7407443,128.500847 56.5932737,129.283843 56.5670193,130.07559 C56.5839668,130.677222 57.1398439,133.593607 57.9228172,133.47464 C58.0810845,133.490849 58.2352172,133.417495 58.3227776,133.284294 C58.9464446,132.556897 59.0006766,131.319643 58.9701711,130.174163 C58.9593699,130.510842 58.9219682,130.846132 58.8583178,131.176883 C58.9091602,130.225148 58.8006964,129.21903 58.8006964,128.50183 C58.8006964,128.21631 58.8006964,127.934189 58.8210333,127.648668 L58.9057707,127.648668 C58.9057707,127.757438 58.9057707,127.873006 58.9057707,127.988573 C58.9057707,127.869607 58.9057707,127.754039 58.9057707,127.648668 L58.9938976,127.648668 C60.5562645,127.361936 62.0201526,126.681151 63.2477135,125.670421 C63.8599563,125.645662 64.4365241,125.37494 64.847555,124.919231 C64.9985187,125.42413 64.8850511,125.971332 64.54589,126.374025 C65.478001,126.329837 66.2677533,125.60244 66.6270397,124.749279 C66.9348871,123.878029 67.0256492,122.944512 66.8914203,122.030039 C66.7574138,121.115045 66.6905741,120.19142 66.6914401,119.266611 C66.7556902,118.767396 66.7828809,118.264085 66.772788,117.760832 C66.7578013,117.607078 66.7305989,117.45477 66.6914401,117.305359 L66.7185561,117.305359 C66.8989439,117.309123 67.0733856,117.240617 67.2032538,117.115012 C67.5896562,116.815896 67.7150675,116.231259 67.8133629,115.782584 C68.0809001,114.749933 68.2018537,113.684601 68.1726493,112.618069 C68.1523124,112.940978 68.1116384,113.267287 68.0641855,113.590197 C68.1489229,112.366539 67.9794481,111.176871 67.1727484,110.289719 C66.6168713,109.681289 65.840677,109.324389 65.0949881,108.967489 C64.8283262,108.871873 64.5935574,108.70354 64.4170892,108.481425 C64.2852872,108.219647 64.2134879,107.93164 64.2069405,107.63846 C63.9459494,105.85056 62.2681495,104.606507 60.5971286,103.899505 C58.4481889,102.961367 55.8518359,102.560279 53.8011916,103.675168 C52.7843432,104.215617 52.0047594,105.06198 51.0895958,105.751987 C49.9439466,106.625543 48.6220436,107.237372 47.398436,107.998759 C46.1748284,108.760147 45.0257897,109.725477 44.4258491,111.03751 C43.527633,113.07694 44.2021425,115.388295 44.3139958,117.601076 C44.493639,121.085103 43.0632722,124.739082 40.2296546,126.778512 C39.8900475,126.987285 39.5866611,127.250195 39.3314385,127.556894 C39.0763698,127.874955 39.0465841,128.318926 39.2568696,128.668384 C39.4026179,128.85873 39.6331036,128.9675 39.7924098,129.14765 C40.1144118,129.514747 40.0500114,130.07559 39.9246001,130.544659 C39.5130405,132.079382 38.6928694,133.472903 37.5519538,134.575933 C37.6027962,134.936232 38.04682,135.078992 38.409496,135.133377 C39.3690293,135.274908 40.3376577,135.345345 41.307514,135.344118 L41.7244218,135.344118 C41.6803584,135.456287 41.6329055,135.575253 41.5854525,135.701018 C41.0600808,137.087831 40.3787924,139.222434 40.6058886,140.52767 C40.944838,142.587494 42.0294763,152.006262 41.4939362,153.6582 C40.958396,155.310139 42.3548678,167.288391 42.3548678,167.288391 C42.3548678,167.288391 42.5412901,168.212933 42.8632921,169.592947 C42.0260869,171.571195 41.0702493,173.766981 40.5923306,174.647335 C39.6297141,176.411442 40.1042433,185.418925 43.4225587,189.423006 C43.4225587,189.423006 44.7783566,191.367263 44.4394071,192.070866 C44.1004576,192.77447 44.500418,194.015123 44.500418,194.015123 L45.0257897,205.670466 C45.0145462,206.861654 44.9330561,208.051132 44.7817461,209.232671 C43.3649373,210.989979 41.1821027,213.552863 40.1550858,213.970946 C38.5654127,214.620165 26.7089601,229.042335 26.7089601,229.042335 C26.7089601,229.042335 26.8038659,229.215686 26.9902881,229.497808 L26.6513387,229.885299 L24.3769877,232.52976 L24.1973445,232.737102 C23.7702681,232.655525 20.926482,232.13887 18.672468,231.975715 L18.4487614,231.975715 L18.4487614,231.934927 C17.6587981,231.844176 16.8600062,231.865918 16.0761151,231.999509 C15.9278304,232.027012 15.7910051,232.097983 15.6829337,232.203452 C14.9135184,233.148387 14.5,247.981842 14.5,247.981842 C14.5,247.981842 15.3202577,255.408767 17.8894947,255.823451 C18.0204641,255.869087 18.157639,255.894307 18.2962341,255.89823 L18.4080874,255.89823 C20.2384146,255.762268 21.0790093,254.711962 21.4586327,253.991363 C21.5709246,253.776105 21.6563068,253.547778 21.7128448,253.311553 C21.7128448,253.311553 21.4145693,251.989323 22.21449,250.164033 C23.0144108,248.338743 24.509178,245.12664 24.509178,245.12664 C24.509178,245.12664 27.2207738,242.268039 26.736076,240.881227 C26.8106449,240.769058 26.8987718,240.646692 26.9936776,240.507331 C28.0105261,239.052538 30.0713389,236.18034 31.7389703,234.263276 C31.8474341,234.134112 31.955898,234.015145 32.0779198,233.896179 C32.6845643,234.152965 33.3194479,234.336665 33.9692578,234.443426 C33.9692578,234.443426 36.5181579,233.444105 37.4638269,231.20753 C37.8671768,230.255796 39.4500708,228.569867 41.1346497,226.94852 L41.0804178,227.380199 L41.0227964,241.567835 C41.5705955,241.945115 42.1541513,242.267317 42.7649967,242.529766 L42.7649967,242.869671 C42.7769269,244.891221 42.6546347,246.911325 42.3989313,248.916581 L42.3480889,249.232693 C42.1379402,249.083135 41.9549075,249.032149 41.8396646,249.147717 C41.3176824,249.677968 40.992291,253.063422 40.9617855,254.623586 C40.9617855,254.674572 40.9617855,254.725558 40.9617855,254.779943 C40.8770481,256.336708 39.99239,258.600475 42.6565329,258.716043 C44.6495558,258.801019 53.241925,258.930183 57.8380799,258.998164 C60.3142911,259.045155 62.7232621,258.188767 64.6170693,256.588237 C66.0779416,255.333988 66.9625997,253.841805 64.9729663,252.743912 C64.8509445,252.675931 64.7221437,252.611349 64.5797849,252.546767 L60.1734417,251.866957 L52.6453739,248.012434 C52.6453739,248.012434 52.6013105,245.680685 51.6963154,246.068177 C51.4274515,246.126958 51.1698883,246.229126 50.933679,246.370693 C50.8896156,246.285716 50.8421627,246.193942 50.7980993,246.098769 C50.1849547,244.880374 49.8667802,243.534219 49.8693777,242.169467 C49.8693777,242.047101 49.8693777,241.921336 49.8863252,241.795571 C50.1067892,241.59408 50.3150494,241.379558 50.5099922,241.153151 C50.5099922,241.153151 50.4523708,235.854031 51.0455324,234.854711 C51.638694,233.85539 53.4758001,223.72622 53.4758001,223.72622 C53.4758001,223.72622 53.5334215,221.843147 54.7197447,220.724859 C55.9060678,219.606572 55.48916,216.367277 55.48916,216.367277 C55.48916,216.367277 57.1500124,215.483524 57.6821631,212.601129 C58.2143138,209.718735 59.9361771,203.423694 59.9361771,203.423694 C59.9361771,203.423694 63.4917571,194.120493 63.257882,188.236738 C63.0240068,182.352982 63.5968314,179.287039 63.5968314,179.287039 L64.3357413,165.609261 L64.3357413,165.39852 C64.6306273,165.622857 64.8306075,165.806406 64.8306075,165.806406 C64.8306075,165.806406 64.8306075,165.752021 64.8306075,165.656847 C64.9390713,165.748622 65.0000823,165.806406 65.0000823,165.806406 C65.0000823,165.806406 65.3797057,159.59974 65.2509049,157.138828 C67.3252757,156.431825 70.4842848,155.26935 70.6740965,154.677915 C70.9384771,153.797561 74.4974465,151.013739 74.4974465,151.013739 C74.4204702,151.001197 74.3467386,150.97347 74.2805189,150.932162 C74.3923722,150.881176 74.507615,150.819993 74.6194684,150.755411 C76.9514407,149.504561 81.283215,145.847183 80.5544737,143.617406 L85.2997663,136.788714 C85.6060564,136.337286 85.5566401,135.732706 85.181134,135.33732 Z" id="Path" fill="url(#linearGradient-2)" fill-rule="nonzero"></path>
                    <path d="M74.4483877,151.555503 C74.0929578,151.779545 73.6968552,151.930499 73.2830046,151.999628 C71.7627883,152.04509 70.5,147.908083 70.5,147.908083 C70.5,147.908083 70.9313657,147.467455 71.6201593,146.858969 C73.6587102,145.037008 77.9341009,141.672849 79.9378642,143.55426 C82.1990554,145.655985 77.0818058,150.132205 74.4483877,151.555503 Z" id="Path" fill="#ECB4B6" fill-rule="nonzero"></path>
                    <path d="M51.5,247.22118 L45.8420986,252.999911 C45.8420986,252.999911 40.6086275,253.056338 41.6328725,250.324634 C41.8374913,249.73249 41.9831104,249.123528 42.0678259,248.505711 C42.3256427,246.565954 42.4486761,244.612279 42.4361332,242.657276 C42.4361332,241.376064 42.415087,240.47656 42.415087,240.47656 C42.415087,240.47656 50.6546471,237.061101 49.8128019,240.619286 C49.7080689,241.064091 49.6516528,241.51786 49.6444328,241.973521 C49.6411185,243.292296 49.9630034,244.593616 50.5844933,245.774007 C50.8388145,246.283618 51.1454577,246.76834 51.5,247.22118 Z" id="Path" fill="#ECB4B6" fill-rule="nonzero"></path>
                    <path d="M51.5,247.401912 L45.8420986,252.999914 C45.8420986,252.999914 40.6086275,253.054576 41.6328725,250.408306 C41.8374913,249.834681 41.9831104,249.244765 42.0678259,248.64627 C42.8149635,249.17681 43.8883162,250.739492 43.8883162,250.739492 C43.8883162,250.739492 47.4977275,251.70411 48.4904033,248.810255 C49.0446181,247.202558 49.9215402,246.389063 50.5950164,246 C50.8459948,246.493281 51.1491046,246.962829 51.5,247.401912 Z" id="Path" fill="#000000" fill-rule="nonzero" opacity="0.1"></path>
                    <path d="M64.0112859,256.592511 C62.1498444,258.19349 59.7712178,259.049337 57.3263464,258.997801 C52.7993763,258.932515 44.3410899,258.798505 42.3771336,258.716038 C39.7494487,258.59921 40.6208053,256.334801 40.7058988,254.774799 C40.7058988,254.719821 40.7058988,254.671715 40.7058988,254.620173 C40.7365324,253.056734 41.0462725,249.668711 41.570448,249.139547 C42.0946235,248.610384 43.8883928,251.496732 43.8883928,251.496732 C43.8883928,251.496732 47.3908382,252.52757 48.3540958,249.435054 C49.3173533,246.342538 51.2745021,246.043595 51.2745021,246.043595 C52.1628774,245.655313 52.207126,247.988444 52.207126,247.988444 L59.6204652,251.847217 L63.970441,252.534443 C64.1099943,252.599729 64.2359325,252.665016 64.3550633,252.730302 C66.3224233,253.843608 65.4510666,255.334888 64.0112859,256.592511 Z" id="Path" fill="#C17174" fill-rule="nonzero"></path>
                    <circle id="Oval" fill="#FFFFFF" fill-rule="nonzero" opacity="0.25" cx="51" cy="250.5" r="1"></circle>
                    <circle id="Oval" fill="#FFFFFF" fill-rule="nonzero" opacity="0.25" cx="54" cy="251.5" r="1"></circle>
                    <circle id="Oval" fill="#FFFFFF" fill-rule="nonzero" opacity="0.25" cx="55" cy="252.5" r="1"></circle>
                    <circle id="Oval" fill="#FFFFFF" fill-rule="nonzero" opacity="0.25" cx="59" cy="253.5" r="1"></circle>
                    <circle id="Oval" fill="#FFFFFF" fill-rule="nonzero" opacity="0.25" cx="57" cy="253.5" r="1"></circle>
                    <path d="M64.0119243,256.692277 C62.1504322,258.226912 59.7717411,259.047293 57.3268034,258.997892 C52.7997102,258.935311 44.3411942,258.806855 42.3771846,258.727806 C39.7494283,258.615819 40.6208086,256.445247 40.7059044,254.949891 L57.2042655,255.938012 C57.2042655,255.938012 63.9608669,254.949891 64.3523073,253 C66.3231245,254.057289 65.4517442,255.48677 64.0119243,256.692277 Z" id="Path" fill="#C17174" fill-rule="nonzero"></path>
                    <path d="M64.0119243,256.692277 C62.1504322,258.226912 59.7717411,259.047293 57.3268034,258.997892 C52.7997102,258.935311 44.3411942,258.806855 42.3771846,258.727806 C39.7494283,258.615819 40.6208086,256.445247 40.7059044,254.949891 L57.2042655,255.938012 C57.2042655,255.938012 63.9608669,254.949891 64.3523073,253 C66.3231245,254.057289 65.4517442,255.48677 64.0119243,256.692277 Z" id="Path" fill="#FFFFFF" fill-rule="nonzero" opacity="0.25"></path>
                    <path d="M34.1658163,232.991382 C33.5482616,233.500885 32.9843348,234.073446 32.4829904,234.699973 C30.8174774,236.653649 28.7572275,239.60167 27.7357591,241.065176 C27.3410221,241.639375 27.1021024,242 27.1021024,242 L24.8721848,241.667385 C24.8721848,241.667385 22.4691371,237.945597 22.5003005,237.858066 C22.5314639,237.770536 24.4047332,233.772152 24.4047332,233.772152 L25.1284176,232.914355 L27.4102742,230.218422 L28.4490557,229 C28.4490557,229 36.1775898,231.520873 34.1658163,232.991382 Z" id="Path" fill="#ECB4B6" fill-rule="nonzero"></path>
                    <path d="M27.5,241.074702 C27.1230375,241.64305 26.894876,242 26.894876,242 L24.7653686,241.670774 C24.7653686,241.670774 22.4705268,237.986908 22.500287,237.90027 C22.5300472,237.813631 24.3189657,233.849057 24.3189657,233.849057 L25.0100636,233 L25.2349184,233.045052 L25.7772153,233.045052 C23.8758694,235.124374 25.9160962,239.698883 25.9160962,239.698883 C25.9160962,239.698883 26.7956753,239.785522 27.5,241.074702 Z" id="Path" fill="#000000" fill-rule="nonzero" opacity="0.1"></path>
                    <path d="M25.2308299,245.242514 C25.2308299,245.242514 23.7557324,248.424064 22.9580106,250.251909 C22.1602889,252.079754 22.4559961,253.402536 22.4559961,253.402536 C22.3998308,253.640706 22.3155723,253.871373 22.2049888,254.089696 C21.6288708,255.234629 20.4681536,255.969094 19.1860246,256 L19.0416095,256 C16.352737,255.931284 15.5,248.132021 15.5,248.132021 C15.5,248.132021 15.9126147,233.285935 16.6793903,232.327347 C16.7848372,232.220648 16.9204129,232.148716 17.0679358,232.121199 C17.8503778,231.985652 18.6483032,231.963665 19.4370319,232.055919 C21.8680201,232.231144 24.9935764,232.828973 24.9935764,232.828973 L25.5540447,232.828973 C23.5769327,234.890453 25.6984599,239.429143 25.6984599,239.429143 C25.6984599,239.429143 26.6440352,239.515038 27.3798648,240.841256 C28.1156943,242.167474 25.2308299,245.242514 25.2308299,245.242514 Z" id="Path" fill="#C17174" fill-rule="nonzero"></path>
                    <circle id="Oval" fill="#FFFFFF" fill-rule="nonzero" opacity="0.25" cx="22" cy="240.5" r="1"></circle>
                    <circle id="Oval" fill="#FFFFFF" fill-rule="nonzero" opacity="0.25" cx="22" cy="243.5" r="1"></circle>
                    <path d="M21.5,254.089696 C20.8985336,255.234629 19.6867462,255.969094 18.3482051,256 L18.2010256,256 C15.3938462,255.931284 14.5,248.132021 14.5,248.132021 C14.5,248.132021 14.9307692,233.285935 15.7312821,232.327347 C15.8413684,232.220648 15.9829093,232.148716 16.1369231,232.121199 C16.9537915,231.985652 17.7868247,231.963665 18.6102564,232.055919 C18.5635897,234.725534 18.4307692,243.16042 18.6102564,243.998755 C18.7897436,244.83709 20.38,251.852991 21.5,254.089696 Z" id="Path" fill="#C17174" fill-rule="nonzero"></path>
                    <path d="M21.5,254.089696 C20.8985336,255.234629 19.6867462,255.969094 18.3482051,256 L18.2010256,256 C15.3938462,255.931284 14.5,248.132021 14.5,248.132021 C14.5,248.132021 14.9307692,233.285935 15.7312821,232.327347 C15.8413684,232.220648 15.9829093,232.148716 16.1369231,232.121199 C16.9537915,231.985652 17.7868247,231.963665 18.6102564,232.055919 C18.5635897,234.725534 18.4307692,243.16042 18.6102564,243.998755 C18.7897436,244.83709 20.38,251.852991 21.5,254.089696 Z" id="Path" fill="#FFFFFF" fill-rule="nonzero" opacity="0.25"></path>
                    <path d="M18.4969423,256 C15.4653139,255.930935 14.5,248.092086 14.5,248.092086 C14.5,248.092086 14.9652115,233.170647 15.8297296,232.207194 C15.948618,232.099953 16.1014758,232.027657 16.2678038,232 C16.9035929,232.84259 17.4618467,234.707338 16.9578675,238.809784 C16.0119374,246.583022 17.1517057,247.073381 17.1517057,247.073381 C17.1517057,247.073381 18.5744776,253.679424 18.4969423,256 Z" id="Path" fill="#C17174" fill-rule="nonzero"></path>
                    <path d="M18.4969423,256 C15.4653139,255.930935 14.5,248.092086 14.5,248.092086 C14.5,248.092086 14.9652115,233.170647 15.8297296,232.207194 C15.948618,232.099953 16.1014758,232.027657 16.2678038,232 C16.9035929,232.84259 17.4618467,234.707338 16.9578675,238.809784 C16.0119374,246.583022 17.1517057,247.073381 17.1517057,247.073381 C17.1517057,247.073381 18.5744776,253.679424 18.4969423,256 Z" id="Path" fill="#000000" fill-rule="nonzero" opacity="0.1"></path>
                    <path d="M74.5,151.567697 C74.139924,151.785592 73.7386437,151.932405 73.3193833,151.999638 C71.7792952,152.043853 70.5,148.020334 70.5,148.020334 C70.5,148.020334 70.9370044,147.591794 71.6348018,147 C72.1387665,148.088357 73.5273128,151.023518 74.5,151.567697 Z" id="Path" fill="#000000" fill-rule="nonzero" opacity="0.1"></path>
                    <path d="M64.9655172,150.446475 C64.9655172,150.446475 66.2068966,150.536989 67.0034483,150.00087 C67.8,149.464752 71.2172414,147.985205 71.3068966,147 C71.3068966,147 73.3448276,152.013055 74.5,152.194082 C74.5,152.194082 70.9517241,155.013925 70.6862069,155.908616 C70.4206897,156.803307 63.5,159 63.5,159 L64.9655172,150.446475 Z" id="Path" fill="#FF748E" fill-rule="nonzero"></path>
                    <path d="M64.9655172,150.446475 C64.9655172,150.446475 66.2068966,150.536989 67.0034483,150.00087 C67.8,149.464752 71.2172414,147.985205 71.3068966,147 C71.3068966,147 73.3448276,152.013055 74.5,152.194082 C74.5,152.194082 70.9517241,155.013925 70.6862069,155.908616 C70.4206897,156.803307 63.5,159 63.5,159 L64.9655172,150.446475 Z" id="Path" fill="#000000" fill-rule="nonzero" opacity="0.1"></path>
                    <path d="M34.1703263,233.201474 C33.5608739,233.737796 33.0043459,234.340494 32.5095791,235 C29.857851,233.802211 28.1492633,231.355037 27.5,230.282555 L28.5251526,229 C28.5251526,229 36.1557052,231.653563 34.1703263,233.201474 Z" id="Path" fill="#000000" fill-rule="nonzero" opacity="0.1"></path>
                    <path d="M46.5,208 C46.5,208 42.2371143,213.791374 40.6783485,214.442516 C39.1195827,215.093658 27.5,229.566926 27.5,229.566926 C27.5,229.566926 29.9974139,234.235167 34.5889959,235 C34.5889959,235 37.0864098,233.997448 38.0182807,231.75118 C38.9501516,229.504913 46.2695737,223.158862 46.2695737,223.158862 L46.5,208 Z" id="Path" fill="#5E5A6B" fill-rule="nonzero"></path>
                    <path d="M46.5,208 C46.5,208 42.2371143,213.791374 40.6783485,214.442516 C39.1195827,215.093658 27.5,229.566926 27.5,229.566926 C27.5,229.566926 29.9974139,234.235167 34.5889959,235 C34.5889959,235 37.0864098,233.997448 38.0182807,231.75118 C38.9501516,229.504913 46.2695737,223.158862 46.2695737,223.158862 L46.5,208 Z" id="Path" fill="#000000" fill-rule="nonzero" opacity="0.1"></path>
                    <path d="M33.5,227.048002 C34.8177528,227.31822 36.1463653,227.31822 37.4641181,227.048002 C39.8079678,226.608382 38.0422908,229.394896 33.5,227.048002 Z" id="Path" fill="#000000" fill-rule="nonzero" opacity="0.1"></path>
                    <path d="M32.5,229 C32.5,229 35.8572448,230.5625 37.1553795,229.78125 C38.4535141,229 35.9057383,230.535141 32.5,229 Z" id="Path" fill="#000000" fill-rule="nonzero" opacity="0.1"></path>
                    <path d="M50.4433291,240.849731 C50.3450291,241.355993 50.2920782,241.872458 50.2853017,242.391076 C47.9971966,244.774873 45.2415937,244.0382 43.5197534,243.169305 C43.5197534,241.711071 43.5,240.687285 43.5,240.687285 C43.5,240.687285 51.2334661,236.78481 50.4433291,240.849731 Z" id="Path" fill="#000000" fill-rule="nonzero" opacity="0.1"></path>
                    <path d="M64.5,164.43854 L64.4144656,166.049919 L63.6822907,179.597062 C63.6822907,179.597062 63.0938137,182.629446 63.3401529,188.456247 C63.5864921,194.283048 60.0419446,203.516182 60.0419446,203.516182 C60.0419446,203.516182 58.3312556,209.754327 57.8112062,212.609936 C57.2911567,215.465544 55.6420526,216.349423 55.6420526,216.349423 C55.6420526,216.349423 56.0526179,219.555183 54.8790853,220.663431 C53.7055527,221.771679 53.6473893,223.634624 53.6473893,223.634624 C53.6473893,223.634624 51.8272162,233.663249 51.2524247,234.655913 C50.6776332,235.648577 50.7221111,240.894058 50.7221111,240.894058 C46.9106961,245.381442 41.3372715,241.302002 41.3372715,241.302002 L41.395435,227.251728 C41.395435,227.251728 42.9795329,214.309702 44.1530655,212.50115 C45.3265982,210.692598 45.3265982,205.739477 45.3265982,205.739477 L44.8031274,194.181062 C44.8031274,194.181062 44.3857192,192.95723 44.7449639,192.256926 C45.1042086,191.556622 43.7425002,189.635885 43.7425002,189.635885 C40.454556,185.668629 39.9789845,176.748252 40.9403917,175.017889 C41.9017989,173.287527 44.7449639,166.274288 44.7449639,166.274288 L48.6692844,164 L55.7618008,164.207372 L64.5,164.43854 Z" id="Path" fill="#5E5A6B" fill-rule="nonzero"></path>
                    <path d="M47.5,233 C47.5,233 48.5212248,236.582074 49.3427267,236.974996 C50.1642286,237.367917 47.5,233 47.5,233 Z" id="Path" fill="#000000" fill-rule="nonzero" opacity="0.1"></path>
                    <path d="M48.5,223 C48.5,223 51.179563,225.003612 52.3279472,224.999995 C53.4763314,224.996378 48.5,223 48.5,223 Z" id="Path" fill="#000000" fill-rule="nonzero" opacity="0.1"></path>
                    <path d="M63.5,144.078522 L63.5,148 L60.9218265,146.884527 L58.3505558,145.772517 L52.7524335,140.247113 C52.7524335,140.247113 48.3243257,137.361432 45.9566858,134.732102 C44.6037487,133.232102 43.9238288,131.815242 45.1145515,131.066975 C45.6916414,130.687667 46.2132184,130.229445 46.6642167,129.705543 C47.8541723,128.297563 48.8887121,126.764375 49.7497416,125.132794 C49.7877066,125.066975 49.8256717,125.001155 49.8601854,124.935335 C51.012943,122.811778 51.7756958,121 51.7756958,121 C51.7756958,121 55.0199837,122.039261 57.1046112,123.52194 C57.2737284,123.639723 57.4324914,123.76097 57.5843517,123.885681 C58.7474634,124.841801 59.3272936,125.964203 58.2539175,127.058891 C57.9781812,127.34502 57.7232745,127.650656 57.4911647,127.973441 L57.4911647,127.973441 C57.3178312,128.213213 57.15879,128.463072 57.0148756,128.721709 C56.9527509,128.839492 56.8906263,128.953811 56.8354044,129.068129 C56.117241,130.542626 55.8689926,132.203366 56.1244221,133.82448 L63.5,144.078522 Z" id="Path" fill="#ECB4B6" fill-rule="nonzero"></path>
                    <path d="M62.6450059,116.18343 C62.7754489,116.410866 62.9560624,116.604855 63.0764713,116.835635 C63.2793372,117.344894 63.3450738,117.898457 63.2671189,118.441063 C63.2019194,119.298675 63.2582207,120.161198 63.4343535,121.003058 C63.6116223,121.758947 63.9427469,122.488079 63.9695045,123.264036 C64.0062961,124.357733 63.4376982,125.37116 62.8891685,126.317693 C63.4914334,126.299378 64.0597573,126.034568 64.4611744,125.585217 C64.6087099,126.075203 64.500686,126.606521 64.1735308,127 C65.0732533,126.95652 65.8458775,126.247456 66.1803469,125.417985 C66.4855602,124.560971 66.574035,123.641766 66.4378883,122.742272 C66.3068891,121.850808 66.2420479,120.950871 66.243896,120.049835 C66.3061083,119.563005 66.3318227,119.072204 66.320824,118.581538 C66.2372067,117.608247 65.6518853,116.762053 65.0632192,115.972718 L63.8992659,114.373979 C63.818393,114.243277 63.7025264,114.13784 63.5647966,114.069617 C62.4643924,113.601367 62.3372941,115.62822 62.6450059,116.18343 Z" id="Path" fill="#464353" fill-rule="nonzero"></path>
                    <path d="M57.9467169,127.009438 C57.6728436,127.292907 57.4196592,127.595702 57.1891177,127.915487 L57.1891177,127.915487 C57.0169553,128.15303 56.8589887,128.400567 56.7160467,128.6568 C56.6543418,128.773488 56.5926368,128.886744 56.537788,129 C53.7862958,128.845622 51.2466179,127.471784 49.6096976,125.252252 C49.5719891,125.200772 49.5342805,125.149292 49.5,125.09438 C49.5377086,125.029172 49.5754171,124.963964 49.6096976,124.898756 C50.7546665,122.794938 51.5122657,121 51.5122657,121 C51.5122657,121 54.7346334,122.029601 56.805176,123.498498 C56.9731505,123.615187 57.1308408,123.735307 57.281675,123.858859 C58.4232159,124.812956 58.9991284,125.911197 57.9467169,127.009438 Z" id="Path" fill="#000000" fill-rule="nonzero" opacity="0.1"></path>
                    <path d="M66.4999997,119.996917 C66.5010464,124.341119 63.4014804,128.066498 59.131385,128.853281 C58.5925631,128.951243 58.0460038,129.000348 57.4983586,128.999998 L57.4583662,128.999998 C57.3617177,128.999998 57.2617365,128.999998 57.165088,128.999998 C52.2429789,128.817475 48.3822388,124.70945 48.5027459,119.782825 C48.623253,114.856199 52.6802184,110.94205 57.6053587,111.000649 C62.530499,111.059249 66.4932876,115.068817 66.496667,119.996917 L66.4999997,119.996917 Z" id="Path" fill="#ECB4B6" fill-rule="nonzero"></path>
                    <path d="M58.7639924,142.585143 C58.7639924,142.585143 63.2433361,145.214857 62.0971511,142.996571 L56.2509488,134 L56.2509488,134 L62.8876235,142.876571 C62.8876235,142.876571 67.1232382,148.934857 64.8078128,153.107429 C64.8078128,153.107429 64.4784492,156.577143 64.8638045,157.4 C65.2491599,158.222857 64.751821,167 64.751821,167 C64.751821,167 63.1675825,165.470857 62.3211183,165.762286 C61.474654,166.053714 55.5,166.574857 55.5,166.574857 L58.7639924,142.585143 Z" id="Path" fill="#000000" fill-rule="nonzero" opacity="0.1"></path>
                    <path d="M64.5,165.257191 L64.4147727,166.861252 C63.8590909,166.461929 63.0852273,166.015228 62.5704545,166.184433 C61.6943182,166.475465 55.5,167 55.5,167 L55.7829545,165 L64.5,165.257191 Z" id="Path" fill="#000000" fill-rule="nonzero" opacity="0.1"></path>
                    <path d="M58.7706416,142.585143 C58.7706416,142.585143 63.2488541,145.214857 62.1005101,142.996571 L56.2600787,134 L56.2600787,134 L62.8902022,142.876571 C62.8902022,142.876571 67.1216359,148.934857 64.808496,153.107429 C64.808496,153.107429 64.4794576,156.577143 64.8644325,157.4 C65.2494075,158.222857 64.7525595,167 64.7525595,167 C64.7525595,167 63.1731752,165.470857 62.3275466,165.762286 C61.4819179,166.053714 55.5,166.588571 55.5,166.588571 L58.7706416,142.585143 Z" id="Path" fill="#464353" fill-rule="nonzero"></path>
                    <path d="M61.4430207,146.985506 C61.1744901,149.810145 60.0221877,153.168898 60.0221877,153.168898 C60.0221877,153.168898 59.2063985,161.505864 58.1492716,163.984699 C57.0921446,166.463534 57.5646226,169.856525 56.9833727,176.139208 C56.7726272,178.402343 56.0486142,179.95675 55.0730662,181.004435 C53.4686806,182.716337 51.1776724,183.089532 49.3693395,182.983394 L48.9410502,182.949156 C46.0246035,182.658133 43.2271262,168.507546 43.2271262,168.507546 C43.2271262,168.507546 41.8878721,156.469446 42.4113369,154.812325 C42.9348017,153.155203 41.8946704,143.784248 41.5445608,141.729965 C41.3202188,140.425495 41.9898458,138.30616 42.5065123,136.916095 C42.8090342,136.114924 43.0571701,135.546573 43.0571701,135.546573 C43.0571701,135.546573 44.0497137,132.376129 45.6812922,130.732702 C46.1357969,130.262682 46.7600491,129.99832 47.4114453,130.000008 C48.1784925,130.031363 48.9234499,130.267699 49.5698877,130.684769 C49.5960595,130.699973 49.6210571,130.71714 49.6446684,130.736126 C49.6446684,130.736126 60.2567272,141.658065 61.2458717,144.181409 C61.5212005,144.890137 61.5483935,145.896736 61.4430207,146.985506 Z" id="Path" fill="#000000" fill-rule="nonzero" opacity="0.1"></path>
                    <path d="M60.440943,146.985567 C60.1690879,149.807917 59.0171019,153.168019 59.0171019,153.168019 C59.0171019,153.168019 58.2015367,161.511761 57.1514964,163.977892 C56.1014561,166.444022 56.5704061,169.852078 55.9859177,176.137286 C55.77523,178.397905 55.0514158,179.952938 54.0761357,181.004468 C52.4721906,182.717059 50.1818115,183.086979 48.3739752,182.984223 L47.9458034,182.949971 C45.0301576,182.655406 42.2334483,168.499131 42.2334483,168.499131 C42.2334483,168.499131 40.894562,156.459619 41.417883,154.815532 C41.9412041,153.171445 40.894562,143.772747 40.5445486,141.714213 C40.3202681,140.412644 40.9897113,138.289032 41.5062359,136.898408 C41.8086747,136.096916 42.0567425,135.545461 42.0567425,135.545461 C42.0567425,135.545461 43.0490136,132.373743 44.6801441,130.729656 C45.1332846,130.258026 45.7584799,129.994324 46.4098221,130.000093 C47.1772605,130.027962 47.9229071,130.264677 48.5676719,130.685129 L48.6424321,130.733082 C48.6424321,130.733082 59.2515769,141.65941 60.2404498,144.183769 C60.5157031,144.885931 60.5530832,145.896359 60.440943,146.985567 Z" id="Path" fill="#FF748E" fill-rule="nonzero"></path>
                    <path d="M48.5,189 C48.5,189 46.3432898,191.096372 45.6000168,190.996545 C44.8567438,190.896717 48.5,189 48.5,189 Z" id="Path" fill="#000000" fill-rule="nonzero" opacity="0.1"></path>
                    <path d="M49.5,192.023885 C49.5,192.023885 47.2709423,192.860308 46.6046154,192.990848 C45.9382885,193.121388 48.6394523,191.808735 49.5,192.023885 Z" id="Path" fill="#000000" fill-rule="nonzero" opacity="0.1"></path>
                    <path d="M59.5,159.070309 C59.5,159.070309 62.9284986,159.126805 63.4461833,160.634807 C63.963868,162.142808 60.6035674,158.453202 59.5,159.070309 Z" id="Path" fill="#000000" fill-rule="nonzero" opacity="0.1"></path>
                    <path d="M58.5,162 C58.5,162 61.483504,162.419061 62.3866378,162.898653 C63.2897715,163.378244 58.5,162 58.5,162 Z" id="Path" fill="#000000" fill-rule="nonzero" opacity="0.1"></path>
                    <path d="M54.5,154 C54.5,154 54.1548613,166.294211 52.8364314,167.885227 C51.5180014,169.476242 54.5,154 54.5,154 Z" id="Path" fill="#000000" fill-rule="nonzero" opacity="0.1"></path>
                    <path d="M50.1389307,187.807506 C50.1389307,187.807506 47.5760036,198.325618 52.7162969,198.975729 C57.8565902,199.62584 56.2682974,187 56.2682974,187 L50.1389307,187.807506 Z" id="Path" fill="#000000" fill-rule="nonzero" opacity="0.1"></path>
                    <path d="M50.1337685,187.80063 C50.1337685,187.80063 47.5825103,198.318311 52.7175499,198.975238 C57.8525894,199.632165 56.2697975,187 56.2697975,187 L50.1337685,187.80063 Z" id="Path" fill="#ECB4B6" fill-rule="nonzero"></path>
                    <path d="M66.4930805,119.107157 C66.3560343,118.90856 66.2401087,118.696811 66.1471077,118.475206 C65.4932189,117.143716 63.8117908,117.799323 62.5801273,118.431274 L61.9227789,119.259231 C61.6228292,119.602842 61.370414,119.983469 61.1720177,120.391335 C61.0457598,120.722609 60.9406136,121.061198 60.8571824,121.40516 C60.6876557,121.993179 60.4385552,122.554162 60.2136728,123.128663 C59.4678084,125.038783 59.0256105,127.049152 58.9024356,129.089953 C58.3430772,129.189235 57.7756866,129.239002 57.2071686,129.238647 L57.1656518,129.238647 L57.1656518,129.198094 C57.2279269,128.968294 57.2798229,128.735114 57.3282591,128.501934 L57.3282591,128.501934 C57.5858251,127.186981 57.6173945,125.839308 57.4216717,124.514223 C57.4216717,124.483809 57.4216717,124.456773 57.4216717,124.426358 C57.3766953,124.132349 57.3178799,123.834961 57.2936618,123.540951 C57.1794907,123.743716 57.0687794,123.949861 56.9476889,124.159385 C56.2038472,125.511151 55.4219485,126.862918 54.0172986,127.454315 C53.4472944,127.672894 52.8464368,127.805091 52.2355383,127.846328 C51.4814039,127.885638 50.7341033,128.006919 50.007473,128.207925 C49.7597147,128.274104 49.5357006,128.406328 49.3605037,128.589799 C49.1649263,128.872441 49.0524428,129.202059 49.0352892,129.542795 C48.9603039,129.992394 48.8445233,130.434587 48.6893164,130.864146 C48.0540452,132.467676 47.0613138,133.912971 45.7831442,135.095176 L45.4613894,135.399323 C44.9134139,135.951661 44.2598832,136.39369 43.5377802,136.700398 C42.8817261,136.915877 42.1918831,137.016551 41.5,136.997787 C41.8079159,136.207003 42.0604761,135.662917 42.0604761,135.662917 C42.0604761,135.662917 43.0707169,132.533578 44.7313867,130.911458 C45.1927333,130.446129 45.8292507,130.185951 46.4923886,130.191643 C47.7320238,128.760133 48.8064092,127.199565 49.6960974,125.538186 C47.3657303,122.449508 47.2624927,118.266784 49.4377719,115.072001 C51.613051,111.877217 55.6020669,110.352986 59.4192541,111.258005 C63.2364413,112.163025 66.0662022,115.303924 66.5,119.117296 L66.4930805,119.107157 Z" id="Path" fill="#000000" fill-rule="nonzero" opacity="0.1"></path>
                    <path d="M66.6025895,111.224082 C66.0588065,110.620099 65.2941115,110.26721 64.5634031,109.917715 C64.3032551,109.819264 64.0743693,109.652857 63.9006675,109.435886 C63.7738673,109.176548 63.7043267,108.893049 63.6967488,108.604561 C63.4418505,106.833331 61.7901095,105.6084 60.1485644,104.88905 C58.0346077,103.962717 55.4958206,103.565717 53.46683,104.665101 C52.4812232,105.201221 51.7029337,106.039331 50.812489,106.721357 C49.6841391,107.58322 48.3858571,108.187203 47.1827371,108.940484 C45.9796171,109.693766 44.8308753,110.637065 44.2599031,111.946825 C43.3762557,113.94879 44.0389913,116.24596 44.1511465,118.431156 C44.3244774,121.878608 42.9208374,125.478752 40.1339492,127.518042 C39.7981796,127.723446 39.4994534,127.983836 39.2503017,128.28829 C39.0008667,128.603379 38.97246,129.039598 39.1789302,129.384281 C39.3182746,129.574298 39.5493824,129.682879 39.7023214,129.859323 C40.0217939,130.222391 39.9572197,130.775477 39.8314699,131.243733 C39.4288906,132.756446 38.6231693,134.131937 37.5,135.223911 C37.547581,135.583586 37.9826075,135.722706 38.3394651,135.776996 C39.2834246,135.917141 40.236591,135.98633 41.1909275,135.983979 C42.6990747,136.107411 44.1770115,135.51241 45.177537,134.379014 C46.8768591,132.784228 48.3144856,130.792442 48.6985323,128.498666 C48.718541,128.157143 48.8287669,127.826998 49.0180049,127.541794 C49.192566,127.360623 49.4117259,127.228404 49.6535513,127.158367 C50.9212456,126.724042 52.3724666,126.937811 53.5925799,126.401692 C55.1831453,125.72306 55.9716307,124.026479 56.8042986,122.472411 C56.8314877,122.767616 56.885866,123.066214 56.933447,123.364813 C57.1761259,124.961661 57.0952257,126.590901 56.6955419,128.155956 C56.4678328,129.041571 56.1381643,129.923793 56.1619548,130.836554 C56.178948,131.515186 56.8688728,135.061039 57.7763108,133.99898 C58.6837487,132.93692 58.3506816,130.588853 58.3506816,129.272306 C58.3517112,126.807603 58.8043859,124.363884 59.6863488,122.061839 C59.903862,121.488394 60.151963,120.921737 60.3184966,120.331326 C60.4008814,119.986452 60.5030083,119.646577 60.6243745,119.313378 C60.8217314,118.904454 61.0707244,118.522444 61.3652789,118.176669 L62.01442,117.345345 C63.2243373,116.704037 64.8760783,116.05255 65.5184221,117.389456 C65.7631244,117.901823 65.8956715,118.468481 66.5380153,117.969686 C66.9152648,117.674481 67.037616,117.094251 67.1361766,116.65314 C67.5406153,114.803867 67.8736824,112.628851 66.6025895,111.224082 Z" id="Path" fill="#464353" fill-rule="nonzero"></path>
                    <path d="M54.1828384,143.447471 C53.9414622,137.190646 45.3940997,135.896598 43.4002662,141.814667 C43.3840789,141.854242 43.3708155,141.895008 43.360588,141.936619 C42.0545113,145.944103 42.6232333,156.093235 42.6232333,156.093235 C42.6232333,156.093235 42.791866,162.909007 43.4167989,165.175285 C44.0417317,167.441564 45.7974956,173.94568 45.7974956,174.999212 C45.7974956,176.052743 47.4276115,180.053452 48.1120618,180.344782 C48.7965121,180.636113 49.143697,182.899003 49.3123297,183.30551 C49.4809624,183.712018 49.9736344,189 49.9736344,189 C49.9736344,189 56.3816763,188.593493 56.4940981,187.546736 C56.6065199,186.49998 55.0755996,181.388151 55.0755996,181.388151 C55.0755996,181.388151 53.9480752,179.298026 53.8025882,177.614408 C53.6571012,175.930791 52.770953,175.165202 52.9461987,174.003269 C53.1214444,172.841335 52.4336876,172.262062 52.4336876,171.506636 C52.4336876,170.75121 51.924483,168.718674 51.924483,168.718674 C51.924483,168.718674 50.8465565,167.844683 51.0184957,166.801315 C51.1904349,165.757946 49.4875754,163.664433 49.9405691,162.909007 C50.3935628,162.153581 50.5059846,160.29381 50.5059846,160.29381 C50.5059846,160.29381 51.0747066,151.929923 51.4714894,149.663645 C51.8682721,147.397367 54.192758,143.738801 54.192758,143.738801 C54.192758,143.738801 54.1894514,143.633787 54.1828384,143.447471 Z" id="Path" fill="#000000" fill-rule="nonzero" opacity="0.1"></path>
                    <path d="M54.5,180.995483 C52.9517271,182.715785 50.7408458,183.08737 48.9957585,182.984152 C48.7923837,182.179051 48.4971622,181.188157 48.0674508,181.002365 C47.3851611,180.706473 45.7712834,176.636239 45.7712834,175.576533 C45.7712834,174.516827 44.0294763,167.903987 43.4095111,165.598782 C42.7895459,163.293578 42.6222537,156.377965 42.6222537,156.377965 C42.6222537,156.377965 42.0580525,146.056154 43.353747,141.996242 C43.353747,141.958395 43.3767087,141.917108 43.3931099,141.87582 C45.3612535,135.861645 53.8505126,137.179397 54.0899701,143.534191 C54.0899701,143.723425 54.0899701,143.826643 54.0899701,143.826643 C54.0899701,143.826643 51.7938026,147.542495 51.3903332,149.844258 C50.9868638,152.146022 50.4390638,160.640872 50.4390638,160.640872 C50.4390638,160.640872 50.3242554,162.529764 49.8748627,163.297018 C49.4254699,164.064273 51.1115129,166.190566 50.9442207,167.250272 C50.7769285,168.309978 51.8430062,169.197654 51.8430062,169.197654 C51.8430062,169.197654 52.3481631,171.262016 52.3481631,172.032711 C52.3481631,172.803406 53.0238923,173.388309 52.8566001,174.568436 C52.6893079,175.748563 53.5880935,176.515817 53.732424,178.225797 C53.8529369,179.184503 54.1117546,180.118408 54.5,180.995483 L54.5,180.995483 Z" id="Path" fill="#000000" fill-rule="nonzero" opacity="0.1"></path>
                    <path d="M54.1828282,143.447833 C53.9414522,137.190592 45.3940972,135.896458 43.4002655,141.81492 L43.3605872,141.933493 C42.0545117,145.944631 42.6232332,156.094437 42.6232332,156.094437 C42.6232332,156.094437 42.7918657,162.907274 43.4167981,165.173703 C44.0417304,167.440131 45.7974927,173.948068 45.7974927,174.998281 C45.7974927,176.048495 47.4276072,180.052858 48.1120569,180.344207 C48.7965066,180.635557 49.1436913,182.901986 49.3123238,183.30852 C49.4809563,183.715054 49.9736279,189 49.9736279,189 C49.9736279,189 56.3816642,188.593466 56.4940859,187.550028 C56.6065076,186.50659 55.0788952,181.391033 55.0788952,181.391033 C55.0788952,181.391033 53.9480653,179.297382 53.8025784,177.613652 C53.6570915,175.929923 52.7511049,175.174446 52.923044,174.012436 C53.094983,172.850425 52.4105333,172.267726 52.4105333,171.51225 C52.4105333,170.756774 51.9013292,168.724102 51.9013292,168.724102 C51.9013292,168.724102 50.8234036,167.853441 50.9953426,166.806616 C51.1672817,165.75979 49.4644237,163.669526 49.917417,162.91405 C50.3704103,162.158573 50.482832,160.302067 50.482832,160.302067 C50.482832,160.302067 51.0515535,151.934236 51.4483359,149.667807 C51.8451184,147.401379 54.1696021,143.74257 54.1696021,143.74257 C54.1696021,143.74257 54.1894413,143.634161 54.1828282,143.447833 Z" id="Path" fill="#FF748E" fill-rule="nonzero"></path>
                    <path d="M43.5,160 C43.6853979,159.811859 47.2406752,155.904318 48.3603331,157.300902 C49.4799909,158.697486 43.5,160 43.5,160 Z" id="Path" fill="#000000" fill-rule="nonzero" opacity="0.1"></path>
                    <path d="M43.5,163 C43.6231484,162.841645 46.6662109,162.68735 47.4180644,160.563765 C48.169918,158.44018 43.5,163 43.5,163 Z" id="Path" fill="#000000" fill-rule="nonzero" opacity="0.1"></path>
                    <g id="Group" opacity="0.1" transform="translate(38.500000, 114.000000)" fill="#000000" fill-rule="nonzero">
                        <path d="M2.31235955,16.6005882 C2.39020296,16.692745 2.4486774,16.7997408 2.48426966,16.9151471 C2.6133912,16.5151718 2.54986229,16.0776931 2.31235955,15.7313235 C2.15730337,15.5520588 1.93146067,15.4472059 1.78988764,15.2577941 C1.78988764,15.2577941 1.77303371,15.2273529 1.76292135,15.2104412 C1.60367663,15.4978148 1.61402626,15.8496116 1.78988764,16.1270588 C1.94831461,16.3164706 2.15730337,16.4247059 2.31235955,16.6005882 Z" id="Path"></path>
                        <path d="M6.7247191,5.33397059 C6.7247191,4.99573529 6.7247191,4.6575 6.7247191,4.34632353 C6.66404494,3.1625 6.44494382,1.94823529 6.38764045,0.761029412 C6.31685393,2.21544118 6.64044944,3.74088235 6.7247191,5.21558824 C6.7247191,5.24941176 6.72134831,5.28661765 6.7247191,5.33397059 Z" id="Path"></path>
                        <path d="M20.2348315,19.8577941 C19.4325843,20.8014706 18.8022472,18.0854412 18.6640449,17.0132353 C18.6421769,17.1995659 18.6320444,17.3870951 18.6337079,17.5747059 C18.6539326,18.2511765 19.3348315,21.7857353 20.2348315,20.7270588 C20.8449438,20.01 20.9089888,18.7889706 20.8685393,17.6626471 C20.8247191,18.5251471 20.6898876,19.3233824 20.2348315,19.8577941 Z" id="Path"></path>
                        <path d="M19.3988764,10.1267647 C19.4674603,10.5816341 19.5091064,11.0401838 19.5235955,11.5 C19.5528719,10.7490996 19.5111119,9.99710549 19.3988764,9.25411765 C19.3550562,8.95985294 19.2977528,8.66220588 19.2707865,8.36455882 C18.4382022,9.92720588 17.6662921,11.5980882 16.088764,12.2847059 C14.8651685,12.8157353 13.4393258,12.6060294 12.1820225,13.0389706 C11.9406335,13.1052068 11.7223783,13.2375462 11.5516854,13.4211765 C11.3620616,13.7045213 11.252558,14.0341595 11.2348315,14.375 C10.8505618,16.6614706 9.42134831,18.6469118 7.73932584,20.2366176 C6.74700128,21.3664034 5.28117861,21.9595093 3.78539326,21.8364706 C2.84005796,21.8371283 1.89594919,21.7681686 0.960674157,21.6301471 C0.815652845,21.6076945 0.673326552,21.5702906 0.535955056,21.5185294 C0.404494382,21.6673529 0.266292135,21.8094118 0.124719101,21.9480882 C0.171910112,22.3066176 0.606741573,22.4452941 0.960674157,22.4994118 C1.89576964,22.6390679 2.8399997,22.7080364 3.78539326,22.7057353 C5.28117861,22.828774 6.74700128,22.2356681 7.73932584,21.1058824 C9.4247191,19.5161765 10.8505618,17.5307353 11.2348315,15.2442647 C11.2530561,14.903519 11.3625168,14.5740101 11.5516854,14.2904412 C11.7236891,14.108438 11.9414595,13.9763926 12.1820225,13.9082353 C13.4393258,13.4752941 14.8786517,13.6883824 16.088764,13.1539706 C17.6662921,12.4775 18.4483146,10.7863235 19.2707865,9.23720588 C19.2977528,9.53147059 19.3550562,9.82911765 19.3988764,10.1267647 Z" id="Path"></path>
                        <path d="M29.5179775,2.56720588 C29.4202247,3.00691176 29.2955056,3.58191176 28.9213483,3.87955882 C28.2876404,4.37338235 28.1595506,3.81191176 27.9101124,3.30117647 C27.2730337,1.96852941 25.6348315,2.62470588 24.4348315,3.25720588 L23.7910112,4.08588235 C23.4987726,4.42979178 23.2528465,4.81075005 23.0595506,5.21897059 C22.9361178,5.55008236 22.8347705,5.88906589 22.7561798,6.23367647 C22.5876404,6.82220588 22.3449438,7.38367647 22.1258427,7.95529412 C21.2544486,10.250839 20.806703,12.6863599 20.8044944,15.1427941 C20.8044944,15.2544118 20.8044944,15.3761765 20.8044944,15.5013235 C20.8645274,13.2180762 21.3101768,10.9615971 22.1224719,8.82794118 C22.341573,8.25632353 22.5842697,7.69147059 22.752809,7.10294118 C22.8313997,6.7583306 22.932747,6.41934707 23.0561798,6.08823529 C23.2494757,5.68001476 23.4954019,5.29905649 23.7876404,4.95514706 L24.4314607,4.12647059 C25.6314607,3.48720588 27.2696629,2.83779412 27.9067416,4.17044118 C28.152809,4.68117647 28.2808989,5.24602941 28.9179775,4.74882353 C29.2921348,4.45455882 29.4168539,3.87617647 29.5146067,3.43647059 C29.7687666,2.41735641 29.8821866,1.36803561 29.8516854,0.317941176 C29.7976642,1.07512596 29.686104,1.82706649 29.5179775,2.56720588 L29.5179775,2.56720588 Z" id="Path"></path>
                    </g>
                    <path d="M75.6480617,148.800107 L75.8364824,148.921053 C75.6662127,148.814102 75.5492273,148.646368 75.5123591,148.456327 C75.4754908,148.266285 75.5219035,148.070243 75.6409515,147.913166 L84.1163244,136.309027 C84.2292839,136.15276 84.4036733,136.045665 84.600659,136.011589 C84.7976446,135.977514 85.0008703,136.019287 85.1650807,136.127608 L84.9766601,136.003301 C85.5269881,136.362588 85.6653957,137.075206 85.2859544,137.595763 L77.333182,148.50446 C76.9529703,149.023997 76.2002683,149.156055 75.6480617,148.800107 L75.6480617,148.800107 Z" id="Path" fill="#464353" fill-rule="nonzero"></path>
                    <path d="M80.2723733,134.75045 L80.4393261,134.750359 L80.4307499,150.505519 L80.2637972,150.50561 C79.9363737,150.505788 79.671089,150.240614 79.6712671,149.913326 L79.6791962,135.346785 C79.6793744,135.019497 79.944948,134.754034 80.2723714,134.753856 L80.2723733,134.75045 Z" id="Path" fill="#9F9EFF" fill-rule="nonzero" transform="translate(80.055297, 142.627985) rotate(34.560000) translate(-80.055297, -142.627985) "></path>
                    <path d="M83.3207818,138.55593 Z" id="Rectangle" fill="#464353" fill-rule="nonzero" transform="translate(83.320782, 138.555930) rotate(34.560000) translate(-83.320782, -138.555930) "></path>
                    <rect id="Rectangle" fill-opacity="0.2" fill="#EC7C7C" x="131" y="97" width="105" height="4"></rect>
                    <rect id="Rectangle-Copy" fill-opacity="0.2" fill="#EC7C7C" x="154" y="111" width="60" height="4"></rect>
                </g>
            </g>
        </g>
    </g>
</svg>