<?xml version="1.0" encoding="UTF-8"?>
<svg width="386px" height="270px" viewBox="0 0 386 270" version="1.1" xmlns="http://www.w3.org/2000/svg" xmlns:xlink="http://www.w3.org/1999/xlink">
    <!-- Generator: Sketch 55 (78076) - https://sketchapp.com -->
    <title>undraw_pie_graph_x9dy</title>
    <desc>Created with Sketch.</desc>
    <g id="V4" stroke="none" stroke-width="1" fill="none" fill-rule="evenodd">
        <g id="Mes_influenceurs-Copy-6" transform="translate(-552.000000, -136.000000)">
            <g id="undraw_pie_graph_x9dy" transform="translate(552.000000, 137.000000)">
                <rect id="Rectangle" fill="#F1F1F1" fill-rule="nonzero" x="0" y="9" width="375" height="209"></rect>
                <rect id="Rectangle" stroke="#3F3D56" stroke-width="2" x="10" y="0" width="375" height="209"></rect>
                <path d="M10,11 L385,11" id="Path" stroke="#3F3D56" stroke-width="2"></path>
                <circle id="Oval" fill="#EC7C7C" fill-rule="nonzero" cx="19" cy="6" r="3"></circle>
                <circle id="Oval" fill="#EC7C7C" fill-rule="nonzero" cx="29" cy="6" r="3"></circle>
                <circle id="Oval" fill="#EC7C7C" fill-rule="nonzero" cx="38" cy="6" r="3"></circle>
                <path d="M239.425159,144 C256.584542,127.414162 261.717741,102.470397 252.431153,80.799948 C243.144565,59.1294994 221.267025,44.9999937 197,45 L197,102.992859 L239.425159,144 Z" id="Path" fill="#3F3D56" fill-rule="nonzero"></path>
                <path d="M198,45 C170.568364,45.0031848 146.632036,63.0004725 139.861776,88.7130696 C133.091516,114.425667 145.211539,141.305217 169.299735,154 L198,103.029899 L198,45 Z" id="Path" fill="#EC7C7C" fill-rule="nonzero"></path>
                <rect id="Rectangle" fill="#EC7C7C" fill-rule="nonzero" x="70" y="153" width="11" height="11"></rect>
                <rect id="Rectangle" fill="#3F3D56" fill-rule="nonzero" x="86" y="153" width="11" height="11"></rect>
                <rect id="Rectangle" fill="#575A89" fill-rule="nonzero" x="103" y="153" width="11" height="11"></rect>
                <rect id="Rectangle" fill="#3F3D56" fill-rule="nonzero" x="267" y="155" width="47" height="2"></rect>
                <rect id="Rectangle" fill="#3F3D56" fill-rule="nonzero" x="267" y="161" width="47" height="2"></rect>
                <rect id="Rectangle" fill="#3F3D56" fill-rule="nonzero" x="267" y="166" width="47" height="2"></rect>
                <polygon id="Path" fill="#FFB9B9" fill-rule="nonzero" points="287 248.918349 287.75017 255.040825 292.000227 257 296.749943 255.53073 299.999773 257 301 251.367429 295.250057 245"></polygon>
                <path d="M290.676589,252.88223 C290.676589,252.88223 286.743232,248.56308 286.680303,250.722657 C286.617374,252.882234 277.991556,260.29011 277.991556,260.29011 C277.991556,260.29011 264.545444,264.113532 274.947151,266.503172 C285.348859,268.892812 308.18193,261.962857 308.943033,260.529074 C309.704137,259.095292 302.600517,248.102954 301.839414,249.058808 C301.07831,250.014661 297.272806,253.360159 290.676589,252.88223 Z" id="Path" fill="#2F2E41" fill-rule="nonzero"></path>
                <path d="M281.125093,181 C281.125093,181 279.609458,192.425087 281.125093,194.126695 C282.640729,195.828304 281.882909,199.231524 281.125093,199.717704 C280.367278,200.203883 282.135515,202.148575 283.398549,203.120925 C284.661582,204.093275 286.42982,208.468837 286.42982,208.468837 C286.42982,208.468837 293.250186,225.728011 293.250186,227.42962 C293.250186,229.131228 296.281457,232.777532 296.028851,233.992965 C295.776244,235.208398 297.797093,239.097794 297.544491,239.827052 C297.291889,240.55631 300.828368,247.119665 299.817942,248.09201 C298.807515,249.064356 284.914184,252.467577 285.672004,250.279794 C286.429824,248.09201 286.935033,245.418052 286.42982,245.418052 C285.924606,245.418052 283.651155,242.744098 284.156364,241.771761 C284.661573,240.799424 269,215.275283 269,215.275283 L281.125093,181 Z" id="Path" fill="#2F2E41" fill-rule="nonzero"></path>
                <path d="M290.676589,252.88223 C290.676589,252.88223 286.743232,248.56308 286.680303,250.722657 C286.617374,252.882234 277.991556,260.29011 277.991556,260.29011 C277.991556,260.29011 264.545444,264.113532 274.947151,266.503172 C285.348859,268.892812 308.18193,261.962857 308.943033,260.529074 C309.704137,259.095292 302.600517,248.102954 301.839414,249.058808 C301.07831,250.014661 297.272806,253.360159 290.676589,252.88223 Z" id="Path" fill="#000000" fill-rule="nonzero" opacity="0.1"></path>
                <path d="M281.125093,181 C281.125093,181 279.609458,192.425087 281.125093,194.126695 C282.640729,195.828304 281.882909,199.231524 281.125093,199.717704 C280.367278,200.203883 282.135515,202.148575 283.398549,203.120925 C284.661582,204.093275 286.42982,208.468837 286.42982,208.468837 C286.42982,208.468837 293.250186,225.728011 293.250186,227.42962 C293.250186,229.131228 296.281457,232.777532 296.028851,233.992965 C295.776244,235.208398 297.797093,239.097794 297.544491,239.827052 C297.291889,240.55631 300.828368,247.119665 299.817942,248.09201 C298.807515,249.064356 284.914184,252.467577 285.672004,250.279794 C286.429824,248.09201 286.935033,245.418052 286.42982,245.418052 C285.924606,245.418052 283.651155,242.744098 284.156364,241.771761 C284.661573,240.799424 269,215.275283 269,215.275283 L281.125093,181 Z" id="Path" fill="#000000" fill-rule="nonzero" opacity="0.1"></path>
                <polygon id="Path" fill="#FFB9B9" fill-rule="nonzero" points="254.800185 246 252 252.686464 253.273021 262 261.418509 261.522272 266 257.701311 266 249.582096"></polygon>
                <path d="M256.696502,253.645144 C256.696502,253.645144 253.910175,245.025941 252.390356,247.420164 C251.427597,248.957852 250.581142,250.557996 249.857332,252.208612 C249.857332,252.208612 237.445498,259.87012 234.152565,259.87012 C230.859631,259.87012 227.819997,263.700876 232.12612,265.137413 C236.432244,266.573949 269.361616,268.489323 269.868218,265.137413 C270.37482,261.785502 269.361616,251.011498 267.841801,252.208612 C266.321986,253.405726 258.469621,256.039376 256.696502,253.645144 Z" id="Path" fill="#2F2E41" fill-rule="nonzero"></path>
                <path d="M249.960565,145 C249.960565,145 244.676053,153.90691 244.172756,154.896565 C243.669459,155.886219 240.901392,162.318987 246.185904,164.793129 C251.470416,167.267271 256,146.731903 256,146.731903 L249.960565,145 Z" id="Path" fill="#FFB9B9" fill-rule="nonzero"></path>
                <path d="M255.407134,131 C255.407134,131 247.742351,146.102564 249.179496,146.589744 C250.616642,147.076925 256.365229,150 256.365229,150 L259,134.653846 L255.407134,131 Z" id="Path" fill="#575A88" fill-rule="nonzero"></path>
                <path d="M255.407134,131 C255.407134,131 247.742351,146.102564 249.179496,146.589744 C250.616642,147.076925 256.365229,150 256.365229,150 L259,134.653846 L255.407134,131 Z" id="Path" fill="#000000" fill-rule="nonzero" opacity="0.1"></path>
                <path d="M256.726223,144.118815 C256.726223,144.118815 254.963269,156.886171 255.718823,159.586955 C256.474376,162.287738 255.215121,202.799537 256.222525,205.009268 C257.22993,207.218998 257.985479,221.459514 257.985479,223.178196 C257.985479,224.896878 255.970651,238.891862 255.466972,240.119491 C254.963292,241.347119 253.452144,245.521063 254.20772,247.485271 C254.963297,249.449479 265.289145,254.359975 266.800233,252.641329 C268.311322,250.922683 267.052084,245.521071 268.311336,245.275545 C269.570587,245.030018 271.081694,233.490299 271.081694,233.490299 L279.392764,188.313508 C279.392764,188.313508 295.007501,150.502502 291.481593,146.819612 C287.955686,143.136722 256.726223,144.118815 256.726223,144.118815 Z" id="Path" fill="#2F2E41" fill-rule="nonzero"></path>
                <ellipse id="Oval" fill="#FFB9B9" fill-rule="nonzero" cx="265.5" cy="45" rx="12.5" ry="12"></ellipse>
                <path d="M261,55.1708255 C261,55.1708255 264.927842,65.346054 264.43686,67.5264613 C263.945879,69.7068687 275.974894,63.6501825 275.974894,63.6501825 C275.974894,63.6501825 275.238422,51.7790782 275.974894,48.6296034 C276.711366,45.4801285 261,55.1708255 261,55.1708255 Z" id="Path" fill="#FFB9B9" fill-rule="nonzero"></path>
                <path d="M294.455142,122.511277 C294.40059,124.571758 294.365772,125.799691 294.365772,125.799691 C294.365772,125.799691 295.110834,137.096713 293.86906,140.780504 C292.627287,144.464296 292.627287,147.165769 291.882198,149.62164 C291.663675,150.336286 288.690811,150.719404 284.51601,150.88886 C280.686334,151.043581 275.845901,151.021486 271.19919,150.915872 C263.505154,150.739056 256.332635,150.331405 255.125663,150.112811 C252.393756,149.62164 255.622374,145.44666 254.628951,143.236376 C253.635529,141.026092 256.367458,112.783562 256.367458,112.783562 C256.367458,112.783562 256.119103,96.8204026 257.36088,90.6807258 C258.602658,84.5410489 263.3214,74.7175713 264.314818,73.4896333 C265.308235,72.2616952 264.563173,71.5249369 262.327955,70.0514157 C260.092737,68.5778945 262.327955,62.9293928 262.327955,62.9293928 C266.549991,59.4911752 277.229257,59 277.229257,59 C277.229257,59 293.620682,75.6999173 294.614105,79.1381349 C295.2151,81.2157926 294.999065,97.8125477 294.735796,110.627297 C294.634014,115.448214 294.527178,119.736147 294.455142,122.511277 Z" id="Path" fill="#575A88" fill-rule="nonzero"></path>
                <path d="M273.837427,153 C273.837427,153 264.427225,171.741821 271.856331,172.943218 C279.285436,174.144615 283,155.883355 283,155.883355 L273.837427,153 Z" id="Path" fill="#FFB9B9" fill-rule="nonzero"></path>
                <path d="M254.071711,39.6141085 C253.637673,37.5477414 255.24646,35.6161429 256.940839,34.3180465 C260.630872,31.5088121 265.170666,29.9891643 269.840391,30.0000582 C273.125183,30.0175726 276.515273,30.8705277 278.998002,32.9818682 C281.893838,35.4445199 283.214795,39.393745 282.971658,43.1471598 C282.728521,46.9005746 281.06558,50.4605269 278.822524,53.5096274 C277.745959,54.9730534 276.016963,56.4879425 274.296675,55.8501422 C273.623542,55.5407811 273.045932,55.0618658 272.622644,54.462148 C271.519212,53.1181862 270.557717,51.667669 269.752966,50.1329342 C269.137303,48.9585236 268.603981,47.7206789 267.731394,46.7152935 C266.858807,45.7099082 265.547385,44.9537468 264.214492,45.1342832 C263.113473,45.283415 262.033448,46.0442407 260.983337,45.6867921 C259.815059,45.2891014 259.53265,43.8226537 259.439741,42.6122903 C259.337888,41.2856146 259.410031,39.7488368 259.034749,38.4945399 C258.624274,38.7096723 254.27343,40.6041798 254.071711,39.6141085 Z" id="Path" fill="#2F2E41" fill-rule="nonzero"></path>
                <path d="M294.698747,121.575855 C291.879854,131.472638 285.414004,148.151855 285.04403,148.869791 C284.950874,149.053568 284.804938,149.413755 284.626247,149.889111 C280.745174,150.043482 275.839778,150.021437 271.130704,149.916062 C271.860637,148.058743 272.711312,146.26512 272.711312,145.684398 C272.711312,144.459247 278.751827,112.850325 278.751827,112.850325 C278.751827,112.850325 273.969769,98.8835956 269.691053,87.1221362 C265.412336,75.3606769 282.401301,77.6884643 282.401301,77.6884643 C291.462076,75.4831768 293.098055,79.2811633 293.098055,79.2811633 C293.098055,79.2811633 293.89589,99.9372194 294.983195,109.718828 C295.262595,112.2255 295.559571,114.016672 295.866621,114.565537 C296.269349,115.283478 295.725647,117.983716 294.698747,121.575855 Z" id="Path" fill="#000000" fill-rule="nonzero" opacity="0.1"></path>
                <path d="M279.169958,70.2969936 C279.169958,70.2969936 267.701701,74.9457794 271.939978,86.6900872 C276.178255,98.434395 280.915125,112.380743 280.915125,112.380743 C280.915125,112.380743 274.931695,143.943584 274.931695,145.166953 C274.931695,146.390321 271.192065,152.996491 272.687908,154.219855 C274.183751,155.443219 284.156165,157.889937 284.405457,156.666587 C285.169575,153.848133 286.084988,151.071295 287.147864,148.347701 C287.64648,147.369011 299.364029,116.784873 297.868173,114.093472 C296.372317,111.402071 295.125771,78.8605486 295.125771,78.8605486 C295.125771,78.8605486 288.1451,68.0949354 279.169958,70.2969936 Z" id="Path" fill="#575A88" fill-rule="nonzero"></path>
                <path d="M254,162.720067 L209.358244,122 L183,174.917348 C191.787125,179.578808 201.640257,182.014545 211.650747,181.999935 C228.189178,181.999935 243.16188,173.255286 254,162.720067 Z" id="Path" fill="#575A89" fill-rule="nonzero"></path>
                <path d="M254,162.720067 L209.358244,122 L183,174.917348 C191.787125,179.578808 201.640257,182.014545 211.650747,181.999935 C228.189178,181.999935 243.16188,173.255286 254,162.720067 Z" id="Path" fill="#000000" fill-rule="nonzero" opacity="0.1"></path>
                <path d="M250,166.011134 L207.650747,125 L179,175.942535 C202.324787,188.231939 231.219749,184.190144 250,166.011134 Z" id="Path" fill="#575A89" fill-rule="nonzero"></path>
                <path d="M181,268 L361,268" id="Path" stroke="#3F3D56" stroke-width="2"></path>
                <path d="M336,268 L336,216" id="Path" stroke="#3F3D56" stroke-width="2" fill="#3F3D56" fill-rule="nonzero"></path>
                <circle id="Oval" fill="#3F3D56" fill-rule="nonzero" cx="336.5" cy="216.5" r="7.5"></circle>
                <path d="M336,248 C336,248 334.93023,225.607715 313,228.210516" id="Path" fill="#3F3D56" fill-rule="nonzero"></path>
            </g>
        </g>
    </g>
</svg>