<?xml version="1.0" encoding="UTF-8"?>
<svg width="557px" height="445px" viewBox="0 0 557 445" version="1.1" xmlns="http://www.w3.org/2000/svg" xmlns:xlink="http://www.w3.org/1999/xlink">
    <!-- Generator: Sketch 54.1 (76490) - https://sketchapp.com -->
    <title>undraw_data_xmfy (1)</title>
    <desc>Created with Sketch.</desc>
    <defs>
        <linearGradient x1="50%" y1="100%" x2="50%" y2="0%" id="linearGradient-1">
            <stop stop-color="#808080" stop-opacity="0.25" offset="0%"></stop>
            <stop stop-color="#808080" stop-opacity="0.12" offset="54%"></stop>
            <stop stop-color="#808080" stop-opacity="0.1" offset="100%"></stop>
        </linearGradient>
        <linearGradient x1="50%" y1="100%" x2="50%" y2="0%" id="linearGradient-2">
            <stop stop-color="#808080" stop-opacity="0.25" offset="0%"></stop>
            <stop stop-color="#808080" stop-opacity="0.12" offset="54%"></stop>
            <stop stop-color="#808080" stop-opacity="0.1" offset="100%"></stop>
        </linearGradient>
        <linearGradient x1="50%" y1="100%" x2="50%" y2="0%" id="linearGradient-3">
            <stop stop-color="#808080" stop-opacity="0.25" offset="0%"></stop>
            <stop stop-color="#808080" stop-opacity="0.12" offset="54%"></stop>
            <stop stop-color="#808080" stop-opacity="0.1" offset="100%"></stop>
        </linearGradient>
        <linearGradient x1="50%" y1="100%" x2="50%" y2="0%" id="linearGradient-4">
            <stop stop-color="#808080" stop-opacity="0.25" offset="0%"></stop>
            <stop stop-color="#808080" stop-opacity="0.12" offset="54%"></stop>
            <stop stop-color="#808080" stop-opacity="0.1" offset="100%"></stop>
        </linearGradient>
        <linearGradient x1="50%" y1="100%" x2="50%" y2="0%" id="linearGradient-5">
            <stop stop-color="#808080" stop-opacity="0.25" offset="0%"></stop>
            <stop stop-color="#808080" stop-opacity="0.12" offset="54%"></stop>
            <stop stop-color="#808080" stop-opacity="0.1" offset="100%"></stop>
        </linearGradient>
        <linearGradient x1="49.9285714%" y1="100.071429%" x2="49.9285714%" y2="0.0714285714%" id="linearGradient-6">
            <stop stop-color="#808080" stop-opacity="0.25" offset="0%"></stop>
            <stop stop-color="#808080" stop-opacity="0.12" offset="54%"></stop>
            <stop stop-color="#808080" stop-opacity="0.1" offset="100%"></stop>
        </linearGradient>
        <linearGradient x1="50%" y1="100%" x2="50%" y2="4.0602442e-13%" id="linearGradient-7">
            <stop stop-color="#808080" stop-opacity="0.25" offset="0%"></stop>
            <stop stop-color="#808080" stop-opacity="0.12" offset="54%"></stop>
            <stop stop-color="#808080" stop-opacity="0.1" offset="100%"></stop>
        </linearGradient>
        <linearGradient x1="50.2514286%" y1="62.8225432%" x2="50.2514286%" y2="36.8225432%" id="linearGradient-8">
            <stop stop-color="#808080" stop-opacity="0.25" offset="0%"></stop>
            <stop stop-color="#808080" stop-opacity="0.12" offset="54%"></stop>
            <stop stop-color="#808080" stop-opacity="0.1" offset="100%"></stop>
        </linearGradient>
        <linearGradient x1="50.0349437%" y1="100.017363%" x2="50.0349437%" y2="-0.00121488599%" id="linearGradient-9">
            <stop stop-color="#808080" stop-opacity="0.25" offset="0%"></stop>
            <stop stop-color="#808080" stop-opacity="0.12" offset="54%"></stop>
            <stop stop-color="#808080" stop-opacity="0.1" offset="100%"></stop>
        </linearGradient>
        <linearGradient x1="49.9000045%" y1="65.6138856%" x2="49.9000045%" y2="34.6138856%" id="linearGradient-10">
            <stop stop-color="#808080" stop-opacity="0.25" offset="0%"></stop>
            <stop stop-color="#808080" stop-opacity="0.12" offset="54%"></stop>
            <stop stop-color="#808080" stop-opacity="0.1" offset="100%"></stop>
        </linearGradient>
        <linearGradient x1="50.0140677%" y1="100%" x2="50.0140677%" y2="-0.00389417185%" id="linearGradient-11">
            <stop stop-color="#808080" stop-opacity="0.25" offset="0%"></stop>
            <stop stop-color="#808080" stop-opacity="0.12" offset="54%"></stop>
            <stop stop-color="#808080" stop-opacity="0.1" offset="100%"></stop>
        </linearGradient>
        <linearGradient x1="50%" y1="100%" x2="50%" y2="0%" id="linearGradient-12">
            <stop stop-color="#808080" stop-opacity="0.25" offset="0%"></stop>
            <stop stop-color="#808080" stop-opacity="0.12" offset="54%"></stop>
            <stop stop-color="#808080" stop-opacity="0.1" offset="100%"></stop>
        </linearGradient>
        <linearGradient x1="50%" y1="100%" x2="50%" y2="0%" id="linearGradient-13">
            <stop stop-color="#808080" stop-opacity="0.25" offset="0%"></stop>
            <stop stop-color="#808080" stop-opacity="0.12" offset="54%"></stop>
            <stop stop-color="#808080" stop-opacity="0.1" offset="100%"></stop>
        </linearGradient>
        <linearGradient x1="50%" y1="100%" x2="50%" y2="0%" id="linearGradient-14">
            <stop stop-color="#808080" stop-opacity="0.25" offset="0%"></stop>
            <stop stop-color="#808080" stop-opacity="0.12" offset="54%"></stop>
            <stop stop-color="#808080" stop-opacity="0.1" offset="100%"></stop>
        </linearGradient>
        <linearGradient x1="50.0273059%" y1="99.999138%" x2="50.0273059%" y2="0.0062036416%" id="linearGradient-15">
            <stop stop-color="#808080" stop-opacity="0.25" offset="0%"></stop>
            <stop stop-color="#808080" stop-opacity="0.12" offset="54%"></stop>
            <stop stop-color="#808080" stop-opacity="0.1" offset="100%"></stop>
        </linearGradient>
        <linearGradient x1="50%" y1="100%" x2="50%" y2="0%" id="linearGradient-16">
            <stop stop-color="#808080" stop-opacity="0.25" offset="0%"></stop>
            <stop stop-color="#808080" stop-opacity="0.12" offset="54%"></stop>
            <stop stop-color="#808080" stop-opacity="0.1" offset="100%"></stop>
        </linearGradient>
        <linearGradient x1="50%" y1="100%" x2="50%" y2="0%" id="linearGradient-17">
            <stop stop-color="#808080" stop-opacity="0.25" offset="0%"></stop>
            <stop stop-color="#808080" stop-opacity="0.12" offset="54%"></stop>
            <stop stop-color="#808080" stop-opacity="0.1" offset="100%"></stop>
        </linearGradient>
        <linearGradient x1="50%" y1="100%" x2="50%" y2="0%" id="linearGradient-18">
            <stop stop-color="#808080" stop-opacity="0.25" offset="0%"></stop>
            <stop stop-color="#808080" stop-opacity="0.12" offset="54%"></stop>
            <stop stop-color="#808080" stop-opacity="0.1" offset="100%"></stop>
        </linearGradient>
        <linearGradient x1="50%" y1="50%" x2="50%" y2="50%" id="linearGradient-19">
            <stop stop-color="#808080" stop-opacity="0.25" offset="0%"></stop>
            <stop stop-color="#808080" stop-opacity="0.12" offset="54%"></stop>
            <stop stop-color="#808080" stop-opacity="0.1" offset="100%"></stop>
        </linearGradient>
        <linearGradient x1="50%" y1="100%" x2="50%" y2="0%" id="linearGradient-20">
            <stop stop-color="#808080" stop-opacity="0.25" offset="0%"></stop>
            <stop stop-color="#808080" stop-opacity="0.12" offset="54%"></stop>
            <stop stop-color="#808080" stop-opacity="0.1" offset="100%"></stop>
        </linearGradient>
        <linearGradient x1="0.0174947516%" y1="49.9860514%" x2="100%" y2="49.9860514%" id="linearGradient-21">
            <stop stop-color="#808080" stop-opacity="0.25" offset="0%"></stop>
            <stop stop-color="#808080" stop-opacity="0.12" offset="54%"></stop>
            <stop stop-color="#808080" stop-opacity="0.1" offset="100%"></stop>
        </linearGradient>
    </defs>
    <g id="V4" stroke="none" stroke-width="1" fill="none" fill-rule="evenodd">
        <g id="aaaa" transform="translate(-22.000000, -78.000000)">
            <g id="undraw_data_xmfy-(1)" transform="translate(22.000000, 78.000000)">
                <ellipse id="Oval" fill="#F2F2F2" fill-rule="nonzero" cx="232" cy="434.5" rx="42" ry="10.5"></ellipse>
                <ellipse id="Oval" fill="#F2F2F2" fill-rule="nonzero" cx="234" cy="316.5" rx="42" ry="10.5"></ellipse>
                <ellipse id="Oval" fill="#F2F2F2" fill-rule="nonzero" cx="42" cy="321.5" rx="42" ry="10.5"></ellipse>
                <rect id="Rectangle" fill="#F5F5F5" fill-rule="nonzero" x="14" y="2" width="239" height="9"></rect>
                <rect id="Rectangle" fill="url(#linearGradient-1)" fill-rule="nonzero" x="10" y="0" width="248" height="303"></rect>
                <rect id="Rectangle" fill="#FFFFFF" fill-rule="nonzero" x="14" y="11" width="239" height="287"></rect>
                <circle id="Oval" fill="#FF5252" fill-rule="nonzero" cx="18.5" cy="6.5" r="2.5"></circle>
                <circle id="Oval" fill="#FFFF00" fill-rule="nonzero" cx="25.5" cy="6.5" r="2.5"></circle>
                <circle id="Oval" fill="#69F0AE" fill-rule="nonzero" cx="31.5" cy="6.5" r="2.5"></circle>
                <g id="Group" opacity="0.2" transform="translate(21.000000, 23.000000)" fill="#5C82F7" fill-rule="nonzero">
                    <rect id="Rectangle" x="0.388533333" y="0" width="93.3733333" height="6"></rect>
                </g>
                <rect id="Rectangle" fill="#F5F5F5" fill-rule="nonzero" x="87" y="45" width="93" height="6"></rect>
                <rect id="Rectangle" fill="#5C82F7" fill-rule="nonzero" opacity="0.5" x="21" y="226" width="93" height="6"></rect>
                <rect id="Rectangle" fill="url(#linearGradient-2)" fill-rule="nonzero" x="126" y="226" width="32" height="7"></rect>
                <rect id="Rectangle" fill="url(#linearGradient-2)" fill-rule="nonzero" x="126" y="261" width="32" height="7"></rect>
                <rect id="Rectangle" fill="url(#linearGradient-2)" fill-rule="nonzero" x="190" y="261" width="32" height="7"></rect>
                <rect id="Rectangle" fill="#5C82F7" fill-rule="nonzero" x="128" y="226" width="30" height="6"></rect>
                <rect id="Rectangle" fill="#5C82F7" fill-rule="nonzero" x="128" y="262" width="30" height="6"></rect>
                <rect id="Rectangle" fill="#5C82F7" fill-rule="nonzero" x="190" y="262" width="30" height="6"></rect>
                <rect id="Rectangle" fill="#F5F5F5" fill-rule="nonzero" x="21" y="245" width="93" height="6"></rect>
                <rect id="Rectangle" fill="#5C82F7" fill-rule="nonzero" opacity="0.5" x="128" y="245" width="93" height="6"></rect>
                <rect id="Rectangle" fill="#F5F5F5" fill-rule="nonzero" x="128" y="279" width="93" height="6"></rect>
                <rect id="Rectangle" fill="#5C82F7" fill-rule="nonzero" opacity="0.5" x="21" y="262" width="93" height="6"></rect>
                <rect id="Rectangle" fill="#F5F5F5" fill-rule="nonzero" x="21" y="279" width="93" height="6"></rect>
                <rect id="Rectangle" fill="#F5F5F5" fill-rule="nonzero" x="87" y="55" width="53" height="6"></rect>
                <rect id="Rectangle" fill="#F5F5F5" fill-rule="nonzero" x="149" y="55" width="18" height="6"></rect>
                <rect id="Rectangle" fill="#F5F5F5" fill-rule="nonzero" x="87" y="73" width="53" height="6"></rect>
                <rect id="Rectangle" fill="#F5F5F5" fill-rule="nonzero" x="149" y="73" width="18" height="6"></rect>
                <rect id="Rectangle" fill="#F5F5F5" fill-rule="nonzero" x="87" y="65" width="93" height="6"></rect>
                <g id="Group" opacity="0.2" transform="translate(152.000000, 23.000000)" fill="#5C82F7" fill-rule="nonzero">
                    <rect id="Rectangle" x="0.388533333" y="0" width="93.3733333" height="6"></rect>
                </g>
                <rect id="Rectangle" fill="url(#linearGradient-3)" fill-rule="nonzero" x="205" y="45" width="11" height="7"></rect>
                <rect id="Rectangle" fill="url(#linearGradient-3)" fill-rule="nonzero" x="205" y="54" width="11" height="7"></rect>
                <rect id="Rectangle" fill="url(#linearGradient-3)" fill-rule="nonzero" x="205" y="64" width="11" height="7"></rect>
                <rect id="Rectangle" fill="#FF5252" fill-rule="nonzero" x="206" y="45" width="10" height="6"></rect>
                <rect id="Rectangle" fill="#FF9800" fill-rule="nonzero" x="206" y="55" width="10" height="6"></rect>
                <rect id="Rectangle" fill="#69F0AE" fill-rule="nonzero" x="206" y="65" width="10" height="6"></rect>
                <rect id="Rectangle" fill="url(#linearGradient-3)" fill-rule="nonzero" x="205" y="73" width="11" height="7"></rect>
                <rect id="Rectangle" fill="#5C82F7" fill-rule="nonzero" x="206" y="73" width="10" height="6"></rect>
                <rect id="Rectangle" fill="url(#linearGradient-4)" fill-rule="nonzero" x="19" y="113" width="230" height="94"></rect>
                <rect id="Rectangle" fill="#5C82F7" fill-rule="nonzero" opacity="0.5" x="21" y="115" width="224" height="89"></rect>
                <polygon id="Path" fill="#FFFFFF" fill-rule="nonzero" opacity="0.5" points="27.8635097 121.894366 245 121.894366 245 115 21 115 21 204 27.8635097 204"></polygon>
                <polygon id="Rectangle" fill="url(#linearGradient-5)" fill-rule="nonzero" transform="translate(139.784125, 165.617140) rotate(-5.200000) translate(-139.784125, -165.617140) " points="24.1327441 118.111173 255.434409 118.113845 255.435507 213.123107 24.1338418 213.120435"></polygon>
                <polygon id="Rectangle" fill="#FFFFFF" fill-rule="nonzero" transform="translate(140.036150, 164.959053) rotate(-5.200000) translate(-140.036150, -164.959053) " points="27.8230725 120.57843 252.248201 120.581023 252.249227 209.339676 27.824098 209.337083"></polygon>
                <path d="M40.8794511,204 L37,154.491141 C37,154.491141 57.0229732,133.121314 97.4443504,148.960127 C137.865728,164.798939 156.925095,153.617492 163.495133,142.920008 C170.065171,132.222525 204.166798,120.293133 215.216976,138.18722 C226.267154,156.081307 239.51986,135.962244 239.51986,135.962244 L244,185.408251 L40.8794511,204 Z" id="Path" fill="#5C82F7" fill-rule="nonzero" opacity="0.5"></path>
                <path d="M61.23,143 L61.77,147" id="Path" stroke="#5C82F7"></path>
                <path d="M62,155 L66,194" id="Path" stroke="#5C82F7" stroke-dasharray="11.51"></path>
                <path d="M66.225,198 L66.775,202" id="Path" stroke="#5C82F7"></path>
                <path d="M100.225,150 L100.775,154" id="Path" stroke="#5C82F7"></path>
                <path d="M100,161 L103,190" id="Path" stroke="#5C82F7" stroke-dasharray="13.06"></path>
                <path d="M103.23,194 L103.77,198" id="Path" stroke="#5C82F7"></path>
                <path d="M139.2,157 L139.8,161" id="Path" stroke="#5C82F7"></path>
                <path d="M140,166 L142,187" id="Path" stroke="#5C82F7" stroke-dasharray="9.789999999999999"></path>
                <path d="M142.205,190 L142.795,194" id="Path" stroke="#5C82F7"></path>
                <path d="M174.23,135 L174.77,139" id="Path" stroke="#5C82F7"></path>
                <path d="M175,145 L179,183" id="Path" stroke="#5C82F7" stroke-dasharray="11.28"></path>
                <path d="M179.225,187 L179.775,191" id="Path" stroke="#5C82F7"></path>
                <path d="M199.23,129 L199.77,133" id="Path" stroke="#5C82F7"></path>
                <path d="M201,140 L205,181" id="Path" stroke="#5C82F7" stroke-dasharray="11.93"></path>
                <path d="M205.225,184 L205.775,188" id="Path" stroke="#5C82F7"></path>
                <ellipse id="Oval" fill="#FF9800" fill-rule="nonzero" transform="translate(61.164896, 143.268164) rotate(-5.200000) translate(-61.164896, -143.268164) " cx="61.1648964" cy="143.268164" rx="3.12569817" ry="3.12530468"></ellipse>
                <ellipse id="Oval" fill="#FF5252" fill-rule="nonzero" transform="translate(99.423337, 149.831342) rotate(-5.200000) translate(-99.423337, -149.831342) " cx="99.4233368" cy="149.831342" rx="3.12569817" ry="3.12530468"></ellipse>
                <ellipse id="Oval" fill="#69F0AE" fill-rule="nonzero" transform="translate(138.934901, 156.275456) rotate(-5.200000) translate(-138.934901, -156.275456) " cx="138.934901" cy="156.275456" rx="3.12569817" ry="3.12530468"></ellipse>
                <ellipse id="Oval" fill="url(#linearGradient-6)" fill-rule="nonzero" transform="translate(173.965498, 134.258297) rotate(-5.200000) translate(-173.965498, -134.258297) " cx="173.965498" cy="134.258297" rx="4.37597744" ry="4.37542655"></ellipse>
                <ellipse id="Oval" fill="url(#linearGradient-7)" fill-rule="nonzero" transform="translate(199.885902, 129.391849) rotate(-5.200000) translate(-199.885902, -129.391849) " cx="199.885902" cy="129.391849" rx="4.37597744" ry="4.37542655"></ellipse>
                <ellipse id="Oval" fill="#5C82F7" fill-rule="nonzero" transform="translate(173.965498, 134.258297) rotate(-5.200000) translate(-173.965498, -134.258297) " cx="173.965498" cy="134.258297" rx="3.12569817" ry="3.12530468"></ellipse>
                <ellipse id="Oval" fill="#5C82F7" fill-rule="nonzero" transform="translate(199.885902, 129.391849) rotate(-5.200000) translate(-199.885902, -129.391849) " cx="199.885902" cy="129.391849" rx="3.12569817" ry="3.12530468"></ellipse>
                <ellipse id="Oval" fill="#69F0AE" fill-rule="nonzero" transform="translate(239.503501, 137.083269) rotate(-5.200000) translate(-239.503501, -137.083269) " cx="239.503501" cy="137.083269" rx="3.12569817" ry="3.12530468"></ellipse>
                <g id="Group" opacity="0.2" transform="translate(245.000000, 199.000000)" fill="url(#linearGradient-8)" fill-rule="nonzero">
                    <path d="M0.63,0.36 L0.665,0.475 C1.05,0.26 0.63,0.36 0.63,0.36 Z" id="Path"></path>
                </g>
                <g id="Group" opacity="0.2" transform="translate(203.000000, 196.000000)" fill="url(#linearGradient-9)" fill-rule="nonzero">
                    <path d="M38.3079487,107.812717 L48.5351282,106.170867 L47.1279487,99.9280925 L47.1279487,99.9280925 L47.1279487,99.8406936 L47.0902564,99.8406936 L39.8407692,66.7539884 L39.8407692,42.6256647 C39.8399283,42.3191129 39.8231538,42.0128089 39.7905128,41.7079769 C50.6207692,27.4369942 44.1879487,5.04416185 43.5597436,3.09017341 C43.4466667,3.14635838 43.2770513,3.22127168 43.0383333,3.31491329 C42.9598731,2.44119076 42.7936173,1.57746473 42.5420513,0.736647399 C42.5420513,0.736647399 39.4010256,-1.24855491 37.6860256,1.30473988 C36.1908974,3.5334104 37.3028205,4.89433526 37.610641,5.21271676 L37.3970513,5.28138728 C37.8783716,6.03309295 38.2149393,6.86713461 38.3896154,7.74104046 C38.2904318,7.52578309 38.1771103,7.31724062 38.0503846,7.11676301 C37.6546154,7.04809249 37.4221795,6.98566474 37.4221795,6.98566474 L37.3467949,6.91699422 L37.1332051,6.98566474 C38.22,8.56508671 38.6032051,11.3556069 38.5529487,14.6642775 C38.1776113,14.147821 37.7571798,13.6652587 37.2965385,13.2221965 C35.3107159,11.3372334 32.6916408,10.2516627 29.9465385,10.1757225 L29.4251282,10.1757225 C29.1403419,10.1757225 28.8555556,10.1944509 28.5707692,10.2319075 L28.3571795,10.2319075 L27.9991026,10.2818497 L27.5907692,10.356763 L27.2955128,10.4191908 L26.7866667,10.5565318 L26.5982051,10.6127168 C26.3846154,10.6813873 26.1773077,10.7500578 25.97,10.8312139 C25.2813162,11.1642356 24.5590274,11.423722 23.8152564,11.6053179 C23.7147436,11.6053179 23.6142308,11.6053179 23.5074359,11.6365318 L23.5074359,11.6365318 C22.6676858,11.694963 21.833946,11.4585566 21.1516667,10.9685549 L20.9255128,10.7937572 C20.8399596,10.7209391 20.7581873,10.6438454 20.6805128,10.5627746 C20.5951793,10.7790813 20.5587213,11.0113803 20.5737179,11.243237 C20.6208184,11.7935185 20.8850393,12.3029472 21.3087179,12.6603468 C21.4276662,12.7627314 21.5584073,12.8507442 21.6982051,12.9225434 C21.9047253,13.0301218 22.1314809,13.0938967 22.3641026,13.1098266 L22.6028205,13.1098266 L22.5462821,13.1098266 C22.4017949,13.1784971 22.2573077,13.2409249 22.1065385,13.2971098 L22.0751282,13.2971098 C21.9117949,13.3532948 21.7547436,13.403237 21.5851282,13.4469364 L21.5851282,13.4469364 C20.7618814,13.6536799 19.901424,13.6665061 19.0723077,13.4843931 L19.0723077,13.4843931 L18.8021795,13.4219653 C18.6702564,13.3845087 18.5320513,13.347052 18.4064103,13.3033526 C18.4477239,13.3972006 18.4938528,13.4888816 18.5446154,13.5780347 L18.5948718,13.6591908 L18.7079487,13.8339884 L18.7770513,13.9213873 L18.9026923,14.0774566 L18.9780769,14.1586127 L19.1351282,14.3146821 L19.1979487,14.3708671 L19.4303846,14.5643931 L19.5120513,14.620578 L19.6816667,14.7391908 L19.7947436,14.8078613 L19.9455128,14.8952601 L20.0711538,14.9576879 L20.2282051,15.0263584 L20.3601282,15.0825434 L20.5360256,15.1449711 L20.7558974,15.2073988 L20.9192308,15.2510983 L21.0762821,15.2510983 L21.2207692,15.2510983 L21.3841026,15.2510983 L22.0123077,15.2510983 C22.3365556,15.2230845 22.6544523,15.1451602 22.9546154,15.0201156 L22.3766667,15.257341 L22.3766667,15.257341 L22.0876923,15.3572254 L21.7924359,15.4633526 L21.4971795,15.5507514 L21.195641,15.6381503 L20.9003846,15.7130636 L20.5862821,15.7879769 L20.2973077,15.8441618 L19.964359,15.9003468 L19.6879487,15.9440462 L19.3298718,15.9877457 L19.0723077,15.9877457 L18.6639744,15.9877457 L18.4503846,15.9877457 L17.8221795,15.9877457 C18.1694071,16.0880281 18.4922531,16.258003 18.7707692,16.4871676 C18.9507775,16.6164117 19.1472322,16.7213722 19.355,16.7993064 C19.4477877,16.8261124 19.542213,16.8469646 19.6376923,16.8617341 L19.719359,16.8617341 L19.9203846,16.8617341 L20.7684615,16.8617341 L21.0448718,16.8617341 C21.6177683,16.9192377 22.1721036,17.0957711 22.6719231,17.3798844 C22.9366994,17.5492673 23.1721739,17.7600802 23.3692308,18.0041618 C23.2812821,18.1477457 23.1933333,18.2850867 23.1179487,18.4349133 C23.0425641,18.5847399 22.9860256,18.6846243 22.9232051,18.8157225 C22.7975641,19.0737572 22.6865812,19.3380347 22.5902564,19.6085549 C22.2325447,20.5784171 22.0496613,21.6033459 22.05,22.6363006 C22.05,22.8298266 22.05,23.0171098 22.05,23.2043931 C22.05,23.2543353 22.05,23.3105202 22.05,23.3604624 C22.05,23.510289 22.0667521,23.6601156 22.1002564,23.8099422 L22.1002564,23.9285549 C22.1253846,24.1116763 22.1588889,24.2927168 22.2007692,24.4716763 L22.2007692,24.5778035 C22.2342735,24.7276301 22.2719658,24.8753757 22.3138462,25.0210405 L22.3515385,25.1521387 C22.4571684,25.5052526 22.5851588,25.8513765 22.7347436,26.1884393 L22.7787179,26.2883237 C22.8499145,26.4423121 22.9232051,26.5921387 22.9985897,26.7378035 L22.9985897,26.7815029 C23.0907265,26.9479769 23.1870513,27.1123699 23.2875641,27.2746821 L23.2875641,27.3121387 C23.3797009,27.4619653 23.4781197,27.6076301 23.5828205,27.7491329 L23.6205128,27.7990751 C23.8461476,28.1079353 24.0916607,28.4019602 24.3555128,28.6793064 L24.3555128,28.6793064 C25.0399183,29.3957507 25.8404854,29.9929496 26.7238462,30.4460116 C26.6937014,30.5799805 26.6706357,30.715426 26.6547436,30.8517919 L26.6547436,30.8517919 C26.6471259,30.9931936 26.6471259,31.1348989 26.6547436,31.2763006 L26.6547436,34.5724855 C26.4662821,34.6723699 26.2820085,34.7784971 26.1019231,34.8908671 C18.2305128,31.3387283 6.50820513,6.17410405 6.50820513,6.17410405 L6.22551282,6.17410405 C7.36884615,5.32508671 6.22551282,1.62936416 6.22551282,1.62936416 C5.55441492,1.2317508 4.80402085,0.984603703 4.02679487,0.905202312 L3.39858974,0.905202312 L3.28551282,0.905202312 L3.20384615,0.905202312 L3.09076923,0.905202312 L3.01538462,0.905202312 L2.88974359,0.94265896 L2.82692308,0.94265896 L2.63846154,1.01132948 L2.63846154,1.01132948 L2.4625641,1.09248555 L2.39974359,1.12369942 L2.28038462,1.19236994 L2.19871795,1.57317919 L2.08564103,1.64809249 L2.01653846,1.70427746 L1.90974359,1.7916763 L1.84064103,1.85410405 L1.73384615,1.95398844 L1.67102564,2.02265896 L1.56423077,2.14751445 L1.51397436,2.2099422 L1.35692308,2.42219653 C-0.358076923,4.97549133 1.35692308,6.39884393 1.35692308,6.39884393 C1.24650241,7.38340012 1.19406263,8.37352655 1.19987179,9.36416185 C1.07423077,27.7553757 20.8815385,42.0076301 21.8929487,42.7193064 C21.4469231,43.8679769 17.765641,54.0436994 21.9369231,66.7477457 C21.94996,66.7788386 21.966842,66.8081973 21.9871795,66.8351445 C12.3235014,75.6849006 8.08955771,88.9531592 10.8553846,101.719769 L10.9370513,102.100578 L11.1192308,102.100578 C11.1005585,102.184947 11.0774933,102.268296 11.0501282,102.350289 C11.0016246,102.500694 10.9406906,102.646857 10.8679487,102.787283 C10.7424529,103.027328 10.5884946,103.251582 10.409359,103.45526 L10.409359,103.45526 C10.2146154,103.68 9.98846154,103.90474 9.74974359,104.135723 L9.49846154,104.372948 C8.49961538,105.32185 7.48820513,106.24578 8.24205128,106.620347 L19.0534615,106.620347 L19.0534615,101.932023 L19.2419231,101.932023 C19.2419231,101.932023 19.1665385,101.788439 19.0534615,101.507514 L19.0534615,101.457572 L19.0157692,101.457572 C18.4503846,100.009249 17.1311538,95.5269364 19.2419231,88.6224277 C21.8112821,80.1010405 31.8060256,75.8434682 31.8060256,75.8434682 L31.9882051,76.4677457 L31.9505128,76.4677457 L39.7905128,102.063121 C39.7905128,102.163006 39.7905128,102.26289 39.7591026,102.369017 C39.7236787,102.610727 39.6669213,102.848871 39.5894872,103.080694 C39.529364,103.259746 39.4580281,103.434886 39.3758974,103.605087 C38.8921795,104.597688 38.0566667,105.765087 37.6923077,106.639075 C37.6401593,106.758805 37.5960876,106.881852 37.5603846,107.007399 C37.5172671,107.148835 37.50233,107.297273 37.5164103,107.444393 C37.538374,107.635369 37.6673986,107.797456 37.849359,107.862659 L37.849359,107.862659 L37.9938462,107.862659 L38.2953846,107.812717 L38.3079487,107.812717 Z M35.28,34.9408092 C35.0831624,34.8326012 34.8737607,34.7306358 34.6517949,34.6349133 L34.6517949,31.5384971 C34.6501042,31.3017686 34.6269768,31.0656717 34.5826923,30.8330636 C35.2596601,30.512293 35.8929247,30.10744 36.4673077,29.6282081 C36.0903846,31.5384971 35.6694872,33.3676301 35.2862821,34.9408092 L35.28,34.9408092 Z" id="Shape"></path>
                </g>
                <path d="M203.86482,206.532341 C203.86482,206.532341 201.918975,204.776295 203.86482,201.612627 C205.810666,198.448958 209.423453,200.915783 209.423453,200.915783 C209.423453,200.915783 210.720684,205.480107 209.423453,206.532341 C208.126223,207.584574 203.86482,206.532341 203.86482,206.532341 Z" id="Path" fill="#CA7070" fill-rule="nonzero"></path>
                <path d="M223,311 L214.461777,311 C214.525728,311.860663 214.231694,312.708045 213.656516,313.320693 C212.507022,314.72481 210.195739,316.421452 211.283763,317 L223,317 L223,311 Z" id="cbb1ca8a-3a06-4d8d-9881-c3637d2b9b50" fill="#00695C" fill-rule="nonzero"></path>
                <path d="M214.203071,313.320693 C214.766266,312.708045 215.054175,311.860663 214.991556,311 L214.389659,311 C214.452278,311.860663 214.164369,312.708045 213.601174,313.320693 C212.475626,314.72481 210.212494,316.421452 211.277851,317 L211.879748,317 C210.814391,316.421452 213.077523,314.731311 214.203071,313.320693 Z" id="Path" fill="#FFFFFF" fill-rule="nonzero" opacity="0.2"></path>
                <path d="M253.430362,309 L245.396782,310.333567 C245.618904,311.311936 245.489491,312.339378 245.032181,313.22823 C244.154667,315.124298 242.18335,317.488062 243.369848,318 L255,316.103933 L253.430362,309 Z" id="ec846da8-b8c9-4838-98ee-b96510078eab" fill="#00695C" fill-rule="nonzero"></path>
                <path d="M249.360972,202.022158 C249.360972,202.022158 258.282086,231.616293 243.319571,248 L239,244.523904 C239,244.523904 247.843122,212.223334 242.893614,204.640271 C251.628747,201.580549 249.360972,202.022158 249.360972,202.022158 Z" id="Path" fill="#00695C" fill-rule="nonzero"></path>
                <path d="M243.86482,204.532341 C243.86482,204.532341 241.918975,202.776295 243.86482,199.612627 C245.810666,196.448958 249.423453,198.915783 249.423453,198.915783 C249.423453,198.915783 250.720684,203.480107 249.423453,204.532341 C248.126223,205.584574 243.86482,204.532341 243.86482,204.532341 Z" id="Path" fill="#CA7070" fill-rule="nonzero"></path>
                <path d="M246.794882,313.251225 C247.278754,312.363696 247.415273,311.337327 247.179395,310.360392 L255,309.10077 L255,309 L246.527678,310.360392 C246.761931,311.335337 246.625451,312.359184 246.143165,313.244927 C245.217727,315.13436 243.13875,317.489853 244.390047,318 L244.904903,317.918125 C243.972948,317.288314 245.908547,315.027292 246.794882,313.251225 Z" id="Path" fill="#FFFFFF" fill-rule="nonzero" opacity="0.2"></path>
                <rect id="Rectangle" fill="#CA7070" fill-rule="nonzero" x="231" y="229" width="9" height="13" rx="4.5"></rect>
                <path d="M240.006254,244.564996 C240.006254,244.564996 249.708941,212.981699 244.424442,205.218591 C243.957966,205.1374 243.658089,205.074946 243.658089,205.074946 L243.571458,205 L243.324893,205.074946 C248.822638,212.569499 239,244.558751 239,244.558751 L243.798032,248 L244.21786,247.575309 L240.006254,244.564996 Z" id="Path" fill="#FFFFFF" fill-rule="nonzero" opacity="0.2"></path>
                <circle id="Oval" fill="#CA7070" fill-rule="nonzero" cx="236.5" cy="223.5" r="9.5"></circle>
                <path d="M232.721666,237.578101 L232.721666,233.333169 C232.72205,233.022529 232.757794,232.712812 232.828291,232.409272 C228.649426,230.398796 226.425993,226.015476 227.401482,221.710756 C228.376971,217.406036 232.309607,214.246841 237,214 L236.413562,214 C231.607632,213.998585 227.425407,217.079408 226.293719,221.454751 C225.162031,225.830094 227.375103,230.362426 231.64875,232.421757 C231.578253,232.725297 231.542509,233.035014 231.542125,233.345654 L231.542125,237.590586 C231.529855,238.858746 232.106337,240.069342 233.121876,240.908022 C234.137415,241.746702 235.491821,242.130724 236.833398,241.960369 C234.482054,241.674897 232.722093,239.799138 232.721666,237.578101 Z" id="Path" fill="#FFFFFF" fill-rule="nonzero" opacity="0.2"></path>
                <path d="M246,272.067544 C246,272.067544 226.903521,274.16557 226.2,272.067544 C221.25,257.294969 226.2,245.638581 226.2,245.638581 C226.2,240.31534 230.632381,236 236.1,236 L236.1,236 C241.567619,236 246,240.31534 246,245.638581 L246,272.067544 Z" id="Path" fill="#00695C" fill-rule="nonzero"></path>
                <path d="M245.561521,273 L254,312 L245.561521,312 L236.813032,283.066731 C236.813032,283.066731 225.875871,287.784926 223.067178,297.221315 C220.258486,306.657705 223.067178,312 223.067178,312 L214.002479,312 L213.909476,311.575612 C210.874666,297.433498 215.552402,282.734854 226.185881,273 L226.185881,273" id="Path" fill="#263238" fill-rule="nonzero"></path>
                <path d="M227.273753,272.046883 C222.609003,257.275189 227.273753,245.619495 227.273753,245.619495 C227.272906,240.537877 231.091335,236.328581 236,236 C235.802898,236 235.599823,236 235.402721,236 L235.402721,236 C230.250181,236 226.073222,240.315082 226.073222,245.638006 C226.073222,245.638006 221.408473,257.29987 226.073222,272.065394 C226.312134,272.81817 228.772923,273.02796 231.830992,272.997109 C229.346311,272.941576 227.464882,272.694764 227.273753,272.046883 Z" id="Path" fill="#FFFFFF" fill-rule="nonzero" opacity="0.2"></path>
                <path d="M226.918248,246 C226.918248,246 201.651477,228.3625 204.177527,206 L209.862707,206 C209.862707,206 223.439444,235.31875 232.139588,238.13125 C240.839732,240.94375 226.918248,246 226.918248,246 Z" id="Path" fill="#00695C" fill-rule="nonzero"></path>
                <g id="Group" opacity="0.2" transform="translate(214.000000, 272.000000)" fill="#FFFFFF" fill-rule="nonzero">
                    <path d="M23.9916364,11.20625 L32.5534545,39.65 L33.7898182,39.65 L25.0672727,10.675 C25.0672727,10.675 24.6654545,10.85 23.9916364,11.20625 Z" id="Path"></path>
                    <path d="M14.484,0.59375 L13.2476364,0.59375 C2.64568993,10.3426449 -2.01817377,25.0624885 1.00763636,39.225 L1.10036364,39.65 L2.33672727,39.65 L2.244,39.225 C-0.781810137,25.0624885 3.88205357,10.3426449 14.484,0.59375 Z" id="Path"></path>
                </g>
                <path d="M204.143373,206 L203.1785,206 C200.622545,228.3625 226.361011,246 226.361011,246 L227,245.7625 C224.015923,243.60625 201.734385,226.875 204.143373,206 Z" id="Path" fill="#FFFFFF" fill-rule="nonzero" opacity="0.2"></path>
                <path d="M227.772052,218.846038 C228.329459,220.116407 228.720915,221.451573 228.936999,222.81941 C229.577079,225.586242 231.023661,228.346757 233.513575,229.768075 C234.892646,230.506333 236.426247,230.919306 237.994139,230.974615 C240.375238,231.119906 242.954763,230.665084 244.638175,228.997405 C245.686672,227.867632 246.390086,226.468282 246.66723,224.960862 C247.690609,220.436113 246.319353,215.707905 243.025172,212.402731 C239.62829,209.16522 234.651528,208.136245 230.223561,209.755921 C229.448368,210.130187 228.6352,210.422396 227.797655,210.627663 C226.496285,210.833385 225.175063,210.399532 224.25801,209.465341 C224.047438,210.137995 224.175052,210.869449 224.601451,211.433865 C225.027851,211.998281 225.701751,212.327773 226.415081,212.32061 C224.920894,213.028545 223.202406,213.119482 221.640081,212.573289 C222.549535,214.46406 224.782512,215.342797 226.760725,214.588402 C224.948878,215.384359 222.983009,215.781006 221,215.750724 C221.416052,215.750724 222.228955,216.50876 222.734618,216.660367 C223.369539,216.759896 224.012081,216.804285 224.65486,216.793023 C225.992462,216.874199 227.182804,217.65817 227.772052,218.846038 L227.772052,218.846038 Z" id="Path" fill="#263238" fill-rule="nonzero"></path>
                <g id="Group" opacity="0.2" transform="translate(221.000000, 209.000000)" fill="#FFFFFF" fill-rule="nonzero">
                    <path d="M5.85833333,3.52666667 C5.12523618,3.8848036 4.32845139,4.09117804 3.515,4.13361111 C4.54405655,4.18685871 5.56985983,3.97814078 6.498,3.52666667 C5.8719213,3.53044674 5.27295882,3.2692238 4.84679674,2.80653445 C4.42063467,2.34384509 4.20632726,1.72209104 4.256,1.0925 C4.06514155,0.958219068 3.88704496,0.806364569 3.724,0.638888889 C3.51564726,1.31920118 3.64191627,2.05898376 4.06382094,2.62982567 C4.4857256,3.20066758 5.15252177,3.53391139 5.85833333,3.52666667 Z" id="Path"></path>
                    <path d="M7.85966667,1.83361111 C8.68838245,1.62600718 9.49297866,1.33047087 10.26,0.951944444 C11.4713579,0.469516266 12.7579727,0.207772933 14.06,0.178888889 C12.5454461,0.129198167 11.0368026,0.392265516 9.62666667,0.951944444 C8.85964533,1.33047087 8.05504912,1.62600718 7.22633333,1.83361111 C7.11233333,1.83361111 6.99833333,1.83361111 6.88433333,1.87194444 C7.20972619,1.90151544 7.53754091,1.88863141 7.85966667,1.83361111 Z" id="Path"></path>
                    <path d="M2.79933333,7.935 C2.299,7.78805556 1.49466667,7.02777778 1.083,7.015 C3.04510605,7.04562692 4.9902517,6.64446433 6.783,5.83944444 C6.38075313,6.00678702 5.95133046,6.09775682 5.51633333,6.10777778 C3.90066816,6.73487752 2.18057833,7.04287167 0.449666667,7.015 C0.861333333,7.015 1.66566667,7.78166667 2.166,7.935 C2.60089787,8.04162742 3.04976309,8.07828288 3.496,8.04361111 C3.26014405,8.03744118 3.02603198,8.00094284 2.79933333,7.935 Z" id="Path"></path>
                    <path d="M17.9423333,22.4122222 C16.3909691,22.3562833 14.8735338,21.9386083 13.509,21.1919444 C11.0453333,19.7416667 9.63933333,16.9497222 8.98066667,14.1641667 C8.76686023,12.7807565 8.37953134,11.4303885 7.828,10.1455556 C7.23495638,8.93761858 6.04030252,8.1480485 4.70566667,8.08194444 C4.38944037,8.05811957 4.07189297,8.05811957 3.75566667,8.08194444 L4.066,8.08194444 C5.40063585,8.1480485 6.59528972,8.93761858 7.18833333,10.1455556 C7.73986467,11.4303885 8.12719356,12.7807565 8.341,14.1641667 C8.97433333,16.9625 10.4056667,19.7544444 12.8693333,21.1919444 C14.2338672,21.9386083 15.7513024,22.3562833 17.3026667,22.4122222 C17.67,22.4122222 18.0373333,22.4122222 18.411,22.4122222 L17.9423333,22.4122222 Z" id="Path"></path>
                    <path d="M5.11733333,6.08222222 C3.75604609,5.98297583 2.53642105,5.19720282 1.87466667,3.99305556 C1.62338156,3.93911992 1.37585516,3.86869237 1.13366667,3.78222222 C1.8591048,5.30914415 3.44477628,6.22464354 5.11733333,6.08222222 L5.11733333,6.08222222 Z" id="Path"></path>
                </g>
                <path d="M204.606241,206.540006 C204.606241,206.540006 202.541074,204.783667 204.606241,201.619468 C205.162674,200.700935 206.119787,200.107598 207.180817,200.023429 C205.879281,199.868526 204.606931,200.490881 203.917852,201.619468 C201.852685,204.783667 203.917852,206.540006 203.917852,206.540006 C205.2579,206.843767 206.626778,206.998018 208,207 C206.858071,206.942592 205.722873,206.788726 204.606241,206.540006 L204.606241,206.540006 Z" id="Path" fill="#FFFFFF" fill-rule="nonzero" opacity="0.2"></path>
                <g id="Group" opacity="0.2" transform="translate(23.000000, 205.000000)" fill="url(#linearGradient-10)" fill-rule="nonzero">
                    <path d="M0.485,0.425 L0.525,0.29 C0.525,0.29 0.015,0.19 0.485,0.425 Z" id="Path"></path>
                </g>
                <g id="Group" opacity="0.2" transform="translate(9.000000, 202.000000)" fill="url(#linearGradient-11)" fill-rule="nonzero">
                    <path d="M72.5008547,14.6983824 C72.4407461,14.5000085 72.3656594,14.3064643 72.2762393,14.1194118 C72.2762393,14.0571569 72.2138462,14.0073529 72.1826496,13.9513235 C72.1260918,13.840159 72.0636092,13.7320958 71.9954701,13.627598 L71.8706838,13.4657353 C71.8061924,13.3813963 71.7374723,13.3003617 71.6647863,13.2229412 L71.5212821,13.0797549 C71.4464103,13.0112745 71.3715385,12.9490196 71.2966667,12.8929902 L71.1406838,12.7809314 L70.8911111,12.6315196 L70.7351282,12.5505882 L70.454359,12.4323039 L70.3108547,12.3762745 C70.1777493,12.3306209 70.0425641,12.293268 69.9052991,12.2642157 L69.9052991,12.2642157 C68.9974663,12.0929434 68.0633394,12.118421 67.1662393,12.3389216 C67.1662393,12.3389216 64.5519658,16.1862745 65.5564957,17.5683333 L65.225812,17.4687255 C65.225812,17.4687255 45.8028205,39.0960784 34.8465812,43.1115196 C34.5678917,42.9206046 34.2788034,42.7421405 33.9793162,42.5761275 L33.9793162,38.5295588 C33.9884391,38.3595172 33.9884391,38.1891103 33.9793162,38.0190686 L33.9793162,38.0190686 C33.9605298,37.8579998 33.933457,37.698001 33.8982051,37.5397059 L33.9793162,37.4961275 L34.3037607,37.3155882 L34.7717094,37.0292157 L35.0711966,36.8362255 C35.295812,36.6826634 35.5037892,36.5208007 35.6951282,36.3506373 L35.9384615,36.1389706 C36.0882051,36.0144608 36.2317094,35.8837255 36.3689744,35.7467647 L36.618547,35.5039706 C36.7932479,35.3255065 36.9596296,35.1428922 37.1176923,34.9561275 L37.2923932,34.7444608 C37.4421368,34.5576961 37.585641,34.366781 37.722906,34.1717157 L37.8976068,33.9102451 C38.0223932,33.7193301 38.1409402,33.5242647 38.2532479,33.325049 L38.3655556,33.1320588 C38.5028205,32.8768137 38.6338462,32.6091176 38.7461538,32.3351961 L38.8459829,32.092402 C38.9333333,31.8724346 39.0144444,31.6503922 39.0893162,31.4262745 C39.0893162,31.3453431 39.1454701,31.2706373 39.164188,31.1897059 C39.2515385,30.8971078 39.3326496,30.6045098 39.3950427,30.2994608 C39.3950427,30.2372059 39.3950427,30.1811765 39.4262393,30.1189216 C39.4761538,29.8657516 39.5156695,29.6084314 39.5447863,29.3469608 C39.5447863,29.2598039 39.5447863,29.1726471 39.5447863,29.0854902 C39.5447863,28.7679902 39.5947009,28.4629412 39.5947009,28.1205392 C39.5949981,25.6982554 38.7625139,23.349172 37.2362393,21.4654902 C38.0660684,20.1705882 38.6088889,19.4048529 38.6088889,19.4048529 C38.1097436,19.062451 37.6168376,18.7511765 37.1301709,18.4461275 L36.6559829,18.1659804 C36.3315385,17.9729902 36.0320513,17.78 35.6826496,17.6056863 L35.1398291,17.3193137 C34.8465812,17.1636765 34.5595726,17.0142647 34.2725641,16.8773039 L33.717265,16.6220588 L32.8874359,16.2609804 L32.3446154,16.0430882 C32.0700855,15.9372549 31.7955556,15.8376471 31.527265,15.7442647 L31.015641,15.569951 C30.7348718,15.4827941 30.4541026,15.4018627 30.1795726,15.3271569 L29.7241026,15.2026471 C29.4121368,15.1279412 29.1001709,15.0656863 28.7944444,15.0034314 L28.4637607,14.934951 C28.0457265,14.8602451 27.6339316,14.8042157 27.2158974,14.7668627 L27.2158974,14.7668627 C24.6628319,14.4938904 22.0825201,14.8886614 19.7287179,15.9123529 C19.8535043,12.9365686 20.3526496,10.4837255 21.4008547,8.96470588 L21.1450427,8.87754902 L21.0576923,8.96470588 C21.0576923,8.96470588 20.7519658,9.03318627 20.2715385,9.12034314 C20.1199276,9.36228296 19.9844493,9.6139222 19.8659829,9.87362745 C20.075696,8.82068465 20.4798005,7.8158287 21.0576923,6.91029412 L20.8018803,6.82313725 C21.17,6.44338235 22.5052137,4.80607843 20.7145299,2.12289216 C18.6555556,-0.9525 14.8870085,1.43808824 14.8870085,1.43808824 C14.5882468,2.45362618 14.3917752,3.49637197 14.3005128,4.55083333 C14.0135043,4.43254902 13.8076068,4.34539216 13.6765812,4.27691176 C11.8711987,10.6335801 10.8878119,17.1944912 10.7503419,23.800049 C3.9557265,33.4246569 1.14803419,47.6312255 0.598974359,50.6941667 L0.598974359,50.6941667 L0.555299145,50.9369608 L0.555299145,50.9369608 C0.517863248,51.1610784 0.499145299,51.2793627 0.499145299,51.2793627 L18.1626496,51.6902451 C18.1626496,51.7525 18.1626496,51.8085294 18.1626496,51.8707843 L18.1626496,79.7796569 L5.3034188,106.916569 C5.3034188,106.916569 10.1950427,107.072206 17.5574359,108.012255 L15.5234188,122.523873 L15.5234188,122.523873 L14.8433333,126.595343 L27.0848718,126.595343 C28.4450427,123.881029 21.644188,122.523873 21.644188,122.523873 L21.4944444,122.523873 L24.1461538,108.983431 C25.3191453,109.178497 26.5254131,109.386013 27.7649573,109.60598 C29.5822877,109.956711 31.4243605,110.164864 33.2742735,110.228529 L33.2742735,110.228529 C34.8057753,110.281937 36.3391161,110.215328 37.8601709,110.029314 C38.7586325,117.369167 37.5794017,121.751912 37.3547863,122.480294 L37.2861538,122.480294 L36.6060684,126.551765 L48.8476068,126.551765 C50.0330769,124.186078 45.0166667,122.847598 43.7126496,122.548775 L43.7688034,122.150343 C44.3984458,117.571673 44.5594177,112.94095 44.2492308,108.329755 C45.8288642,107.690966 47.3016332,106.81556 48.6167521,105.733725 L48.6167521,105.733725 L48.7852137,105.584314 L48.7852137,105.584314 L48.8351282,105.53451 L39.7194872,80.01 C41.4228205,72.7884314 35.4954701,65.2057843 38.6588034,61.4144608 C41.8221368,57.6231373 39.9066667,52.7859314 39.5323077,51.9579412 C48.0926496,48.2226471 65.3942735,38.8844118 70.2484615,22.6981373 C70.604987,21.5601108 70.8945687,20.4022719 71.1157265,19.2305392 C71.1157265,19.2305392 73.5615385,18.2406863 72.5008547,14.6983824 Z" id="Path"></path>
                </g>
                <path d="M24.6390282,210.022158 C24.6390282,210.022158 15.7179136,239.616293 30.6804287,256 L35,252.523904 C35,252.523904 26.1568776,220.223334 31.1063864,212.640271 C22.3712533,209.580549 24.6390282,210.022158 24.6390282,210.022158 Z" id="Path" fill="#FF5252" fill-rule="nonzero"></path>
                <path d="M32.1351797,212.532341 C32.1351797,212.532341 34.0810254,210.776295 32.1351797,207.612627 C30.1893339,204.448958 26.5765469,206.915783 26.5765469,206.915783 C26.5765469,206.915783 25.2793164,211.480107 26.5765469,212.532341 C27.8737774,213.584574 32.1351797,212.532341 32.1351797,212.532341 Z" id="Path" fill="#F6B9AD" fill-rule="nonzero"></path>
                <rect id="Rectangle" fill="#F6B9AD" fill-rule="nonzero" transform="translate(38.500000, 243.500000) rotate(180.000000) translate(-38.500000, -243.500000) " x="34" y="237" width="9" height="13" rx="4.5"></rect>
                <path d="M35.9937461,254.564996 C35.9937461,254.564996 26.291059,222.981699 31.5755582,215.218591 C32.0420336,215.1374 32.3419106,215.074946 32.3419106,215.074946 L32.4285417,215 L32.6751072,215.074946 C27.1773622,222.569499 37,254.558751 37,254.558751 L32.201968,258 L31.7821402,257.575309 L35.9937461,254.564996 Z" id="Path" fill="#FFFFFF" fill-rule="nonzero" opacity="0.2"></path>
                <circle id="Oval" fill="#F6B9AD" fill-rule="nonzero" cx="39.5" cy="232.5" r="9.5"></circle>
                <path d="M42.2783341,246.578101 L42.2783341,242.333169 C42.27795,242.022529 42.2422062,241.712812 42.171709,241.409272 C46.3505735,239.398796 48.574007,235.015476 47.5985182,230.710756 C46.6230293,226.406036 42.6903931,223.246841 38,223 L38.5864383,223 C43.3923679,222.998585 47.5745928,226.079408 48.7062811,230.454751 C49.8379694,234.830094 47.6248968,239.362426 43.3512497,241.421757 C43.421747,241.725297 43.4574907,242.035014 43.4578748,242.345654 L43.4578748,246.590586 C43.4701446,247.858746 42.893663,249.069342 41.8781242,249.908022 C40.8625853,250.746702 39.5081789,251.130724 38.1666018,250.960369 C40.5179464,250.674897 42.2779072,248.799138 42.2783341,246.578101 Z" id="Path" fill="#FFFFFF" fill-rule="nonzero" opacity="0.2"></path>
                <path d="M30,281.067544 C30,281.067544 48.4719054,283.16557 49.152417,281.067544 C51.3594817,274.279811 45.4739758,266.942889 48.4167287,263.357732 C51.4820964,259.655332 49.152417,254.638581 49.152417,254.638581 C49.152417,249.31534 44.8650024,245 39.5762085,245 L39.5762085,245 C34.2874146,245 30,249.31534 30,254.638581 L30,281.067544 Z" id="Path" fill="#FF5252" fill-rule="nonzero"></path>
                <path d="M48.4220171,263.356637 C51.4771459,259.654458 49.155248,254.638006 49.155248,254.638006 C49.155248,249.315082 44.8821542,245 39.6110258,245 C39.403277,245 39.2016385,245 39,245.030851 C44.0207376,245.353048 47.9304329,249.557707 47.9331965,254.638006 C47.9331965,254.638006 50.2550944,259.654458 47.1999656,263.356637 C44.242601,266.941581 50.1328892,274.271895 47.9331965,281.065394 C47.7254478,281.713275 45.8251577,281.960087 43.3016213,281.997109 C46.4117424,282.02796 48.916948,281.81817 49.155248,281.065394 C51.3793818,274.265725 45.4646525,266.941581 48.4220171,263.356637 Z" id="Path" fill="#FFFFFF" fill-rule="nonzero" opacity="0.2"></path>
                <path d="M45.3125208,280 L45.3125208,280 C52.3068864,289.729717 55.4034828,304.433509 53.4005508,318.575612 L53.3433242,319 L47.3726794,319 C47.3726794,319 49.223007,313.651464 47.3726794,304.221315 C46.2385403,298.567684 43.013327,293.525833 38.3181552,290.066731 L32.5573414,319 L27,319 L32.5573414,280 L45.3125208,280 Z" id="Path" fill="#F6B9AD" fill-rule="nonzero"></path>
                <path d="M78.4337764,225 C78.4337764,225 80.7454031,223.987132 79.7519767,220.502068 C78.7585504,217.017004 74.7211639,218.189798 74.7211639,218.189798 C74.7211639,218.189798 72.2694386,221.968061 73.2182882,223.327436 C74.1671377,224.686811 78.4337764,225 78.4337764,225 Z" id="Path" fill="#F6B9AD" fill-rule="nonzero"></path>
                <path d="M44.0210822,256 C44.0210822,256 72.9084913,246.593574 77,224.64938 L71.6495656,223 C71.6495656,223 50.3897655,246.847802 41.4106627,247.01522 C32.4315599,247.182638 44.0210822,256 44.0210822,256 Z" id="Path" fill="#FF5252" fill-rule="nonzero"></path>
                <path d="M76.1182974,224 L77,224.276078 C72.9684909,246.481569 44.5046987,256 44.5046987,256 L44,255.592157 C47.3626313,254.387451 72.3604201,244.712157 76.1182974,224 Z" id="Path" fill="#FFFFFF" fill-rule="nonzero" opacity="0.2"></path>
                <g id="Group" opacity="0.2" transform="translate(31.000000, 280.000000)" fill="#FFFFFF" fill-rule="nonzero">
                    <path d="M5.85567568,10.51875 L0.223783784,39.49375 L1.46702703,39.49375 L6.9372973,11.36875 C6.59138744,11.0670837 6.23037647,10.7833807 5.85567568,10.51875 L5.85567568,10.51875 Z" id="Path"></path>
                    <path d="M13.942973,0.4375 L12.6997297,0.4375 C19.5375676,10.18125 22.5648649,24.90625 20.6067568,39.06875 L20.5508108,39.49375 L21.7940541,39.49375 L21.85,39.06875 C23.8081081,24.90625 20.7932432,10.18125 13.942973,0.4375 Z" id="Path"></path>
                </g>
                <path d="M77.9448968,224.803485 C77.9448968,224.803485 80.1265244,223.773475 79.1889654,220.229429 C78.9579668,219.214585 78.3100254,218.38577 77.4460673,218 C78.5716819,218.231816 79.476304,219.177806 79.7659248,220.425944 C80.7034838,223.963214 78.5218562,225 78.5218562,225 C77.3273012,224.897147 76.1463179,224.647192 75,224.254598 C75.9663938,224.529541 76.9514392,224.713139 77.9448968,224.803485 Z" id="Path" fill="#FFFFFF" fill-rule="nonzero" opacity="0.2"></path>
                <path d="M28.875,280 L17,304.919654 C23.9253936,305.263977 30.817632,306.096715 37.625,307.411619 C50.75,309.903585 57,303.673671 57,303.673671 L48.53125,280 L28.875,280 Z" id="Path" fill="#263238" fill-rule="nonzero"></path>
                <path d="M32.0226244,319 C32.0226244,319 38.0452489,320.333333 36.840724,323 L26,323 L26.6022624,319 L32.0226244,319 Z" id="Path" fill="#FF5252" fill-rule="nonzero"></path>
                <path d="M52.0226244,319 C52.0226244,319 58.0452489,320.333333 56.840724,323 L46,323 L46.6022624,319 L52.0226244,319 Z" id="Path" fill="#FF5252" fill-rule="nonzero"></path>
                <path d="M48,224.293899 C48,224.293899 33,245.33572 39.875,254 L13,253.381123 C13,253.381123 20.5,205.727585 48,224.293899 Z" id="Path" fill="#FCCC63" fill-rule="nonzero"></path>
                <path d="M48,224.229843 C44.125,221.606348 40.65,220.303904 37.53125,220 C40.1532429,220.817387 42.6308783,222.035205 44.875,223.609632 C44.875,223.609632 29.875,244.696826 36.75,253.379788 L13.09375,252.834002 C13.03125,253.187523 13,253.379788 13,253.379788 L39.875,254 C33,245.317038 48,224.229843 48,224.229843 Z" id="Path" fill="#FFFFFF" fill-rule="nonzero" opacity="0.2"></path>
                <path d="M48.7161572,280 L46.8820961,280 L55.1659389,303.679062 C55.1659389,303.679062 51.2165939,307.698272 43,307.984913 C52.4576419,308.29648 57,303.679062 57,303.679062 L48.7161572,280 Z" id="Path" fill="#FFFFFF" fill-rule="nonzero" opacity="0.2"></path>
                <path d="M31.3639291,319 L30,319 C30,319 36.8196457,320.333333 35.4557166,323 L36.8196457,323 C38.1835749,320.333333 31.3639291,319 31.3639291,319 Z" id="Path" fill="#FFFFFF" fill-rule="nonzero" opacity="0.2"></path>
                <path d="M52.3639291,319 L51,319 C51,319 57.8196457,320.333333 56.4557166,323 L57.8196457,323 C59.1835749,320.333333 52.3639291,319 52.3639291,319 Z" id="Path" fill="#FFFFFF" fill-rule="nonzero" opacity="0.2"></path>
                <rect id="Rectangle" fill="#F5F5F5" fill-rule="nonzero" x="313" y="105" width="239" height="9"></rect>
                <rect id="Rectangle" fill="url(#linearGradient-12)" fill-rule="nonzero" x="308" y="102" width="249" height="310"></rect>
                <rect id="Rectangle" fill="#FFFFFF" fill-rule="nonzero" x="313" y="114" width="239" height="287"></rect>
                <circle id="Oval" fill="#FF5252" fill-rule="nonzero" cx="318.5" cy="109.5" r="2.5"></circle>
                <circle id="Oval" fill="#FFFF00" fill-rule="nonzero" cx="324.5" cy="109.5" r="2.5"></circle>
                <circle id="Oval" fill="#69F0AE" fill-rule="nonzero" cx="330.5" cy="109.5" r="2.5"></circle>
                <g id="Group" opacity="0.2" transform="translate(327.000000, 126.000000)" fill="#5C82F7" fill-rule="nonzero">
                    <rect id="Rectangle" x="0.388189911" y="0.476" width="210.373887" height="6.3"></rect>
                </g>
                <rect id="Rectangle" fill="url(#linearGradient-13)" fill-rule="nonzero" x="326" y="151" width="91" height="97"></rect>
                <rect id="Rectangle" fill="#FFFFFF" fill-rule="nonzero" x="328" y="154" width="87" height="90"></rect>
                <rect id="Rectangle" fill="url(#linearGradient-13)" fill-rule="nonzero" x="447" y="199" width="91" height="97"></rect>
                <rect id="Rectangle" fill="#FFFFFF" fill-rule="nonzero" x="449" y="203" width="87" height="90"></rect>
                <rect id="Rectangle" fill="url(#linearGradient-14)" fill-rule="nonzero" x="328" y="318" width="213" height="66"></rect>
                <rect id="Rectangle" fill="#5C82F7" fill-rule="nonzero" opacity="0.5" x="333" y="322" width="205" height="59"></rect>
                <polygon id="Path" fill="#FFFFFF" fill-rule="nonzero" opacity="0.5" points="338 327.589474 538 327.589474 538 322 333 322 333 381 338 381"></polygon>
                <path d="M401.565083,173.565816 C389.252562,159.254401 368.456684,155.817715 352.194336,165.406904 C335.931989,174.996092 328.873902,194.857032 335.437987,212.558045 C342.002072,230.259059 360.303049,240.716215 378.885678,237.384003 C397.468306,234.051792 410.995446,217.887261 410.999972,199.008373 C411.011179,189.669918 407.662279,180.63912 401.565083,173.565816 L401.565083,173.565816 Z M385.840267,222.293502 C375.284624,228.54807 361.841113,226.913713 353.091588,218.312175 C344.342062,209.710636 342.47873,196.297046 348.552473,185.636384 C354.626216,174.975722 367.115245,169.739036 378.976014,172.879706 C390.836784,176.020375 399.097556,186.751499 399.099431,199.020953 C399.129029,208.578485 394.090065,217.435503 385.859137,222.293502 L385.840267,222.293502 Z" id="Shape" fill="url(#linearGradient-15)" fill-rule="nonzero"></path>
                <path d="M391.449664,182 L400,174.715442 C392.989255,166.635264 382.761148,161.990451 372,162 L372,173.159337 C379.475777,173.157307 386.579719,176.386338 391.449664,182 L391.449664,182 Z" id="Path" fill="#FF5252" fill-rule="nonzero"></path>
                <path d="M371.193614,224.630357 C367.551013,224.632292 363.950543,223.842079 360.63608,222.313242 L356,232.673966 C366.958213,237.702817 379.653612,236.995572 390,230.779867 L384.259497,221 C380.309011,223.383949 375.793295,224.638641 371.193614,224.630357 L371.193614,224.630357 Z" id="Path" fill="#69F0AE" fill-rule="nonzero"></path>
                <path d="M408.99997,199.153294 C409.011244,190.284953 405.809799,181.709748 399.98264,175 L391.375189,182.373375 C396.378616,188.129755 398.558918,195.797969 397.328033,203.309781 C396.097147,210.821592 391.581855,217.403293 385,221.279695 L390.801359,231 C402.090129,224.324377 409.00651,212.221038 408.99997,199.153294 Z" id="Path" fill="#FF9800" fill-rule="nonzero"></path>
                <path d="M346.289889,199.156289 C346.289889,184.896036 357.800698,173.335817 372,173.335817 L372,162 C354.577239,162.000547 339.51578,174.208843 335.837563,191.312015 C332.159346,208.415187 340.861225,225.778007 356.730702,233 L361.389876,222.665514 C352.199238,218.48371 346.293793,209.289502 346.289889,199.156289 L346.289889,199.156289 Z" id="Path" fill="#5C82F7" fill-rule="nonzero"></path>
                <rect id="Rectangle" fill="url(#linearGradient-16)" fill-rule="nonzero" x="461" y="215" width="66" height="11"></rect>
                <rect id="Rectangle" fill="#5C82F7" fill-rule="nonzero" x="461" y="216" width="65" height="10"></rect>
                <rect id="Rectangle" fill="#FF5252" fill-rule="nonzero" x="461" y="233" width="48" height="10"></rect>
                <rect id="Rectangle" fill="#69F0AE" fill-rule="nonzero" x="461" y="250" width="33" height="10"></rect>
                <rect id="Rectangle" fill="#FF9800" fill-rule="nonzero" x="462" y="266" width="58" height="10"></rect>
                <rect id="Rectangle" fill="#F5F5F5" fill-rule="nonzero" x="328" y="262" width="93" height="6"></rect>
                <rect id="Rectangle" fill="#F5F5F5" fill-rule="nonzero" x="328" y="271" width="53" height="6"></rect>
                <rect id="Rectangle" fill="#F5F5F5" fill-rule="nonzero" x="391" y="271" width="18" height="6"></rect>
                <rect id="Rectangle" fill="#F5F5F5" fill-rule="nonzero" x="391" y="292" width="18" height="6"></rect>
                <rect id="Rectangle" fill="#F5F5F5" fill-rule="nonzero" x="328" y="291" width="53" height="6"></rect>
                <rect id="Rectangle" fill="#F5F5F5" fill-rule="nonzero" x="328" y="281" width="93" height="6"></rect>
                <rect id="Rectangle" fill="#F5F5F5" fill-rule="nonzero" x="446" y="152" width="93" height="6"></rect>
                <rect id="Rectangle" fill="#F5F5F5" fill-rule="nonzero" x="446" y="161" width="53" height="6"></rect>
                <rect id="Rectangle" fill="#F5F5F5" fill-rule="nonzero" x="508" y="161" width="18" height="6"></rect>
                <rect id="Rectangle" fill="#F5F5F5" fill-rule="nonzero" x="508" y="181" width="18" height="6"></rect>
                <rect id="Rectangle" fill="#F5F5F5" fill-rule="nonzero" x="446" y="179" width="53" height="6"></rect>
                <rect id="Rectangle" fill="#F5F5F5" fill-rule="nonzero" x="446" y="170" width="93" height="6"></rect>
                <circle id="Oval" fill="url(#linearGradient-17)" fill-rule="nonzero" cx="475.5" cy="430.5" r="6.5"></circle>
                <circle id="Oval" fill="#FF5252" fill-rule="nonzero" cx="476" cy="430" r="5"></circle>
                <rect id="Rectangle" fill="url(#linearGradient-18)" fill-rule="nonzero" x="272" y="354" width="215" height="76"></rect>
                <rect id="Rectangle" fill="#FFFFFF" fill-rule="nonzero" x="278" y="358" width="205" height="59"></rect>
                <path d="M285,405.5 L475,405.5" id="Path" stroke="#5C82F7" stroke-width="3" fill="url(#linearGradient-19)" fill-rule="nonzero"></path>
                <rect id="Rectangle" fill="url(#linearGradient-20)" fill-rule="nonzero" x="287" y="369" width="28" height="34"></rect>
                <rect id="Rectangle" fill="#5C82F7" fill-rule="nonzero" x="289" y="371" width="25" height="32"></rect>
                <rect id="Rectangle" fill="#69F0AE" fill-rule="nonzero" x="446" y="394" width="25" height="10"></rect>
                <rect id="Rectangle" fill="#FF9800" fill-rule="nonzero" x="399" y="381" width="25" height="23"></rect>
                <rect id="Rectangle" fill="#FF5252" fill-rule="nonzero" x="344" y="384" width="25" height="19"></rect>
                <rect id="Rectangle" fill="#FF5252" fill-rule="nonzero" x="278" y="417" width="205" height="9"></rect>
                <circle id="Oval" fill="url(#linearGradient-17)" fill-rule="nonzero" cx="287.5" cy="430.5" r="6.5"></circle>
                <circle id="Oval" fill="#FF5252" fill-rule="nonzero" cx="287" cy="430" r="5"></circle>
                <rect id="Rectangle" fill="#FF5252" fill-rule="nonzero" x="274" y="360" width="5" height="66"></rect>
                <rect id="Rectangle" fill="#000000" fill-rule="nonzero" opacity="0.2" x="274" y="360" width="5" height="66"></rect>
                <path d="M280,366.818501 C280,366.749763 280,366.687273 280,366.618535 C280,366.549796 280,366.412319 280,366.312336 C280,366.212353 280,366.181108 279.962211,366.118619 C279.924423,366.056129 279.918125,365.93115 279.886634,365.843665 C279.855143,365.756179 279.848845,365.724934 279.823653,365.662445 C279.79846,365.599955 279.748076,365.487474 279.710287,365.399989 L279.63471,365.243765 C279.584325,365.15628 279.527642,365.068794 279.470959,364.987558 L279.389083,364.868828 C279.306481,364.756162 279.218195,364.647709 279.124563,364.543882 L279.124563,364.543882 L279.124563,364.543882 C278.622273,364.01271 278.026876,363.576529 277.36739,363.256598 C277.883328,362.706624 278.268547,362.048963 278.494752,361.33192 C278.559996,361.140182 278.610525,360.943821 278.645906,360.744518 C278.645906,360.682029 278.645906,360.619539 278.645906,360.563299 C278.662892,360.443127 278.673403,360.322142 278.677397,360.200859 C278.677397,360.132121 278.677397,360.069631 278.677397,360.000893 C278.677397,359.932154 278.677397,359.794677 278.677397,359.694694 C278.677397,359.594711 278.677397,359.563466 278.639608,359.500976 C278.601819,359.438487 278.595521,359.313508 278.564031,359.226022 C278.53254,359.138537 278.526242,359.107292 278.50105,359.044803 C278.475857,358.982313 278.425472,358.869832 278.387684,358.782347 L278.312106,358.626123 C278.261721,358.538638 278.205038,358.451152 278.148355,358.369916 L278.06648,358.251186 C277.983878,358.13852 277.895592,358.030067 277.801959,357.92624 L277.801959,357.92624 L277.801959,357.92624 C277.173759,357.272958 276.41122,356.761462 275.56613,356.426491 C275.56613,356.426491 271.56683,357.894995 271.302309,359.507225 C268.36739,360.132121 251.261721,363.66278 239.515745,363.381577 L239.427572,363.150365 C239.42915,359.308232 237.288962,355.780314 233.86634,353.98315 L233.86634,350.058807 C233.875328,349.892288 233.875328,349.72541 233.86634,349.558891 L233.86634,349.558891 C233.849454,349.399392 233.824227,349.240872 233.790763,349.08397 L233.86634,349.040228 L234.187544,348.865257 L234.653604,348.584054 L234.949615,348.390336 C235.16795,348.240362 235.377887,348.082055 235.579426,347.915416 L235.818754,347.7092 C235.963611,347.584221 236.102169,347.459242 236.240728,347.328014 L236.486354,347.090554 C236.658502,346.915583 236.822253,346.736447 236.977607,346.553144 L237.147656,346.34068 C237.294612,346.157377 237.435269,345.969908 237.569629,345.778274 L237.739678,345.522067 C237.861442,345.334598 237.979006,345.142963 238.092372,344.947163 L238.19944,344.759694 C238.337999,344.509736 238.463961,344.24728 238.577327,343.984824 L238.671798,343.747364 C238.759972,343.534899 238.839748,343.326601 238.911127,343.122468 L238.986704,342.891257 C239.074878,342.603805 239.150455,342.316353 239.213436,342.022652 C239.213436,341.966412 239.213436,341.903922 239.244927,341.847682 C239.291113,341.597724 239.328901,341.345682 239.358293,341.091558 C239.358293,341.004073 239.358293,340.922837 239.358293,340.835351 C239.358293,340.522904 239.408677,340.210456 239.408677,339.891759 C239.40852,338.116064 238.946452,336.370466 238.06718,334.823858 C238.741078,334.661385 239.150455,334.530157 239.10007,334.467667 C238.841847,334.123975 238.583625,333.799029 238.312806,333.486581 L238.054584,333.192881 C237.86564,332.980416 237.682995,332.78045 237.494052,332.567985 L237.191742,332.261787 C237.002799,332.074318 236.813856,331.899347 236.624913,331.730625 L236.328901,331.468169 C236.089573,331.268203 235.850245,331.074485 235.610917,330.887017 L235.453464,330.762038 C235.163751,330.549573 234.874038,330.349607 234.578027,330.137142 L234.250525,329.937176 C234.061582,329.818446 233.86634,329.705964 233.671099,329.605981 L233.280616,329.406015 L232.738978,329.149808 L232.342197,328.974837 C232.153254,328.8936 231.958013,328.824862 231.762771,328.756123 L231.403779,328.624895 C231.114066,328.531161 230.824353,328.443676 230.53464,328.368688 L230.087474,328.268705 L229.602519,328.168722 L229.117565,328.093734 L228.670399,328.043743 L228.172848,328 L227.744577,328 L227.247026,328 C226.974108,328 226.70119,328.012498 226.428272,328.037494 L226.428272,328.037494 C219.985304,328.562406 214.342197,334.142722 214.342197,343.034983 L214.342197,350.371255 L224.419174,350.371255 L224.419174,353.708196 C220.720974,355.401091 218.351246,359.071844 218.347796,363.112872 L218.347796,391.551861 L209.794962,430.539084 L209.681596,430.539084 L208,437.981588 L220.06718,439.918764 L220.06718,439.918764 L220.589923,440 C221.849545,439.46259 219.739678,436.944262 218.788663,435.000837 C218.691521,434.798005 218.607379,434.589292 218.536739,434.375942 C218.403898,433.983959 218.323436,433.576386 218.297411,433.163644 L227.56823,402.987446 L227.524143,402.987446 L227.744577,402.281315 C227.744577,402.281315 239.547236,407.280478 242.582925,417.335044 C245.045486,425.458684 243.515045,430.745299 242.847446,432.457513 L242.803359,432.457513 L242.803359,432.557496 C242.671099,432.882442 242.576627,433.063661 242.576627,433.063661 L242.803359,433.063661 L242.803359,438.581487 L255.563331,438.581487 C256.747376,437.987837 254.23443,436.256877 252.981106,434.832115 C252.570781,434.380526 252.284484,433.831769 252.149755,433.238632 L252.363891,433.238632 L252.464661,432.788707 C255.728571,417.747241 250.731474,402.114742 239.326802,391.689338 C239.350097,391.656417 239.36914,391.620728 239.383485,391.583106 C240.587801,387.926389 241.330348,384.135581 241.594122,380.297495 C251.349895,381.22234 264.330301,380.559951 274.035689,373.0987 C274.962092,372.404134 275.847394,371.657188 276.687194,370.861575 C277.524843,370.799085 278.992302,370.336662 279.804759,367.987056 C279.870003,367.795318 279.920532,367.598957 279.955913,367.399654 C279.955913,367.337165 279.955913,367.274675 279.955913,367.218434 C279.978524,367.0861 279.993246,366.952557 280,366.818501 Z" id="Path" fill="url(#linearGradient-21)" fill-rule="nonzero"></path>
                <path d="M228.2895,377.340487 C228.2895,377.340487 257.705285,386.299038 274,371.332069 L270.544116,367 C270.544116,367 238.933122,373.747453 231.400423,368.802525 C223.867724,363.857598 228.2895,377.340487 228.2895,377.340487 Z" id="Path" fill="#5C82F7" fill-rule="nonzero"></path>
                <path d="M273.4217,371 L274,371.767736 C257.656737,387.711061 228.188576,378.165539 228.188576,378.165539 C228.188576,378.165539 228.113146,377.922423 228,377.525759 C231.513802,378.594192 258.18475,385.894085 273.4217,371 Z" id="Path" fill="#FFFFFF" fill-rule="nonzero" opacity="0.2"></path>
                <path d="M273.270713,371.96224 C273.270713,371.96224 275.685987,372.554304 276.799278,369.049558 C277.912568,365.544811 274.031776,364 274.031776,364 C274.031776,364 269.98745,365.612864 270.000029,367.327808 C270.012609,369.042752 273.270713,371.96224 273.270713,371.96224 Z" id="Path" fill="#985454" fill-rule="nonzero"></path>
                <path d="M272.444112,370.45861 C272.444112,370.45861 275.118012,371.008261 276.350513,367.754576 C276.737698,366.843766 276.621223,365.819859 276.037165,365 C276.960812,365.86406 277.248695,367.135551 276.775273,368.260003 C275.542772,371.520006 272.868872,370.964036 272.868872,370.964036 C271.805954,370.154055 270.843935,369.240957 270,368.241049 C270.745386,369.040562 271.562919,369.782316 272.444112,370.45861 Z" id="Path" fill="#FFFFFF" fill-rule="nonzero" opacity="0.2"></path>
                <path d="M242,429 L250.538223,429 C250.474272,429.860663 250.768306,430.708045 251.343484,431.320693 C252.492978,432.72481 254.804261,434.421452 253.716237,435 L242,435 L242,429 Z" id="4635430b-7803-4f1f-9770-b56b2b482545" fill="#5C82F7" fill-rule="nonzero"></path>
                <path d="M250.796929,431.320693 C250.233734,430.708045 249.945825,429.860663 250.008444,429 L250.610341,429 C250.547722,429.860663 250.835631,430.708045 251.398826,431.320693 C252.524374,432.72481 254.787506,434.421452 253.722149,435 L253.120252,435 C254.185609,434.421452 251.922477,432.731311 250.796929,431.320693 Z" id="Path" fill="#FFFFFF" fill-rule="nonzero" opacity="0.2"></path>
                <path d="M211.569638,427 L219.603218,428.34432 C219.381096,429.321316 219.510509,430.347317 219.967819,431.234923 C220.845333,433.128331 222.81665,435.48878 221.630152,436 L210,434.106592 L211.569638,427 Z" id="a892faa3-7b18-4010-9d55-72c2aac7ddb8" fill="#5C82F7" fill-rule="nonzero"></path>
                <path d="M219.237703,431.253857 C218.755418,430.366251 218.618938,429.34025 218.85319,428.363254 L211,427.100982 L211,427 L219.472322,428.34432 C219.238069,429.321316 219.374549,430.347317 219.856835,431.234923 C220.782273,433.128331 222.86125,435.48878 221.609953,436 L221.095097,435.917952 C222.059638,435.299439 220.124039,433.033661 219.237703,431.253857 Z" id="Path" fill="#FFFFFF" fill-rule="nonzero" opacity="0.2"></path>
                <rect id="Rectangle" fill="#985454" fill-rule="nonzero" transform="translate(229.500000, 353.500000) rotate(180.000000) translate(-229.500000, -353.500000) " x="225" y="347" width="9" height="13" rx="4.5"></rect>
                <circle id="Oval" fill="#985454" fill-rule="nonzero" cx="228.5" cy="342.5" r="9.5"></circle>
                <path d="M232.278334,356.578101 L232.278334,352.333169 C232.27795,352.022529 232.242206,351.712812 232.171709,351.409272 C236.350574,349.398796 238.574007,345.015476 237.598518,340.710756 C236.623029,336.406036 232.690393,333.246841 228,333 L228.586438,333 C233.392368,332.998585 237.574593,336.079408 238.706281,340.454751 C239.837969,344.830094 237.624897,349.362426 233.35125,351.421757 C233.421747,351.725297 233.457491,352.035014 233.457875,352.345654 L233.457875,356.590586 C233.470145,357.858746 232.893663,359.069342 231.878124,359.908022 C230.862585,360.746702 229.508179,361.130724 228.166602,360.960369 C230.517946,360.674897 232.277907,358.799138 232.278334,356.578101 L232.278334,356.578101 Z" id="Path" fill="#FFFFFF" fill-rule="nonzero" opacity="0.2"></path>
                <path d="M219,391.067544 C219,391.067544 238.096479,393.16557 238.8,391.067544 C243.75,376.294969 238.8,364.638581 238.8,364.638581 C238.8,359.31534 234.367619,355 228.9,355 L228.9,355 C223.432381,355 219,359.31534 219,364.638581 L219,391.067544 Z" id="Path" fill="#5C82F7" fill-rule="nonzero"></path>
                <path d="M219.435927,391 L211,430 L219.435927,430 L228.181771,401.066731 C228.181771,401.066731 239.115625,405.784926 241.923469,415.221315 C244.731312,424.657705 241.923469,430 241.923469,430 L250.997824,430 L251.090799,429.575612 C254.124691,415.433498 249.44837,400.734854 238.818106,391 L238.818106,391" id="Path" fill="#263238" fill-rule="nonzero"></path>
                <path d="M237.726247,391.046883 C242.390997,376.275189 237.726247,364.619495 237.726247,364.619495 C237.727094,359.537877 233.908665,355.328581 229,355 C229.197102,355 229.400177,355 229.597279,355 L229.597279,355 C234.749819,355 238.926778,359.315082 238.926778,364.638006 C238.926778,364.638006 243.591527,376.29987 238.926778,391.065394 C238.687866,391.81817 236.227077,392.02796 233.169008,391.997109 C235.653689,391.941576 237.523172,391.694764 237.726247,391.046883 Z" id="Path" fill="#FFFFFF" fill-rule="nonzero" opacity="0.2"></path>
                <g id="Group" opacity="0.2" transform="translate(217.000000, 390.000000)" fill="#FFFFFF" fill-rule="nonzero">
                    <path d="M10.26875,11.20625 L1.6125,39.65 L0.3625,39.65 L9.18125,10.675 C9.18125,10.675 9.5875,10.85 10.26875,11.20625 Z" id="Path"></path>
                    <path d="M19.88125,0.59375 L21.13125,0.59375 C31.8501297,10.3426449 36.565433,25.0624885 33.50625,39.225 L33.4125,39.65 L32.1625,39.65 L32.25625,39.225 C35.315433,25.0624885 30.6001297,10.3426449 19.88125,0.59375 Z" id="Path"></path>
                </g>
                <path d="M227.2895,371.340487 C227.2895,371.340487 256.705285,380.299038 273,365.332069 L269.544116,361 C269.544116,361 237.933122,367.747453 230.400423,362.802525 C222.867724,357.857598 227.2895,371.340487 227.2895,371.340487 Z" id="Path" fill="#5C82F7" fill-rule="nonzero"></path>
                <path d="M272.4217,364 L273,364.767736 C256.656737,380.711061 227.188576,371.165539 227.188576,371.165539 C227.188576,371.165539 227.113146,370.922423 227,370.525759 C230.513802,371.594192 257.18475,378.894085 272.4217,364 Z" id="Path" fill="#FFFFFF" fill-rule="nonzero" opacity="0.2"></path>
                <path d="M272.270713,364.96224 C272.270713,364.96224 274.685987,365.554304 275.799278,362.049558 C276.912568,358.544811 273.031776,357 273.031776,357 C273.031776,357 268.98745,358.612864 269.000029,360.327808 C269.012609,362.042752 272.270713,364.96224 272.270713,364.96224 Z" id="Path" fill="#985454" fill-rule="nonzero"></path>
                <path d="M271.444112,364.45861 C271.444112,364.45861 274.118012,365.008261 275.350513,361.754576 C275.737698,360.843766 275.621223,359.819859 275.037165,359 C275.960812,359.86406 276.248695,361.135551 275.775273,362.260003 C274.542772,365.520006 271.868872,364.964036 271.868872,364.964036 C270.805954,364.154055 269.843935,363.240957 269,362.241049 C269.745386,363.040562 270.562919,363.782316 271.444112,364.45861 Z" id="Path" fill="#FFFFFF" fill-rule="nonzero" opacity="0.2"></path>
                <path d="M229.295129,338.944211 L228.673601,352 L215,352 L215,345.067998 C215,331.148039 229.711552,325.863553 237.996511,337.048013 C238.201615,337.352648 229.295129,338.944211 229.295129,338.944211 Z" id="Path" fill="#263238" fill-rule="nonzero"></path>
                <path d="M227,331.032854 C230.257218,331.319308 233.607334,333.224846 236.254913,337.054604 C236.446514,337.328603 228.126382,338.922778 228.126382,338.922778 L227.545773,352 L229.287601,352 L229.86821,338.922778 C229.86821,338.922778 238.188342,337.328603 237.996741,337.054604 C234.878869,332.533621 230.779767,330.727719 227,331.032854 Z" id="Path" fill="#FFFFFF" fill-rule="nonzero" opacity="0.2"></path>
            </g>
        </g>
    </g>
</svg>