<?xml version="1.0" encoding="UTF-8"?>
<svg width="429px" height="181px" viewBox="0 0 429 181" version="1.1" xmlns="http://www.w3.org/2000/svg" xmlns:xlink="http://www.w3.org/1999/xlink">
    <!-- Generator: Sketch 55 (78076) - https://sketchapp.com -->
    <title>undraw_online_friends_x73e</title>
    <desc>Created with Sketch.</desc>
    <defs>
        <linearGradient x1="50%" y1="62%" x2="50%" y2="38%" id="linearGradient-1">
            <stop stop-color="#808080" stop-opacity="0.25" offset="0%"></stop>
            <stop stop-color="#808080" stop-opacity="0.12" offset="54%"></stop>
            <stop stop-color="#808080" stop-opacity="0.1" offset="100%"></stop>
        </linearGradient>
    </defs>
    <g id="V4" stroke="none" stroke-width="1" fill="none" fill-rule="evenodd">
        <g id="Mes_influenceurs-Copy-5" transform="translate(-509.000000, -210.000000)">
            <g id="undraw_online_friends_x73e" transform="translate(505.000000, 137.000000)">
                <ellipse id="Oval" fill="#3F3D56" fill-rule="nonzero" cx="218.266811" cy="245.800051" rx="213.905109" ry="7.63297756"></ellipse>
                <path d="M385.101892,203.117168 C385.896038,201.73044 386.306302,200.157135 386.290455,198.55919 C386.290455,194.441016 383.746129,191.10068 380.591165,191.10068 C377.436201,191.10068 374.89551,194.441016 374.89551,198.55919 C374.879664,200.157135 375.289927,201.73044 376.084074,203.117168 C374.499351,205.949203 374.499351,209.401088 376.084074,212.233124 C374.499293,215.06385 374.499293,218.514719 376.084074,221.345445 C374.499351,224.17748 374.499351,227.629366 376.084074,230.461401 C375.289927,231.848129 374.879664,233.421433 374.89551,235.019379 C374.89551,239.137552 377.439836,242.477888 380.591165,242.477888 C383.742495,242.477888 386.290455,239.137552 386.290455,235.019379 C386.306302,233.421433 385.896038,231.848129 385.101892,230.461401 C386.686614,227.629366 386.686614,224.17748 385.101892,221.345445 C386.686673,218.514719 386.686673,215.06385 385.101892,212.233124 C386.686614,209.401088 386.686614,205.949203 385.101892,203.117168 L385.101892,203.117168 Z" id="Path" fill="#3F3D56" fill-rule="nonzero"></path>
                <ellipse id="Oval" fill="#3F3D56" fill-rule="nonzero" cx="380.576626" cy="189.443233" rx="5.69565516" ry="7.4585095"></ellipse>
                <ellipse id="Oval" fill="#3F3D56" fill-rule="nonzero" cx="380.576626" cy="180.327277" rx="5.69565516" ry="7.4585095"></ellipse>
                <path d="M359.251541,117.947677 C358.473082,116.956932 357.763836,115.91371 357.128846,114.825426 L372.100386,112.368334 L355.90757,112.488281 C352.769433,105.658431 352.581446,97.8378868 355.3878,90.8651457 L377.109074,102.132874 L357.07796,87.4084973 C362.187026,78.5596586 371.811299,73.3062522 382.017442,73.7952893 C392.223585,74.2843265 401.301475,80.4338651 405.541076,89.7306542 C409.780677,99.0274434 408.471609,109.913731 402.148875,117.940408 C403.364388,119.481913 404.407704,121.151706 405.260222,122.920017 L385.828842,133.02099 L406.546924,126.067711 C409.501753,134.804578 407.846188,144.44267 402.14524,151.692707 C410.949129,162.879396 409.675099,178.954223 399.218962,188.614434 C388.762825,198.274646 372.63759,198.274646 362.181454,188.614434 C351.725317,178.954223 350.451286,162.879396 359.255176,151.692707 C351.467156,141.792412 351.467156,127.847972 359.255176,117.947677 L359.251541,117.947677 Z" id="Path" fill="#57B894" fill-rule="nonzero"></path>
                <path d="M408.000824,134.820192 C408.010174,140.941787 405.951965,146.887154 402.159779,151.692707 C410.963668,162.879396 409.689638,178.954223 399.233501,188.614434 C388.777364,198.274646 372.652129,198.274646 362.195993,188.614434 C351.739856,178.954223 350.465825,162.879396 359.269715,151.692707 C355.594981,147.05113 408.000824,131.759732 408.000824,134.820192 Z" id="Path" fill="#000000" fill-rule="nonzero" opacity="0.1"></path>
                <rect id="Rectangle" fill="#F2F2F2" fill-rule="nonzero" x="66.6976848" y="76.3297756" width="303.138252" height="165.744656" rx="20.42"></rect>
                <path d="M66.8794224,84.5079658 L164.290755,84.5079658 L164.290755,242.256169 L74.3015844,242.256169 C70.2024375,242.256169 66.8794224,238.933154 66.8794224,234.834007 L66.8794224,84.5079658 Z" id="Path" fill="#EC7C7C" fill-rule="nonzero"></path>
                <path d="M369.835936,83.7519376 L369.835936,87.9646142 L66.6976848,87.9646142 L66.6976848,83.7519376 C66.6976846,81.7837919 67.4797761,79.8963094 68.8718061,78.5049611 C70.263836,77.1136129 72.1517014,76.332446 74.1198468,76.3334103 L362.413774,76.3334103 C364.38192,76.332446 366.269785,77.1136129 367.661815,78.5049611 C369.053845,79.8963094 369.835937,81.7837919 369.835936,83.7519376 Z" id="Path" fill="#3F3D56" fill-rule="nonzero"></path>
                <circle id="Oval" fill="#EC7C7C" fill-rule="nonzero" cx="74.5124" cy="82.3271151" r="2.18085073"></circle>
                <circle id="Oval" fill="#EC7C7C" fill-rule="nonzero" cx="79.9645268" cy="82.3271151" r="2.18085073"></circle>
                <circle id="Oval" fill="#EC7C7C" fill-rule="nonzero" cx="85.4166536" cy="82.3271151" r="2.18085073"></circle>
                <g id="Group" transform="translate(0.181738, 0.047252)"></g>
                <g id="Group" transform="translate(0.181738, 0.047252)"></g>
                <rect id="Rectangle" fill="#EC7C7C" fill-rule="nonzero" opacity="0.3" x="226.263263" y="107.632253" width="126.125867" height="3.99822634" rx="1.24"></rect>
                <rect id="Rectangle" fill="#EC7C7C" fill-rule="nonzero" x="324.038071" y="115.265231" width="26.5336839" height="9.08687804" rx="1.24"></rect>
                <rect id="Rectangle" fill="#EC7C7C" fill-rule="nonzero" opacity="0.3" x="226.263263" y="156.250685" width="126.125867" height="3.99822634" rx="1.24"></rect>
                <rect id="Rectangle" fill="#EC7C7C" fill-rule="nonzero" x="324.038071" y="163.883663" width="26.5336839" height="9.08687804" rx="1.24"></rect>
                <rect id="Rectangle" fill="#EC7C7C" fill-rule="nonzero" opacity="0.3" x="226.263263" y="205.683302" width="126.125867" height="3.99822634" rx="1.24"></rect>
                <rect id="Rectangle" fill="#EC7C7C" fill-rule="nonzero" x="324.038071" y="213.316279" width="26.5336839" height="9.08687804" rx="1.24"></rect>
                <circle id="Oval" fill="#3F3D56" fill-rule="nonzero" cx="198.889952" cy="164.610613" r="17.999288"></circle>
                <path d="M214.773815,174.104583 C214.754152,174.147964 214.728455,174.188346 214.697485,174.22453 C214.501423,174.548827 214.289126,174.863027 214.061403,175.165931 C212.065284,177.929162 209.322981,180.066267 206.15582,181.326834 C205.843231,181.457685 205.523373,181.577632 205.19988,181.690309 C204.900254,181.450444 204.622888,181.184026 204.371157,180.894299 C203.620383,180.041557 203.117553,178.999442 202.917256,177.88109 C202.438151,177.973494 201.95129,178.019746 201.463356,178.01921 C201.41496,178.022832 201.366361,178.022832 201.317966,178.01921 C197.574172,177.953785 194.361052,175.213182 192.925325,171.30219 L192.867169,171.134992 C191.991576,168.587325 191.892895,165.836908 192.583659,163.233042 L192.583659,163.233042 C192.601832,163.145808 192.63091,163.058574 192.656354,162.974975 C193.884899,158.755029 197.127098,155.680029 200.983569,155.436501 C201.103515,155.436501 201.223462,155.436501 201.347044,155.436501 C201.470625,155.436501 201.54332,155.436501 201.641459,155.436501 L201.815927,155.436501 C206.701032,155.614604 210.633833,160.33978 210.815571,166.249886 C212.853914,167.588563 213.932478,169.98663 213.581616,172.399885 C214.06896,172.899599 214.471634,173.475374 214.773815,174.104583 Z" id="Path" fill="#192534" fill-rule="nonzero"></path>
                <path d="M214.697485,174.22453 C214.501423,174.548827 214.289126,174.863027 214.061403,175.165931 C213.798116,174.693673 213.47161,174.259555 213.090925,173.875594 C213.13273,173.575689 213.154587,173.27334 213.15635,172.970541 C213.156343,170.856873 212.091992,168.885296 210.324879,167.725595 C210.124968,161.691908 206.021334,156.872228 200.994473,156.872228 C197.403339,156.872228 194.288357,159.32205 192.721779,162.920454 C192.681797,163.014957 192.645449,163.105826 192.601832,163.203964 L192.601832,163.203964 C192.470981,163.516553 192.354669,163.832776 192.238357,164.163539 C192.366519,163.499079 192.54514,162.845353 192.772666,162.208043 L192.823552,162.157156 C194.222931,158.300685 197.348817,155.563717 201.019916,155.400154 C201.139863,155.400154 201.25981,155.400154 201.383391,155.400154 C201.506973,155.400154 201.579668,155.400154 201.677806,155.400154 L201.852274,155.400154 C206.668319,155.690934 210.524791,160.394302 210.710163,166.242616 C212.753411,167.577584 213.835623,169.977456 213.483478,172.392616 C213.993991,172.926102 214.405115,173.546481 214.697485,174.22453 L214.697485,174.22453 Z" id="Path" fill="#000000" fill-rule="nonzero" opacity="0.1"></path>
                <path d="M195.731353,169.063183 C195.776316,169.43132 195.73398,169.804872 195.607772,170.153609 C195.393321,170.65157 194.880821,171.098644 195.022577,171.607509 C195.168701,171.931267 195.460236,172.166115 195.807683,172.239956 C197.374261,172.77063 199.078959,172.454406 200.736406,172.527101 C201.288706,172.575449 201.843158,172.594861 202.397487,172.585257 C202.955052,172.572832 203.494436,172.384556 203.938621,172.047314 C203.077645,171.629102 202.264734,171.118443 201.514242,170.524353 C201.331785,170.38911 201.166944,170.231595 201.023551,170.05547 C200.715425,169.556884 200.567042,168.976035 200.598285,168.390754 C200.598285,167.812829 200.598285,167.234904 200.598285,166.660613 C199.413356,166.660613 198.232062,166.642439 197.047133,166.642439 C196.683658,166.642439 195.509633,166.55157 195.375147,166.962297 C195.309722,167.165843 195.564155,167.765577 195.604137,167.994567 C195.665172,168.348306 195.707636,168.705001 195.731353,169.063183 L195.731353,169.063183 Z" id="Path" fill="#A0616A" fill-rule="nonzero"></path>
                <path d="M195.731353,169.063183 C195.776316,169.43132 195.73398,169.804872 195.607772,170.153609 C195.393321,170.65157 194.880821,171.098644 195.022577,171.607509 C195.168701,171.931267 195.460236,172.166115 195.807683,172.239956 C197.374261,172.77063 199.078959,172.454406 200.736406,172.527101 C201.288706,172.575449 201.843158,172.594861 202.397487,172.585257 C202.955052,172.572832 203.494436,172.384556 203.938621,172.047314 C203.077645,171.629102 202.264734,171.118443 201.514242,170.524353 C201.331785,170.38911 201.166944,170.231595 201.023551,170.05547 C200.715425,169.556884 200.567042,168.976035 200.598285,168.390754 C200.598285,167.812829 200.598285,167.234904 200.598285,166.660613 C199.413356,166.660613 198.232062,166.642439 197.047133,166.642439 C196.683658,166.642439 195.509633,166.55157 195.375147,166.962297 C195.309722,167.165843 195.564155,167.765577 195.604137,167.994567 C195.665172,168.348306 195.707636,168.705001 195.731353,169.063183 L195.731353,169.063183 Z" id="Path" fill="#000000" fill-rule="nonzero" opacity="0.1"></path>
                <circle id="Oval" fill="#A0616A" fill-rule="nonzero" cx="198.166636" cy="164.36345" r="4.17632915"></circle>
                <path d="M206.086759,176.478076 C206.086759,176.590753 206.064951,176.7107 206.046777,176.841551 C205.911597,177.51892 205.713242,178.182132 205.454313,178.82249 C205.301002,179.256935 205.116356,179.679677 204.90183,180.087384 C204.745536,180.36726 204.538355,180.625327 204.371157,180.897933 L204.131263,181.286852 C203.978339,181.549027 203.848222,181.823856 203.742345,182.108306 C203.04115,182.287841 202.328189,182.417801 201.608746,182.497224 C200.905546,182.581674 200.197939,182.624155 199.489686,182.62444 C195.691371,182.62444 191.595006,181.639423 188.69084,179.62577 C188.69084,179.62577 189.116106,179.331356 189.054315,179.262295 C189.054315,179.095097 189.036141,178.931533 189.036141,178.764334 C189.03183,178.333917 189.101921,177.905991 189.243322,177.499441 C189.366965,177.109836 189.582655,176.755756 189.872134,176.467172 C190.235609,176.103697 190.722666,175.878342 191.111584,175.529406 C191.60857,175.048769 191.960037,174.437796 192.12568,173.766551 L192.12568,173.766551 C192.216549,173.475771 192.281974,173.166818 192.343765,172.868768 C192.398978,172.461207 192.511559,172.063503 192.678162,171.687474 C192.701263,171.639466 192.727996,171.593291 192.758127,171.549353 C192.813467,171.456107 192.879323,171.369518 192.954403,171.291286 C193.325108,170.929854 193.758697,170.639152 194.233836,170.433485 C194.630023,170.229939 195.18614,170.070009 195.462381,170.408041 L195.462381,170.433485 C195.552788,170.641419 195.629286,170.855128 195.691371,171.073201 C195.913091,171.531179 196.530998,171.589335 197.032594,171.578431 C198.806604,171.541321 200.576553,171.393219 202.332061,171.134992 L203.182593,170.996871 C203.796866,170.895098 204.225767,171.433041 204.571068,171.956445 C205.465217,173.304938 206.221245,174.856977 206.086759,176.478076 Z" id="Path" fill="#EC7C7C" fill-rule="nonzero"></path>
                <path d="M193.332417,176.761586 C192.943499,176.848821 192.718144,177.241374 192.536407,177.597579 C192.191783,178.183012 192.040435,178.862169 192.103871,179.538536 C192.093292,179.804115 192.121454,180.069818 192.187471,180.327277 C192.254529,180.586586 192.418432,180.810326 192.645449,180.952455" id="Path" stroke="#000000" opacity="0.1"></path>
                <ellipse id="Oval" fill="#192534" fill-rule="nonzero" transform="translate(199.235344, 161.362946) rotate(-75.660000) translate(-199.235344, -161.362946) " cx="199.235344" cy="161.362946" rx="2.30443227" ry="4.67065531"></ellipse>
                <path d="M198.897221,162.720543 C196.676388,162.153521 195.033481,160.903167 194.898995,159.754586 C194.795838,159.884002 194.721487,160.033943 194.68091,160.19439 C194.364687,161.426571 196.13481,162.942262 198.631885,163.581979 C201.128959,164.221695 203.411582,163.738273 203.720536,162.491553 C203.755575,162.353913 203.765426,162.211069 203.749614,162.069922 C203.084455,162.985879 201.074437,163.276659 198.897221,162.720543 Z" id="Path" fill="#000000" fill-rule="nonzero" opacity="0.1"></path>
                <path d="M206.195802,179.440398 C206.195802,180.072845 206.195802,180.701657 206.15582,181.326834 C205.843231,181.457685 205.523373,181.577632 205.19988,181.690309 C204.723467,181.855795 204.238054,181.994138 203.74598,182.104671 C203.044785,182.284206 202.331824,182.414167 201.612381,182.493589 C201.485164,180.988802 201.198019,179.538536 201.339774,178.011941 L201.339774,178.011941 C201.45776,176.842492 201.859526,175.719543 202.510164,174.740665 C202.765265,174.311915 203.130472,173.959258 203.567877,173.7193 C204.013774,173.482505 204.556397,173.525008 204.959986,173.828342 C205.207369,174.086658 205.380632,174.406819 205.461582,174.755204 C205.706868,175.437117 205.903635,176.135519 206.050412,176.845186 C206.050412,176.921516 206.075855,177.005115 206.086759,177.085079 C206.18741,177.865887 206.223879,178.653631 206.195802,179.440398 L206.195802,179.440398 Z" id="Path" fill="#A0616A" fill-rule="nonzero"></path>
                <path d="M216.885605,214.04323 C216.89406,217.053474 216.144031,220.01734 214.704754,222.661225 C214.544825,222.952005 214.377627,223.24642 214.18862,223.5372 C214.168957,223.58058 214.14326,223.620962 214.11229,223.657147 C213.916228,223.981444 213.703931,224.295643 213.476209,224.598547 C212.095294,226.513725 210.346924,228.134829 208.333036,229.367341 L208.227628,229.440036 C207.565863,229.837332 206.87999,230.193015 206.173993,230.505018 C205.977717,230.592252 205.774171,230.675851 205.570625,230.759451 C205.367079,230.84305 205.178071,230.91938 204.974525,230.984805 C204.872752,231.028422 204.76371,231.06477 204.658302,231.101117 L204.658302,231.101117 C204.646239,231.099516 204.634017,231.099516 204.621955,231.101117 C204.400235,231.181082 204.171245,231.250142 203.945891,231.319202 L203.775058,231.359185 C203.571511,231.420975 203.367965,231.471862 203.164419,231.515479 C202.462066,231.695335 201.747874,231.825299 201.027186,231.904397 L201.027186,231.904397 C200.328864,231.988961 199.626088,232.031443 198.922665,232.031613 C198.84997,232.031613 198.777275,232.031613 198.70458,232.031613 C197.72924,232.028659 196.756111,231.938645 195.796779,231.762642 L195.622311,231.733564 C195.444208,231.704486 195.258835,231.668138 195.088002,231.624521 L195.088002,231.624521 L194.74997,231.548192 C194.391412,231.469627 194.037156,231.37257 193.688623,231.257411 C192.978437,231.044465 192.282751,230.785859 191.60591,230.483209 L191.529581,230.450497 C190.538499,230.001489 189.590702,229.462499 188.698109,228.840302 C188.622109,228.795646 188.549244,228.745856 188.480024,228.691277 C181.544715,223.747121 179.025288,214.618059 182.443096,206.816663 C185.860904,199.015267 194.279819,194.678315 202.616091,196.42467 C210.952363,198.171025 216.922713,205.522366 216.921953,214.039595 L216.885605,214.04323 Z" id="Path" fill="#3F3D56" fill-rule="nonzero"></path>
                <path d="M203.244384,209.706972 C203.155196,211.750028 201.472897,213.36049 199.427895,213.36049 C197.382893,213.36049 195.700594,211.750028 195.611406,209.706972 C195.611406,209.645181 195.611406,209.58339 195.611406,209.525234 C195.611406,207.417446 197.320107,205.708745 199.427895,205.708745 C201.535683,205.708745 203.244384,207.417446 203.244384,209.525234 C203.240749,209.58339 203.244384,209.645181 203.244384,209.706972 Z" id="Path" fill="#192534" fill-rule="nonzero"></path>
                <path d="M203.244384,209.706972 C203.155196,211.750028 201.472897,213.36049 199.427895,213.36049 C197.382893,213.36049 195.700594,211.750028 195.611406,209.706972 C195.611406,209.645181 195.611406,209.58339 195.611406,209.525234 C197.831454,207.708567 201.024336,207.708567 203.244384,209.525234 C203.240749,209.58339 203.244384,209.645181 203.244384,209.706972 Z" id="Path" fill="#000000" fill-rule="nonzero" opacity="0.1"></path>
                <circle id="Oval" fill="#192534" fill-rule="nonzero" cx="199.42426" cy="214.530286" r="6.03005227"></circle>
                <path d="M195.771335,208.863709 C195.772733,206.950249 197.189576,205.332997 199.086228,205.079933 C197.611691,204.880319 196.155426,205.55507 195.354402,206.809051 C194.553378,208.063031 194.553378,209.668022 195.354402,210.922003 C196.155426,212.175983 197.611691,212.850734 199.086228,212.65112 C197.188206,212.397872 195.770912,210.778552 195.771335,208.863709 L195.771335,208.863709 Z" id="Path" fill="#192534" fill-rule="nonzero"></path>
                <path d="M192.620006,216.980109 C191.185545,215.712718 190.910523,213.57935 191.976655,211.989595 C191.848192,212.103222 191.726807,212.224608 191.61318,212.35307 C190.67139,213.370743 190.354983,214.818833 190.786487,216.13657 C191.217991,217.454307 192.329648,218.434765 193.690969,218.698264 C195.05229,218.961763 196.449506,218.466924 197.341548,217.405375 C197.452763,217.278668 197.555949,217.145134 197.650502,217.005552 C196.203955,218.258165 194.053808,218.24729 192.620006,216.980109 L192.620006,216.980109 Z" id="Path" fill="#192534" fill-rule="nonzero"></path>
                <path d="M196.269296,222.177803 C195.955265,222.239625 195.651709,222.346114 195.367878,222.494026 C194.866282,222.857501 194.884456,223.584452 195.033481,224.176916 C195.375147,225.529044 196.21114,226.82665 197.490573,227.379132 C198.282632,227.671251 199.126892,227.795043 199.969473,227.742607 C200.881796,227.742607 201.914065,227.619026 202.481086,226.899345 C202.736416,226.51975 202.91087,226.091658 202.993586,225.641721 C203.273462,224.551295 203.556972,223.424523 203.455199,222.29775 C202.902717,222.345001 202.28481,222.377714 201.848639,222.028778 C201.412469,221.679842 201.314331,221.014683 201.121689,220.4622 C201.100769,220.373427 201.050896,220.294141 200.979934,220.236846 C200.900274,220.200888 200.812043,220.188283 200.725501,220.200498 C200.14535,220.225367 199.564136,220.201049 198.98809,220.127803 C198.624615,220.080551 197.745005,219.706172 197.476034,220.022395 C197.279757,220.251385 197.403339,220.949257 197.250679,221.27275 C197.057804,221.693576 196.70433,222.019558 196.269296,222.177803 Z" id="Path" fill="#FFC1C7" fill-rule="nonzero"></path>
                <path d="M196.269296,222.177803 C195.955265,222.239625 195.651709,222.346114 195.367878,222.494026 C194.866282,222.857501 194.884456,223.584452 195.033481,224.176916 C195.375147,225.529044 196.21114,226.82665 197.490573,227.379132 C198.282632,227.671251 199.126892,227.795043 199.969473,227.742607 C200.881796,227.742607 201.914065,227.619026 202.481086,226.899345 C202.736416,226.51975 202.91087,226.091658 202.993586,225.641721 C203.273462,224.551295 203.556972,223.424523 203.455199,222.29775 C202.902717,222.345001 202.28481,222.377714 201.848639,222.028778 C201.412469,221.679842 201.314331,221.014683 201.121689,220.4622 C201.100769,220.373427 201.050896,220.294141 200.979934,220.236846 C200.900274,220.200888 200.812043,220.188283 200.725501,220.200498 C200.14535,220.225367 199.564136,220.201049 198.98809,220.127803 C198.624615,220.080551 197.745005,219.706172 197.476034,220.022395 C197.279757,220.251385 197.403339,220.949257 197.250679,221.27275 C197.057804,221.693576 196.70433,222.019558 196.269296,222.177803 Z" id="Path" fill="#000000" fill-rule="nonzero" opacity="0.05"></path>
                <circle id="Oval" fill="#FFC1C7" fill-rule="nonzero" cx="199.340661" cy="217.441722" r="4.21631141"></circle>
                <path d="M208.583833,226.575852 C208.554755,226.612199 208.525677,226.655816 208.492965,226.692164 L208.314862,226.924788 C207.417197,228.000712 206.69024,229.208221 206.159454,230.505018 C205.963178,230.592252 205.759632,230.675851 205.556086,230.759451 C205.35254,230.84305 205.163532,230.91938 204.959986,230.984805 C204.858213,231.028422 204.749171,231.06477 204.643763,231.101117 L204.643763,231.101117 C204.6317,231.099516 204.619478,231.099516 204.607416,231.101117 C204.385696,231.181082 204.156706,231.250142 203.931352,231.319202 L203.760519,231.359185 C203.556972,231.420975 203.353426,231.471862 203.14988,231.515479 C202.447527,231.695335 201.733335,231.825299 201.012647,231.904397 L201.012647,231.904397 C200.314325,231.988961 199.611549,232.031443 198.908126,232.031613 C198.835431,232.031613 198.762736,232.031613 198.690041,232.031613 C197.714701,232.028659 196.741572,231.938645 195.78224,231.762642 L195.607772,231.733564 C195.429669,231.704486 195.244296,231.668138 195.073463,231.624521 L195.073463,231.624521 L194.735431,231.548192 C194.376873,231.469627 194.022617,231.37257 193.674084,231.257411 C193.771397,230.648248 194.042788,230.08022 194.455555,229.621773 C193.637736,228.644025 192.292878,228.258742 191.424173,227.335515 C191.34849,227.247692 191.278094,227.155449 191.213357,227.059274 C191.167957,226.989621 191.130181,226.915287 191.10068,226.837554 C191.074719,226.776284 191.058765,226.711242 191.053428,226.644912 C191.026038,226.511046 191.015053,226.374342 191.020715,226.23782 C190.998907,225.205551 191.046159,224.027891 191.845804,223.380906 C192.23853,223.105906 192.680203,222.908511 193.147045,222.799345 C193.958673,222.54532 194.748715,222.226872 195.509633,221.847041 C195.579269,222.00936 195.625763,222.180654 195.647754,222.355906 C195.720449,222.777537 195.713179,223.220977 195.811318,223.638973 C196.001875,224.384487 196.463158,225.032356 197.105289,225.456349 C197.745741,225.875881 198.47489,226.140913 199.235253,226.230551 C199.984012,226.339593 200.580111,225.950675 201.285253,225.685338 C201.597624,225.585536 201.885966,225.422183 202.13215,225.205551 C202.450579,224.83807 202.620378,224.364966 202.608302,223.878867 C202.608302,223.399079 202.553781,222.919292 202.582859,222.424966 C202.583541,222.374782 202.589634,222.324818 202.601033,222.275941 C202.603157,222.016767 202.769607,221.787532 203.015395,221.705285 C203.151558,221.694136 203.288247,221.719217 203.411582,221.77798 L204.770979,222.29775 C205.36003,222.501589 205.927406,222.763362 206.464773,223.079221 C207.667676,223.860354 208.44804,225.148021 208.583833,226.575852 L208.583833,226.575852 Z" id="Path" fill="#EC7C7C" fill-rule="nonzero"></path>
                <path d="M195.764066,231.766277 L195.589598,231.737199 C195.411495,231.708121 195.226123,231.671773 195.055289,231.628156 L195.055289,231.628156 L194.717257,231.551826 C194.358699,231.473261 194.004443,231.376205 193.65591,231.261046 C192.945724,231.0481 192.250038,230.789494 191.573198,230.486844 C191.232806,229.379562 191.10939,228.216977 191.209723,227.062909 C191.25389,226.567943 191.356373,226.079928 191.515042,225.609008 C192.278339,226.335958 193.57958,225.925231 194.444651,226.506792 C194.679181,226.672784 194.871012,226.892019 195.004403,227.146508 C195.246449,227.612291 195.410958,228.114412 195.491459,228.633121 C195.545981,228.916632 195.596867,229.203777 195.640484,229.490922 C195.640484,229.541809 195.640484,229.581791 195.640484,229.625408 C195.640484,229.669025 195.640484,229.716277 195.640484,229.763529 C195.669562,229.967075 195.695006,230.17789 195.70591,230.385071 C195.764066,230.853954 195.764066,231.304663 195.764066,231.766277 Z" id="Path" fill="#000000" fill-rule="nonzero" opacity="0.1"></path>
                <path d="M195.589598,231.737199 C195.411495,231.708121 195.226123,231.671773 195.055289,231.628156 L195.055289,231.628156 L194.717257,231.551826 C194.358699,231.473261 194.004443,231.376205 193.65591,231.261046 C192.945724,231.0481 192.250038,230.789494 191.573198,230.486844 L191.496868,230.454131 C191.079481,229.231632 190.922248,227.935383 191.035255,226.648547 C191.08734,226.183954 191.187218,225.725974 191.333304,225.28188 C192.096602,226.008831 193.397843,225.605373 194.262914,226.186934 C194.59612,226.426506 194.84944,226.760888 194.989864,227.146508 C195.131149,227.519821 195.237023,227.90559 195.306087,228.298724 C195.386052,228.72399 195.462381,229.149256 195.513268,229.581791 C195.524703,229.641712 195.530785,229.70253 195.531442,229.763529 C195.531442,229.803511 195.531442,229.854398 195.531442,229.89438 C195.531442,229.934362 195.531442,229.996153 195.531442,230.050674 C195.600502,230.606791 195.596867,231.173812 195.589598,231.737199 Z" id="Path" fill="#EC7C7C" fill-rule="nonzero"></path>
                <path d="M208.213089,229.440036 C207.551324,229.837332 206.865451,230.193015 206.159454,230.505018 C205.963178,230.592252 205.759632,230.675851 205.556086,230.759451 C205.35254,230.84305 205.163532,230.91938 204.959986,230.984805 C204.858213,231.028422 204.749171,231.06477 204.643763,231.101117 L204.643763,231.101117 C204.6317,231.099516 204.619478,231.099516 204.607416,231.101117 C204.385696,231.181082 204.156706,231.250142 203.931352,231.319202 L203.760519,231.359185 C203.760519,231.035692 203.760519,230.701295 203.796866,230.374167 C203.822309,230.1161 203.851387,229.858032 203.887735,229.599965 C203.887735,229.552713 203.887735,229.505461 203.905909,229.45821 C203.909459,229.428024 203.909459,229.397526 203.905909,229.367341 C203.949526,229.120178 203.996777,228.86938 204.044029,228.622217 C204.119423,228.102296 204.284206,227.599341 204.531086,227.135604 C204.66738,226.886001 204.860348,226.671868 205.094472,226.510426 C205.959543,225.928866 207.275323,226.325054 208.002273,225.612643 C208.145317,226.034993 208.243988,226.471092 208.296688,226.913884 C208.395175,227.755383 208.366995,228.60689 208.213089,229.440036 L208.213089,229.440036 Z" id="Path" fill="#000000" fill-rule="nonzero" opacity="0.1"></path>
                <path d="M208.318497,229.367341 L208.213089,229.440036 C207.551324,229.837332 206.865451,230.193015 206.159454,230.505018 C205.963178,230.592252 205.759632,230.675851 205.556086,230.759451 C205.35254,230.84305 205.163532,230.91938 204.959986,230.984805 C204.858213,231.028422 204.749171,231.06477 204.643763,231.101117 L204.643763,231.101117 C204.6317,231.099516 204.619478,231.099516 204.607416,231.101117 C204.385696,231.181082 204.156706,231.250142 203.931352,231.319202 C203.931352,230.890302 203.931352,230.465036 203.967699,230.03977 C203.967699,229.930727 203.967699,229.81805 203.996777,229.709007 C203.996777,229.661756 203.996777,229.607234 203.996777,229.559983 C203.996777,229.512731 203.996777,229.480018 203.996777,229.447305 C204.051299,229.054752 204.116724,228.673103 204.196689,228.28782 C204.265753,227.894686 204.371626,227.508916 204.512912,227.135604 C204.653336,226.749984 204.906656,226.415602 205.239862,226.176029 C206.104933,225.594469 207.420713,225.990657 208.147663,225.270976 C208.303812,225.727632 208.406275,226.200911 208.452982,226.68126 C208.550769,227.57809 208.505374,228.484763 208.318497,229.367341 Z" id="Path" fill="#EC7C7C" fill-rule="nonzero"></path>
                <ellipse id="Oval" fill="#192534" fill-rule="nonzero" cx="199.257062" cy="213.476209" rx="5.0595737" ry="3.37304913"></ellipse>
                <path d="M195.051655,231.119291 C195.051655,231.195621 195.051655,231.275585 195.051655,231.359185 C195.051655,231.442784 195.051655,231.519114 195.051655,231.599078 C195.050263,231.608721 195.050263,231.618513 195.051655,231.628156 L195.051655,231.628156 L194.713623,231.551826 C194.708088,231.487732 194.708088,231.423279 194.713623,231.359185 C194.71283,230.677115 195.008661,230.028409 195.524172,229.581791 C195.557466,229.546564 195.595368,229.515997 195.63685,229.490922 C195.831985,229.332413 196.053431,229.209388 196.291105,229.127447 C196.509208,229.043258 196.740662,228.998938 196.974438,228.996596 C197.005836,228.992992 197.037543,228.992992 197.068942,228.996596 C197.127039,228.99289 197.185313,228.99289 197.24341,228.996596 L197.123463,228.996596 C196.5669,229.055237 196.050413,229.313481 195.669562,229.723546 C195.627197,229.762783 195.589398,229.806678 195.556885,229.854398 C195.266045,230.216177 195.090091,230.656695 195.051655,231.119291 Z" id="Path" fill="#000000" fill-rule="nonzero" opacity="0.05"></path>
                <path d="M198.751831,231.359185 C198.751408,231.586873 198.724574,231.813744 198.671867,232.035248 C197.696527,232.032294 196.723398,231.942279 195.764066,231.766277 L195.589598,231.737199 C195.411495,231.708121 195.226123,231.671773 195.055289,231.628156 L195.055289,231.628156 L195.055289,231.599078 C195.055289,231.519114 195.055289,231.442784 195.055289,231.359185 C195.055289,231.275585 195.055289,231.195621 195.055289,231.119291 C195.086043,230.631549 195.252194,230.162045 195.535077,229.763529 C195.567467,229.713503 195.605253,229.667186 195.647754,229.625408 C195.817177,229.413907 196.03547,229.246757 196.283835,229.138352 C196.474544,229.047377 196.683177,229.000186 196.894473,229.000231 C196.918573,228.996648 196.943069,228.996648 196.967168,229.000231 C197.016778,228.996628 197.066584,228.996628 197.116193,229.000231 C198.035785,229.156525 198.751831,230.152447 198.751831,231.359185 Z" id="Path" fill="#EC7C7C" fill-rule="nonzero"></path>
                <path d="M204.959986,230.984805 C204.858213,231.028422 204.749171,231.06477 204.643763,231.101117 L204.643763,231.101117 C204.5917,230.580467 204.36345,230.093192 203.996777,229.719912 L203.887735,229.610869 C203.524675,229.285121 203.070569,229.078364 202.586494,229.018405 L202.466547,229.018405 C202.522224,229.01486 202.578069,229.01486 202.633746,229.018405 C202.666365,229.014918 202.699264,229.014918 202.731884,229.018405 C202.966511,229.023942 203.198618,229.068153 203.418852,229.149256 C203.593731,229.209273 203.760883,229.289799 203.916813,229.389149 C203.957193,229.409818 203.994005,229.436814 204.025855,229.469114 C204.526805,229.829645 204.863074,230.375264 204.959986,230.984805 Z" id="Path" fill="#000000" fill-rule="nonzero" opacity="0.05"></path>
                <path d="M204.643763,231.101117 L204.643763,231.101117 C204.6317,231.099516 204.619478,231.099516 204.607416,231.101117 C204.385696,231.181082 204.156706,231.250142 203.931352,231.319202 L203.760519,231.359185 C203.556972,231.420975 203.353426,231.471862 203.14988,231.515479 C202.447527,231.695335 201.733335,231.825299 201.012647,231.904397 L201.012647,231.904397 C200.975797,231.721333 200.95753,231.535015 200.958125,231.34828 C200.958125,230.141543 201.685076,229.145621 202.597398,229.0075 C202.64579,229.003767 202.694397,229.003767 202.742788,229.0075 C202.765672,229.003952 202.788965,229.003952 202.811848,229.0075 C203.02557,229.006615 203.236753,229.05382 203.429756,229.145621 C203.610585,229.225857 203.77555,229.337886 203.916813,229.476383 C203.956692,229.506315 203.993248,229.540434 204.025855,229.578156 C204.390473,230.006012 204.607193,230.540164 204.643763,231.101117 Z" id="Path" fill="#EC7C7C" fill-rule="nonzero"></path>
                <path d="M199.257062,216.514861 C196.545537,216.514861 194.331974,215.097308 194.201123,213.312645 C194.201123,213.367166 194.201123,213.421687 194.201123,213.479843 C194.201123,215.344471 196.469208,216.852892 199.264331,216.852892 C202.059455,216.852892 204.323905,215.344471 204.323905,213.479843 C204.323905,213.421687 204.323905,213.367166 204.323905,213.312645 C204.178515,215.097308 201.964951,216.514861 199.257062,216.514861 Z" id="Path" fill="#000000" fill-rule="nonzero" opacity="0.1"></path>
                <path d="M180.890664,115.995816 C180.884379,119.004637 181.634293,121.966799 183.071515,124.610176 C183.235078,124.904591 183.402277,125.199006 183.587649,125.486151 C183.608684,125.529607 183.635591,125.569967 183.667614,125.606098 C183.867845,125.927574 184.085025,126.238177 184.318234,126.536594 C185.073089,127.586778 185.943628,128.54876 186.913447,129.404413 C187.093455,129.576957 187.282743,129.73955 187.480468,129.89147 C188.10312,130.411771 188.764093,130.884415 189.457772,131.305388 L189.566815,131.378083 C190.228468,131.774419 190.912998,132.131248 191.616815,132.4467 L192.223818,132.697497 C192.423729,132.781097 192.612737,132.861061 192.819917,132.926487 C192.92169,132.966469 193.027098,133.002817 193.136141,133.039164 L193.136141,133.039164 C193.136141,133.039164 193.136141,133.039164 193.136141,133.039164 L193.187027,133.039164 C193.407535,133.119129 193.63289,133.191824 193.863091,133.257249 L194.03029,133.297231 C194.233836,133.359022 194.441016,133.413543 194.644562,133.453526 C194.920804,133.526221 195.19341,133.588012 195.47692,133.638898 C195.902186,133.722497 196.341991,133.795192 196.778161,133.846079 L196.778161,133.846079 C197.476547,133.929533 198.179329,133.970802 198.882682,133.96966 L199.097133,133.96966 C200.072489,133.963651 201.045456,133.872436 202.004934,133.697054 C202.063665,133.6912 202.121947,133.681487 202.179402,133.667976 C202.357505,133.638898 202.542877,133.602551 202.71371,133.558933 L202.71371,133.558933 C202.830022,133.537125 202.93543,133.511682 203.051742,133.482604 C203.415217,133.402639 203.778692,133.308136 204.113089,133.195458 C204.32754,133.126398 204.538355,133.060973 204.749171,132.988278 C205.174437,132.839253 205.599703,132.679324 206.006795,132.497586 C206.070314,132.476561 206.13226,132.451054 206.192167,132.421256 L206.272132,132.384909 C206.810075,132.142592 207.333479,131.872409 207.842344,131.574359 C208.27488,131.327196 208.696511,131.058225 209.103603,130.774714 L209.129046,130.774714 C209.195355,130.736078 209.258549,130.692328 209.318053,130.643863 C216.261505,125.704277 218.788683,116.571942 215.372415,108.765525 C211.956147,100.959108 203.533056,96.6188634 195.193215,98.3675994 C186.853373,100.116335 180.883281,107.474608 180.890664,115.995816 L180.890664,115.995816 Z" id="Path" fill="#3F3D56" fill-rule="nonzero"></path>
                <path d="M202.884543,123.127198 C203.14997,123.360836 203.33449,123.67261 203.411582,124.017712 C202.888178,124.155832 202.35387,123.897765 201.866813,123.654236 C200.354522,122.944893 198.758184,122.430694 197.116193,122.124006 C196.984741,122.111824 196.859087,122.064076 196.752718,121.985886 C196.583092,121.756869 196.592101,121.441546 196.774527,121.222588 C196.956264,121.033581 197.297931,121.059024 197.545094,121.04812 C199.537434,120.946203 201.479013,121.696929 202.884543,123.112658 L202.884543,123.127198 Z" id="Path" fill="#EC7C7C" fill-rule="nonzero"></path>
                <path d="M197.566902,121.680567 C197.346931,122.2307 196.912598,122.667657 196.3638,122.890939 C196.069385,122.996346 195.753162,123.01452 195.455112,123.098119 C195.145832,123.162593 194.884748,123.368499 194.74997,123.654236 C194.710022,123.781129 194.691594,123.913813 194.695449,124.04679 C194.648197,125.300779 194.61185,126.591115 195.113445,127.754236 C195.545981,128.750158 196.338357,129.535264 197.123463,130.280388 C198.03942,131.156363 199.009899,132.043242 200.216636,132.435795 C200.921778,132.664785 201.754136,132.690228 202.339331,132.235884 C202.568917,132.036667 202.768472,131.805281 202.931795,131.548916 C203.339962,131.014313 203.681706,130.432127 203.949526,129.81514 C204.447486,128.535707 204.280288,127.103615 204.10582,125.740584 C204.104743,125.659596 204.073659,125.581888 204.018586,125.522499 C203.942742,125.475247 203.851405,125.459589 203.764153,125.478882 C203.123975,125.543944 202.5138,125.192764 202.248462,124.606541 C202.17335,124.347068 202.145042,124.076294 202.164863,123.806896 L202.190306,122.251222 C202.202458,122.08425 202.182721,121.91649 202.13215,121.756896 C201.989279,121.497621 201.758568,121.297844 201.48153,121.19351 C200.63205,120.768289 199.746552,120.419199 198.835431,120.150336 C198.435608,120.034024 198.130289,119.837748 197.952186,120.266648 C197.774083,120.695549 197.774083,121.229857 197.566902,121.680567 Z" id="Path" fill="#FBBEBE" fill-rule="nonzero"></path>
                <path d="M197.566902,121.680567 C197.346931,122.2307 196.912598,122.667657 196.3638,122.890939 C196.069385,122.996346 195.753162,123.01452 195.455112,123.098119 C195.145832,123.162593 194.884748,123.368499 194.74997,123.654236 C194.710022,123.781129 194.691594,123.913813 194.695449,124.04679 C194.648197,125.300779 194.61185,126.591115 195.113445,127.754236 C195.545981,128.750158 196.338357,129.535264 197.123463,130.280388 C198.03942,131.156363 199.009899,132.043242 200.216636,132.435795 C200.921778,132.664785 201.754136,132.690228 202.339331,132.235884 C202.568917,132.036667 202.768472,131.805281 202.931795,131.548916 C203.339962,131.014313 203.681706,130.432127 203.949526,129.81514 C204.447486,128.535707 204.280288,127.103615 204.10582,125.740584 C204.104743,125.659596 204.073659,125.581888 204.018586,125.522499 C203.942742,125.475247 203.851405,125.459589 203.764153,125.478882 C203.123975,125.543944 202.5138,125.192764 202.248462,124.606541 C202.17335,124.347068 202.145042,124.076294 202.164863,123.806896 L202.190306,122.251222 C202.202458,122.08425 202.182721,121.91649 202.13215,121.756896 C201.989279,121.497621 201.758568,121.297844 201.48153,121.19351 C200.63205,120.768289 199.746552,120.419199 198.835431,120.150336 C198.435608,120.034024 198.130289,119.837748 197.952186,120.266648 C197.774083,120.695549 197.774083,121.229857 197.566902,121.680567 Z" id="Path" fill="#000000" fill-rule="nonzero" opacity="0.1"></path>
                <circle id="Oval" fill="#FBBEBE" fill-rule="nonzero" cx="201.775944" cy="118.19484" r="4.74698509"></circle>
                <path d="M195.469651,133.660707 C195.894917,133.744306 196.334722,133.817001 196.770892,133.867887 L196.770892,133.867887 C197.469278,133.951341 198.17206,133.99261 198.875413,133.991469 L199.089863,133.991469 C200.06522,133.98546 201.038186,133.894244 201.997664,133.718863 C202.056395,133.713009 202.114677,133.703295 202.172132,133.689785 C202.350235,133.660707 202.535607,133.624359 202.706441,133.580742 L202.706441,133.580742 C202.822753,133.558933 202.92816,133.53349 203.044473,133.504412 C203.407948,133.424448 203.771423,133.329944 204.10582,133.217267 C204.32027,133.148207 204.531086,133.082781 204.741901,133.010086 C205.167167,132.861061 205.592433,132.701132 205.999525,132.519395 C205.894786,132.196246 205.808623,131.86737 205.741458,131.534377 C205.624251,130.823466 205.577984,130.102666 205.603337,129.382604 C205.603337,128.804679 205.628781,128.230388 205.603337,127.656098 C205.612481,127.190256 205.544943,126.726082 205.403426,126.282162 C205.257774,125.834185 204.938203,125.463535 204.516547,125.253527 C203.974969,125.013633 203.160785,124.890052 202.626476,125.159023 C202.565395,125.191847 202.507051,125.229528 202.452008,125.271701 C202.335699,125.36902 202.24571,125.494005 202.190306,125.635176 C202.015838,126.071346 201.826831,126.511151 201.659632,126.947321 C201.551893,127.251189 201.409179,127.541497 201.234366,127.812392 C200.693642,128.542599 199.751433,128.852786 198.882682,128.586594 C198.829387,128.569163 198.777194,128.548529 198.726388,128.524803 C197.999438,128.230388 197.334278,127.594307 196.574615,127.76514 C196.148871,127.878457 195.798979,128.181429 195.625945,128.586594 C195.615373,128.60753 195.606852,128.629441 195.600502,128.652019 C195.447678,129.032132 195.359234,129.435044 195.3388,129.844218 C195.228919,131.117017 195.272853,132.398422 195.469651,133.660707 L195.469651,133.660707 Z" id="Path" fill="#F2F2F2" fill-rule="nonzero"></path>
                <path d="M186.913447,129.415317 C187.093455,129.587861 187.282743,129.750455 187.480468,129.902374 C188.10312,130.422675 188.764093,130.895319 189.457772,131.316292 L189.566815,131.388987 C190.228468,131.785323 190.912998,132.142153 191.616815,132.457604 L192.223818,132.708402 C192.423729,132.792001 192.612737,132.871966 192.819917,132.937391 C192.92169,132.977373 193.027098,133.013721 193.136141,133.050068 L193.136141,133.050068 C193.136141,133.050068 193.136141,133.050068 193.136141,133.050068 L193.187027,133.050068 C193.407535,133.130033 193.63289,133.202728 193.863091,133.268153 L194.03029,133.308136 C194.233836,133.369926 194.441016,133.424448 194.644562,133.46443 C194.920804,133.537125 195.19341,133.598916 195.47692,133.649802 C195.902186,133.733402 196.341991,133.806097 196.778161,133.856983 L196.778161,133.856983 C197.476547,133.940437 198.179329,133.981706 198.882682,133.980565 L199.097133,133.980565 C200.072489,133.974556 201.045456,133.88334 202.004934,133.707958 C202.063665,133.702105 202.121947,133.692391 202.179402,133.67888 C202.357505,133.649802 202.542877,133.613455 202.71371,133.569838 L202.71371,133.569838 C202.830022,133.548029 202.93543,133.522586 203.051742,133.493508 C203.415217,133.413543 203.778692,133.31904 204.113089,133.206363 C204.32754,133.137302 204.538355,133.071877 204.749171,132.999182 C205.174437,132.850157 205.599703,132.690228 206.006795,132.50849 C206.070314,132.487465 206.13226,132.461958 206.192167,132.432161 L206.272132,132.395813 C206.810075,132.153496 207.333479,131.883313 207.842344,131.585264 C208.199306,130.633727 208.502677,129.662939 208.751032,128.677463 C208.749479,128.658108 208.749479,128.638661 208.751032,128.619307 C208.184011,127.612481 207.682415,126.565672 207.119029,125.558846 C206.792891,124.787257 206.078747,124.249222 205.247132,124.148563 C204.853325,124.018665 204.443701,123.942854 204.02949,123.923208 C203.794121,123.901282 203.560801,123.86118 203.331618,123.803261 C202.8591,123.697853 202.335696,123.59608 202.161228,123.803261 L202.161228,123.803261 C202.145993,123.814314 202.136626,123.831709 202.135785,123.850513 C202.070397,124.094659 202.100282,124.354534 202.219384,124.577463 C202.299349,124.806453 202.404756,125.046346 202.459278,125.242623 C202.491774,125.336308 202.510149,125.434308 202.513799,125.533403 C202.526688,125.959164 202.512119,126.385314 202.470182,126.8092 C202.368409,127.427108 202.026742,127.972321 201.866813,128.572055 C201.794118,128.855565 201.757771,129.14998 201.710519,129.437126 C201.60944,130.085609 201.440089,130.72159 201.205288,131.334466 C201.163052,131.464641 201.100488,131.587316 201.019916,131.697941 C200.721866,132.061416 200.22754,131.923295 199.758657,131.854235 C199.416991,131.563455 199.435165,131.04732 199.395182,130.61115 C199.294984,129.878503 199.071307,129.168143 198.733658,128.510264 L198.610076,128.248562 C198.246601,127.496168 197.883126,126.74741 197.541459,125.991381 C197.101654,125.053616 196.64731,123.981364 197.010786,123.010885 C197.116193,122.720105 197.287027,122.462038 197.403339,122.182162 C197.422263,122.141004 197.438059,122.098478 197.45059,122.054946 C197.484018,121.947754 197.502368,121.836433 197.505112,121.724184 C197.531153,121.521226 197.470453,121.316692 197.337913,121.160797 C197.318534,121.131138 197.293898,121.105269 197.265218,121.084467 C197.253081,121.071582 197.238163,121.061637 197.221601,121.055389 C196.978921,120.91576 196.68367,120.902217 196.429225,121.019042 C196.285797,121.071148 196.146133,121.133086 196.011229,121.204414 C195.297582,121.606425 194.609317,122.051916 193.950325,122.538368 C193.756926,122.653196 193.606323,122.828048 193.521424,123.036329 C193.506088,123.174419 193.483032,123.311543 193.452364,123.447056 C193.350591,123.705123 193.041637,123.781453 192.7763,123.839609 C190.55865,124.351692 188.649758,125.754439 187.498642,127.717888 C187.305974,128.030267 187.154483,128.366235 187.047932,128.717445 C186.983235,128.945796 186.938241,129.179276 186.913447,129.415317 Z" id="Path" fill="#EC7C7C" fill-rule="nonzero"></path>
                <path d="M203.865926,115.516028 C203.222575,116.173918 202.193941,116.199362 201.274349,116.184823 L201.303427,115.821348 L200.01309,116.282961 C200.348485,116.034295 200.635517,115.726321 200.859987,115.374273 C200.676717,115.237811 200.430253,115.22214 200.231175,115.334291 C200.037666,115.446724 199.876228,115.60691 199.762292,115.799539 C199.019033,116.912577 198.845203,118.3113 199.293409,119.572411 C199.026061,119.703842 198.708971,119.683072 198.461051,119.51789 C198.218723,119.351705 198.032437,119.115995 197.926743,118.841826 C197.850413,118.667358 197.770449,118.478351 197.588711,118.40929 C197.427431,118.369769 197.259873,118.444572 197.181619,118.591028 C197.105202,118.732068 197.074706,118.893441 197.094385,119.052641 C197.119828,119.416117 197.392434,119.779592 197.45786,120.143067 C197.523285,120.506542 198.061229,120.797322 197.777718,121.04085 C197.445469,121.165871 197.098543,121.247717 196.745449,121.284379 C196.60342,121.241744 196.491773,121.131459 196.447399,120.989964 C196.160254,120.357517 196.262027,119.619663 196.083924,118.947234 C195.918811,118.413479 195.665746,117.911034 195.335165,117.46062 C195.255566,117.322982 195.160441,117.194928 195.051655,117.078971 C194.937276,116.995339 194.84292,116.887326 194.775414,116.762748 C194.728162,116.631897 194.819031,116.439255 194.957151,116.464699 C194.73173,116.246244 194.48858,116.046861 194.230201,115.868599 C194.484633,115.548741 194.731796,115.221614 194.957151,114.894486 C195.04075,114.778174 195.127984,114.636419 195.066194,114.509202 C195.031138,114.449909 194.980965,114.40099 194.920804,114.367447 L194.277453,113.931277 C194.277453,113.625958 194.884456,113.738635 194.97896,113.45149 C195.002462,113.375729 195.002462,113.294626 194.97896,113.218866 L194.753605,112.397412 L195.611406,112.78633 C195.710567,112.843397 195.824357,112.869948 195.938534,112.86266 C196.163888,112.829947 196.272931,112.56461 196.302009,112.335621 C196.278728,112.106557 196.308579,111.875209 196.389243,111.659557 C196.778161,111.659557 197.16708,111.659557 197.552363,111.659557 C197.577696,111.465171 197.526905,111.268517 197.410608,111.11071 L200.274792,110.950781 C200.761568,110.895342 201.254388,110.929839 201.728693,111.052554 C201.879902,111.123869 202.044932,111.161094 202.212114,111.161596 C202.375678,111.161596 202.542877,110.990763 202.495625,110.830834 C202.925142,111.073264 203.317995,111.375552 203.66238,111.728618 C203.754112,111.839877 203.866411,111.932431 203.993143,112.001224 C204.124702,112.069105 204.284286,112.050415 204.3966,111.953972 C204.476565,111.870373 204.512912,111.721348 204.629224,111.714079 C204.745536,111.706809 204.760075,111.772235 204.803692,111.826756 C204.967541,112.037202 205.100915,112.269689 205.19988,112.517359 C205.405702,112.489386 205.607193,112.435656 205.799614,112.35743 C205.615772,112.553561 205.572365,112.842941 205.690571,113.08438 C205.785075,113.327908 205.959543,113.535089 206.075855,113.767713 C206.190402,114.019264 206.267548,114.286213 206.304844,114.560089 C206.363,114.901755 206.363,115.334291 206.061316,115.501489 C205.769358,115.60213 205.445592,115.528931 205.225323,115.312482 C204.531086,114.818156 204.403869,114.963546 203.865926,115.516028 Z" id="Path" fill="#192534" fill-rule="nonzero"></path>
                <path d="M187.480468,129.902374 C188.10312,130.422675 188.764093,130.895319 189.457772,131.316292 L189.566815,131.388987 C190.228468,131.785323 190.912998,132.142153 191.616815,132.457604 L192.223818,132.708402 C192.423729,132.792001 192.612737,132.871966 192.819917,132.937391 C192.92169,132.977373 193.027098,133.013721 193.136141,133.050068 L193.136141,133.050068 C193.136141,133.050068 193.136141,133.050068 193.136141,133.050068 C193.008924,132.686593 192.925325,132.323118 192.812648,131.959643 C192.512612,130.988691 191.976914,130.107098 191.25334,129.393509 C190.628162,128.768331 189.632241,127.856009 188.709014,128.408491 C188.427622,128.59812 188.181593,128.835538 187.982063,129.109998 C187.804888,129.312218 187.653495,129.535646 187.531354,129.775157 C187.513181,129.80787 187.498642,129.851487 187.480468,129.902374 Z" id="Path" fill="#EC7C7C" fill-rule="nonzero"></path>
                <path d="M204.76371,133.006451 C205.188976,132.857427 205.614242,132.697497 206.021334,132.51576 C206.084853,132.494735 206.146799,132.469227 206.206706,132.43943 L206.286671,132.403083 C206.824614,132.160766 207.348018,131.890583 207.856883,131.592533 C208.289419,131.34537 208.71105,131.076398 209.118142,130.792888 L209.143585,130.792888 C209.110878,130.387666 209.110878,129.980468 209.143585,129.575246 C209.16449,129.439299 209.155811,129.300441 209.118142,129.168154 C209.067609,129.063421 208.998664,128.968622 208.914596,128.888278 C208.861113,128.834771 208.811324,128.777695 208.765571,128.717445 C208.354844,128.255831 208.020447,127.757871 207.31167,127.830566 C206.602894,127.903261 205.992256,128.513899 205.694206,129.193597 C205.661641,129.258973 205.634883,129.327083 205.614242,129.397143 C205.411552,130.028584 205.253654,130.673536 205.141724,131.327196 C205.04722,131.730654 204.927274,132.119572 204.84004,132.523029 C204.818231,132.672054 204.785518,132.839253 204.76371,133.006451 Z" id="Path" fill="#EC7C7C" fill-rule="nonzero"></path>
                <polygon id="Path" fill="url(#linearGradient-1)" fill-rule="nonzero" points="122.829148 240.097126 122.829148 240.097126 122.669219 240.18436"></polygon>
                <path d="M100.500871,220.465835 C99.0978572,224.507678 100.73713,231.068404 101.496793,233.994379 C102.000365,236.111239 102.333406,238.265066 102.492715,240.435158 C104.202393,240.726037 105.951976,240.686554 107.646792,240.318846 L106.418246,234.288794 C107.294221,230.715834 106.418246,221.170977 106.418246,221.170977 C106.418246,221.170977 108.406455,217.481704 108.599097,211.858744 C108.76993,206.326653 110.132962,204.538355 110.176579,204.480199 L110.176579,204.480199 C112.986242,205.9341 116.559202,221.63986 116.559202,221.63986 C116.264787,225.445444 116.617358,231.301028 117.787748,234.463262 C118.497673,236.472041 118.796794,238.602973 118.667358,240.729573 C119.127501,241.060068 119.709614,241.171706 120.259379,241.034892 C121.931364,240.765921 123.937747,239.322924 123.937747,239.322924 C123.937747,239.322924 123.294396,222.239594 122.825513,221.581704 C122.35663,220.923814 122.825513,217.24908 122.825513,217.24908 L122.062215,211.273549 C122.062215,211.273549 122.178527,201.143498 121.066294,199.387913 C120.106719,197.868587 119.884999,195.204314 119.841382,194.502807 C119.841382,194.393765 119.841382,194.331974 119.841382,194.331974 L118.147588,192.300148 C118.147588,192.300148 101.751226,191.071602 100.519045,192.300148 C100.217361,192.601832 100.031988,193.2888 99.919311,194.153871 C99.5812791,196.810874 99.9701975,201.143498 99.9701975,201.143498 C99.9701975,201.143498 100.460889,204.363887 101.166031,207.642433 C101.587633,209.611967 101.587633,211.64843 101.166031,213.617964 C101.390099,215.922124 101.164191,218.24787 100.500871,220.465835 Z" id="Path" fill="#575A89" fill-rule="nonzero"></path>
                <path d="M101.511332,246.145352 C102.238282,247.112196 106.549097,246.701469 107.279682,246.399785 C107.726757,246.218047 107.694044,245.374785 107.574097,244.509714 C107.497767,243.957232 107.38509,243.393846 107.337838,242.983119 C107.221526,241.929041 107.701313,239.791807 107.701313,239.791807 C107.701313,239.791807 106.73447,240.816807 106.501845,239.791807 C106.390855,239.393588 106.069443,239.088945 105.665853,238.999432 C105.164499,238.847421 104.625178,238.880967 104.146527,239.093935 C103.383229,239.421063 102.114701,240.126204 102.329151,241.078509 C102.649009,242.423367 101.507697,244.349785 101.507697,244.349785 C101.082431,244.880943 101.082431,245.636003 101.507697,246.167161 L101.511332,246.145352 Z" id="Path" fill="#CBCEDA" fill-rule="nonzero"></path>
                <path d="M101.511332,246.145352 C102.238282,247.112196 106.549097,246.701469 107.279682,246.399785 C107.726757,246.218047 107.694044,245.374785 107.574097,244.509714 C107.112484,244.724165 106.323743,244.905902 105.029771,244.782321 C104.724083,244.754483 104.417015,244.744774 104.110179,244.753243 C103.178298,244.79742 102.244505,244.779205 101.315055,244.698721 C101.102979,245.179438 101.178835,245.738523 101.511332,246.145352 L101.511332,246.145352 Z" id="Path" fill="#000000" fill-rule="nonzero" opacity="0.1"></path>
                <path d="M116.533759,221.63986 C116.239344,225.445444 116.591915,231.301028 117.762305,234.463262 C118.472229,236.472041 118.771351,238.602973 118.641914,240.729573 C119.102058,241.060068 119.684171,241.171706 120.233936,241.034892 C119.87046,238.566896 118.376578,227.924345 117.409734,219.517165 C116.710173,213.694255 114.567479,208.138242 111.176135,203.353426 L110.151136,204.480199 C112.960798,205.945004 116.533759,221.63986 116.533759,221.63986 Z" id="Path" fill="#000000" fill-rule="nonzero" opacity="0.1"></path>
                <path d="M103.270552,160.092617 L103.997502,163.607422 L107.501402,169.492084 L111.819486,167.649265 C111.819486,167.649265 117.68961,161.499266 114.000337,160.619656 C113.557998,160.526813 113.14046,160.340965 112.775426,160.074444 C112.133852,159.563459 111.777954,158.774528 111.819486,157.955384 C111.848024,157.083975 112.052001,156.227271 112.41922,155.436501 L104.862573,153.070278 C105.171703,154.063447 105.353679,155.091798 105.404151,156.130739 C105.462307,158.188008 104.695374,159.202103 104.070197,159.685525 C103.83326,159.872874 103.561444,160.011253 103.270552,160.092617 Z" id="Path" fill="#FBBEBE" fill-rule="nonzero"></path>
                <path d="M104.862573,153.070278 C105.171703,154.063447 105.353679,155.091798 105.404151,156.130739 C105.540295,156.295383 105.687219,156.450808 105.843955,156.595987 C106.948903,157.655741 108.420217,158.248173 109.951224,158.249799 C110.578496,158.251069 111.201906,158.151667 111.797678,157.955384 C111.826215,157.083975 112.030192,156.227271 112.397412,155.436501 L104.862573,153.070278 Z" id="Path" fill="#000000" fill-rule="nonzero" opacity="0.1"></path>
                <path d="M103.982963,152.099799 C103.981494,154.517668 105.43724,156.698137 107.670919,157.623754 C109.904598,158.549371 112.475947,158.037693 114.185117,156.327482 C115.894288,154.61727 116.4044,152.045611 115.477423,149.812496 C114.550447,147.579381 112.369091,146.124962 109.951224,146.127903 C108.365635,146.121096 106.843073,146.748207 105.722224,147.869739 C104.601374,148.991272 103.97519,150.514215 103.982963,152.099799 Z" id="Path" fill="#FBBEBE" fill-rule="nonzero"></path>
                <path d="M103.270552,160.092617 L103.997502,163.607422 L107.501402,169.492084 L111.819486,167.649265 C111.819486,167.649265 117.68961,161.499266 114.000337,160.619656 C113.557998,160.526813 113.14046,160.340965 112.775426,160.074444 C113.440586,161.891819 110.692714,165.715578 110.692714,165.715578 C110.372855,166.18446 109.638636,165.890046 109.638636,165.890046 C107.864877,165.621074 104.604505,160.528788 104.073832,159.68189 C103.836117,159.870961 103.563006,160.010606 103.270552,160.092617 Z" id="Path" fill="#000000" fill-rule="nonzero" opacity="0.1"></path>
                <path d="M99.8865982,194.142967 C100.926137,194.379226 106.679948,195.655023 108.860799,195.335165 C111.26337,194.97169 115.93039,194.74997 115.93039,194.74997 C115.93039,194.74997 118.903617,194.909899 119.815939,194.491903 C119.815939,194.38286 119.815939,194.32107 119.815939,194.32107 L118.122145,192.289244 C118.122145,192.289244 101.725782,191.060698 100.493602,192.289244 C100.184648,192.601832 99.9992755,193.2888 99.8865982,194.142967 Z" id="Path" fill="#000000" fill-rule="nonzero" opacity="0.1"></path>
                <path d="M110.678175,165.890046 C110.678175,165.890046 113.767713,161.611943 112.600958,159.943593 L117.820461,162.084461 C117.820461,162.084461 120.960886,161.702812 122.094928,166.391641 C122.276425,167.17136 122.342554,167.973488 122.291205,168.772403 C122.26013,170.013245 122.555959,171.240435 123.149006,172.330825 C124.439343,174.907863 124.144928,180.821604 121.509733,181.417703 C118.874539,182.013802 117.936773,181.708483 117.936773,181.708483 C117.936773,181.708483 118.300248,192.423729 119.812304,193.65591 C121.324361,194.888091 115.93039,194.593676 115.93039,194.593676 C115.93039,194.593676 111.26337,194.8263 108.860799,195.178871 C106.458228,195.531442 99.7266692,193.94669 99.7266692,193.94669 C99.7266692,193.94669 100.722591,189.439599 101.071527,186.568145 C101.420463,183.696692 102.245552,177.59031 102.245552,177.59031 L96.2700208,169.499354 C96.2700208,169.499354 95.2159429,164.610613 98.9052154,162.444301 C102.594488,160.27799 103.993867,159.743681 103.993867,159.743681 C103.993867,159.743681 107.701313,165.781003 109.635001,166.075418 C109.624097,166.068148 110.358316,166.362563 110.678175,165.890046 Z" id="Path" fill="#3F3D56" fill-rule="nonzero"></path>
                <path d="M117.529681,167.587474 C117.529681,167.587474 117.587837,169.521162 117.235266,170.28446 C116.882695,171.047758 115.595993,175.260434 115.595993,175.260434 L118.521968,175.260434 C118.521968,175.260434 116.940851,173.563005 117.068067,172.741552 C117.195284,171.920098 117.529681,167.587474 117.529681,167.587474 Z" id="Path" fill="#000000" fill-rule="nonzero" opacity="0.1"></path>
                <path d="M108.860799,182.170096 C108.860799,182.170096 115.327021,180.58898 115.93039,179.240487 C116.533759,177.891994 118.19484,174.878785 118.19484,174.878785 L117.511507,173.959193 L114.367447,176.427189 C114.367447,176.427189 110.620019,179.414955 108.860799,179.698465 C107.101579,179.981976 108.860799,182.170096 108.860799,182.170096 Z" id="Path" fill="#FBBEBE" fill-rule="nonzero"></path>
                <path d="M108.860799,182.170096 C108.860799,182.170096 115.327021,180.58898 115.93039,179.240487 C116.533759,177.891994 118.19484,174.878785 118.19484,174.878785 L117.511507,173.959193 L114.367447,176.427189 C114.367447,176.427189 110.620019,179.414955 108.860799,179.698465 C107.101579,179.981976 108.860799,182.170096 108.860799,182.170096 Z" id="Path" fill="#000000" fill-rule="nonzero" opacity="0.05"></path>
                <path d="M103.270552,174.558927 L103.270552,178.066462 L103.833938,178.066462 C106.619264,178.066324 109.358735,178.775584 111.794043,180.127366 L112.851756,180.712561 L113.135266,180.87249 L114.952642,176.783395 L113.255213,175.260434 L113.167979,175.260434 C112.749983,175.300416 110.954416,175.453076 110.194753,175.195009 C109.43509,174.936941 108.573654,174.170009 106.440055,174.715222 C105.393246,174.984193 104.495463,176.169122 103.477732,175.805647 L103.270552,174.558927 Z" id="Path" fill="#FBBEBE" fill-rule="nonzero"></path>
                <path d="M97.6185135,168.176304 L96.4481236,169.492084 L96.4481236,172.697935 C96.4481236,172.697935 97.4440454,182.76983 100.606279,183.882064 C103.768513,184.994298 109.413281,183.238713 109.413281,183.238713 C109.413281,183.238713 110.867182,179.374973 110.187483,179.138714 C109.507785,178.902455 104.161066,177.492171 104.161066,177.492171 C104.161066,177.492171 104.233761,171.585701 103.07064,169.830116 C103.07064,169.830116 103.833938,164.323468 101.198743,164.207156 C98.5635488,164.090844 97.6185135,168.176304 97.6185135,168.176304 Z" id="Path" fill="#000000" fill-rule="nonzero" opacity="0.1"></path>
                <path d="M97.4440454,168.176304 L96.2700208,169.492084 L96.2700208,172.697935 C96.2700208,172.697935 97.2659426,182.76983 100.428176,183.882064 C103.59041,184.994298 109.224274,183.238713 109.224274,183.238713 C109.224274,183.238713 110.678175,179.374973 110.002111,179.138714 C109.326047,178.902455 103.972059,177.492171 103.972059,177.492171 C103.972059,177.492171 104.048388,171.585701 102.881633,169.830116 C102.881633,169.830116 103.641296,164.323468 101.006102,164.207156 C98.370907,164.090844 97.4440454,168.176304 97.4440454,168.176304 Z" id="Path" fill="#3F3D56" fill-rule="nonzero"></path>
                <path d="M105.622236,154.636856 C105.571057,154.252352 105.617301,153.861152 105.756721,153.499179 C105.908806,153.132942 106.286338,152.912962 106.679948,152.961235 C107.181544,153.077548 107.406898,153.731803 107.89032,153.888097 C108.328944,153.976023 108.769887,153.748001 108.951668,153.33925 C109.119674,152.936127 109.189441,152.49884 109.155214,152.063452 C109.155214,151.576395 109.155214,151.085704 109.155214,150.609551 C109.155214,150.133399 109.173388,149.500952 109.500515,149.082956 C109.911242,148.563187 110.870816,148.334197 111.510533,148.356006 C111.936877,148.359286 112.346084,148.524268 112.655479,148.817619 C112.972653,149.13495 113.415916,149.292496 113.862217,149.24652 C114.259543,149.186163 114.587239,148.903667 114.705479,148.51957 C114.703762,148.513633 114.703762,148.507332 114.705479,148.501396 C113.347111,146.711628 111.099124,145.835772 108.887967,146.23479 C106.67681,146.633808 104.876754,148.24016 104.229644,150.391829 C103.582535,152.543498 104.197906,154.876283 105.822147,156.428788 C105.72048,155.835907 105.653728,155.237566 105.622236,154.636856 Z" id="Path" fill="#000000" fill-rule="nonzero" opacity="0.1"></path>
                <path d="M113.869486,149.072052 C114.266056,149.010054 114.592997,148.728208 114.712748,148.345101 C114.76,148.156094 114.749096,147.952548 114.803617,147.767176 C114.941738,147.305563 115.432429,147.065669 115.759557,146.716733 C116.421082,146.015226 116.377464,144.86301 115.908582,144.023382 C115.545106,143.343684 114.818156,142.773028 114.036685,142.903879 C113.564167,142.987478 113.15344,143.32551 112.673653,143.354588 C112.210859,143.322355 111.762931,143.177621 111.368777,142.932957 C110.353031,142.472843 109.21107,142.371592 108.130214,142.645812 C107.797814,142.711985 107.489856,142.86785 107.2397,143.096521 C107.069921,143.309261 106.912168,143.531327 106.767182,143.76168 C106.218335,144.459552 105.240587,144.594038 104.371881,144.750332 C103.503176,144.906627 102.518158,145.251928 102.231013,146.091556 C102.042006,146.644038 102.231013,147.247407 102.332786,147.825332 C102.371663,147.944899 102.363872,148.074747 102.310977,148.188807 C102.176491,148.414162 101.834825,148.319658 101.584027,148.374179 C101.093336,148.475952 100.966119,149.10113 100.947946,149.617264 C100.926137,150.19519 100.911598,150.773115 100.900694,151.351041 C100.838025,151.895882 101.04246,152.437431 101.449541,152.804941 L103.383229,155.127547 C104.24103,156.159817 105.149718,157.359284 104.978885,158.689603 C105.382342,158.871341 105.865764,158.51877 106.00025,158.093504 C106.090982,157.655291 106.068464,157.201177 105.934824,156.77409 C105.77843,156.020299 105.676394,155.256246 105.629505,154.487831 C105.578327,154.103327 105.624571,153.712127 105.763991,153.350154 C105.915444,152.981609 106.295719,152.7609 106.690852,152.812211 C107.192448,152.928523 107.417803,153.579143 107.901225,153.739072 C108.339647,153.825577 108.779748,153.597991 108.962572,153.190225 C109.130578,152.787102 109.200345,152.349815 109.166118,151.914427 L109.166118,150.460527 C109.166118,149.929853 109.184292,149.370101 109.511419,148.933931 C109.922146,148.414162 110.881721,148.188807 111.521437,148.206981 C111.947073,148.213799 112.355045,148.378283 112.666383,148.668594 C112.986447,148.976984 113.428206,149.125127 113.869486,149.072052 L113.869486,149.072052 Z" id="Path" fill="#3F3D56" fill-rule="nonzero"></path>
                <path d="M112.520993,167.442084 L110.703618,174.976924 C110.703618,174.976924 109.242448,174.966019 112.520993,167.442084 Z" id="Path" fill="#000000" fill-rule="nonzero" opacity="0.1"></path>
                <path d="M106.254682,166.18446 C106.254682,166.18446 108.657253,170.117261 107.708583,174.180913 L107.261508,174.213626 C107.261508,174.213626 108.072058,172.334459 106.254682,166.18446 Z" id="Path" fill="#000000" fill-rule="nonzero" opacity="0.1"></path>
                <path d="M104.731722,188.436407 C104.731722,188.436407 101.783938,187.462294 101.569488,189.723109 C101.569488,189.723109 102.125605,188.171071 104.731722,188.436407 Z" id="Path" fill="#000000" fill-rule="nonzero" opacity="0.1"></path>
                <path d="M113.255213,175.434902 C113.255213,175.434902 113.840408,179.534902 112.78633,181.174174 C114.440499,181.759353 116.19733,181.998134 117.947677,181.875681 L118.311152,175.434902 L113.255213,175.434902 Z" id="Path" fill="#000000" fill-rule="nonzero" opacity="0.1"></path>
                <path d="M112.859025,180.712561 L113.142536,180.87249 L114.959912,176.783395 L113.262483,175.260434 L113.171614,175.260434 L113.171614,175.260434 C113.193422,175.456711 113.66594,178.978785 112.859025,180.712561 Z" id="Path" fill="#000000" fill-rule="nonzero" opacity="0.1"></path>
                <path d="M113.255213,175.260434 C113.255213,175.260434 113.840408,179.360434 112.78633,180.999706 C114.441034,181.582673 116.197405,181.821391 117.947677,181.701213 L119.997677,175.260434 L113.255213,175.260434 Z" id="Path" fill="#3F3D56" fill-rule="nonzero"></path>
                <path d="M118.311152,243.651913 C118.380553,244.253122 118.849047,244.730596 119.448829,244.811399 C121.037216,245.051292 124.868243,245.654661 125.835087,246.116274 C127.067268,246.701469 131.92693,246.290743 132.159554,245.705548 C132.226204,245.469908 132.196114,245.217418 132.075955,245.004041 C131.910468,244.645772 131.635578,244.349247 131.290849,244.157144 C131.174273,244.094974 131.052689,244.042693 130.927374,244.000849 C130.011416,243.69553 128.284909,243.048544 127.816027,242.368846 C127.816027,242.368846 125.660619,240.48241 125.046346,239.461045 C124.811624,239.053567 124.388811,238.790332 123.919573,238.759538 C123.407073,238.737729 122.829148,238.995797 122.603793,240.118935 C122.603793,240.118935 119.794131,241.72186 119.034468,240.315212 C119.034468,240.315212 118.914521,242.474254 118.449273,243.066718 L118.449273,243.066718 C118.327771,243.235894 118.278119,243.446263 118.311152,243.651913 Z" id="Path" fill="#CBCEDA" fill-rule="nonzero"></path>
                <path d="M118.311152,243.651913 C118.380553,244.253122 118.849047,244.730596 119.448829,244.811399 C121.037216,245.051292 124.868243,245.654661 125.835087,246.116274 C127.067268,246.701469 131.92693,246.290743 132.159554,245.705548 C132.226204,245.469908 132.196114,245.217418 132.075955,245.004041 C131.910468,244.645772 131.635578,244.349247 131.290849,244.157144 C130.498473,244.684182 128.746523,245.200317 124.871878,244.593314 C121.178971,244.019023 119.350691,243.452002 118.460177,243.070353 L118.460177,243.070353 C118.335784,243.236983 118.282225,243.445994 118.311152,243.651913 Z" id="Path" fill="#000000" fill-rule="nonzero" opacity="0.1"></path>
                <g id="Group" opacity="0.1" transform="translate(100.682609, 145.026574)" fill="#000000" fill-rule="nonzero">
                    <path d="M1.65744656,2.86781871 C1.65744656,2.86781871 1.65744656,2.84964495 1.65744656,2.84237545 C1.5449714,2.40767751 1.48517459,1.96103196 1.47934375,1.51205651 C1.50755197,1.87495279 1.55976434,2.2355824 1.63563805,2.59157762 C1.66243697,2.68106541 1.66987135,2.77523431 1.65744656,2.86781871 Z" id="Path"></path>
                    <path d="M5.0741127,8.34902355 C4.98222934,8.56153 4.93283713,8.78996901 4.92872265,9.02145252 C4.90278859,8.70296503 4.95261013,8.38286162 5.0741127,8.08732146 C5.22656519,7.71964974 5.60610298,7.49936898 6.00097426,7.54937828 C6.50256993,7.66569032 6.7279245,8.31994554 7.21134642,8.47623984 C7.64997004,8.56416572 8.09091344,8.33614362 8.27269377,7.92739241 C8.44096995,7.5243464 8.51074703,7.08699363 8.47623984,6.65159473 C8.47623984,6.16453807 8.47623984,5.67384665 8.47623984,5.19769424 C8.47623984,4.72154183 8.4944136,4.08909512 8.82154121,3.67109873 C9.23226809,3.15132931 10.1918424,2.92233998 10.8315586,2.94414849 C11.2579028,2.94742925 11.6671099,3.11241117 11.9765053,3.40576189 C12.2936788,3.72309323 12.7369418,3.88063855 13.1832427,3.83466253 C13.5809517,3.77513828 13.909032,3.49231038 14.0265049,3.10771229 C14.0737567,2.91870523 14.0628525,2.71515916 14.1173737,2.52978685 C14.2554943,2.06817344 14.7461857,1.82827986 15.0733133,1.47934375 C15.3824825,1.14096969 15.5581592,0.701777931 15.5676395,0.243528332 C15.6178089,0.79077128 15.4388199,1.33431885 15.0733133,1.74468058 C14.7461857,2.10815571 14.2554943,2.33351028 14.1173737,2.79148894 C14.0628525,2.980496 14.0737567,3.18040732 14.0265049,3.36941438 C13.908265,3.75351163 13.5805693,4.0360079 13.1832427,4.09636462 C12.7361738,4.14300583 12.2921492,3.98385243 11.9765053,3.66382923 C11.6661249,3.37201535 11.2575464,3.20728686 10.8315586,3.20221582 C10.1918424,3.18040732 9.23226809,3.40939664 8.82154121,3.92916607 C8.4944136,4.34716246 8.47987459,4.9250879 8.47623984,5.45576158 C8.47260509,5.98643526 8.47623984,6.43350966 8.47623984,6.90966206 C8.51044406,7.34386604 8.44066751,7.77996949 8.27269377,8.18182499 C8.09304135,8.59257636 7.65037226,8.82149086 7.21134642,8.73067243 C6.720655,8.57437812 6.50256993,7.92375765 6.00097426,7.80744562 C5.60463849,7.75534072 5.22330253,7.97816055 5.0741127,8.34902355 Z" id="Path"></path>
                    <path d="M0.261702088,6.73882876 C0.369476067,7.03964359 0.539110763,7.31452609 0.759663005,7.54574353 L2.69335065,9.86834956 C3.50753493,10.8460976 4.36897096,11.9765053 4.30354544,13.2268597 C4.24538942,12.081913 3.44937891,11.046009 2.69335065,10.1300516 L0.759663005,7.80744562 C0.352581542,7.43993523 0.148146793,6.89838623 0.210815571,6.35354513 C0.210761285,6.48365193 0.227871061,6.61319737 0.261702088,6.73882876 Z" id="Path"></path>
                    <path d="M5.31037153,12.8343065 C5.34233282,12.7316037 5.36185766,12.6254374 5.36852755,12.5180832 C5.38401396,12.7126544 5.36431388,12.908424 5.31037153,13.0960086 C5.17588573,13.5212745 4.69609857,13.8738454 4.28900644,13.6884731 C4.30048436,13.6041366 4.30655468,13.5191522 4.30718019,13.4340405 C4.74930293,13.5420095 5.19617021,13.2748606 5.31037153,12.8343065 L5.31037153,12.8343065 Z" id="Path"></path>
                </g>
                <path d="M125.449804,239.995353 C125.449804,239.995353 124.839165,241.085779 122.621967,240.12257" id="Path" fill="#000000" fill-rule="nonzero" opacity="0.1"></path>
                <path d="M106.698122,240.253421 C106.698122,240.253421 104.786243,242.506966 102.376403,240.980371" id="Path" fill="#000000" fill-rule="nonzero" opacity="0.1"></path>
                <path d="M101.133318,213.617964 C101.133318,213.617964 102.481811,214.461226 102.529062,214.944648 C102.576314,215.42807 101.83119,214.581173 101.83119,214.581173 L101.133318,213.617964 Z" id="Path" fill="#000000" fill-rule="nonzero" opacity="0.1"></path>
                <path d="M100.599009,220.091456 C101.068439,220.483521 101.652849,220.711926 102.263726,220.742076 C103.274186,220.785693 103.190587,222.101473 102.529062,221.70892 C101.845591,221.219533 101.200375,220.678816 100.599009,220.091456 Z" id="Path" fill="#000000" fill-rule="nonzero" opacity="0.1"></path>
                <path d="M100.340942,220.934718 C100.340942,220.934718 100.991563,224.122395 101.518602,223.508122" id="Path" fill="#000000" fill-rule="nonzero" opacity="0.1"></path>
                <path d="M34.6355444,240.896772 C35.7259697,238.894024 34.4865196,236.440567 33.0762361,234.655904 C31.6659526,232.871241 29.9467153,231.021153 29.9830628,228.734894 C30.0375841,225.463618 33.5087715,223.52993 36.2820867,221.796154 C38.3413742,220.510691 40.240006,218.984221 41.9377596,217.24908 C42.6481467,216.580941 43.2361499,215.793656 43.6751706,214.92284 C44.2494613,213.643407 44.2312876,212.189507 44.1949401,210.790127 C44.0737817,206.120684 43.8435808,201.457298 43.5043373,196.79997" id="Path" stroke="#3F3D56" stroke-width="4"></path>
                <path d="M48.7783613,196.545537 C48.6998195,194.809113 47.7403845,193.232898 46.2340355,192.365573 L45.0927236,194.622754 L45.1254364,191.889421 C43.0026145,191.269254 40.7222721,192.09121 39.4833156,193.92314 C38.2443591,195.75507 38.3304851,198.177497 39.6964122,199.916814 C41.0623393,201.656131 43.3952973,202.314067 45.4687165,201.544709 C47.5421358,200.775351 48.8812443,198.754865 48.7819961,196.545537 L48.7783613,196.545537 Z" id="Path" fill="#57B894" fill-rule="nonzero"></path>
                <path d="M39.680579,231.072039 C38.5777713,233.209505 36.1290171,234.282942 33.8098205,233.645547 C31.4906239,233.008153 29.9344141,230.834015 30.0788899,228.433167 C30.2233657,226.032319 32.0290673,224.060491 34.4079637,223.705814 C36.7868602,223.351137 39.089217,224.710481 39.9277421,226.96477 L36.7400653,229.556348 L40.2476002,228.745798 C40.2463068,229.555274 40.0519191,230.352762 39.680579,231.072039 L39.680579,231.072039 Z" id="Path" fill="#57B894" fill-rule="nonzero"></path>
                <path d="M37.1616965,221.167342 C34.5345765,221.352907 32.1999628,219.503256 31.7797071,216.903337 C31.3594514,214.303418 32.9924371,211.812436 35.5442322,211.160872 L35.5151541,213.261758 L36.671005,210.9755 L36.671005,210.9755 C38.0228043,210.909387 39.345251,211.38451 40.345894,212.295798 C41.3465371,213.207086 41.9429304,214.479454 42.0031851,215.831527 C42.0330466,216.420171 41.9592289,217.009482 41.7851,217.572573 C41.1570212,219.62646 39.3070244,221.064862 37.1616965,221.167342 L37.1616965,221.167342 Z" id="Path" fill="#57B894" fill-rule="nonzero"></path>
                <path d="M49.5452938,212.927361 C47.3983597,213.007711 45.4322733,211.731037 44.6322723,209.737101 C43.8322712,207.743165 44.37074,205.461621 45.9778431,204.035787 C47.5849462,202.609953 49.9143849,202.347069 51.7988396,203.37887 L50.8974213,205.8505 L52.7547792,204.069472 C53.7481733,204.979283 54.3402897,206.245863 54.4013215,207.591546 C54.4255215,208.064083 54.3826909,208.537667 54.2741052,208.998195 C53.7511195,211.216338 51.821702,212.819489 49.5452938,212.927361 Z" id="Path" fill="#57B894" fill-rule="nonzero"></path>
                <path d="M48.0913934,197.904934 C46.913734,198.032151 45.7687873,198.39926 44.5874932,198.471955 C43.406199,198.544651 42.1085929,198.26114 41.3598341,197.345183 C40.9600115,196.850856 40.7564654,196.222044 40.4184335,195.684101 C40.0955926,195.180972 39.6536401,194.765237 39.1317316,194.473729 C38.2920258,196.228998 38.5267793,198.309448 39.7365126,199.833462 C40.9462458,201.357477 42.9191477,202.058218 44.819177,201.638738 C46.7192062,201.219258 48.2136886,199.753003 48.6693188,197.861317 C48.4778886,197.868587 48.2852468,197.883126 48.0913934,197.904934 Z" id="Path" fill="#000000" fill-rule="nonzero" opacity="0.1"></path>
                <path d="M49.5452938,212.927361 C47.755541,213.018172 46.0499587,212.160871 45.0550456,210.670364 C44.0601325,209.179858 43.922575,207.275901 44.692901,205.657859 C45.0976672,205.92999 45.4457699,206.278092 45.7179008,206.682858 C46.0813759,207.231706 46.3030958,207.867787 46.7283617,208.369383 C47.5243722,209.303514 48.8801344,209.608833 50.112315,209.554312 C51.3444957,209.499791 52.5330594,209.14722 53.7470663,209.034543 C53.9178996,209.034543 54.0887329,209.009099 54.2632009,209.005465 C53.7385666,211.217006 51.8154646,212.81564 49.5452938,212.927361 Z" id="Path" fill="#000000" fill-rule="nonzero" opacity="0.1"></path>
                <path d="M37.1616965,221.167342 C35.3885218,221.258419 33.6960875,220.418689 32.6960143,218.951618 C31.6959411,217.484547 31.5328526,215.602293 32.2656866,213.985074 C32.6895157,214.260706 33.0591212,214.611831 33.3561119,215.020978 C33.7522998,215.580729 33.9994629,216.22408 34.464711,216.740215 C35.3261471,217.699789 36.7727781,218.037821 38.074019,218.005109 C39.3752599,217.972396 40.5565541,217.670711 41.8105433,217.572573 C41.1793299,219.634942 39.3165361,221.075366 37.1616965,221.167342 L37.1616965,221.167342 Z" id="Path" fill="#000000" fill-rule="nonzero" opacity="0.1"></path>
                <path d="M39.680579,231.072039 C38.5313324,233.64053 35.5175107,234.791055 32.9490199,233.641808 C30.380529,232.492562 29.2300042,229.47874 30.3792507,226.910249 C30.8011514,227.184469 31.1786756,227.521544 31.4987541,227.909806 C31.9858107,228.498635 32.3056688,229.171064 32.8654205,229.727181 C33.9085941,230.752181 35.5914839,231.181082 37.0926362,231.213794 C37.9573312,231.21789 38.8215046,231.170555 39.680579,231.072039 Z" id="Path" fill="#000000" fill-rule="nonzero" opacity="0.1"></path>
                <path d="M26.940776,238.592339 C26.940776,238.592339 30.9680804,238.486932 32.1675483,237.603687 C33.3670162,236.720443 38.3466253,235.709982 38.659214,237.094822 C38.9718026,238.479662 44.7110747,244.000849 40.164001,244.022658 C35.6169272,244.044466 29.6050487,243.295708 28.3910418,242.568757 C27.1770349,241.841807 26.940776,238.592339 26.940776,238.592339 Z" id="Path" fill="#656380" fill-rule="nonzero"></path>
                <path d="M40.2621392,243.539236 C35.7150655,243.579218 29.6995522,242.834094 28.48918,242.085335 C27.5659532,241.521949 27.1988434,239.504662 27.0752618,238.5778 L26.940776,238.5778 C26.940776,238.5778 27.1952086,241.823633 28.3946765,242.576027 C29.5941444,243.32842 35.6241967,244.059005 40.1676357,244.029927 C41.4797809,244.029927 41.9341248,243.553775 41.9086815,242.863172 C41.7378482,243.273899 41.2544263,243.531966 40.2621392,243.539236 Z" id="Path" fill="#000000" fill-rule="nonzero" opacity="0.2"></path>
            </g>
        </g>
    </g>
</svg>