<?xml version="1.0" encoding="UTF-8"?>
<svg width="594px" height="250px" viewBox="0 0 594 250" version="1.1" xmlns="http://www.w3.org/2000/svg" xmlns:xlink="http://www.w3.org/1999/xlink">
    <!-- Generator: Sketch 54.1 (76490) - https://sketchapp.com -->
    <title>undraw_online_friends_x73e (2)</title>
    <desc>Created with Sketch.</desc>
    <defs>
        <linearGradient x1="50%" y1="62%" x2="50%" y2="38%" id="linearGradient-1">
            <stop stop-color="#808080" stop-opacity="0.25" offset="0%"></stop>
            <stop stop-color="#808080" stop-opacity="0.12" offset="54%"></stop>
            <stop stop-color="#808080" stop-opacity="0.1" offset="100%"></stop>
        </linearGradient>
    </defs>
    <g id="V4" stroke="none" stroke-width="1" fill="none" fill-rule="evenodd">
        <g id="oooo-copy-4" transform="translate(-3.000000, -175.000000)">
            <g id="undraw_online_friends_x73e-(2)" transform="translate(3.000000, 175.000000)">
                <ellipse id="Oval" fill="#3F3D56" fill-rule="nonzero" cx="297.027754" cy="239.253154" rx="296.972246" ry="10.5971405"></ellipse>
                <path d="M528.650967,179.994954 C529.75351,178.069709 530.323094,175.885433 530.301093,173.666947 C530.301093,167.949537 526.768713,163.312027 522.388562,163.312027 C518.00841,163.312027 514.481077,167.949537 514.481077,173.666947 C514.459076,175.885433 515.02866,178.069709 516.131203,179.994954 C513.931075,183.926771 513.931075,188.71915 516.131203,192.650967 C513.930994,196.580967 513.930994,201.371934 516.131203,205.301934 C513.931075,209.233752 513.931075,214.02613 516.131203,217.957948 C515.02866,219.883192 514.459076,222.067468 514.481077,224.285955 C514.481077,230.003364 518.013457,234.640875 522.388562,234.640875 C526.763667,234.640875 530.301093,230.003364 530.301093,224.285955 C530.323094,222.067468 529.75351,219.883192 528.650967,217.957948 C530.851095,214.02613 530.851095,209.233752 528.650967,205.301934 C530.851176,201.371934 530.851176,196.580967 528.650967,192.650967 C530.851095,188.71915 530.851095,183.926771 528.650967,179.994954 L528.650967,179.994954 Z" id="Path" fill="#3F3D56" fill-rule="nonzero"></path>
                <ellipse id="Oval" fill="#3F3D56" fill-rule="nonzero" cx="522.368377" cy="161.010934" rx="7.90748528" ry="10.3549201"></ellipse>
                <ellipse id="Oval" fill="#3F3D56" fill-rule="nonzero" cx="522.368377" cy="148.35492" rx="7.90748528" ry="10.3549201"></ellipse>
                <path d="M492.761985,61.7510513 C491.681222,60.3755642 490.69655,58.9272203 489.814971,57.4163162 L510.600505,54.0050463 L488.119428,54.1715728 C483.762639,44.6894442 483.501649,33.8318979 487.397813,24.1513877 L517.554247,39.7947855 L489.744323,19.352397 C496.837425,7.06723224 510.199155,-0.226263025 524.368714,0.452685066 C538.538273,1.13163316 551.141438,9.66926138 557.02743,22.576332 C562.913423,35.4834025 561.095996,50.5972319 552.317914,61.7409588 C554.005455,63.8810869 555.453928,66.1993208 556.637511,68.6543314 L529.660219,82.6778806 L558.423886,73.0243902 C562.526182,85.1541001 560.227702,98.5350139 552.312868,108.600505 C564.535628,124.131392 562.766845,146.448659 548.25021,159.860282 C533.733575,173.271905 511.346324,173.271905 496.829689,159.860282 C482.313054,146.448659 480.544271,124.131392 492.767031,108.600505 C481.95464,94.855565 481.95464,75.495991 492.767031,61.7510513 L492.761985,61.7510513 Z" id="Path" fill="#57B894" fill-rule="nonzero"></path>
                <path d="M560.442389,85.175778 C560.455369,93.674611 557.597883,101.928781 552.333053,108.600505 C564.555813,124.131392 562.78703,146.448659 548.270395,159.860282 C533.75376,173.271905 511.366509,173.271905 496.849874,159.860282 C482.333239,146.448659 480.564456,124.131392 492.787216,108.600505 C487.68545,102.156434 560.442389,80.9268293 560.442389,85.175778 Z" id="Path" fill="#000000" fill-rule="nonzero" opacity="0.1"></path>
                <rect id="Rectangle" fill="#F2F2F2" fill-rule="nonzero" x="86.5988225" y="3.97140454" width="420.857864" height="230.109336" rx="20.42"></rect>
                <path d="M86.8511354,15.3254836 L222.090833,15.3254836 L222.090833,234.333053 L97.1555929,234.333053 C91.4645982,234.333053 86.8511354,229.71959 86.8511354,224.028595 L86.8511354,15.3254836 Z" id="Path" fill="#5C82F7" fill-rule="nonzero"></path>
                <path d="M507.456686,14.2758621 L507.456686,20.1244743 L86.5988225,20.1244743 L86.5988225,14.2758621 C86.5988222,11.5434138 87.6846283,8.92295323 89.6172342,6.99129382 C91.54984,5.0596344 94.1708321,3.97511202 96.9032801,3.9764508 L497.152229,3.9764508 C499.884677,3.97511202 502.505669,5.0596344 504.438275,6.99129382 C506.370881,8.92295323 507.456687,11.5434138 507.456686,14.2758621 Z" id="Path" fill="#3F3D56" fill-rule="nonzero"></path>
                <circle id="Oval" fill="#5C82F7" fill-rule="nonzero" cx="97.4482759" cy="12.2977292" r="3.02775442"></circle>
                <circle id="Oval" fill="#5C82F7" fill-rule="nonzero" cx="105.017662" cy="12.2977292" r="3.02775442"></circle>
                <circle id="Oval" fill="#5C82F7" fill-rule="nonzero" cx="112.587048" cy="12.2977292" r="3.02775442"></circle>
                <rect id="Rectangle" fill="#5C82F7" fill-rule="nonzero" opacity="0.3" x="308.129521" y="47.4297729" width="175.10513" height="5.5508831" rx="1.24"></rect>
                <rect id="Rectangle" fill="#5C82F7" fill-rule="nonzero" x="443.873844" y="58.0269134" width="36.8376787" height="12.6156434" rx="1.24"></rect>
                <rect id="Rectangle" fill="#5C82F7" fill-rule="nonzero" opacity="0.3" x="308.129521" y="114.928511" width="175.10513" height="5.5508831" rx="1.24"></rect>
                <rect id="Rectangle" fill="#5C82F7" fill-rule="nonzero" x="443.873844" y="125.525652" width="36.8376787" height="12.6156434" rx="1.24"></rect>
                <rect id="Rectangle" fill="#5C82F7" fill-rule="nonzero" opacity="0.3" x="308.129521" y="183.557611" width="175.10513" height="5.5508831" rx="1.24"></rect>
                <rect id="Rectangle" fill="#5C82F7" fill-rule="nonzero" x="443.873844" y="194.154752" width="36.8376787" height="12.6156434" rx="1.24"></rect>
                <circle id="Oval" fill="#3F3D56" fill-rule="nonzero" cx="270.126156" cy="126.534903" r="24.9890664"></circle>
                <path d="M292.178301,139.715728 C292.151003,139.775954 292.115326,139.832018 292.07233,139.882254 C291.80013,140.332487 291.505391,140.768702 291.189235,141.189235 C288.417949,145.02553 284.610711,147.99255 280.213625,149.742641 C279.779647,149.924306 279.335576,150.090833 278.886459,150.247267 C278.470478,149.914253 278.0854,149.544376 277.735913,149.142136 C276.693586,147.958244 275.995489,146.511438 275.71741,144.958789 C275.052251,145.087077 274.376323,145.15129 273.698907,145.150547 C273.631717,145.155575 273.564246,145.155575 273.497056,145.150547 C268.299411,145.059714 263.83852,141.254836 261.845248,135.825063 L261.764508,135.592935 C260.54889,132.055917 260.411888,128.237413 261.3709,124.622372 L261.3709,124.622372 C261.396131,124.501262 261.436501,124.380151 261.471825,124.264087 C263.17746,118.405383 267.678722,114.136249 273.032801,113.79815 C273.199327,113.79815 273.365854,113.79815 273.537426,113.79815 C273.708999,113.79815 273.809924,113.79815 273.946173,113.79815 L274.188394,113.79815 C280.970563,114.045416 286.430614,120.605551 286.682927,128.810765 C289.512834,130.6693 291.010242,133.998623 290.523129,137.349033 C291.199725,138.042804 291.758772,138.842173 292.178301,139.715728 Z" id="Path" fill="#192534" fill-rule="nonzero"></path>
                <path d="M292.07233,139.882254 C291.80013,140.332487 291.505391,140.768702 291.189235,141.189235 C290.823703,140.533582 290.370404,139.930881 289.841884,139.397813 C289.899924,138.981444 289.930268,138.561683 289.932717,138.141295 C289.932706,135.206813 288.455028,132.469601 286.001682,130.859546 C285.724138,122.482759 280.026913,115.791421 273.047939,115.791421 C268.062237,115.791421 263.737595,119.192599 261.562658,124.188394 C261.507149,124.319596 261.456686,124.445753 261.396131,124.582002 L261.396131,124.582002 C261.214466,125.01598 261.052986,125.455004 260.891505,125.914214 C261.069438,124.991719 261.317423,124.084129 261.633305,123.199327 L261.703953,123.12868 C263.646762,117.774601 267.986543,113.974769 273.083263,113.747687 C273.24979,113.747687 273.416316,113.747687 273.587889,113.747687 C273.759462,113.747687 273.860387,113.747687 273.996636,113.747687 L274.238856,113.747687 C280.925147,114.151388 286.279226,120.681245 286.536585,128.800673 C289.373302,130.654056 290.875776,133.985886 290.38688,137.33894 C291.095643,138.079598 291.666422,138.940894 292.07233,139.882254 L292.07233,139.882254 Z" id="Path" fill="#000000" fill-rule="nonzero" opacity="0.1"></path>
                <path d="M265.740959,132.716569 C265.803383,133.227666 265.744606,133.746281 265.569386,134.230446 C265.271657,134.921783 264.560135,135.542473 264.756939,136.248949 C264.959809,136.698434 265.364557,137.024482 265.84693,137.126997 C268.021867,137.863751 270.388562,137.424727 272.689655,137.525652 C273.456434,137.592775 274.226199,137.619725 274.995795,137.606392 C275.769882,137.589141 276.518729,137.327751 277.135408,136.859546 C275.940084,136.278927 274.81149,135.56996 273.769554,134.745164 C273.516242,134.5574 273.287388,134.338717 273.08831,134.094197 C272.660528,133.401991 272.454522,132.595577 272.497897,131.783011 C272.497897,130.980656 272.497897,130.178301 272.497897,129.380992 C270.852817,129.380992 269.212784,129.355761 267.567704,129.355761 C267.063078,129.355761 265.433137,129.229605 265.246426,129.799832 C265.155593,130.082422 265.508831,130.915055 265.56434,131.232969 C265.649078,131.724079 265.708031,132.219291 265.740959,132.716569 L265.740959,132.716569 Z" id="Path" fill="#A0616A" fill-rule="nonzero"></path>
                <path d="M265.740959,132.716569 C265.803383,133.227666 265.744606,133.746281 265.569386,134.230446 C265.271657,134.921783 264.560135,135.542473 264.756939,136.248949 C264.959809,136.698434 265.364557,137.024482 265.84693,137.126997 C268.021867,137.863751 270.388562,137.424727 272.689655,137.525652 C273.456434,137.592775 274.226199,137.619725 274.995795,137.606392 C275.769882,137.589141 276.518729,137.327751 277.135408,136.859546 C275.940084,136.278927 274.81149,135.56996 273.769554,134.745164 C273.516242,134.5574 273.287388,134.338717 273.08831,134.094197 C272.660528,133.401991 272.454522,132.595577 272.497897,131.783011 C272.497897,130.980656 272.497897,130.178301 272.497897,129.380992 C270.852817,129.380992 269.212784,129.355761 267.567704,129.355761 C267.063078,129.355761 265.433137,129.229605 265.246426,129.799832 C265.155593,130.082422 265.508831,130.915055 265.56434,131.232969 C265.649078,131.724079 265.708031,132.219291 265.740959,132.716569 L265.740959,132.716569 Z" id="Path" fill="#000000" fill-rule="nonzero" opacity="0.1"></path>
                <circle id="Oval" fill="#A0616A" fill-rule="nonzero" cx="269.121951" cy="126.191758" r="5.79814971"></circle>
                <path d="M280.117746,143.010934 C280.117746,143.167368 280.087468,143.333894 280.062237,143.515559 C279.874562,144.455976 279.599178,145.376737 279.239697,146.26577 C279.026851,146.868925 278.7705,147.455833 278.472666,148.021867 C278.255677,148.410429 277.96804,148.768713 277.735913,149.147183 L277.40286,149.687132 C277.19055,150.05112 277.009903,150.432674 276.86291,150.827586 C275.889416,151.076842 274.899586,151.257271 273.900757,151.367536 C272.924479,151.484781 271.942082,151.543758 270.958789,151.544155 C265.68545,151.544155 259.998318,150.176619 255.966358,147.380992 C255.966358,147.380992 256.55677,146.972246 256.470984,146.876367 C256.470984,146.644239 256.445753,146.417157 256.445753,146.185029 C256.439767,145.587466 256.537077,144.993361 256.733389,144.428932 C256.905047,143.88803 257.204497,143.396447 257.606392,142.995795 C258.111018,142.491169 258.787216,142.178301 259.327166,141.69386 C260.01715,141.026575 260.505104,140.178339 260.735071,139.246426 L260.735071,139.246426 C260.861228,138.842725 260.952061,138.413793 261.037847,138 C261.114502,137.434168 261.270802,136.882022 261.502103,136.359966 C261.534175,136.293315 261.571289,136.22921 261.61312,136.168209 C261.689951,136.038752 261.781382,135.918537 261.885618,135.809924 C262.400282,135.308135 263.002249,134.904543 263.661901,134.619008 C264.211943,134.336417 264.98402,134.114382 265.367536,134.583684 L265.367536,134.619008 C265.493051,134.907691 265.599256,135.204391 265.68545,135.507149 C265.993272,136.142977 266.851135,136.223717 267.547519,136.208579 C270.010442,136.157058 272.467726,135.951441 274.904962,135.592935 L276.085786,135.401177 C276.938604,135.259882 277.534062,136.006728 278.013457,136.733389 C279.254836,138.605551 280.304458,140.760303 280.117746,143.010934 Z" id="Path" fill="#5C82F7" fill-rule="nonzero"></path>
                <path d="M262.410429,143.404542 C261.870479,143.525652 261.557611,144.070648 261.305299,144.565181 C260.826845,145.377959 260.616723,146.320856 260.704794,147.259882 C260.690107,147.628594 260.729205,147.997479 260.820858,148.35492 C260.913957,148.714927 261.14151,149.025554 261.456686,149.222876" id="Path" stroke="#000000" opacity="0.1"></path>
                <ellipse id="Oval" fill="#192534" fill-rule="nonzero" transform="translate(270.605677, 122.026049) rotate(-75.660000) translate(-270.605677, -122.026049) " cx="270.605677" cy="122.026049" rx="3.19932717" ry="6.48444071"></ellipse>
                <path d="M270.136249,123.910849 C267.052986,123.123633 264.772077,121.387721 264.585366,119.793103 C264.442149,119.972777 264.338926,120.180945 264.28259,120.403701 C263.843566,122.114382 266.301093,124.218671 269.767872,125.106812 C273.234651,125.994954 276.403701,125.323802 276.832632,123.592935 C276.881278,123.401844 276.894955,123.203529 276.873003,123.007569 C275.949537,124.279226 273.158957,124.682927 270.136249,123.910849 Z" id="Path" fill="#000000" fill-rule="nonzero" opacity="0.1"></path>
                <path d="M280.269134,147.123633 C280.269134,148.001682 280.269134,148.874685 280.213625,149.742641 C279.779647,149.924306 279.335576,150.090833 278.886459,150.247267 C278.225037,150.477017 277.551122,150.669083 276.867956,150.82254 C275.894462,151.071795 274.904632,151.252224 273.905803,151.362489 C273.729184,149.273339 273.33053,147.259882 273.527334,145.140454 L273.527334,145.140454 C273.691138,143.516866 274.248925,141.957834 275.152229,140.598823 C275.506395,140.003574 276.013425,139.513967 276.62069,139.180824 C277.239744,138.852074 277.993089,138.911083 278.553406,139.332212 C278.896856,139.690841 279.137404,140.135332 279.24979,140.619008 C279.590329,141.565732 279.863508,142.535349 280.067283,143.520606 C280.067283,143.626577 280.102607,143.742641 280.117746,143.853659 C280.257483,144.937682 280.308115,146.031336 280.269134,147.123633 L280.269134,147.123633 Z" id="Path" fill="#A0616A" fill-rule="nonzero"></path>
                <path d="M295.110177,195.164003 C295.121915,199.343235 294.080622,203.458079 292.082422,207.12868 C291.860387,207.53238 291.628259,207.941127 291.365854,208.344828 C291.338556,208.405054 291.302879,208.461118 291.259882,208.511354 C290.987683,208.961587 290.692943,209.397802 290.376787,209.818335 C288.459614,212.477246 286.032287,214.727883 283.236333,216.439024 L283.089992,216.53995 C282.17124,217.09153 281.219017,217.585338 280.238856,218.018503 C279.966358,218.139613 279.683768,218.255677 279.401177,218.371741 C279.118587,218.487805 278.856182,218.593776 278.573591,218.684609 C278.432296,218.745164 278.280908,218.795627 278.134567,218.846089 L278.134567,218.846089 C278.117819,218.843866 278.100852,218.843866 278.084104,218.846089 C277.776283,218.957107 277.458368,219.052986 277.1455,219.148865 L276.908326,219.204373 C276.625736,219.29016 276.343146,219.360807 276.060555,219.421362 C275.085453,219.671064 274.093913,219.851497 273.093356,219.961312 L273.093356,219.961312 C272.12385,220.078715 271.148161,220.137694 270.171573,220.137931 C270.070648,220.137931 269.969722,220.137931 269.868797,220.137931 C268.514698,220.133829 267.163668,220.008859 265.831791,219.764508 L265.589571,219.724138 C265.342304,219.683768 265.084945,219.633305 264.847771,219.57275 L264.847771,219.57275 L264.378469,219.466779 C263.880669,219.357704 263.388843,219.222957 262.904962,219.063078 C261.918985,218.767437 260.953139,218.408405 260.013457,217.988225 L259.907485,217.942809 C258.53153,217.319436 257.21567,216.571136 255.976451,215.707317 C255.870936,215.64532 255.769776,215.576194 255.673675,215.500421 C246.045134,208.636269 242.547321,195.96206 247.292388,185.131098 C252.037455,174.300136 263.725741,168.278988 275.299291,170.703516 C286.872841,173.128044 295.161695,183.334178 295.160639,195.158957 L295.110177,195.164003 Z" id="Path" fill="#3F3D56" fill-rule="nonzero"></path>
                <path d="M276.171573,189.143818 C276.04775,191.980268 273.712154,194.216131 270.873003,194.216131 C268.033852,194.216131 265.698255,191.980268 265.574432,189.143818 C265.574432,189.058032 265.574432,188.972246 265.574432,188.891505 C265.574433,185.965186 267.946683,183.592936 270.873003,183.592936 C273.799322,183.592936 276.171573,185.965186 276.171573,188.891505 C276.166526,188.972246 276.171573,189.058032 276.171573,189.143818 Z" id="Path" fill="#192534" fill-rule="nonzero"></path>
                <path d="M276.171573,189.143818 C276.04775,191.980268 273.712154,194.216131 270.873003,194.216131 C268.033852,194.216131 265.698255,191.980268 265.574432,189.143818 C265.574432,189.058032 265.574432,188.972246 265.574432,188.891505 C268.656605,186.36936 273.0894,186.36936 276.171573,188.891505 C276.166526,188.972246 276.171573,189.058032 276.171573,189.143818 Z" id="Path" fill="#000000" fill-rule="nonzero" opacity="0.1"></path>
                <circle id="Oval" fill="#192534" fill-rule="nonzero" cx="270.867956" cy="195.840202" r="8.37174096"></circle>
                <path d="M265.796468,187.973087 C265.798408,185.31656 267.765462,183.071271 270.398654,182.719933 C268.3515,182.442801 266.329715,183.379582 265.217624,185.120529 C264.105533,186.861476 264.105533,189.089743 265.217624,190.83069 C266.329715,192.571637 268.3515,193.508418 270.398654,193.231287 C267.76356,192.879694 265.79588,190.631533 265.796468,187.973087 L265.796468,187.973087 Z" id="Path" fill="#192534" fill-rule="nonzero"></path>
                <path d="M261.421362,199.241379 C259.429849,197.481814 259.048025,194.519982 260.528175,192.312868 C260.349825,192.47062 260.181301,192.639144 260.023549,192.817494 C258.716028,194.230365 258.276748,196.240802 258.875821,198.070264 C259.474894,199.899726 261.018248,201.260932 262.908219,201.626757 C264.79819,201.992582 266.737997,201.30558 267.976451,199.831791 C268.130855,199.65588 268.274111,199.470489 268.405383,199.276703 C266.397089,201.015751 263.411962,201.000653 261.421362,199.241379 L261.421362,199.241379 Z" id="Path" fill="#192534" fill-rule="nonzero"></path>
                <path d="M266.487805,206.457527 C266.051823,206.543357 265.630386,206.6912 265.236333,206.896552 C264.53995,207.401177 264.565181,208.410429 264.772077,209.232969 C265.246426,211.110177 266.407065,212.91169 268.183347,213.678722 C269.282993,214.084282 270.455109,214.256146 271.624895,214.183347 C272.891505,214.183347 274.324643,214.011775 275.111859,213.012616 C275.466343,212.485611 275.708543,211.891275 275.823381,211.266611 C276.211943,209.752733 276.605551,208.188394 276.464256,206.624054 C275.697225,206.689655 274.839361,206.735071 274.23381,206.250631 C273.628259,205.76619 273.49201,204.842725 273.224558,204.075694 C273.195514,203.952446 273.126274,203.842372 273.027754,203.762826 C272.91716,203.712904 272.794665,203.695405 272.674516,203.712363 C271.869072,203.74689 271.06215,203.713128 270.262405,203.611438 C269.75778,203.545837 268.536585,203.026072 268.163162,203.465097 C267.890664,203.783011 268.062237,204.751892 267.850294,205.201009 C267.582518,205.785258 267.091778,206.23783 266.487805,206.457527 Z" id="Path" fill="#FFC1C7" fill-rule="nonzero"></path>
                <path d="M266.487805,206.457527 C266.051823,206.543357 265.630386,206.6912 265.236333,206.896552 C264.53995,207.401177 264.565181,208.410429 264.772077,209.232969 C265.246426,211.110177 266.407065,212.91169 268.183347,213.678722 C269.282993,214.084282 270.455109,214.256146 271.624895,214.183347 C272.891505,214.183347 274.324643,214.011775 275.111859,213.012616 C275.466343,212.485611 275.708543,211.891275 275.823381,211.266611 C276.211943,209.752733 276.605551,208.188394 276.464256,206.624054 C275.697225,206.689655 274.839361,206.735071 274.23381,206.250631 C273.628259,205.76619 273.49201,204.842725 273.224558,204.075694 C273.195514,203.952446 273.126274,203.842372 273.027754,203.762826 C272.91716,203.712904 272.794665,203.695405 272.674516,203.712363 C271.869072,203.74689 271.06215,203.713128 270.262405,203.611438 C269.75778,203.545837 268.536585,203.026072 268.163162,203.465097 C267.890664,203.783011 268.062237,204.751892 267.850294,205.201009 C267.582518,205.785258 267.091778,206.23783 266.487805,206.457527 Z" id="Path" fill="#000000" fill-rule="nonzero" opacity="0.05"></path>
                <circle id="Oval" fill="#FFC1C7" fill-rule="nonzero" cx="270.751892" cy="199.882254" r="5.85365854"></circle>
                <path d="M283.584525,212.563499 C283.544155,212.613961 283.503785,212.674516 283.458368,212.724979 L283.211102,213.047939 C281.964841,214.541685 280.95558,216.218112 280.218671,218.018503 C279.946173,218.139613 279.663583,218.255677 279.380992,218.371741 C279.098402,218.487805 278.835997,218.593776 278.553406,218.684609 C278.412111,218.745164 278.260723,218.795627 278.114382,218.846089 L278.114382,218.846089 C278.097634,218.843866 278.080667,218.843866 278.063919,218.846089 C277.756098,218.957107 277.438183,219.052986 277.125315,219.148865 L276.888141,219.204373 C276.605551,219.29016 276.32296,219.360807 276.04037,219.421362 C275.065268,219.671064 274.073728,219.851497 273.073171,219.961312 L273.073171,219.961312 C272.103665,220.078715 271.127976,220.137694 270.151388,220.137931 C270.050463,220.137931 269.949537,220.137931 269.848612,220.137931 C268.494513,220.133829 267.143483,220.008859 265.811606,219.764508 L265.569386,219.724138 C265.322119,219.683768 265.06476,219.633305 264.827586,219.57275 L264.827586,219.57275 L264.358284,219.466779 C263.860484,219.357704 263.368658,219.222957 262.884777,219.063078 C263.019881,218.217354 263.396663,217.428741 263.969722,216.792262 C262.834315,215.434819 260.967199,214.899916 259.761144,213.618167 C259.656071,213.496239 259.558338,213.368175 259.468461,213.234651 C259.405431,213.137949 259.352984,213.034748 259.312027,212.926829 C259.275984,212.841765 259.253835,212.751465 259.246426,212.659378 C259.208398,212.473526 259.193147,212.283736 259.201009,212.094197 C259.170732,210.66106 259.236333,209.026072 260.34651,208.127839 C260.891746,207.746047 261.504936,207.471996 262.15307,207.320437 C263.279883,206.967765 264.376726,206.525652 265.433137,205.998318 C265.529815,206.223672 265.594364,206.461486 265.624895,206.704794 C265.72582,207.29016 265.715728,207.905803 265.851976,208.486123 C266.116534,209.521147 266.75695,210.420607 267.648444,211.009251 C268.537607,211.591704 269.549911,211.959658 270.605551,212.084104 C271.64508,212.235492 272.472666,211.695542 273.45164,211.327166 C273.885316,211.188607 274.285632,210.961818 274.627418,210.66106 C275.069505,210.150873 275.305243,209.494046 275.288478,208.819176 C275.288478,208.15307 275.212784,207.486964 275.253154,206.800673 C275.2541,206.731001 275.26256,206.661634 275.278385,206.593776 C275.281334,206.233955 275.512423,205.915701 275.853659,205.801514 C276.042699,205.786035 276.23247,205.820855 276.403701,205.902439 L278.291001,206.624054 C279.108801,206.907052 279.89651,207.27048 280.642557,207.708999 C282.31259,208.793474 283.395997,210.581189 283.584525,212.563499 L283.584525,212.563499 Z" id="Path" fill="#5C82F7" fill-rule="nonzero"></path>
                <path d="M265.786375,219.769554 L265.544155,219.729184 C265.296888,219.688814 265.039529,219.638352 264.802355,219.577796 L264.802355,219.577796 L264.333053,219.471825 C263.835253,219.36275 263.343427,219.228004 262.859546,219.068124 C261.873569,218.772483 260.907723,218.413451 259.96804,217.993272 C259.495463,216.455992 259.324119,214.841932 259.463415,213.239697 C259.524734,212.552519 259.667015,211.87499 259.8873,211.221194 C260.947014,212.230446 262.753574,211.660219 263.954584,212.46762 C264.280191,212.698072 264.546516,213.002445 264.731707,213.355761 C265.067748,214.002425 265.296142,214.699537 265.407906,215.41968 C265.4836,215.813288 265.554247,216.211943 265.614802,216.610597 C265.614802,216.681245 265.614802,216.736754 265.614802,216.797309 C265.614802,216.857864 265.614802,216.923465 265.614802,216.989066 C265.655172,217.271657 265.690496,217.56434 265.705635,217.851976 C265.786375,218.502944 265.786375,219.12868 265.786375,219.769554 Z" id="Path" fill="#000000" fill-rule="nonzero" opacity="0.1"></path>
                <path d="M265.544155,219.729184 C265.296888,219.688814 265.039529,219.638352 264.802355,219.577796 L264.802355,219.577796 L264.333053,219.471825 C263.835253,219.36275 263.343427,219.228004 262.859546,219.068124 C261.873569,218.772483 260.907723,218.413451 259.96804,217.993272 L259.862069,217.947855 C259.282596,216.250615 259.064303,214.450985 259.221194,212.664424 C259.293506,212.019412 259.432171,211.383582 259.634987,210.767031 C260.694701,211.776283 262.501262,211.216148 263.702271,212.023549 C264.164873,212.356157 264.516566,212.820391 264.711522,213.355761 C264.907674,213.874045 265.054662,214.409623 265.150547,214.955425 C265.261564,215.545837 265.367536,216.136249 265.438183,216.736754 C265.454059,216.819943 265.462502,216.90438 265.463415,216.989066 C265.463415,217.044575 265.463415,217.115223 265.463415,217.170732 C265.463415,217.226241 265.463415,217.312027 265.463415,217.387721 C265.559294,218.159798 265.554247,218.947014 265.544155,219.729184 Z" id="Path" fill="#5C82F7" fill-rule="nonzero"></path>
                <path d="M283.069807,216.53995 C282.151054,217.09153 281.198832,217.585338 280.218671,218.018503 C279.946173,218.139613 279.663583,218.255677 279.380992,218.371741 C279.098402,218.487805 278.835997,218.593776 278.553406,218.684609 C278.412111,218.745164 278.260723,218.795627 278.114382,218.846089 L278.114382,218.846089 C278.097634,218.843866 278.080667,218.843866 278.063919,218.846089 C277.756098,218.957107 277.438183,219.052986 277.125315,219.148865 L276.888141,219.204373 C276.888141,218.755257 276.888141,218.291001 276.938604,217.836838 C276.973928,217.478553 277.014298,217.120269 277.06476,216.761985 C277.06476,216.696384 277.06476,216.630782 277.089992,216.565181 C277.094921,216.523273 277.094921,216.480932 277.089992,216.439024 C277.150547,216.095879 277.216148,215.747687 277.281749,215.404542 C277.386422,214.682717 277.615195,213.984445 277.957948,213.340622 C278.14717,212.99409 278.415075,212.696801 278.740118,212.472666 C279.941127,211.665265 281.767872,212.215307 282.777124,211.226241 C282.975717,211.812605 283.112705,212.418057 283.18587,213.032801 C283.322603,214.201084 283.283481,215.383262 283.069807,216.53995 L283.069807,216.53995 Z" id="Path" fill="#000000" fill-rule="nonzero" opacity="0.1"></path>
                <path d="M283.216148,216.439024 L283.069807,216.53995 C282.151054,217.09153 281.198832,217.585338 280.218671,218.018503 C279.946173,218.139613 279.663583,218.255677 279.380992,218.371741 C279.098402,218.487805 278.835997,218.593776 278.553406,218.684609 C278.412111,218.745164 278.260723,218.795627 278.114382,218.846089 L278.114382,218.846089 C278.097634,218.843866 278.080667,218.843866 278.063919,218.846089 C277.756098,218.957107 277.438183,219.052986 277.125315,219.148865 C277.125315,218.553406 277.125315,217.962994 277.175778,217.372582 C277.175778,217.221194 277.175778,217.06476 277.216148,216.913373 C277.216148,216.847771 277.216148,216.772077 277.216148,216.706476 C277.216148,216.640875 277.216148,216.595458 277.216148,216.550042 C277.291842,216.005046 277.382675,215.475189 277.493692,214.940286 C277.589576,214.394484 277.736565,213.858906 277.932717,213.340622 C278.127673,212.805253 278.479366,212.341018 278.941968,212.00841 C280.142977,211.201009 281.969722,211.751051 282.978974,210.751892 C283.195761,211.385884 283.338014,212.042954 283.40286,212.70984 C283.538621,213.954942 283.475597,215.21371 283.216148,216.439024 Z" id="Path" fill="#5C82F7" fill-rule="nonzero"></path>
                <ellipse id="Oval" fill="#192534" fill-rule="nonzero" cx="270.635828" cy="194.376787" rx="7.02439024" ry="4.68292683"></ellipse>
                <path d="M264.797309,218.87132 C264.797309,218.977292 264.797309,219.08831 264.797309,219.204373 C264.797309,219.320437 264.797309,219.426409 264.797309,219.537426 C264.795376,219.550814 264.795376,219.564409 264.797309,219.577796 L264.797309,219.577796 L264.328007,219.471825 C264.320322,219.38284 264.320322,219.293358 264.328007,219.204373 C264.326906,218.257432 264.73762,217.35681 265.453322,216.736754 C265.499545,216.687846 265.552166,216.64541 265.609756,216.610597 C265.88067,216.390533 266.188111,216.219732 266.518082,216.105971 C266.820883,215.989089 267.142219,215.927557 267.466779,215.924306 C267.51037,215.919303 267.55439,215.919303 267.597981,215.924306 C267.67864,215.919161 267.759544,215.919161 267.840202,215.924306 L267.673675,215.924306 C266.900979,216.00572 266.183921,216.364249 265.655172,216.933558 C265.596355,216.988031 265.543878,217.048972 265.498738,217.115223 C265.094955,217.617494 264.850672,218.229082 264.797309,218.87132 Z" id="Path" fill="#000000" fill-rule="nonzero" opacity="0.05"></path>
                <path d="M269.934399,219.204373 C269.933811,219.520482 269.896556,219.835455 269.823381,220.142977 C268.469282,220.138876 267.118251,220.013905 265.786375,219.769554 L265.544155,219.729184 C265.296888,219.688814 265.039529,219.638352 264.802355,219.577796 L264.802355,219.577796 L264.802355,219.537426 C264.802355,219.426409 264.802355,219.320437 264.802355,219.204373 C264.802355,219.08831 264.802355,218.977292 264.802355,218.87132 C264.845051,218.194171 265.075725,217.542342 265.468461,216.989066 C265.51343,216.919615 265.565889,216.85531 265.624895,216.797309 C265.860112,216.503675 266.163176,216.271614 266.50799,216.12111 C266.772757,215.994807 267.062411,215.92929 267.355761,215.929352 C267.389219,215.924378 267.423228,215.924378 267.456686,215.929352 C267.525561,215.92435 267.594708,215.92435 267.663583,215.929352 C268.940286,216.146341 269.934399,217.529016 269.934399,219.204373 Z" id="Path" fill="#5C82F7" fill-rule="nonzero"></path>
                <path d="M278.553406,218.684609 C278.412111,218.745164 278.260723,218.795627 278.114382,218.846089 L278.114382,218.846089 C278.042101,218.123251 277.725214,217.44675 277.216148,216.928511 L277.06476,216.777124 C276.560711,216.324876 275.93026,216.037827 275.2582,215.954584 L275.091674,215.954584 C275.168971,215.949663 275.246504,215.949663 275.323802,215.954584 C275.369089,215.949742 275.414763,215.949742 275.46005,215.954584 C275.785792,215.962271 276.108034,216.023651 276.413793,216.136249 C276.656584,216.219574 276.888647,216.331371 277.10513,216.469302 C277.161191,216.497997 277.212299,216.535476 277.256518,216.58032 C277.952004,217.080857 278.418859,217.838361 278.553406,218.684609 Z" id="Path" fill="#000000" fill-rule="nonzero" opacity="0.05"></path>
                <path d="M278.114382,218.846089 L278.114382,218.846089 C278.097634,218.843866 278.080667,218.843866 278.063919,218.846089 C277.756098,218.957107 277.438183,219.052986 277.125315,219.148865 L276.888141,219.204373 C276.605551,219.29016 276.32296,219.360807 276.04037,219.421362 C275.065268,219.671064 274.073728,219.851497 273.073171,219.961312 L273.073171,219.961312 C273.022011,219.707158 272.996651,219.448486 272.997477,219.189235 C272.997477,217.513877 274.006728,216.131203 275.273339,215.939445 C275.340523,215.934262 275.408006,215.934262 275.475189,215.939445 C275.506959,215.934519 275.539298,215.934519 275.571068,215.939445 C275.867785,215.938215 276.160978,216.003753 276.428932,216.131203 C276.679983,216.242597 276.909011,216.398131 277.10513,216.590412 C277.160496,216.631967 277.211248,216.679336 277.256518,216.731707 C277.76273,217.325714 278.063611,218.067297 278.114382,218.846089 Z" id="Path" fill="#5C82F7" fill-rule="nonzero"></path>
                <path d="M270.635828,198.595458 C266.87132,198.595458 263.79815,196.627418 263.616484,194.149706 C263.616484,194.225399 263.616484,194.301093 263.616484,194.381833 C263.616484,196.970563 266.765349,199.06476 270.645921,199.06476 C274.526493,199.06476 277.670311,196.970563 277.670311,194.381833 C277.670311,194.301093 277.670311,194.225399 277.670311,194.149706 C277.468461,196.627418 274.39529,198.595458 270.635828,198.595458 Z" id="Path" fill="#000000" fill-rule="nonzero" opacity="0.1"></path>
                <path d="M245.13709,59.0412111 C245.128364,63.2184679 246.169497,67.3309445 248.164844,71.000841 C248.391926,71.4095879 248.624054,71.8183347 248.881413,72.2169891 C248.910617,72.2773208 248.947972,72.3333536 248.992431,72.3835156 C249.270419,72.8298321 249.571938,73.2610545 249.895711,73.6753574 C250.943703,75.1333653 252.152304,76.4689199 253.498738,77.6568545 C253.748651,77.8964033 254.011447,78.1221383 254.285955,78.333053 C255.150406,79.0554061 256.068058,79.711595 257.031119,80.2960471 L257.182506,80.3969722 C258.101103,80.9472202 259.051461,81.4426196 260.028595,81.8805719 L260.87132,82.2287637 C261.148865,82.3448276 261.41127,82.4558452 261.698907,82.5466779 C261.840202,82.6021867 261.986543,82.6526493 262.137931,82.7031119 L262.137931,82.7031119 C262.137931,82.7031119 262.137931,82.7031119 262.137931,82.7031119 L262.208579,82.7031119 C262.514718,82.8141295 262.827586,82.9150547 263.147183,83.0058873 L263.37931,83.0613961 C263.661901,83.1471825 263.949537,83.2228764 264.232128,83.2783852 C264.615643,83.3793103 264.994113,83.4650967 265.387721,83.5357443 C265.978133,83.6518082 266.58873,83.7527334 267.194281,83.823381 L267.194281,83.823381 C268.163875,83.9392433 269.139573,83.9965382 270.116064,83.9949537 L270.413793,83.9949537 C271.767916,83.9866112 273.118721,83.8599733 274.450799,83.6164844 C274.532337,83.6083575 274.613253,83.5948717 274.693019,83.5761144 C274.940286,83.5357443 275.197645,83.4852817 275.434819,83.4247267 L275.434819,83.4247267 C275.596299,83.3944491 275.742641,83.3591253 275.904121,83.3187553 C276.408747,83.2077376 276.913373,83.0765349 277.377628,82.9201009 C277.675357,82.824222 277.96804,82.7333894 278.260723,82.6324643 C278.851135,82.4255677 279.441548,82.2035324 280.006728,81.9512195 C280.094914,81.9220295 280.180916,81.8866167 280.264087,81.8452481 L280.375105,81.7947855 C281.121951,81.4583684 281.848612,81.0832632 282.555088,80.6694701 C283.155593,80.3263246 283.740959,79.9529016 284.30614,79.5592935 L284.341463,79.5592935 C284.433523,79.5056537 284.521257,79.4449144 284.603869,79.3776283 C294.243715,72.5198212 297.752289,59.841068 293.009359,49.0031355 C288.26643,38.1652031 276.572347,32.1394834 264.993842,34.5673171 C253.415337,36.9951508 245.126841,47.2109087 245.13709,59.0412111 L245.13709,59.0412111 Z" id="Path" fill="#3F3D56" fill-rule="nonzero"></path>
                <path d="M275.671993,68.941968 C276.040495,69.2663364 276.29667,69.6991843 276.403701,70.1783011 C275.67704,70.3700589 274.93524,70.0117746 274.259041,69.6736754 C272.159473,68.6888686 269.943218,67.9749872 267.663583,67.549201 C267.481083,67.532288 267.306633,67.4659972 267.158957,67.3574432 C266.923459,67.0394911 266.935967,66.6017166 267.189235,66.2977292 C267.441548,66.0353238 267.915896,66.0706476 268.259041,66.0555088 C271.02508,65.9140141 273.720644,66.9562743 275.671993,68.921783 L275.671993,68.941968 Z" id="Path" fill="#5C82F7" fill-rule="nonzero"></path>
                <path d="M268.289319,66.9335576 C267.983925,67.6973278 267.380924,68.3039719 266.619008,68.6139613 C266.210261,68.7603028 265.771236,68.7855341 265.357443,68.901598 C264.928058,68.9911086 264.565587,69.2769754 264.378469,69.6736754 C264.323008,69.8498451 264.297423,70.0340551 264.302775,70.2186712 C264.237174,71.9596299 264.186712,73.7510513 264.883095,75.3658537 C265.4836,76.7485282 266.583684,77.8385198 267.673675,78.8730025 C268.945332,80.0891505 270.292683,81.3204373 271.96804,81.8654331 C272.947014,82.1833474 274.102607,82.2186712 274.915055,81.587889 C275.233798,81.3113086 275.510847,80.9900668 275.737595,80.6341463 C276.304267,79.8919372 276.778723,79.0836675 277.150547,78.2270816 C277.841884,76.450799 277.609756,74.4625736 277.367536,72.5702271 C277.36604,72.457789 277.322886,72.3499035 277.246426,72.2674516 C277.141129,72.2018507 277.014322,72.1801123 276.893188,72.2068966 C276.004405,72.297225 275.157276,71.8096687 274.788898,70.9957948 C274.684618,70.6355591 274.645317,70.2596327 274.672834,69.8856182 L274.708158,67.72582 C274.725029,67.4940057 274.697628,67.2610986 274.627418,67.039529 C274.429065,66.6795675 274.108761,66.4022095 273.724138,66.2573591 C272.544774,65.6670097 271.315405,65.1823548 270.050463,64.8090833 C269.495374,64.647603 269.071489,64.3751051 268.824222,64.9705635 C268.576955,65.5660219 268.576955,66.3078217 268.289319,66.9335576 Z" id="Path" fill="#FBBEBE" fill-rule="nonzero"></path>
                <path d="M268.289319,66.9335576 C267.983925,67.6973278 267.380924,68.3039719 266.619008,68.6139613 C266.210261,68.7603028 265.771236,68.7855341 265.357443,68.901598 C264.928058,68.9911086 264.565587,69.2769754 264.378469,69.6736754 C264.323008,69.8498451 264.297423,70.0340551 264.302775,70.2186712 C264.237174,71.9596299 264.186712,73.7510513 264.883095,75.3658537 C265.4836,76.7485282 266.583684,77.8385198 267.673675,78.8730025 C268.945332,80.0891505 270.292683,81.3204373 271.96804,81.8654331 C272.947014,82.1833474 274.102607,82.2186712 274.915055,81.587889 C275.233798,81.3113086 275.510847,80.9900668 275.737595,80.6341463 C276.304267,79.8919372 276.778723,79.0836675 277.150547,78.2270816 C277.841884,76.450799 277.609756,74.4625736 277.367536,72.5702271 C277.36604,72.457789 277.322886,72.3499035 277.246426,72.2674516 C277.141129,72.2018507 277.014322,72.1801123 276.893188,72.2068966 C276.004405,72.297225 275.157276,71.8096687 274.788898,70.9957948 C274.684618,70.6355591 274.645317,70.2596327 274.672834,69.8856182 L274.708158,67.72582 C274.725029,67.4940057 274.697628,67.2610986 274.627418,67.039529 C274.429065,66.6795675 274.108761,66.4022095 273.724138,66.2573591 C272.544774,65.6670097 271.315405,65.1823548 270.050463,64.8090833 C269.495374,64.647603 269.071489,64.3751051 268.824222,64.9705635 C268.576955,65.5660219 268.576955,66.3078217 268.289319,66.9335576 Z" id="Path" fill="#000000" fill-rule="nonzero" opacity="0.1"></path>
                <circle id="Oval" fill="#FBBEBE" fill-rule="nonzero" cx="274.132885" cy="62.0941968" r="6.59041211"></circle>
                <path d="M265.377628,83.5660219 C265.96804,83.6820858 266.578638,83.7830109 267.184188,83.8536585 L267.184188,83.8536585 C268.153783,83.9695209 269.129481,84.0268158 270.105971,84.0252313 L270.403701,84.0252313 C271.757824,84.0168888 273.108628,83.8902508 274.440706,83.646762 C274.522245,83.6386351 274.60316,83.6251492 274.682927,83.6063919 C274.930193,83.5660219 275.187553,83.5155593 275.424727,83.4550042 L275.424727,83.4550042 C275.586207,83.4247267 275.732548,83.3894029 275.894029,83.3490328 C276.398654,83.2380151 276.90328,83.1068124 277.367536,82.9503785 C277.665265,82.8544996 277.957948,82.7636669 278.250631,82.6627418 C278.841043,82.4558452 279.431455,82.2338099 279.996636,81.9814971 C279.851222,81.5328585 279.731599,81.0762671 279.638352,80.6139613 C279.475629,79.6269774 279.411394,78.6262653 279.446594,77.626577 C279.446594,76.824222 279.481918,76.0269134 279.446594,75.2296047 C279.459289,74.5828597 279.365522,73.9384301 279.16905,73.3221194 C278.966835,72.7001774 278.523164,72.1855908 277.937763,71.8940286 C277.18587,71.5609756 276.055509,71.3894029 275.313709,71.7628259 C275.228908,71.8083962 275.147907,71.8607093 275.071489,71.9192599 C274.910013,72.0543715 274.785077,72.2278933 274.708158,72.4238856 C274.465938,73.0294365 274.203532,73.6400336 273.971405,74.2455845 C273.821826,74.667456 273.623691,75.0705 273.380992,75.4465938 C272.630285,76.4603676 271.322182,76.8910104 270.116064,76.5214466 C270.042073,76.4972473 269.969611,76.4685996 269.899075,76.4356602 C268.889823,76.0269134 267.966358,75.1438183 266.91169,75.3809924 C266.320614,75.5383149 265.834846,75.9589416 265.594617,76.5214466 C265.57994,76.5505135 265.56811,76.5809329 265.559294,76.6122792 C265.347122,77.1400029 265.224332,77.6993811 265.195963,78.2674516 C265.043412,80.0345257 265.104407,81.8135458 265.377628,83.5660219 L265.377628,83.5660219 Z" id="Path" fill="#F2F2F2" fill-rule="nonzero"></path>
                <path d="M253.498738,77.6719933 C253.748651,77.9115421 254.011447,78.137277 254.285955,78.3481918 C255.150406,79.0705449 256.068058,79.7267338 257.031119,80.3111859 L257.182506,80.412111 C258.101103,80.962359 259.051461,81.4577584 260.028595,81.8957107 L260.87132,82.2439024 C261.148865,82.3599664 261.41127,82.470984 261.698907,82.5618167 C261.840202,82.6173255 261.986543,82.6677881 262.137931,82.7182506 L262.137931,82.7182506 C262.137931,82.7182506 262.137931,82.7182506 262.137931,82.7182506 L262.208579,82.7182506 C262.514718,82.8292683 262.827586,82.9301934 263.147183,83.0210261 L263.37931,83.0765349 C263.661901,83.1623213 263.949537,83.2380151 264.232128,83.293524 C264.615643,83.3944491 264.994113,83.4802355 265.387721,83.5508831 C265.978133,83.666947 266.58873,83.7678722 267.194281,83.8385198 L267.194281,83.8385198 C268.163875,83.9543821 269.139573,84.011677 270.116064,84.0100925 L270.413793,84.0100925 C271.767916,84.00175 273.118721,83.875112 274.450799,83.6316232 C274.532337,83.6234963 274.613253,83.6100105 274.693019,83.5912532 C274.940286,83.5508831 275.197645,83.5004205 275.434819,83.4398654 L275.434819,83.4398654 C275.596299,83.4095879 275.742641,83.3742641 275.904121,83.333894 C276.408747,83.2228764 276.913373,83.0916737 277.377628,82.9352397 C277.675357,82.8393608 277.96804,82.7485282 278.260723,82.647603 C278.851135,82.4407065 279.441548,82.2186712 280.006728,81.9663583 C280.094914,81.9371682 280.180916,81.9017555 280.264087,81.8603869 L280.375105,81.8099243 C281.121951,81.4735071 281.848612,81.098402 282.555088,80.6846089 C283.050671,79.3635561 283.471853,78.0157755 283.816653,76.647603 C283.814496,76.6207329 283.814496,76.5937331 283.816653,76.5668629 C283.029437,75.1690496 282.333053,73.7157275 281.550883,72.3179142 C281.098094,71.2466891 280.106622,70.4997158 278.952061,70.3599664 C278.405325,70.179625 277.836629,70.0743738 277.261564,70.0470984 C276.934793,70.0166575 276.610866,69.9609825 276.292683,69.8805719 C275.636669,69.7342304 274.910008,69.5929352 274.667788,69.8805719 L274.667788,69.8805719 C274.646636,69.8959175 274.633633,69.9200674 274.632464,69.9461733 C274.541684,70.28513 274.583175,70.6459233 274.748528,70.9554247 C274.859546,71.2733389 275.005887,71.6063919 275.081581,71.8788898 C275.126697,72.0089571 275.152208,72.1450139 275.157275,72.2825904 C275.175169,72.8736903 275.154943,73.4653291 275.09672,74.0538267 C274.955425,74.9116905 274.481077,75.6686291 274.259041,76.5012616 C274.158116,76.8948696 274.107653,77.3036165 274.042052,77.7022708 C273.901721,78.6025842 273.666605,79.4855396 273.340622,80.3364172 C273.281984,80.5171449 273.195124,80.6874584 273.083263,80.8410429 C272.66947,81.3456686 271.983179,81.1539108 271.332212,81.058032 C270.857864,80.6543314 270.883095,79.9377628 270.827586,79.3322119 C270.688477,78.3150508 270.377938,77.3288327 269.909167,76.4154752 L269.737595,76.0521447 C269.232969,75.0075694 268.728343,73.9680404 268.253995,72.9184188 C267.643398,71.6164844 267.012616,70.1278385 267.517241,68.7804878 C267.663583,68.3767872 267.900757,68.0185029 268.062237,67.6299411 C268.088511,67.5728001 268.11044,67.5137599 268.127839,67.4533221 C268.174247,67.3045042 268.199723,67.1499525 268.203532,66.9941127 C268.239687,66.7123395 268.155414,66.4283768 267.971405,66.2119428 C267.9445,66.1707655 267.910296,66.1348518 267.870479,66.1059714 C267.853629,66.0880821 267.832918,66.0742748 267.809924,66.0656013 C267.473002,65.8717492 267.063095,65.8529461 266.70984,66.0151388 C266.510713,66.0874803 266.316813,66.1734708 266.129521,66.2724979 C265.138738,66.8306245 264.183195,67.4491159 263.268293,68.1244743 C262.99979,68.2838945 262.790703,68.5266482 262.672834,68.8158116 C262.651543,69.0075279 262.619533,69.1979015 262.576955,69.3860387 C262.43566,69.744323 262.006728,69.8502944 261.638352,69.9310345 C258.559507,70.6419785 255.909322,72.5894631 254.311186,75.3153911 C254.043698,75.7490779 253.833378,76.2155143 253.68545,76.7031119 C253.595628,77.0201405 253.533162,77.3442888 253.498738,77.6719933 Z" id="Path" fill="#5C82F7" fill-rule="nonzero"></path>
                <path d="M277.034483,58.3751051 C276.141295,59.2884777 274.713204,59.3238015 273.436501,59.3036165 L273.476871,58.7989907 L271.68545,59.4398654 C272.151091,59.0946335 272.549588,58.6670623 272.861228,58.1783011 C272.606788,57.9888453 272.264612,57.9670885 271.988225,58.1227923 C271.719569,58.2788872 271.495439,58.5012799 271.337258,58.7687132 C270.305364,60.313985 270.06403,62.2558823 270.686291,64.0067283 C270.315121,64.1891986 269.874894,64.1603628 269.530698,63.9310345 C269.194265,63.7003146 268.935637,63.37307 268.788898,62.9924306 C268.682927,62.7502103 268.571909,62.4878049 268.319596,62.391926 C268.095686,62.3370569 267.863058,62.4409084 267.754415,62.6442389 C267.648323,62.8400503 267.605985,63.0640901 267.633305,63.2851135 C267.668629,63.7897393 268.047098,64.294365 268.137931,64.7989907 C268.228764,65.3036165 268.97561,65.7073171 268.582002,66.0454163 C268.120728,66.2189878 267.639078,66.3326165 267.148865,66.3835156 C266.951681,66.3243238 266.796678,66.1712113 266.735071,65.9747687 C266.336417,65.0967199 266.477712,64.0723297 266.230446,63.1387721 C266.001214,62.3977405 265.649875,61.7001787 265.190917,61.0748528 C265.080406,60.8837642 264.94834,60.7059831 264.797309,60.5449958 C264.638513,60.4288858 264.507515,60.2789273 264.413793,60.1059714 C264.348192,59.9243061 264.474348,59.6568545 264.666106,59.6921783 C264.353146,59.38889 264.015572,59.1120792 263.656854,58.8645921 C264.010093,58.4205214 264.353238,57.9663583 264.666106,57.5121951 C264.78217,57.3507149 264.90328,57.1539108 264.817494,56.9772918 C264.768825,56.8949733 264.699167,56.827057 264.615643,56.7804878 L263.722456,56.1749369 C263.722456,55.7510513 264.565181,55.9074853 264.696384,55.508831 C264.729013,55.40365 264.729013,55.2910514 264.696384,55.1858705 L264.383516,54.0454163 L265.574432,54.5853659 C265.712101,54.664594 265.87008,54.7014558 266.028595,54.6913373 C266.341463,54.6459209 266.492851,54.2775442 266.533221,53.9596299 C266.500899,53.6416118 266.542343,53.3204234 266.654331,53.0210261 C267.194281,53.0210261 267.73423,53.0210261 268.269134,53.0210261 C268.304304,52.7511523 268.233789,52.4781299 268.07233,52.2590412 L272.04878,52.0370059 C272.724589,51.9600379 273.408789,52.0079319 274.067283,52.1783011 C274.277213,52.2773108 274.506331,52.3289915 274.738436,52.3296888 C274.965517,52.3296888 275.197645,52.0925147 275.132044,51.8704794 C275.728358,52.2070529 276.273769,52.6267309 276.751892,53.116905 C276.879247,53.2713705 277.035155,53.3998664 277.211102,53.4953743 C277.393751,53.5896161 277.615306,53.5636681 277.771236,53.4297729 C277.882254,53.313709 277.932717,53.1068124 278.094197,53.0967199 C278.255677,53.0866274 278.275862,53.1774601 278.336417,53.2531539 C278.563895,53.5453241 278.749063,53.8680942 278.886459,54.2119428 C279.17221,54.1731077 279.451946,54.0985113 279.719092,53.9899075 C279.463858,54.2622044 279.403594,54.6639605 279.567704,54.999159 C279.698907,55.3372582 279.941127,55.6248949 280.102607,55.9478553 C280.261637,56.2970923 280.368742,56.6677081 280.420521,57.0479394 C280.501262,57.5222876 280.501262,58.1227923 280.082422,58.3549201 C279.677086,58.4946434 279.22759,58.3930182 278.921783,58.0925147 C277.957948,57.4062237 277.781329,57.608074 277.034483,58.3751051 Z" id="Path" fill="#192534" fill-rule="nonzero"></path>
                <path d="M254.285955,78.3481918 C255.150406,79.0705449 256.068058,79.7267338 257.031119,80.3111859 L257.182506,80.412111 C258.101103,80.962359 259.051461,81.4577584 260.028595,81.8957107 L260.87132,82.2439024 C261.148865,82.3599664 261.41127,82.470984 261.698907,82.5618167 C261.840202,82.6173255 261.986543,82.6677881 262.137931,82.7182506 L262.137931,82.7182506 C262.137931,82.7182506 262.137931,82.7182506 262.137931,82.7182506 C261.961312,82.2136249 261.845248,81.7089992 261.688814,81.2043734 C261.272264,79.856365 260.528534,78.6324182 259.52397,77.6417157 C258.656013,76.7737595 257.273339,75.5071489 255.99159,76.27418 C255.600923,76.5374489 255.259353,76.8670649 254.982338,77.2481077 C254.736359,77.5288577 254.526174,77.8390501 254.356602,78.1715728 C254.331371,78.2169891 254.311186,78.2775442 254.285955,78.3481918 Z" id="Path" fill="#5C82F7" fill-rule="nonzero"></path>
                <path d="M278.280908,82.6576955 C278.87132,82.450799 279.461733,82.2287637 280.026913,81.9764508 C280.115099,81.9472608 280.201102,81.911848 280.284272,81.8704794 L280.39529,81.8200168 C281.142136,81.4835997 281.868797,81.1084945 282.575273,80.6947014 C283.175778,80.3515559 283.761144,79.9781329 284.326325,79.5845248 L284.361648,79.5845248 C284.316241,79.0219408 284.316241,78.4566126 284.361648,77.8940286 C284.390672,77.7052876 284.378623,77.5125062 284.326325,77.3288478 C284.256168,77.1834426 284.16045,77.0518299 284.043734,76.940286 C283.969482,76.8659998 283.900358,76.7867596 283.836838,76.7031119 C283.266611,76.0622372 282.802355,75.3708999 281.818335,75.4718251 C280.834315,75.5727502 279.986543,76.4205214 279.57275,77.3641716 C279.527538,77.4549346 279.490389,77.5494951 279.461733,77.646762 C279.180331,78.5234143 278.961116,79.4188238 278.805719,80.3263246 C278.674516,80.8864592 278.50799,81.4264087 278.38688,81.9865433 C278.356602,82.1934399 278.311186,82.4255677 278.280908,82.6576955 Z" id="Path" fill="#5C82F7" fill-rule="nonzero"></path>
                <polygon id="Path" fill="url(#linearGradient-1)" fill-rule="nonzero" points="164.528175 231.335576 164.528175 231.335576 164.30614 231.456686"></polygon>
                <path d="M133.529016,204.08074 C131.581161,209.692178 133.857023,218.800673 134.91169,222.86291 C135.610818,225.801824 136.073191,228.79206 136.294365,231.804878 C138.667973,232.208715 141.096984,232.1539 143.449958,231.643398 L141.744323,223.271657 C142.960471,218.311186 141.744323,205.059714 141.744323,205.059714 C141.744323,205.059714 144.504626,199.937763 144.772077,192.131203 C145.009251,184.450799 146.901598,181.96804 146.962153,181.8873 L146.962153,181.8873 C150.86291,183.905803 155.823381,205.710681 155.823381,205.710681 C155.414634,210.994113 155.904121,219.123633 157.529016,223.513877 C158.51463,226.302737 158.929912,229.261188 158.75021,232.213625 C159.389045,232.672464 160.197213,232.827455 160.960471,232.637511 C163.281749,232.264087 166.067283,230.260723 166.067283,230.260723 C166.067283,230.260723 165.174096,206.543314 164.523129,205.629941 C163.872161,204.716569 164.523129,199.614802 164.523129,199.614802 L163.463415,191.318755 C163.463415,191.318755 163.624895,177.254836 162.08074,174.817494 C160.748528,172.708158 160.440706,169.009251 160.380151,168.035324 C160.380151,167.883936 160.380151,167.79815 160.380151,167.79815 L158.028595,164.977292 C158.028595,164.977292 135.264929,163.271657 133.554247,164.977292 C133.135408,165.396131 132.878049,166.349874 132.721615,167.550883 C132.252313,171.239697 132.792262,177.254836 132.792262,177.254836 C132.792262,177.254836 133.473507,181.72582 134.452481,186.277544 C135.037808,189.01192 135.037808,191.839215 134.452481,194.573591 C134.763564,197.772541 134.449927,201.001459 133.529016,204.08074 Z" id="Path" fill="#575A89" fill-rule="nonzero"></path>
                <path d="M134.931876,239.732548 C135.941127,241.074853 141.925988,240.504626 142.940286,240.085786 C143.560976,239.833474 143.515559,238.662742 143.349033,237.461733 C143.243061,236.694701 143.086627,235.912532 143.021026,235.342304 C142.859546,233.87889 143.525652,230.91169 143.525652,230.91169 C143.525652,230.91169 142.183347,232.334735 141.860387,230.91169 C141.706295,230.358828 141.260066,229.935881 140.699748,229.811606 C140.0037,229.600565 139.254942,229.647138 138.590412,229.942809 C137.530698,230.396972 135.769554,231.375946 136.067283,232.698066 C136.511354,234.565181 134.926829,237.239697 134.926829,237.239697 C134.336416,237.977123 134.336416,239.025401 134.926829,239.762826 L134.931876,239.732548 Z" id="Path" fill="#CBCEDA" fill-rule="nonzero"></path>
                <path d="M134.931876,239.732548 C135.941127,241.074853 141.925988,240.504626 142.940286,240.085786 C143.560976,239.833474 143.515559,238.662742 143.349033,237.461733 C142.708158,237.759462 141.61312,238.011775 139.816653,237.840202 C139.392255,237.801554 138.965941,237.788074 138.53995,237.799832 C137.246185,237.861164 135.949766,237.835876 134.659378,237.724138 C134.364944,238.391534 134.470257,239.167733 134.931876,239.732548 L134.931876,239.732548 Z" id="Path" fill="#000000" fill-rule="nonzero" opacity="0.1"></path>
                <path d="M155.788057,205.710681 C155.37931,210.994113 155.868797,219.123633 157.493692,223.513877 C158.479306,226.302737 158.894588,229.261188 158.714886,232.213625 C159.353721,232.672464 160.161889,232.827455 160.925147,232.637511 C160.420521,229.211102 158.34651,214.43566 157.004205,202.763667 C156.03298,194.679509 153.058199,186.965893 148.349874,180.32296 L146.926829,181.8873 C150.827586,183.920942 155.788057,205.710681 155.788057,205.710681 Z" id="Path" fill="#000000" fill-rule="nonzero" opacity="0.1"></path>
                <path d="M137.374264,120.262405 L138.383516,125.142136 L143.248108,133.312027 L149.243061,130.753574 C149.243061,130.753574 157.392767,122.215307 152.270816,120.994113 C151.656701,120.865215 151.077017,120.607196 150.570227,120.237174 C149.679507,119.527756 149.1854,118.432454 149.243061,117.295206 C149.28268,116.085398 149.565869,114.896004 150.075694,113.79815 L139.584525,110.513036 C140.013701,111.891888 140.266346,113.319586 140.336417,114.761985 C140.417157,117.618167 139.352397,119.026072 138.484441,119.697225 C138.155493,119.957328 137.778121,120.149445 137.374264,120.262405 Z" id="Path" fill="#FBBEBE" fill-rule="nonzero"></path>
                <path d="M139.584525,110.513036 C140.013701,111.891888 140.266346,113.319586 140.336417,114.761985 C140.525431,114.990567 140.729412,115.206349 140.947014,115.407906 C142.481053,116.879201 144.523731,117.701696 146.649285,117.703953 C147.520149,117.705717 148.385652,117.567713 149.212784,117.295206 C149.252403,116.085398 149.535592,114.896004 150.045416,113.79815 L139.584525,110.513036 Z" id="Path" fill="#000000" fill-rule="nonzero" opacity="0.1"></path>
                <path d="M138.363331,109.165685 C138.361291,112.5225 140.382357,115.549725 143.483455,116.834792 C146.584553,118.11986 150.154449,117.40948 152.527353,115.035131 C154.900257,112.660782 155.608463,109.090454 154.321508,105.990139 C153.034553,102.889824 150.006097,100.870602 146.649285,100.874685 C144.447954,100.865233 142.334126,101.735874 140.778009,103.292939 C139.221893,104.850003 138.352539,106.96436 138.363331,109.165685 Z" id="Path" fill="#FBBEBE" fill-rule="nonzero"></path>
                <path d="M137.374264,120.262405 L138.383516,125.142136 L143.248108,133.312027 L149.243061,130.753574 C149.243061,130.753574 157.392767,122.215307 152.270816,120.994113 C151.656701,120.865215 151.077017,120.607196 150.570227,120.237174 C151.493692,122.760303 147.678722,128.068966 147.678722,128.068966 C147.234651,128.719933 146.215307,128.311186 146.215307,128.311186 C143.752733,127.937763 139.226241,120.867956 138.489487,119.692178 C138.159459,119.954672 137.78029,120.148545 137.374264,120.262405 Z" id="Path" fill="#000000" fill-rule="nonzero" opacity="0.1"></path>
                <path d="M132.676198,167.535744 C134.119428,167.863751 142.107653,169.634987 145.135408,169.190917 C148.470984,168.686291 154.950378,168.378469 154.950378,168.378469 C154.950378,168.378469 159.078217,168.600505 160.344828,168.020185 C160.344828,167.868797 160.344828,167.783011 160.344828,167.783011 L157.993272,164.962153 C157.993272,164.962153 135.229605,163.256518 133.518923,164.962153 C133.089992,165.396131 132.832632,166.349874 132.676198,167.535744 Z" id="Path" fill="#000000" fill-rule="nonzero" opacity="0.1"></path>
                <path d="M147.658537,128.311186 C147.658537,128.311186 151.947855,122.371741 150.328007,120.055509 L157.574432,123.027754 C157.574432,123.027754 161.934399,122.497897 163.508831,129.007569 C163.760809,130.090082 163.852619,131.203704 163.781329,132.312868 C163.738187,134.035574 164.148897,135.739327 164.972246,137.253154 C166.763667,140.83095 166.35492,149.041211 162.696384,149.868797 C159.037847,150.696384 157.735913,150.272498 157.735913,150.272498 C157.735913,150.272498 158.240538,165.148865 160.339781,166.859546 C162.439024,168.570227 154.950378,168.16148 154.950378,168.16148 C154.950378,168.16148 148.470984,168.484441 145.135408,168.973928 C141.799832,169.463415 132.454163,167.263246 132.454163,167.263246 C132.454163,167.263246 133.836838,161.005887 134.321278,157.019344 C134.805719,153.032801 135.95122,144.555088 135.95122,144.555088 L127.655172,133.322119 C127.655172,133.322119 126.191758,126.534903 131.313709,123.527334 C136.43566,120.519765 138.378469,119.777965 138.378469,119.777965 C138.378469,119.777965 143.525652,128.159798 146.210261,128.568545 C146.195122,128.558452 147.214466,128.967199 147.658537,128.311186 Z" id="Path" fill="#3F3D56" fill-rule="nonzero"></path>
                <path d="M157.170732,130.667788 C157.170732,130.667788 157.251472,133.352397 156.761985,134.412111 C156.272498,135.471825 154.486123,141.320437 154.486123,141.320437 L158.54836,141.320437 C158.54836,141.320437 156.353238,138.963835 156.529857,137.823381 C156.706476,136.682927 157.170732,130.667788 157.170732,130.667788 Z" id="Path" fill="#000000" fill-rule="nonzero" opacity="0.1"></path>
                <path d="M145.135408,150.913373 C145.135408,150.913373 154.1127,148.718251 154.950378,146.846089 C155.788057,144.973928 158.094197,140.79058 158.094197,140.79058 L157.1455,139.513877 L152.780488,142.940286 C152.780488,142.940286 147.577796,147.08831 145.135408,147.481918 C142.693019,147.875526 145.135408,150.913373 145.135408,150.913373 Z" id="Path" fill="#FBBEBE" fill-rule="nonzero"></path>
                <path d="M145.135408,150.913373 C145.135408,150.913373 154.1127,148.718251 154.950378,146.846089 C155.788057,144.973928 158.094197,140.79058 158.094197,140.79058 L157.1455,139.513877 L152.780488,142.940286 C152.780488,142.940286 147.577796,147.08831 145.135408,147.481918 C142.693019,147.875526 145.135408,150.913373 145.135408,150.913373 Z" id="Path" fill="#000000" fill-rule="nonzero" opacity="0.05"></path>
                <path d="M137.374264,140.34651 L137.374264,145.216148 L138.156434,145.216148 C142.023404,145.215956 145.82671,146.200648 149.207738,148.077376 L150.676198,148.889823 L151.069807,149.111859 L153.592935,143.434819 L151.236333,141.320437 L151.115223,141.320437 C150.534903,141.375946 148.042052,141.587889 146.987384,141.229605 C145.932717,140.87132 144.736754,139.80656 141.774601,140.563499 C140.321278,140.936922 139.074853,142.582002 137.661901,142.077376 L137.374264,140.34651 Z" id="Path" fill="#FBBEBE" fill-rule="nonzero"></path>
                <path d="M129.527334,131.485282 L127.902439,133.312027 L127.902439,137.762826 C127.902439,137.762826 129.285114,151.746005 133.675357,153.29016 C138.065601,154.834315 145.902439,152.396972 145.902439,152.396972 C145.902439,152.396972 147.920942,147.032801 146.977292,146.704794 C146.033642,146.376787 138.610597,144.418839 138.610597,144.418839 C138.610597,144.418839 138.711522,136.218671 137.09672,133.781329 C137.09672,133.781329 138.156434,126.136249 134.497897,125.974769 C130.839361,125.813288 129.527334,131.485282 129.527334,131.485282 Z" id="Path" fill="#000000" fill-rule="nonzero" opacity="0.1"></path>
                <path d="M129.285114,131.485282 L127.655172,133.312027 L127.655172,137.762826 C127.655172,137.762826 129.037847,151.746005 133.428091,153.29016 C137.818335,154.834315 145.640034,152.396972 145.640034,152.396972 C145.640034,152.396972 147.658537,147.032801 146.719933,146.704794 C145.781329,146.376787 138.348192,144.418839 138.348192,144.418839 C138.348192,144.418839 138.454163,136.218671 136.834315,133.781329 C136.834315,133.781329 137.888982,126.136249 134.230446,125.974769 C130.571909,125.813288 129.285114,131.485282 129.285114,131.485282 Z" id="Path" fill="#3F3D56" fill-rule="nonzero"></path>
                <path d="M140.639193,112.687973 C140.56814,112.154152 140.632342,111.611035 140.825904,111.108495 C141.037048,110.600034 141.56119,110.294629 142.107653,110.361648 C142.804037,110.523129 143.116905,111.431455 143.788057,111.648444 C144.397014,111.770515 145.009192,111.453943 145.261564,110.886459 C145.494813,110.326789 145.591673,109.719688 145.544155,109.115223 C145.544155,108.439024 145.544155,107.75778 145.544155,107.09672 C145.544155,106.43566 145.569386,105.557611 146.023549,104.977292 C146.593776,104.255677 147.925988,103.937763 148.81413,103.96804 C149.406039,103.972595 149.974156,104.201646 150.403701,104.608915 C150.844044,105.049478 151.459442,105.268204 152.079058,105.204373 C152.630681,105.120578 153.085633,104.728378 153.24979,104.195122 C153.247407,104.18688 153.247407,104.178132 153.24979,104.169891 C151.363919,101.685091 148.242957,100.469109 145.173127,101.02308 C142.103297,101.577051 139.604213,103.807207 138.705807,106.794448 C137.807402,109.781688 138.661743,113.020379 140.916737,115.175778 C140.775589,114.35266 140.682915,113.52196 140.639193,112.687973 Z" id="Path" fill="#000000" fill-rule="nonzero" opacity="0.1"></path>
                <path d="M152.089151,104.962153 C152.639723,104.87608 153.093627,104.484783 153.259882,103.952902 C153.325484,103.690496 153.310345,103.407906 153.386039,103.150547 C153.577796,102.509672 154.259041,102.176619 154.713204,101.692178 C155.631623,100.718251 155.571068,99.118587 154.920101,97.9529016 C154.415475,97.0092515 153.406224,96.2169891 152.321278,96.3986543 C151.665265,96.5147183 151.095038,96.9840202 150.428932,97.0243902 C149.786417,96.9796398 149.164544,96.7787001 148.617325,96.4390244 C147.207128,95.8002319 145.621701,95.6596609 144.12111,96.0403701 C143.659627,96.1322416 143.232079,96.3486335 142.884777,96.666106 C142.649066,96.961461 142.430053,97.2697638 142.228764,97.5895711 C141.466779,98.5584525 140.109336,98.745164 138.90328,98.9621531 C137.697225,99.1791421 136.329689,99.6585366 135.931034,100.824222 C135.668629,101.591253 135.931034,102.428932 136.07233,103.231287 C136.126305,103.397286 136.115489,103.577558 136.042052,103.735913 C135.855341,104.04878 135.380992,103.917578 135.032801,103.993272 C134.351556,104.134567 134.174937,105.002523 134.149706,105.719092 C134.119428,106.521447 134.099243,107.323802 134.084104,108.126156 C133.997099,108.882579 134.280923,109.634431 134.846089,110.144659 L137.530698,113.369218 C138.721615,114.802355 139.983179,116.46762 139.746005,118.31455 C140.30614,118.566863 140.977292,118.077376 141.164003,117.486964 C141.28997,116.878576 141.258708,116.248114 141.073171,115.655172 C140.856043,114.608657 140.714383,113.547895 140.649285,112.481077 C140.578232,111.947256 140.642435,111.404138 140.835997,110.901598 C141.046264,110.389933 141.574213,110.083515 142.122792,110.154752 C142.819176,110.316232 143.132044,111.219512 143.803196,111.441548 C144.411874,111.561646 145.022883,111.245679 145.276703,110.679563 C145.509952,110.119893 145.606812,109.512791 145.559294,108.908326 L145.559294,106.889823 C145.559294,106.15307 145.584525,105.375946 146.038688,104.770395 C146.608915,104.04878 147.941127,103.735913 148.829268,103.761144 C149.420195,103.770609 149.986597,103.998968 150.418839,104.402019 C150.863195,104.830167 151.476506,105.03584 152.089151,104.962153 L152.089151,104.962153 Z" id="Path" fill="#3F3D56" fill-rule="nonzero"></path>
                <path d="M150.216989,130.465938 L147.69386,140.926829 C147.69386,140.926829 145.665265,140.91169 150.216989,130.465938 Z" id="Path" fill="#000000" fill-rule="nonzero" opacity="0.1"></path>
                <path d="M141.517241,128.719933 C141.517241,128.719933 144.852817,134.179983 143.535744,139.821699 L142.915055,139.867115 C142.915055,139.867115 144.04037,137.2582 141.517241,128.719933 Z" id="Path" fill="#000000" fill-rule="nonzero" opacity="0.1"></path>
                <path d="M139.40286,159.61312 C139.40286,159.61312 135.310345,158.260723 135.012616,161.399495 C135.012616,161.399495 135.784693,159.244743 139.40286,159.61312 Z" id="Path" fill="#000000" fill-rule="nonzero" opacity="0.1"></path>
                <path d="M151.236333,141.562658 C151.236333,141.562658 152.04878,147.254836 150.585366,149.530698 C152.881909,150.343123 155.320981,150.67463 157.751051,150.504626 L158.255677,141.562658 L151.236333,141.562658 Z" id="Path" fill="#000000" fill-rule="nonzero" opacity="0.1"></path>
                <path d="M150.686291,148.889823 L151.079899,149.111859 L153.603028,143.434819 L151.246426,141.320437 L151.120269,141.320437 L151.120269,141.320437 C151.150547,141.592935 151.80656,146.482759 150.686291,148.889823 Z" id="Path" fill="#000000" fill-rule="nonzero" opacity="0.1"></path>
                <path d="M151.236333,141.320437 C151.236333,141.320437 152.04878,147.012616 150.585366,149.288478 C152.882652,150.097831 155.321085,150.429252 157.751051,150.262405 L160.59714,141.320437 L151.236333,141.320437 Z" id="Path" fill="#3F3D56" fill-rule="nonzero"></path>
                <path d="M158.255677,236.270816 C158.352028,237.105496 159.002456,237.768391 159.835156,237.880572 C162.04037,238.213625 167.359125,239.051304 168.70143,239.692178 C170.412111,240.504626 177.158957,239.934399 177.481918,239.121951 C177.574449,238.794805 177.532675,238.444263 177.365854,238.148024 C177.136102,237.650626 176.754462,237.23895 176.275862,236.972246 C176.114016,236.885934 175.945216,236.81335 175.771236,236.755257 C174.499579,236.331371 172.102607,235.433137 171.45164,234.489487 C171.45164,234.489487 168.459209,231.870479 167.606392,230.452481 C167.280519,229.886765 166.693512,229.521306 166.042052,229.478553 C165.33053,229.448276 164.528175,229.80656 164.215307,231.365854 C164.215307,231.365854 160.31455,233.591253 159.259882,231.638352 C159.259882,231.638352 159.093356,234.635828 158.447435,235.458368 L158.447435,235.458368 C158.278749,235.693242 158.209816,235.985304 158.255677,236.270816 Z" id="Path" fill="#CBCEDA" fill-rule="nonzero"></path>
                <path d="M158.255677,236.270816 C158.352028,237.105496 159.002456,237.768391 159.835156,237.880572 C162.04037,238.213625 167.359125,239.051304 168.70143,239.692178 C170.412111,240.504626 177.158957,239.934399 177.481918,239.121951 C177.574449,238.794805 177.532675,238.444263 177.365854,238.148024 C177.136102,237.650626 176.754462,237.23895 176.275862,236.972246 C175.175778,237.703953 172.743482,238.420521 167.364172,237.577796 C162.237174,236.780488 159.698907,235.993272 158.462574,235.463415 L158.462574,235.463415 C158.289874,235.694754 158.215516,235.984931 158.255677,236.270816 Z" id="Path" fill="#000000" fill-rule="nonzero" opacity="0.1"></path>
                <g id="Group" opacity="0.1" transform="translate(133.781329, 99.345669)" fill="#000000" fill-rule="nonzero">
                    <path d="M2.30109336,3.98149706 C2.30109336,3.98149706 2.30109336,3.95626577 2.30109336,3.94617325 C2.14494001,3.34266629 2.06192192,2.72257202 2.05382675,2.09924306 C2.09298925,2.60306517 2.16547758,3.10374038 2.27081581,3.5979815 C2.30802173,3.72222066 2.31834316,3.85295876 2.30109336,3.98149706 Z" id="Path"></path>
                    <path d="M7.04457527,11.5912532 C6.91701027,11.8862836 6.84843725,12.2034338 6.84272498,12.5248108 C6.80671978,12.082643 6.87588884,11.6382318 7.04457527,11.2279226 C7.25623061,10.7174706 7.78315674,10.4116468 8.3313709,10.4810765 C9.02775442,10.6425568 9.34062237,11.5508831 10.0117746,11.7678722 C10.6207317,11.8899429 11.2329095,11.5733715 11.4852817,11.0058873 C11.7189057,10.4463239 11.8157798,9.83913111 11.7678722,9.23465097 C11.7678722,8.55845248 11.7678722,7.87720774 11.7678722,7.21614802 C11.7678722,6.55508831 11.7931034,5.67703953 12.2472666,5.09671993 C12.8174937,4.37510513 14.1497056,4.05719092 15.0378469,4.08746846 C15.6297561,4.09202326 16.1978732,4.32107366 16.627418,4.72834315 C17.0677615,5.16890579 17.6831598,5.38763168 18.3027754,5.32380151 C18.8549293,5.24116183 19.3104152,4.84850156 19.4735071,4.31455004 C19.5391085,4.05214466 19.5239697,3.76955425 19.5996636,3.51219512 C19.7914214,2.87132044 20.4726661,2.53826745 20.9268293,2.05382675 C21.3560601,1.58404973 21.5999584,0.974303835 21.6131203,0.338099243 C21.6827723,1.09785654 21.4342754,1.85248341 20.9268293,2.42220353 C20.4726661,2.92682927 19.7914214,3.23969722 19.5996636,3.87552565 C19.5239697,4.13793103 19.5391085,4.41547519 19.4735071,4.67788057 C19.3093503,5.21113676 18.8543985,5.60333661 18.3027754,5.68713204 C17.6820935,5.75188573 17.065638,5.53092727 16.627418,5.08662742 C16.1965057,4.6814916 15.6292612,4.45279303 15.0378469,4.44575273 C14.1497056,4.41547519 12.8174937,4.7333894 12.2472666,5.45500421 C11.7931034,6.0353238 11.7729184,6.83767872 11.7678722,7.5744323 C11.7628259,8.31118587 11.7678722,8.93187553 11.7678722,9.59293524 C11.8153591,10.1957564 11.7184858,10.8012147 11.4852817,11.3591253 C11.2358638,11.9293864 10.6212902,12.2471967 10.0117746,12.1211102 C9.33052986,11.9041211 9.02775442,11.000841 8.3313709,10.8393608 C7.78112352,10.7670217 7.25170094,11.0763706 7.04457527,11.5912532 Z" id="Path"></path>
                    <path d="M0.36333053,9.35576114 C0.512957067,9.77339332 0.748467087,10.1550227 1.05466779,10.4760303 L3.7392767,13.7005887 C4.86963835,15.058032 6.06560135,16.627418 5.97476871,18.3633305 C5.8940286,16.7737595 4.78889823,15.3355761 3.7392767,14.0639193 L1.05466779,10.8393608 C0.489501782,10.3291328 0.205677583,9.57728059 0.292682927,8.82085786 C0.29260756,9.00148987 0.316361684,9.18134252 0.36333053,9.35576114 Z" id="Path"></path>
                    <path d="M7.372582,17.8183347 C7.41695503,17.6757486 7.44406208,17.528354 7.45332212,17.3793103 C7.47482247,17.6494406 7.44747212,17.9212347 7.372582,18.1816653 C7.18587048,18.7720774 6.51976451,19.2615643 5.95458368,19.0042052 C5.97051891,18.8871178 5.97894655,18.7691308 5.97981497,18.6509672 C6.59363005,18.8008645 7.21403215,18.429972 7.372582,17.8183347 L7.372582,17.8183347 Z" id="Path"></path>
                </g>
                <path d="M168.166526,231.194281 C168.166526,231.194281 167.318755,232.708158 164.240538,231.3709" id="Path" fill="#000000" fill-rule="nonzero" opacity="0.1"></path>
                <path d="M142.132885,231.552565 C142.132885,231.552565 139.478553,234.681245 136.132885,232.561817" id="Path" fill="#000000" fill-rule="nonzero" opacity="0.1"></path>
                <path d="M134.407065,194.573591 C134.407065,194.573591 136.279226,195.744323 136.344828,196.415475 C136.410429,197.086627 135.375946,195.910849 135.375946,195.910849 L134.407065,194.573591 Z" id="Path" fill="#000000" fill-rule="nonzero" opacity="0.1"></path>
                <path d="M133.665265,203.560976 C134.31699,204.105294 135.128349,204.422397 135.976451,204.464256 C137.37931,204.524811 137.263246,206.351556 136.344828,205.80656 C135.39594,205.127127 134.500163,204.376429 133.665265,203.560976 Z" id="Path" fill="#000000" fill-rule="nonzero" opacity="0.1"></path>
                <path d="M133.306981,204.731707 C133.306981,204.731707 134.210261,209.157275 134.941968,208.304458" id="Path" fill="#000000" fill-rule="nonzero" opacity="0.1"></path>
                <path d="M42.0857864,232.445753 C43.5996636,229.665265 41.8788898,226.259041 39.920942,223.781329 C37.9629941,221.303616 35.5761144,218.735071 35.626577,215.560976 C35.7022708,211.019344 40.5214466,208.334735 44.371741,205.92767 C47.2307248,204.143016 49.8666644,202.023761 52.2237174,199.614802 C53.2099738,198.6872 54.02632,197.594184 54.6358284,196.385198 C55.4331371,194.608915 55.4079058,192.590412 55.3574432,190.647603 C55.1892347,184.164844 54.8696384,177.690496 54.3986543,171.224558" id="Path" stroke="#3F3D56" stroke-width="4"></path>
                <path d="M61.7207738,170.87132 C61.6117313,168.460579 60.2797128,166.272263 58.1883936,165.068124 L56.6038688,168.20185 L56.6492851,164.407065 C53.7020943,163.546064 50.5362119,164.687216 48.8161236,167.230551 C47.0960352,169.773885 47.215607,173.13703 49.1119734,175.551786 C51.0083397,177.966543 54.24727,178.879981 57.1258734,177.811852 C60.0044768,176.743724 61.8636099,173.938611 61.72582,170.87132 L61.7207738,170.87132 Z" id="Path" fill="#57B894" fill-rule="nonzero"></path>
                <path d="M49.0899916,218.805719 C47.5589235,221.77324 44.1592289,223.263532 40.9394039,222.378614 C37.7195789,221.493696 35.5590362,218.475262 35.7596172,215.142077 C35.9601982,211.808893 38.4671194,209.071332 41.7698279,208.57892 C45.0725364,208.086509 48.2689822,209.973737 49.4331371,213.103448 L45.0075694,216.70143 L49.8772077,215.576114 C49.875412,216.699939 49.6055365,217.807121 49.0899916,218.805719 L49.0899916,218.805719 Z" id="Path" fill="#57B894" fill-rule="nonzero"></path>
                <path d="M45.5929352,205.054668 C41.945609,205.312295 38.70438,202.744356 38.1209237,199.134794 C37.5374674,195.525232 39.8046008,192.066911 43.3473507,191.162321 L43.3069807,194.079058 L44.9116905,190.904962 L44.9116905,190.904962 C46.7884425,190.813176 48.6244434,191.472806 50.0136726,192.73798 C51.4029018,194.003154 52.2308963,195.76963 52.31455,197.646762 C52.3560079,198.463997 52.2535241,199.282159 52.0117746,200.063919 C51.1397899,202.915405 48.571372,204.91239 45.5929352,205.054668 L45.5929352,205.054668 Z" id="Path" fill="#57B894" fill-rule="nonzero"></path>
                <path d="M62.7855341,193.614802 C59.8048673,193.726355 57.075278,191.953902 55.9646074,189.185648 C54.8539369,186.417394 55.6015127,183.249843 57.8327124,181.270307 C60.0639121,179.29077 63.2979565,178.925798 65.9142136,180.358284 L64.6627418,183.789739 L67.2413793,181.317073 C68.6205445,182.580197 69.4426012,184.338636 69.5273339,186.206897 C69.5609316,186.862937 69.5014684,187.52043 69.3507149,188.159798 C68.6246348,191.239326 65.9459543,193.46504 62.7855341,193.614802 Z" id="Path" fill="#57B894" fill-rule="nonzero"></path>
                <path d="M60.7670311,172.758621 C59.1320437,172.93524 57.5424727,173.444912 55.902439,173.545837 C54.2624054,173.646762 52.4608915,173.253154 51.4213625,171.981497 C50.8662742,171.295206 50.5836838,170.422204 50.1143818,169.675357 C49.66617,168.976845 49.0525913,168.399665 48.3280067,167.994954 C47.1622126,170.431857 47.4881294,173.320221 49.1676461,175.436066 C50.8471628,177.551911 53.5862143,178.524775 56.224094,177.942396 C58.8619738,177.360017 60.936818,175.324362 61.569386,172.698066 C61.3036165,172.708158 61.0361648,172.728343 60.7670311,172.758621 Z" id="Path" fill="#000000" fill-rule="nonzero" opacity="0.1"></path>
                <path d="M62.7855341,193.614802 C60.3007551,193.740878 57.9328331,192.550656 56.5515591,190.481332 C55.170285,188.412007 54.9793089,185.768674 56.0487805,183.522288 C56.6107321,183.900097 57.0940159,184.383381 57.4718251,184.945332 C57.9764508,185.707317 58.2842725,186.590412 58.8746846,187.286796 C59.979815,188.583684 61.862069,189.007569 63.5727502,188.931876 C65.2834315,188.856182 66.9335576,188.366695 68.6190076,188.210261 C68.8561817,188.210261 69.0933558,188.174937 69.3355761,188.169891 C68.6072072,191.240254 65.9372948,193.459696 62.7855341,193.614802 Z" id="Path" fill="#000000" fill-rule="nonzero" opacity="0.1"></path>
                <path d="M45.5929352,205.054668 C43.1311723,205.181114 40.7815042,204.015286 39.3930662,201.978498 C38.0046282,199.94171 37.7782065,197.328508 38.7956266,195.083263 C39.3840439,195.465934 39.8971807,195.953414 40.3095038,196.521447 C40.8595458,197.29857 41.2026913,198.191758 41.8486123,198.908326 C43.0445753,200.240538 45.0529857,200.70984 46.8595458,200.664424 C48.666106,200.619008 50.3061396,200.200168 52.0470984,200.063919 C51.170762,202.92718 48.5845776,204.926974 45.5929352,205.054668 L45.5929352,205.054668 Z" id="Path" fill="#000000" fill-rule="nonzero" opacity="0.1"></path>
                <path d="M49.0899916,218.805719 C47.4944506,222.371648 43.3102523,223.968964 39.744323,222.373423 C36.1783937,220.777882 34.5810783,216.593684 36.176619,213.027754 C36.7623591,213.408464 37.2864897,213.876438 37.7308663,214.415475 C38.4070648,215.232969 38.8511354,216.166526 39.628259,216.938604 C41.0765349,218.361648 43.4129521,218.957107 45.4970563,219.002523 C46.697544,219.00821 47.8973072,218.942492 49.0899916,218.805719 Z" id="Path" fill="#000000" fill-rule="nonzero" opacity="0.1"></path>
                <path d="M31.4028595,229.246426 C31.4028595,229.246426 36.9941127,229.100084 38.6593776,227.873844 C40.3246426,226.647603 47.2380151,225.244743 47.6719933,227.167368 C48.1059714,229.089992 56.0740118,236.755257 49.7611438,236.785534 C43.4482759,236.815812 35.1017662,235.776283 33.4163162,234.767031 C31.7308663,233.75778 31.4028595,229.246426 31.4028595,229.246426 Z" id="Path" fill="#656380" fill-rule="nonzero"></path>
                <path d="M49.8973928,236.114382 C43.5845248,236.169891 35.2329689,235.135408 33.5525652,234.095879 C32.2708158,233.313709 31.7611438,230.513036 31.5895711,229.226241 L31.4028595,229.226241 C31.4028595,229.226241 31.7560976,233.732548 33.4213625,234.777124 C35.0866274,235.821699 43.4583684,236.835997 49.7661901,236.795627 C51.587889,236.795627 52.2186712,236.134567 52.1833474,235.175778 C51.9461733,235.746005 51.275021,236.104289 49.8973928,236.114382 Z" id="Path" fill="#000000" fill-rule="nonzero" opacity="0.2"></path>
            </g>
        </g>
    </g>
</svg>