<?xml version="1.0" encoding="UTF-8"?>
<svg width="330px" height="266px" viewBox="0 0 330 266" version="1.1" xmlns="http://www.w3.org/2000/svg" xmlns:xlink="http://www.w3.org/1999/xlink">
    <!-- Generator: Sketch 55 (78076) - https://sketchapp.com -->
    <title>undraw_report_mx0a</title>
    <desc>Created with Sketch.</desc>
    <defs>
        <linearGradient x1="49.9963627%" y1="100.004109%" x2="49.9963627%" y2="7.92274891e-06%" id="linearGradient-1">
            <stop stop-color="#808080" stop-opacity="0.25" offset="0%"></stop>
            <stop stop-color="#808080" stop-opacity="0.12" offset="54%"></stop>
            <stop stop-color="#808080" stop-opacity="0.1" offset="100%"></stop>
        </linearGradient>
    </defs>
    <g id="Page-1" stroke="none" stroke-width="1" fill="none" fill-rule="evenodd">
        <g id="Mes_influenceurs-Copy-13" transform="translate(-347.000000, -351.000000)" fill-rule="nonzero">
            <g id="undraw_report_mx0a" transform="translate(347.000000, 351.000000)">
                <path d="M56.0862837,0.210229748 C44.8396397,-0.203388155 52.8519702,-0.494213244 42.6827521,4.32055766 C32.513534,9.13532857 24.6512368,20.800646 28.0614678,31.525629 C29.1744843,35.0219928 31.3422782,38.0691935 33.1703432,41.2521125 C42.3106681,57.169939 42.7345203,77.7441983 34.2607111,94.0271718 C27.7379165,106.561733 16.6821678,116.100796 8.72280521,127.779039 C0.763442664,139.457282 -3.75980483,155.643314 4.07013719,167.408804 C9.43138261,175.464659 19.3805858,179.384335 29.0191797,180.334364 C38.6577736,181.284392 48.3513713,179.788259 58.0320269,179.403724 C76.8698273,178.680793 95.6273002,182.223579 112.89986,189.766791 C136.677647,200.178329 157.161681,217.98975 182.198083,224.862916 C185.203874,225.686921 188.345558,226.352587 191.419295,225.793557 C196.871135,224.80152 200.834639,220.300194 205.102281,216.745665 C218.727027,205.477808 237.590069,203.374174 255.275384,202.850688 C272.9607,202.327203 271.619998,202.731127 287.606668,195.147055 C301.564672,188.525937 312.309812,176.207879 318.991147,162.293514 C325.672482,148.379149 328.574737,132.916949 329.66834,117.519376 C330.315443,108.355154 330.292794,98.893645 327.008749,90.3143049 C323.317028,80.6686061 315.83005,72.9875924 307.97746,66.2727642 C299.772198,59.2541854 290.82924,52.8948102 280.698848,49.1076212 C268.598028,44.5836754 268.159198,46.2825481 255.275384,45.2097267 C228.855674,43.0060292 209.704796,36.4566007 183.922611,30.2880066 C159.452425,24.4456538 132.584723,18.0636588 110.298508,6.16244989 C99.1133383,0.187610019 68.6950787,0.66262433 56.0862837,0.210229748 Z" id="Shape" fill="#5C82F7" opacity="0.1"></path>
                <g id="Group" opacity="0.1" transform="translate(225.000000, 147.000000)" fill="#5C82F7">
                    <path d="M6.16871287,56.8918966 C6.16871287,56.8918966 7.32534653,40.6403448 16.4477228,31.7791379 C20.2988609,28.0871971 22.8510391,23.2419441 23.7207921,17.9713793 C24.1134889,15.4658713 24.2775342,12.9296847 24.2108911,10.3943103" id="Shape"></path>
                    <path d="M29.9254455,4.7762069 C29.2556436,6.57137931 24.0769307,10.5613793 24.0769307,10.5613793 C24.0769307,10.5613793 22.77,4.14396552 23.4463366,2.3487931 C24.114902,0.554962805 26.1072791,-0.355828876 27.8964356,0.314482912 C29.685592,0.984794699 30.5940107,2.98237654 29.9254455,4.7762069 L29.9254455,4.7762069 Z" id="Shape"></path>
                    <path d="M31.5787129,16.7232759 C30.0430693,17.8632759 23.5345545,18.3906897 23.5345545,18.3906897 C23.5345545,18.3906897 25.919703,12.2943103 27.4553465,11.1510345 C28.9901307,10.0719991 31.1028174,10.4145533 32.2201489,11.9236067 C33.3374803,13.4326602 33.0530711,15.5593542 31.5787129,16.72 L31.5787129,16.7232759 Z" id="Shape"></path>
                    <path d="M25.0146535,33.6168966 C23.1130693,33.8265517 17.2286139,30.9962069 17.2286139,30.9962069 C17.2286139,30.9962069 22.3583168,26.9406897 24.2566337,26.7375862 C26.0889244,26.6367689 27.6804811,27.9889454 27.8819843,29.8176611 C28.0834874,31.6463768 26.8247072,33.3142703 25.0146535,33.6168966 L25.0146535,33.6168966 Z" id="Shape"></path>
                    <path d="M17.1763366,45.2789655 C15.340099,45.8063793 9.06029703,44.0046552 9.06029703,44.0046552 C9.06029703,44.0046552 13.4319802,39.14 15.2682178,38.6125862 C16.4686436,38.2297463 17.7817422,38.5312481 18.6963478,39.3997225 C19.6109533,40.2681968 19.9825405,41.566408 19.6664571,42.7889855 C19.3503736,44.011563 18.3965668,44.965316 17.1763366,45.2789655 L17.1763366,45.2789655 Z" id="Shape"></path>
                    <path d="M16.6012871,16.1893103 C17.4181188,17.9189655 22.9137624,21.4536207 22.9137624,21.4536207 C22.9137624,21.4536207 23.6717822,14.9510345 22.8516832,13.2181034 C22.0013056,11.5457817 19.978464,10.8549682 18.2867466,11.6591481 C16.5950291,12.4633279 15.8481584,14.4707601 16.6012871,16.1893103 L16.6012871,16.1893103 Z" id="Shape"></path>
                    <path d="M7.60633663,29.9446552 C8.91326733,31.35 15.2028713,33.0763793 15.2028713,33.0763793 C15.2028713,33.0763793 13.9841584,26.6425862 12.6870297,25.2339655 C11.3879087,23.8353309 9.20521742,23.7536209 7.80568667,25.0512303 C6.40615592,26.3488397 6.3170166,28.5369334 7.60633663,29.9446552 Z" id="Shape"></path>
                    <path d="M0.695940594,44.5156897 C1.7349505,46.1208621 7.65534653,48.8889655 7.65534653,48.8889655 C7.65534653,48.8889655 7.53772277,42.3372414 6.49544554,40.7353448 C5.43062522,39.1905974 3.33319442,38.7757081 1.76299369,39.7992266 C0.192792954,40.822745 -0.280126813,42.9130896 0.695940594,44.5156897 Z" id="Shape"></path>
                    <path d="M29.9254455,4.7762069 C29.2556436,6.57137931 24.0769307,10.5613793 24.0769307,10.5613793 C24.0769307,10.5613793 22.77,4.14396552 23.4463366,2.3487931 C24.114902,0.554962805 26.1072791,-0.355828876 27.8964356,0.314482912 C29.685592,0.984794699 30.5940107,2.98237654 29.9254455,4.7762069 L29.9254455,4.7762069 Z" id="Shape"></path>
                    <path d="M31.5787129,16.7232759 C30.0430693,17.8632759 23.5345545,18.3906897 23.5345545,18.3906897 C23.5345545,18.3906897 25.919703,12.2943103 27.4553465,11.1510345 C28.9901307,10.0719991 31.1028174,10.4145533 32.2201489,11.9236067 C33.3374803,13.4326602 33.0530711,15.5593542 31.5787129,16.72 L31.5787129,16.7232759 Z" id="Shape"></path>
                    <path d="M25.0146535,33.6168966 C23.1130693,33.8265517 17.2286139,30.9962069 17.2286139,30.9962069 C17.2286139,30.9962069 22.3583168,26.9406897 24.2566337,26.7375862 C26.0889244,26.6367689 27.6804811,27.9889454 27.8819843,29.8176611 C28.0834874,31.6463768 26.8247072,33.3142703 25.0146535,33.6168966 L25.0146535,33.6168966 Z" id="Shape"></path>
                    <path d="M17.1763366,45.2789655 C15.340099,45.8063793 9.06029703,44.0046552 9.06029703,44.0046552 C9.06029703,44.0046552 13.4319802,39.14 15.2682178,38.6125862 C16.4686436,38.2297463 17.7817422,38.5312481 18.6963478,39.3997225 C19.6109533,40.2681968 19.9825405,41.566408 19.6664571,42.7889855 C19.3503736,44.011563 18.3965668,44.965316 17.1763366,45.2789655 L17.1763366,45.2789655 Z" id="Shape"></path>
                    <path d="M16.6012871,16.1893103 C17.4181188,17.9189655 22.9137624,21.4536207 22.9137624,21.4536207 C22.9137624,21.4536207 23.6717822,14.9510345 22.8516832,13.2181034 C22.0013056,11.5457817 19.978464,10.8549682 18.2867466,11.6591481 C16.5950291,12.4633279 15.8481584,14.4707601 16.6012871,16.1893103 L16.6012871,16.1893103 Z" id="Shape"></path>
                    <path d="M7.60633663,29.9446552 C8.91326733,31.35 15.2028713,33.0763793 15.2028713,33.0763793 C15.2028713,33.0763793 13.9841584,26.6425862 12.6870297,25.2339655 C11.3879087,23.8353309 9.20521742,23.7536209 7.80568667,25.0512303 C6.40615592,26.3488397 6.3170166,28.5369334 7.60633663,29.9446552 Z" id="Shape"></path>
                    <path d="M0.695940594,44.5156897 C1.7349505,46.1208621 7.65534653,48.8889655 7.65534653,48.8889655 C7.65534653,48.8889655 7.53772277,42.3372414 6.49544554,40.7353448 C5.43062522,39.1905974 3.33319442,38.7757081 1.76299369,39.7992266 C0.192792954,40.822745 -0.280126813,42.9130896 0.695940594,44.5156897 Z" id="Shape"></path>
                </g>
                <g id="Group" opacity="0.1" transform="translate(228.000000, 86.000000)" fill="#5C82F7">
                    <path d="M6.10336634,56.9639655 C6.10336634,56.9639655 7.26,40.7124138 16.3823762,31.8512069 C20.2321806,28.1582563 22.7841088,23.3134781 23.6554455,18.0434483 C24.0512714,15.5382888 24.2153354,13.0018133 24.1455446,10.4663793" id="Shape"></path>
                    <path d="M29.860099,4.84827586 C29.2066337,6.64017241 24.0148515,10.6301724 24.0148515,10.6301724 C24.0148515,10.6301724 22.7079208,4.21275862 23.3809901,2.42086207 C24.0495554,0.627031679 26.0419326,-0.283760086 27.8310891,0.386551724 C29.6202456,1.05686353 30.5286643,3.05444547 29.860099,4.84827586 L29.860099,4.84827586 Z" id="Shape"></path>
                    <path d="M31.5231683,16.792069 C29.9907921,17.9353448 23.4790099,18.4594828 23.4790099,18.4594828 C23.4790099,18.4594828 25.8641584,12.3663793 27.399802,11.2231034 C28.3896362,10.4438851 29.7233982,10.264949 30.8827417,10.7558359 C32.0420852,11.2467227 32.8441772,12.3300178 32.9772969,13.5847151 C33.1104166,14.8394124 32.5535705,16.0676411 31.5231683,16.792069 L31.5231683,16.792069 Z" id="Shape"></path>
                    <path d="M24.9493069,33.6889655 C23.0509901,33.8986207 17.1665347,31.0682759 17.1665347,31.0682759 C17.1665347,31.0682759 22.2962376,27.0160345 24.1945545,26.8096552 C25.4357929,26.6497154 26.6664349,27.1742238 27.4128623,28.1813212 C28.1592897,29.1884185 28.3051588,30.521131 27.7943312,31.6665583 C27.2835036,32.8119857 26.1956008,33.5915929 24.9493069,33.7053448 L24.9493069,33.6889655 Z" id="Shape"></path>
                    <path d="M17.1109901,45.3510345 C15.2747525,45.8784483 8.9949505,44.0767241 8.9949505,44.0767241 C8.9949505,44.0767241 13.369901,39.212069 15.2028713,38.6813793 C17.0298874,38.182202 18.9177297,39.2482408 19.4390151,41.0734718 C19.9603005,42.8987028 18.9213574,44.8050035 17.1077228,45.3510345 L17.1109901,45.3510345 Z" id="Shape"></path>
                    <path d="M16.5359406,16.2581034 C17.3527723,17.9910345 22.8516832,21.5256897 22.8516832,21.5256897 C22.8516832,21.5256897 23.6064356,15.0198276 22.789604,13.2901724 C22.2759435,12.1451979 21.1853606,11.3678161 19.938008,11.2575175 C18.6906553,11.1472188 17.481197,11.7212166 16.7755829,12.7583753 C16.0699688,13.795534 15.9783185,15.1339927 16.5359406,16.2581034 Z" id="Shape"></path>
                    <path d="M7.5409901,30.0134483 C8.84792079,31.422069 15.1407921,33.1451724 15.1407921,33.1451724 C15.1407921,33.1451724 13.9188119,26.7113793 12.6216832,25.3060345 C11.3133035,23.9573647 9.17116611,23.9001394 7.79301162,25.1770406 C6.41485712,26.4539419 6.30305314,28.5995113 7.5409901,30.0134483 L7.5409901,30.0134483 Z" id="Shape"></path>
                    <path d="M0.630594059,44.5877586 C1.67287129,46.192931 7.59,48.9610345 7.59,48.9610345 C7.59,48.9610345 7.47237624,42.4093103 6.43009901,40.8074138 C5.77369988,39.7296754 4.58504743,39.0946688 3.32673843,39.1495243 C2.06842944,39.2043798 0.93923669,39.9404319 0.378616585,41.0712258 C-0.18200352,42.2020196 -0.0854908408,43.5489258 0.630594059,44.5877586 L0.630594059,44.5877586 Z" id="Shape"></path>
                    <path d="M29.860099,4.84827586 C29.2066337,6.64017241 24.0148515,10.6301724 24.0148515,10.6301724 C24.0148515,10.6301724 22.7079208,4.21275862 23.3809901,2.42086207 C24.0495554,0.627031679 26.0419326,-0.283760086 27.8310891,0.386551724 C29.6202456,1.05686353 30.5286643,3.05444547 29.860099,4.84827586 L29.860099,4.84827586 Z" id="Shape"></path>
                    <path d="M31.5231683,16.792069 C29.9907921,17.9353448 23.4790099,18.4594828 23.4790099,18.4594828 C23.4790099,18.4594828 25.8641584,12.3663793 27.399802,11.2231034 C28.3896362,10.4438851 29.7233982,10.264949 30.8827417,10.7558359 C32.0420852,11.2467227 32.8441772,12.3300178 32.9772969,13.5847151 C33.1104166,14.8394124 32.5535705,16.0676411 31.5231683,16.792069 L31.5231683,16.792069 Z" id="Shape"></path>
                    <path d="M24.9493069,33.6889655 C23.0509901,33.8986207 17.1665347,31.0682759 17.1665347,31.0682759 C17.1665347,31.0682759 22.2962376,27.0160345 24.1945545,26.8096552 C25.4357929,26.6497154 26.6664349,27.1742238 27.4128623,28.1813212 C28.1592897,29.1884185 28.3051588,30.521131 27.7943312,31.6665583 C27.2835036,32.8119857 26.1956008,33.5915929 24.9493069,33.7053448 L24.9493069,33.6889655 Z" id="Shape"></path>
                    <path d="M17.1109901,45.3510345 C15.2747525,45.8784483 8.9949505,44.0767241 8.9949505,44.0767241 C8.9949505,44.0767241 13.369901,39.212069 15.2028713,38.6813793 C17.0298874,38.182202 18.9177297,39.2482408 19.4390151,41.0734718 C19.9603005,42.8987028 18.9213574,44.8050035 17.1077228,45.3510345 L17.1109901,45.3510345 Z" id="Shape"></path>
                    <path d="M16.5359406,16.2581034 C17.3527723,17.9910345 22.8516832,21.5256897 22.8516832,21.5256897 C22.8516832,21.5256897 23.6064356,15.0198276 22.789604,13.2901724 C22.2759435,12.1451979 21.1853606,11.3678161 19.938008,11.2575175 C18.6906553,11.1472188 17.481197,11.7212166 16.7755829,12.7583753 C16.0699688,13.795534 15.9783185,15.1339927 16.5359406,16.2581034 Z" id="Shape"></path>
                    <path d="M7.5409901,30.0134483 C8.84792079,31.422069 15.1407921,33.1451724 15.1407921,33.1451724 C15.1407921,33.1451724 13.9188119,26.7113793 12.6216832,25.3060345 C11.3133035,23.9573647 9.17116611,23.9001394 7.79301162,25.1770406 C6.41485712,26.4539419 6.30305314,28.5995113 7.5409901,30.0134483 L7.5409901,30.0134483 Z" id="Shape"></path>
                    <path d="M0.630594059,44.5877586 C1.67287129,46.192931 7.59,48.9610345 7.59,48.9610345 C7.59,48.9610345 7.47237624,42.4093103 6.43009901,40.8074138 C5.77369988,39.7296754 4.58504743,39.0946688 3.32673843,39.1495243 C2.06842944,39.2043798 0.93923669,39.9404319 0.378616585,41.0712258 C-0.18200352,42.2020196 -0.0854908408,43.5489258 0.630594059,44.5877586 L0.630594059,44.5877586 Z" id="Shape"></path>
                </g>
                <g id="Group" opacity="0.1" transform="translate(21.000000, 119.000000)" fill="#5C82F7">
                    <path d="M41.7362791,44.9646429 C41.7362791,44.9646429 27.8306977,36.7810714 24.044186,24.8625 C22.4933694,19.8495003 19.3352423,15.4694021 15.0451163,12.3814286 C12.9966013,10.9287612 10.8168414,9.66556255 8.53348837,8.60785714" id="Shape"></path>
                    <path d="M6.10790698,1.09928571 C7.41023256,2.47821429 8.62465116,8.79107143 8.62465116,8.79107143 C8.62465116,8.79107143 2.34418605,7.10357143 1.05162791,5.72464286 C-0.179360956,4.33847337 -0.0689058351,2.23676097 1.30078179,0.983805124 C2.67046942,-0.269150727 4.80156842,-0.217955769 6.10790698,1.09928571 L6.10790698,1.09928571 Z" id="Shape"></path>
                    <path d="M17.4544186,4.93392857 C17.78,6.78535714 15.3316279,12.7382143 15.3316279,12.7382143 C15.3316279,12.7382143 10.9883721,7.95214286 10.6627907,6.10071429 C10.417582,4.88841098 10.8574162,3.64015765 11.811796,2.83982695 C12.7661758,2.03949624 14.0850537,1.81291612 15.2571801,2.24791806 C16.4293065,2.68292 17.2703997,3.71111301 17.4544186,4.93392857 L17.4544186,4.93392857 Z" id="Shape"></path>
                    <path d="M29.5139535,18.1382143 C28.8627907,19.8996429 23.6893023,23.8178571 23.6893023,23.8178571 C23.6893023,23.8178571 22.3869767,17.5210714 23.0544186,15.7628571 C23.4592172,14.5901451 24.4774543,13.7271756 25.7129196,13.5097422 C26.9483848,13.2923089 28.205952,13.7547526 28.9962839,14.7171299 C29.7866157,15.6795072 29.9848893,16.9898228 29.5139535,18.1382143 L29.5139535,18.1382143 Z" id="Shape"></path>
                    <path d="M36.3544186,30.1692857 C36.0027907,32.0175 31.587907,36.7553571 31.587907,36.7553571 C31.587907,36.7553571 29.2274419,30.7671429 29.5823256,28.9221429 C29.8108924,27.727855 30.6674738,26.7446711 31.8294037,26.3429471 C32.9913336,25.941223 34.2820873,26.1819903 35.2154503,26.9745542 C36.1488133,27.7671181 36.5829856,28.9910693 36.3544186,30.1853571 L36.3544186,30.1692857 Z" id="Shape"></path>
                    <path d="M10.272093,17.8425 C12.1734884,17.8875 17.7767442,14.6282143 17.7767442,14.6282143 C17.7767442,14.6282143 12.3395349,11.0925 10.4348837,11.0475 C8.55710057,11.0401842 7.01866958,12.5177 6.9743315,14.3710294 C6.92999342,16.2243588 8.39605381,17.7719306 10.272093,17.8521429 L10.272093,17.8425 Z" id="Shape"></path>
                    <path d="M18.4539535,31.815 C20.2837209,31.2942857 24.64,26.5178571 24.64,26.5178571 C24.64,26.5178571 18.3823256,24.7532143 16.5525581,25.2739286 C14.765416,25.8262997 13.7516145,27.6859846 14.2689985,29.4628169 C14.7863825,31.2396491 16.6457666,32.2839165 18.4572093,31.815 L18.4539535,31.815 Z" id="Shape"></path>
                    <path d="M28.2930233,44.3153571 C30.187907,44.1096429 35.2962791,40.1367857 35.2962791,40.1367857 C35.2962791,40.1367857 29.435814,37.3532143 27.5376744,37.5653571 C26.2635302,37.6343893 25.1324336,38.3931501 24.5981961,39.5372145 C24.0639586,40.6812789 24.2141217,42.0231772 24.9884381,43.0245214 C25.7627544,44.0258657 27.0343423,44.5225728 28.2930233,44.3153571 L28.2930233,44.3153571 Z" id="Shape"></path>
                    <path d="M6.10790698,1.09928571 C7.41023256,2.47821429 8.62465116,8.79107143 8.62465116,8.79107143 C8.62465116,8.79107143 2.34418605,7.10357143 1.05162791,5.72464286 C-0.179360956,4.33847337 -0.0689058351,2.23676097 1.30078179,0.983805124 C2.67046942,-0.269150727 4.80156842,-0.217955769 6.10790698,1.09928571 L6.10790698,1.09928571 Z" id="Shape"></path>
                    <path d="M17.4544186,4.93392857 C17.78,6.78535714 15.3316279,12.7382143 15.3316279,12.7382143 C15.3316279,12.7382143 10.9883721,7.95214286 10.6627907,6.10071429 C10.417582,4.88841098 10.8574162,3.64015765 11.811796,2.83982695 C12.7661758,2.03949624 14.0850537,1.81291612 15.2571801,2.24791806 C16.4293065,2.68292 17.2703997,3.71111301 17.4544186,4.93392857 L17.4544186,4.93392857 Z" id="Shape"></path>
                    <path d="M29.5139535,18.1382143 C28.8627907,19.8996429 23.6893023,23.8178571 23.6893023,23.8178571 C23.6893023,23.8178571 22.3869767,17.5210714 23.0544186,15.7628571 C23.4592172,14.5901451 24.4774543,13.7271756 25.7129196,13.5097422 C26.9483848,13.2923089 28.205952,13.7547526 28.9962839,14.7171299 C29.7866157,15.6795072 29.9848893,16.9898228 29.5139535,18.1382143 L29.5139535,18.1382143 Z" id="Shape"></path>
                    <path d="M36.3544186,30.1692857 C36.0027907,32.0175 31.587907,36.7553571 31.587907,36.7553571 C31.587907,36.7553571 29.2274419,30.7671429 29.5823256,28.9221429 C29.8108924,27.727855 30.6674738,26.7446711 31.8294037,26.3429471 C32.9913336,25.941223 34.2820873,26.1819903 35.2154503,26.9745542 C36.1488133,27.7671181 36.5829856,28.9910693 36.3544186,30.1853571 L36.3544186,30.1692857 Z" id="Shape"></path>
                    <path d="M10.272093,17.8425 C12.1734884,17.8875 17.7767442,14.6282143 17.7767442,14.6282143 C17.7767442,14.6282143 12.3395349,11.0925 10.4348837,11.0475 C8.55710057,11.0401842 7.01866958,12.5177 6.9743315,14.3710294 C6.92999342,16.2243588 8.39605381,17.7719306 10.272093,17.8521429 L10.272093,17.8425 Z" id="Shape"></path>
                    <path d="M18.4539535,31.815 C20.2837209,31.2942857 24.64,26.5178571 24.64,26.5178571 C24.64,26.5178571 18.3823256,24.7532143 16.5525581,25.2739286 C14.765416,25.8262997 13.7516145,27.6859846 14.2689985,29.4628169 C14.7863825,31.2396491 16.6457666,32.2839165 18.4572093,31.815 L18.4539535,31.815 Z" id="Shape"></path>
                    <path d="M28.2930233,44.3153571 C30.187907,44.1096429 35.2962791,40.1367857 35.2962791,40.1367857 C35.2962791,40.1367857 29.435814,37.3532143 27.5376744,37.5653571 C26.2635302,37.6343893 25.1324336,38.3931501 24.5981961,39.5372145 C24.0639586,40.6812789 24.2141217,42.0231772 24.9884381,43.0245214 C25.7627544,44.0258657 27.0343423,44.5225728 28.2930233,44.3153571 L28.2930233,44.3153571 Z" id="Shape"></path>
                </g>
                <path d="M56,247.935772 C71.8400766,252.481528 91.1714355,249.714126 109.145073,250.036291 C111.605134,250.081395 114.210665,250.213482 116.185826,251.002788 C118.160987,251.792093 119.130787,253.064647 120.485275,254.153567 C125.521773,258.209631 135.843684,259.514401 144.86283,258.824967 C153.881976,258.135533 162.157608,255.857822 170.672457,254.124572 C185.387565,251.125211 202.210373,249.759229 216.725055,253.029209 C218.056915,253.328823 219.459893,253.67354 220.888733,253.554339 C224.069679,253.286942 225.016851,251.112324 227.244159,249.868765 C231.262366,247.613607 239.987339,248.235386 241.752376,245.277907 C242.78683,243.544656 240.407586,241.766302 237.814986,240.583955 C227.897158,236.057529 213.705743,235.310105 200.720113,236.009204 C187.734482,236.708304 174.971906,238.631632 161.928088,238.641297 C145.667765,238.641297 129.956995,235.687039 113.855072,234.472475 C102.702365,233.634845 90.5313671,233.737938 80.0736838,236.212169 C68.7367147,238.882921 66.2378618,244.884865 56,247.935772 Z" id="Shape" fill="#5C82F7" opacity="0.1"></path>
                <path d="M13,259.371061 C17.5244638,262.095738 23.0184556,260.438927 28.1440268,260.629849 C28.8453187,260.655737 29.5886235,260.736635 30.1509497,261.205849 C30.7132759,261.675063 30.9912073,262.441985 31.3757867,263.095649 C32.8106881,265.525853 35.7515896,266.308955 38.3208387,265.894752 C40.8900878,265.48055 43.2492725,264.118212 45.6763242,263.076233 C49.877612,261.280276 54.6638484,260.461579 58.7972693,262.429041 C59.15148,262.655789 59.5664509,262.768699 59.9865569,262.752637 C60.8914497,262.590839 61.1629175,261.286748 61.7963425,260.542478 C62.9403855,259.19632 65.4288406,259.571691 65.9297634,257.788678 C66.2238535,256.749935 65.5451839,255.685305 64.8083427,254.97663 C61.9837845,252.261662 57.9376212,251.815099 54.2372561,252.232538 C50.536891,252.649977 46.9011612,253.782562 43.1814055,253.782562 C38.5502936,253.782562 34.0743062,252.012493 29.4852072,251.284402 C26.3051554,250.779593 22.8374771,250.844312 19.8577945,252.326381 C16.6292663,253.94436 15.9182792,257.542745 13,259.371061 Z" id="Shape" fill="#5C82F7" opacity="0.1"></path>
                <path d="M226.125596,12.0000187 L74.8744044,12.0000187 C71.2001625,11.9940014 67.6740531,13.44058 65.0720029,16.0214322 C62.4699526,18.6022845 61.0051761,22.1059329 61,25.7613932 L61,234.248323 C61.0161653,241.856725 67.2269011,248.012515 74.8744044,247.999981 L226.125596,247.999981 C229.799837,248.005998 233.325947,246.55942 235.927997,243.978567 C238.530047,241.397715 239.994824,237.894067 240,234.238606 L240,25.7613932 C239.994824,22.1059329 238.530047,18.6022845 235.927997,16.0214322 C233.325947,13.44058 229.799837,11.9940014 226.125596,12.0000187 Z" id="Shape" fill="url(#linearGradient-1)"></path>
                <path d="M83,14 L217,14 C228.045695,14 237,22.954305 237,34 L237,225 C237,236.045695 228.045695,245 217,245 L83,245 C71.954305,245 63,236.045695 63,225 L63,34 C63,22.954305 71.954305,14 83,14 Z" id="Rectangle-path" fill="#535461"></path>
                <polygon id="Rectangle-path" fill="#F6F7F9" points="72 36 228 36 228 223 72 223"></polygon>
                <circle id="Oval" fill="#F6F7F9" cx="149" cy="24" r="2"></circle>
                <circle id="Oval" fill="#F6F7F9" cx="149.5" cy="233.5" r="6.5"></circle>
                <g id="Group" opacity="0.2" transform="translate(72.000000, 36.000000)" fill="#5C82F7">
                    <polygon id="Rectangle-path" points="0.019378882 0.293333333 155.754534 0.293333333 155.754534 9.90333333 0.019378882 9.90333333"></polygon>
                </g>
                <circle id="Oval" fill="#F6F7F9" cx="77" cy="40" r="2"></circle>
                <circle id="Oval" fill="#F6F7F9" cx="82" cy="40" r="2"></circle>
                <circle id="Oval" fill="#F6F7F9" cx="87" cy="40" r="2"></circle>
                <polygon id="Rectangle-path" fill="#DCE0ED" points="76 92 222 92 222 93 76 93"></polygon>
                <polygon id="Rectangle-path" fill="#DCE0ED" points="76 102 222 102 222 103 76 103"></polygon>
                <polygon id="Rectangle-path" fill="#DCE0ED" points="76 114 222 114 222 115 76 115"></polygon>
                <polygon id="Rectangle-path" fill="#DCE0ED" points="76 124 222 124 222 125 76 125"></polygon>
                <polygon id="Rectangle-path" fill="#DCE0ED" points="76 136 222 136 222 137 76 137"></polygon>
                <g id="Group" opacity="0.2" transform="translate(76.000000, 98.000000)" fill="#5C82F7">
                    <polygon id="Shape" points="145.828426 38.922 0.2945898 38.922 0.2945898 16.6595 13.6417738 23.2635 27.455122 25.14525 39.575388 21.476 54.1980488 10.09125 61.553082 5.82725 66.9301552 4.78725 72.0741463 5.0635 80.533082 9.25925 92.0350333 16.614 101.060488 17.7775 108.214812 15.301 123.384568 2.83075 131.128071 0.0585 139.230909 1.31625 145.828426 5.1415"></polygon>
                </g>
                <path d="M101.417674,122.998859 C88.2855873,122.998859 76.1524347,115.004295 76,114.900972 L76.3632486,114.364988 C76.5513595,114.490912 95.2262307,126.789497 111.095655,120.628903 C116.881687,118.368728 121.000666,114.888057 124.986671,111.50748 C129.147814,107.978377 133.07544,104.646232 138.433357,103.199719 C144.576151,101.543333 151.289764,103.041507 156.391461,107.216374 C160.753688,110.784223 169.439222,116.512155 178.614493,114.800879 C183.291319,113.925868 187.231918,110.525918 191.406033,106.92578 C199.407233,100.022558 207.684112,92.8836309 222,103.125456 L221.620535,103.648525 C207.719789,93.7037518 199.643993,100.67478 191.830905,107.413333 C187.58868,111.071589 183.583215,114.516742 178.734494,115.433728 C169.296517,117.196665 160.429358,111.352496 155.979563,107.713613 C151.04003,103.674356 144.546961,102.224615 138.602008,103.822882 C133.386796,105.230649 129.520793,108.51759 125.405056,111.998261 C121.380132,115.414355 117.218989,118.943458 111.332415,121.229464 C108.167276,122.429713 104.804512,123.029835 101.417674,122.998859 Z" id="Shape" fill="#5C82F7"></path>
                <circle id="Oval" fill="#5C82F7" cx="146.5" cy="102.5" r="3.5"></circle>
                <g id="Group" opacity="0.2" transform="translate(147.000000, 55.000000)" fill="#5C82F7">
                    <path d="M46.2544828,0.112 L0.745517241,0.112 C0.337359767,0.112 0.00648275862,0.438653047 0.00648275862,0.8416 L0.00648275862,31.2256 C0.00687372062,31.5245259 0.191925931,31.7929756 0.473453307,31.9030203 C0.754980683,32.013065 1.07602209,31.9424394 1.28358621,31.7248 L9.16986207,23.4208 C9.3091227,23.2736992 9.50398157,23.1902611 9.70793103,23.1904 L46.2544828,23.1904 C46.6626402,23.1904 46.9935172,22.863747 46.9935172,22.4608 L46.9935172,0.8352 C46.989959,0.434754634 46.6601219,0.111984593 46.2544828,0.112 Z" id="Shape"></path>
                </g>
                <polygon id="Rectangle-path" fill="#F6F7F9" points="158 61 184 61 184 64 158 64"></polygon>
                <polygon id="Rectangle-path" fill="#F6F7F9" points="158 68 165 68 165 71 158 71"></polygon>
                <g id="Group" opacity="0.2" transform="translate(89.000000, 159.000000)" fill="#5C82F7">
                    <polygon id="Rectangle-path" points="0.115652174 0.116363636 6.79608696 0.116363636 6.79608696 3.75272727 0.115652174 3.75272727"></polygon>
                </g>
                <g id="Group" opacity="0.2" transform="translate(89.000000, 166.000000)" fill="#5C82F7">
                    <polygon id="Rectangle-path" points="0.115652174 0.236363636 6.79608696 0.236363636 6.79608696 3.87272727 0.115652174 3.87272727"></polygon>
                </g>
                <g id="Group" opacity="0.2" transform="translate(89.000000, 172.000000)" fill="#5C82F7">
                    <polygon id="Rectangle-path" points="0.115652174 0.356363636 6.79608696 0.356363636 6.79608696 3.99272727 0.115652174 3.99272727"></polygon>
                </g>
                <g id="Group" opacity="0.2" transform="translate(89.000000, 178.000000)" fill="#5C82F7">
                    <polygon id="Rectangle-path" points="0.115652174 0.116363636 6.79608696 0.116363636 6.79608696 3.75272727 0.115652174 3.75272727"></polygon>
                </g>
                <g id="Group" opacity="0.2" transform="translate(89.000000, 184.000000)" fill="#5C82F7">
                    <polygon id="Rectangle-path" points="0.115652174 0.236363636 6.79608696 0.236363636 6.79608696 3.87272727 0.115652174 3.87272727"></polygon>
                </g>
                <g id="Group" opacity="0.2" transform="translate(89.000000, 191.000000)" fill="#5C82F7">
                    <polygon id="Rectangle-path" points="0.115652174 0.356363636 6.79608696 0.356363636 6.79608696 3.99272727 0.115652174 3.99272727"></polygon>
                </g>
                <g id="Group" opacity="0.2" transform="translate(89.000000, 197.000000)" fill="#5C82F7">
                    <polygon id="Rectangle-path" points="0.115652174 0.116363636 6.79608696 0.116363636 6.79608696 3.75272727 0.115652174 3.75272727"></polygon>
                </g>
                <g id="Group" opacity="0.2" transform="translate(89.000000, 203.000000)" fill="#5C82F7">
                    <polygon id="Rectangle-path" points="0.115652174 0.236363636 6.79608696 0.236363636 6.79608696 3.87272727 0.115652174 3.87272727"></polygon>
                </g>
                <g id="Group" opacity="0.2" transform="translate(102.000000, 207.000000)" fill="#5C82F7">
                    <polygon id="Rectangle-path" points="0.216086957 0.236363636 6.89652174 0.236363636 6.89652174 3.87272727 0.216086957 3.87272727"></polygon>
                </g>
                <g id="Group" opacity="0.2" transform="translate(115.000000, 207.000000)" fill="#5C82F7">
                    <polygon id="Rectangle-path" points="0.115652174 0.236363636 6.79608696 0.236363636 6.79608696 3.87272727 0.115652174 3.87272727"></polygon>
                </g>
                <g id="Group" opacity="0.2" transform="translate(127.000000, 207.000000)" fill="#5C82F7">
                    <polygon id="Rectangle-path" points="0.0159090909 0.236363636 7 0.236363636 7 3.87272727 0.0159090909 3.87272727"></polygon>
                </g>
                <g id="Group" opacity="0.2" transform="translate(139.000000, 207.000000)" fill="#5C82F7">
                    <polygon id="Rectangle-path" points="0.216086957 0.236363636 6.89652174 0.236363636 6.89652174 3.87272727 0.216086957 3.87272727"></polygon>
                </g>
                <g id="Group" opacity="0.2" transform="translate(152.000000, 207.000000)" fill="#5C82F7">
                    <polygon id="Rectangle-path" points="0.115652174 0.236363636 6.79608696 0.236363636 6.79608696 3.87272727 0.115652174 3.87272727"></polygon>
                </g>
                <g id="Group" opacity="0.2" transform="translate(165.000000, 207.000000)" fill="#5C82F7">
                    <polygon id="Rectangle-path" points="0.0159090909 0.236363636 7 0.236363636 7 3.87272727 0.0159090909 3.87272727"></polygon>
                </g>
                <g id="Group" opacity="0.2" transform="translate(177.000000, 207.000000)" fill="#5C82F7">
                    <polygon id="Rectangle-path" points="0.216086957 0.236363636 6.89652174 0.236363636 6.89652174 3.87272727 0.216086957 3.87272727"></polygon>
                </g>
                <g id="Group" opacity="0.2" transform="translate(190.000000, 207.000000)" fill="#5C82F7">
                    <polygon id="Rectangle-path" points="0.115652174 0.236363636 6.79608696 0.236363636 6.79608696 3.87272727 0.115652174 3.87272727"></polygon>
                </g>
                <g id="Group" opacity="0.2" transform="translate(203.000000, 207.000000)" fill="#5C82F7">
                    <polygon id="Rectangle-path" points="0.0152173913 0.236363636 6.69565217 0.236363636 6.69565217 3.87272727 0.0152173913 3.87272727"></polygon>
                </g>
                <polygon id="Rectangle-path" fill="#F6F7F9" points="173 68 184 68 184 71 173 71"></polygon>
                <polygon id="Rectangle-path" fill="#5C82F7" points="102 183 109 183 109 203 102 203"></polygon>
                <polygon id="Rectangle-path" fill="#5C82F7" points="115 174 122 174 122 204 115 204"></polygon>
                <polygon id="Rectangle-path" fill="#5C82F7" points="127 166 134 166 134 204 127 204"></polygon>
                <polygon id="Rectangle-path" fill="#5C82F7" points="140 171 147 171 147 205 140 205"></polygon>
                <polygon id="Rectangle-path" fill="#5C82F7" points="152 163 159 163 159 204 152 204"></polygon>
                <g id="Group" opacity="0.2" transform="translate(165.000000, 178.000000)" fill="#5C82F7">
                    <polygon id="Rectangle-path" points="0.0159090909 0.106666667 7 0.106666667 7 25.8833333 0.0159090909 25.8833333"></polygon>
                </g>
                <g id="Group" opacity="0.2" transform="translate(177.000000, 178.000000)" fill="#5C82F7">
                    <polygon id="Rectangle-path" points="0.216086957 0.106666667 6.89652174 0.106666667 6.89652174 25.8833333 0.216086957 25.8833333"></polygon>
                </g>
                <g id="Group" opacity="0.2" transform="translate(190.000000, 178.000000)" fill="#5C82F7">
                    <polygon id="Rectangle-path" points="0.115652174 0.106666667 6.79608696 0.106666667 6.79608696 25.8833333 0.115652174 25.8833333"></polygon>
                </g>
                <g id="Group" opacity="0.2" transform="translate(203.000000, 178.000000)" fill="#5C82F7">
                    <polygon id="Rectangle-path" points="0.0152173913 0.106666667 6.69565217 0.106666667 6.69565217 25.8833333 0.0152173913 25.8833333"></polygon>
                </g>
                <path d="M44.9579,238 C44.9579,238 46.7564843,240.245755 44.1257681,243.630027 C41.4950519,247.014298 39.3262672,249.885612 40.1944363,252 C40.1944363,252 44.1618053,245.700626 47.401878,245.613047 C50.6419506,245.525469 48.5124792,241.787757 44.9579,238 Z" id="Shape" fill="#5C82F7"></path>
                <path d="M44.9042984,238 C45.0637314,238.216088 45.1887691,238.453027 45.2754345,238.703282 C48.4632284,242.23532 50.1631642,245.532931 47.0979778,245.617325 C44.2448691,245.692342 40.8019191,250.509042 40,251.724939 C40.027038,251.818112 40.0591125,251.909919 40.0960977,252 C40.0960977,252 44.1090067,245.704845 47.386271,245.617325 C50.6635352,245.529806 48.4996793,241.78522 44.9042984,238 Z" id="Shape" fill="#000000" opacity="0.1"></path>
                <path d="M48,241.521242 C48,242.33811 47.7795276,243 47.503937,243 C47.2283465,243 47,242.33811 47,241.521242 C47,240.704373 47.2834646,241.091821 47.5590551,241.091821 C47.8346457,241.091821 48,240.710831 48,241.521242 Z" id="Shape" fill="#FFD037"></path>
                <path d="M48.5260101,251.503134 C47.7457677,251.855265 47.0639343,252.067708 47.004186,251.980403 C46.9444377,251.893098 47.5313768,251.532236 48.3116192,251.180105 C49.0918616,250.827974 48.7825763,251.084069 48.8423246,251.180105 C48.9020729,251.276141 49.3062526,251.151003 48.5260101,251.503134 Z" id="Shape" fill="#FFD037"></path>
                <path d="M35.0416769,238 C35.0416769,238 33.2429391,240.245755 35.8738798,243.630027 C38.5048205,247.014298 40.6737903,249.885612 39.8055471,252 C39.8055471,252 35.8378395,245.700626 32.5974904,245.613047 C29.3571413,245.525469 31.4900708,241.787757 35.0416769,238 Z" id="Shape" fill="#5C82F7"></path>
                <path d="M35.0952794,238 C34.9372897,238.216899 34.8123491,238.453635 34.7241113,238.703282 C31.5360429,242.23532 29.8359607,245.532931 32.9014111,245.617325 C35.7580794,245.692342 39.1980119,250.509042 40,251.724939 C39.9744405,251.818527 39.9423349,251.910415 39.903894,252 C39.903894,252 35.8906395,245.704845 32.613093,245.617325 C29.3355466,245.529806 31.5029029,241.78522 35.0952794,238 Z" id="Shape" fill="#000000" opacity="0.1"></path>
                <path d="M32,241.521242 C32,242.33811 32.2204724,243 32.496063,243 C32.7716535,243 33,242.33811 33,241.521242 C33,240.704373 32.7165354,241.091821 32.4409449,241.091821 C32.1653543,241.091821 32,240.710831 32,241.521242 Z" id="Shape" fill="#FFD037"></path>
                <path d="M30.4760689,242.503134 C31.257047,242.855265 31.9360054,243.067708 31.9958101,242.980403 C32.0556147,242.893098 31.4681222,242.532236 30.6871441,242.180105 C29.906166,241.827974 30.2157429,242.084069 30.1559382,242.180105 C30.0961336,242.276141 29.6950908,242.151003 30.4760689,242.503134 Z" id="Shape" fill="#FFD037"></path>
                <path d="M32,252.573359 C32,252.573359 36.8371502,252.427616 38.2983727,251.404314 C39.7595951,250.381011 45.7367508,249.162351 46.0989073,250.802736 C46.4610637,252.443121 53.3672293,258.955045 47.9065402,258.998458 C42.4458511,259.041871 35.2184684,258.161211 33.7635444,257.286752 C32.3086203,256.412294 32,252.573359 32,252.573359 Z" id="Shape" fill="#A8A8A8"></path>
                <path d="M48.0048165,258.383608 C42.5428303,258.430894 35.3137309,257.471664 33.8584613,256.519189 C32.7496844,255.796389 32.3086936,253.199038 32.1606467,252 L32,252 C32,252 32.3149934,256.18481 33.7608133,257.133907 C35.2066332,258.083004 42.4451823,259.045612 47.9071685,258.998326 C49.4821357,258.998326 50.0302242,258.383608 49.9987249,257.49193 C49.7813794,258.035718 49.179742,258.373476 48.0048165,258.383608 Z" id="Shape" fill="#000000" opacity="0.2"></path>
            </g>
        </g>
    </g>
</svg>